<?xml version="1.0" encoding="UTF-8" standalone="no"?>
<svg width="17px" height="17px" viewBox="0 0 17 17" version="1.1" xmlns="http://www.w3.org/2000/svg" xmlns:xlink="http://www.w3.org/1999/xlink">
    <!-- Generator: sketchtool 3.8.3 (29802) - http://www.bohemiancoding.com/sketch -->
    <title>8C7381E2-18E8-4F65-9B22-A3530777B2AF</title>
    <desc>Created with sketchtool.</desc>
    <defs></defs>
    <g id="Page-1" stroke="none" stroke-width="1" fill="none" fill-rule="evenodd">
        <g id="stylebook-forms-elements" transform="translate(-272.000000, -1342.000000)" fill="#5D6071">
            <g id="Icons-/-icon-calendar" transform="translate(272.000000, 1342.000000)">
                <path d="M15.8347917,0.375416667 L0.726041667,0.375416667 C0.371875,0.375416667 0.095625,0.65875 0.095625,1.00583333 L0.095625,16.1145833 C0.095625,16.4616667 0.371875,16.745 0.726041667,16.745 L15.8347917,16.745 C16.181875,16.745 16.4652083,16.4616667 16.4652083,16.1145833 L16.4652083,1.00583333 C16.4652083,0.65875 16.181875,0.375416667 15.8347917,0.375416667 L15.8347917,0.375416667 Z M1.35645833,15.4841667 L15.204375,15.4841667 L15.204375,5.3125 L1.35645833,5.3125 L1.35645833,15.4841667 Z M15.204375,4.55458333 L1.35645833,4.55458333 L1.35645833,1.63625 L2.58895833,1.63625 L2.58895833,2.57125 C2.58895833,2.92541667 2.87229167,3.20166667 3.22645833,3.20166667 C3.56645833,3.20166667 3.84979167,2.92541667 3.84979167,2.57125 L3.84979167,1.63625 L5.96770833,1.63625 L5.96770833,2.57125 C5.96770833,2.92541667 6.25104167,3.20166667 6.59104167,3.20166667 C6.94520833,3.20166667 7.22145833,2.92541667 7.22145833,2.57125 L7.22145833,1.63625 L9.339375,1.63625 L9.339375,2.57125 C9.339375,2.92541667 9.615625,3.20166667 9.96979167,3.20166667 C10.316875,3.20166667 10.593125,2.92541667 10.593125,2.57125 L10.593125,1.63625 L12.7039583,1.63625 L12.7039583,2.57125 C12.7039583,2.92541667 12.9872917,3.20166667 13.334375,3.20166667 C13.6814583,3.20166667 13.9647917,2.92541667 13.9647917,2.57125 L13.9647917,1.63625 L15.204375,1.63625 L15.204375,4.55458333 Z M3.16979167,11.1775 C3.36104167,11.3758333 3.623125,11.49625 3.920625,11.49625 C4.218125,11.49625 4.48020833,11.3758333 4.67854167,11.1775 C4.86979167,10.98625 4.99020833,10.7170833 4.99020833,10.4195833 C4.99020833,10.1291667 4.86979167,9.86 4.67854167,9.66166667 C4.48020833,9.47041667 4.218125,9.35 3.920625,9.35 C3.623125,9.35 3.36104167,9.47041667 3.16979167,9.66166667 L3.16270833,9.66166667 C2.964375,9.86 2.85104167,10.1291667 2.85104167,10.4195833 C2.85104167,10.7170833 2.964375,10.98625 3.16270833,11.1775 L3.16979167,11.1775 Z M3.69395833,10.2 L3.70104167,10.1929167 C3.750625,10.1433333 3.835625,10.1079167 3.920625,10.1079167 C4.005625,10.1079167 4.08354167,10.1433333 4.14729167,10.1929167 C4.20395833,10.2566667 4.239375,10.3345833 4.239375,10.4195833 C4.239375,10.5116667 4.20395833,10.5895833 4.14729167,10.64625 C4.08354167,10.7029167 4.005625,10.7383333 3.920625,10.7383333 C3.835625,10.7383333 3.750625,10.7029167 3.70104167,10.64625 L3.69395833,10.64625 C3.63729167,10.5895833 3.601875,10.5116667 3.601875,10.4195833 C3.601875,10.3345833 3.63729167,10.2566667 3.69395833,10.2 L3.69395833,10.2 Z M11.8822917,11.1775 C12.080625,11.3758333 12.3427083,11.49625 12.6402083,11.49625 C12.930625,11.49625 13.1997917,11.3758333 13.3910417,11.1775 C13.589375,10.98625 13.7097917,10.7170833 13.7097917,10.4195833 C13.7097917,10.1291667 13.589375,9.86 13.3910417,9.66166667 C13.1997917,9.47041667 12.930625,9.35 12.6402083,9.35 C12.3427083,9.35 12.080625,9.47041667 11.8822917,9.66166667 L11.8752083,9.66166667 C11.6839583,9.86 11.5635417,10.1291667 11.5635417,10.4195833 C11.5635417,10.7170833 11.6839583,10.98625 11.8752083,11.1775 L11.8822917,11.1775 Z M12.4135417,10.2 C12.4702083,10.1433333 12.548125,10.1079167 12.6402083,10.1079167 C12.7252083,10.1079167 12.803125,10.1433333 12.8597917,10.1929167 C12.9235417,10.2566667 12.951875,10.3345833 12.951875,10.4195833 C12.951875,10.5116667 12.9235417,10.5895833 12.8597917,10.64625 C12.803125,10.7029167 12.7252083,10.7383333 12.6402083,10.7383333 C12.548125,10.7383333 12.4702083,10.7029167 12.4135417,10.64625 C12.356875,10.5895833 12.3214583,10.5116667 12.3214583,10.4195833 C12.3214583,10.3345833 12.356875,10.2566667 12.4135417,10.2 L12.4135417,10.2 Z M3.16979167,14.0320833 C3.36104167,14.2233333 3.623125,14.34375 3.920625,14.34375 C4.218125,14.34375 4.48020833,14.2233333 4.67854167,14.0320833 C4.86979167,13.8408333 4.99020833,13.5716667 4.99020833,13.2741667 C4.99020833,12.9766667 4.86979167,12.7145833 4.67854167,12.51625 C4.48020833,12.325 4.218125,12.1975 3.920625,12.1975 C3.623125,12.1975 3.36104167,12.325 3.16979167,12.51625 L3.16270833,12.51625 C2.964375,12.7145833 2.85104167,12.98375 2.85104167,13.2741667 C2.85104167,13.5716667 2.964375,13.8408333 3.16270833,14.0320833 L3.16979167,14.0320833 Z M3.69395833,13.0545833 L3.70104167,13.0475 C3.750625,12.9908333 3.835625,12.9554167 3.920625,12.9554167 C4.005625,12.9554167 4.08354167,12.9908333 4.14729167,13.0475 C4.20395833,13.1041667 4.239375,13.1891667 4.239375,13.2741667 C4.239375,13.3591667 4.20395833,13.4441667 4.14729167,13.5008333 C4.08354167,13.5575 4.005625,13.5858333 3.920625,13.5858333 C3.835625,13.5858333 3.750625,13.5575 3.70104167,13.5008333 L3.69395833,13.5008333 C3.63729167,13.4441667 3.601875,13.3591667 3.601875,13.2741667 C3.601875,13.1891667 3.63729167,13.1041667 3.69395833,13.0545833 L3.69395833,13.0545833 Z M6.066875,14.0320833 C6.26520833,14.2233333 6.534375,14.34375 6.82479167,14.34375 C7.11520833,14.34375 7.39145833,14.2233333 7.58270833,14.0320833 C7.78104167,13.8408333 7.90145833,13.5716667 7.90145833,13.2741667 C7.90145833,12.9766667 7.78104167,12.7145833 7.58270833,12.51625 C7.39145833,12.325 7.11520833,12.1975 6.82479167,12.1975 C6.534375,12.1975 6.26520833,12.325 6.066875,12.51625 C5.875625,12.7145833 5.75520833,12.98375 5.75520833,13.2741667 C5.75520833,13.5716667 5.875625,13.8408333 6.066875,14.0320833 L6.066875,14.0320833 Z M6.598125,13.0545833 L6.60520833,13.0475 C6.65479167,12.9908333 6.73979167,12.9554167 6.82479167,12.9554167 C6.916875,12.9554167 6.99479167,12.9908333 7.05145833,13.0475 C7.10104167,13.1041667 7.14354167,13.1891667 7.14354167,13.2741667 C7.14354167,13.3591667 7.10104167,13.4441667 7.05145833,13.5008333 C6.99479167,13.5575 6.916875,13.5858333 6.82479167,13.5858333 C6.73979167,13.5858333 6.65479167,13.5575 6.60520833,13.5008333 L6.598125,13.5008333 C6.54854167,13.4441667 6.50604167,13.3591667 6.50604167,13.2741667 C6.50604167,13.1891667 6.54854167,13.1041667 6.598125,13.0545833 L6.598125,13.0545833 Z M11.8822917,8.33 C12.080625,8.52125 12.3427083,8.64166667 12.6402083,8.64166667 C12.930625,8.64166667 13.1997917,8.52125 13.3910417,8.33 C13.5964583,8.13166667 13.7097917,7.86958333 13.7097917,7.57208333 C13.7097917,7.27458333 13.589375,7.0125 13.3910417,6.81416667 C13.1997917,6.62291667 12.930625,6.5025 12.6402083,6.5025 C12.3427083,6.5025 12.080625,6.62291667 11.8822917,6.81416667 L11.8752083,6.81416667 C11.6839583,7.0125 11.5635417,7.27458333 11.5635417,7.57208333 C11.5635417,7.86958333 11.6839583,8.13166667 11.8752083,8.33 L11.8822917,8.33 Z M12.4135417,7.34541667 C12.4702083,7.28875 12.548125,7.25333333 12.6402083,7.25333333 C12.7252083,7.25333333 12.803125,7.28875 12.8597917,7.34541667 C12.9235417,7.40208333 12.951875,7.48 12.951875,7.57208333 C12.951875,7.65708333 12.9235417,7.74208333 12.8597917,7.79875 C12.803125,7.85541667 12.7252083,7.88375 12.6402083,7.88375 C12.548125,7.88375 12.4702083,7.85541667 12.4135417,7.79875 C12.356875,7.74208333 12.3214583,7.65708333 12.3214583,7.57208333 C12.3214583,7.48 12.356875,7.40208333 12.4135417,7.34541667 L12.4135417,7.34541667 Z M6.066875,8.33 C6.26520833,8.52125 6.534375,8.64166667 6.82479167,8.64166667 C7.12229167,8.64166667 7.39145833,8.52125 7.58270833,8.33 C7.78104167,8.13166667 7.90145833,7.86958333 7.90145833,7.57208333 C7.90145833,7.27458333 7.78104167,7.0125 7.58270833,6.81416667 C7.39145833,6.62291667 7.11520833,6.5025 6.82479167,6.5025 C6.534375,6.5025 6.26520833,6.62291667 6.066875,6.81416667 C5.875625,7.0125 5.75520833,7.27458333 5.75520833,7.57208333 C5.75520833,7.86958333 5.875625,8.13166667 6.066875,8.33 L6.066875,8.33 Z M6.598125,7.34541667 L6.60520833,7.34541667 C6.65479167,7.28875 6.73979167,7.25333333 6.82479167,7.25333333 C6.916875,7.25333333 6.99479167,7.28875 7.05145833,7.34541667 C7.10104167,7.40208333 7.14354167,7.48 7.14354167,7.57208333 C7.14354167,7.65708333 7.10104167,7.74208333 7.05145833,7.79875 C6.99479167,7.85541667 6.90979167,7.88375 6.82479167,7.88375 C6.73979167,7.88375 6.65479167,7.85541667 6.598125,7.79875 C6.54854167,7.74208333 6.50604167,7.65708333 6.50604167,7.57208333 C6.50604167,7.48 6.54854167,7.40208333 6.598125,7.34541667 L6.598125,7.34541667 Z M8.978125,14.0320833 C9.169375,14.2233333 9.43854167,14.34375 9.73604167,14.34375 C10.0264583,14.34375 10.2885417,14.2233333 10.486875,14.0320833 L10.4939583,14.0320833 C10.6852083,13.8408333 10.805625,13.5716667 10.805625,13.2741667 C10.805625,12.9766667 10.6852083,12.7145833 10.4939583,12.51625 L10.486875,12.51625 C10.2885417,12.325 10.0264583,12.1975 9.73604167,12.1975 C9.43854167,12.1975 9.169375,12.325 8.978125,12.51625 C8.77979167,12.7145833 8.659375,12.98375 8.659375,13.2741667 C8.659375,13.5716667 8.77979167,13.8408333 8.978125,14.0320833 L8.978125,14.0320833 Z M9.509375,13.0545833 C9.56604167,12.9908333 9.64395833,12.9554167 9.73604167,12.9554167 C9.82104167,12.9554167 9.90604167,12.9908333 9.955625,13.0475 L9.96270833,13.0545833 C10.0122917,13.1041667 10.0547917,13.1891667 10.0547917,13.2741667 C10.0547917,13.3591667 10.0122917,13.4441667 9.96270833,13.5008333 L9.955625,13.5008333 C9.90604167,13.5575 9.82104167,13.5858333 9.73604167,13.5858333 C9.64395833,13.5858333 9.56604167,13.5575 9.509375,13.5008333 C9.445625,13.4441667 9.41729167,13.3591667 9.41729167,13.2741667 C9.41729167,13.1891667 9.445625,13.1041667 9.509375,13.0545833 L9.509375,13.0545833 Z M8.978125,11.1775 C9.169375,11.3758333 9.43854167,11.49625 9.73604167,11.49625 C10.0264583,11.49625 10.2885417,11.3758333 10.486875,11.1775 L10.4939583,11.1775 C10.6852083,10.98625 10.805625,10.7170833 10.805625,10.4195833 C10.805625,10.1291667 10.6852083,9.86 10.4939583,9.66166667 L10.486875,9.66166667 C10.2885417,9.47041667 10.0264583,9.35 9.73604167,9.35 C9.43854167,9.35 9.169375,9.47041667 8.978125,9.66166667 C8.77979167,9.86 8.659375,10.1291667 8.659375,10.4195833 C8.659375,10.7170833 8.77979167,10.98625 8.978125,11.1775 L8.978125,11.1775 Z M9.509375,10.2 C9.56604167,10.1433333 9.64395833,10.1079167 9.73604167,10.1079167 C9.82104167,10.1079167 9.90604167,10.1433333 9.955625,10.1929167 L9.96270833,10.2 C10.0122917,10.2566667 10.0547917,10.3345833 10.0547917,10.4195833 C10.0547917,10.5116667 10.0122917,10.5895833 9.96270833,10.64625 L9.955625,10.64625 C9.90604167,10.7029167 9.82104167,10.7383333 9.73604167,10.7383333 C9.64395833,10.7383333 9.56604167,10.7029167 9.509375,10.64625 C9.445625,10.5895833 9.41729167,10.5116667 9.41729167,10.4195833 C9.41729167,10.3345833 9.445625,10.2566667 9.509375,10.2 L9.509375,10.2 Z M8.978125,8.33 C9.169375,8.52125 9.43854167,8.64166667 9.73604167,8.64166667 C10.0264583,8.64166667 10.295625,8.52125 10.4939583,8.33 C10.6852083,8.13166667 10.805625,7.86958333 10.805625,7.57208333 C10.805625,7.27458333 10.6852083,7.0125 10.4939583,6.81416667 L10.486875,6.81416667 C10.2885417,6.62291667 10.0264583,6.5025 9.73604167,6.5025 C9.43854167,6.5025 9.169375,6.62291667 8.978125,6.81416667 C8.77979167,7.0125 8.659375,7.27458333 8.659375,7.57208333 C8.659375,7.86958333 8.77979167,8.13166667 8.978125,8.33 L8.978125,8.33 Z M9.509375,7.34541667 C9.56604167,7.28875 9.64395833,7.25333333 9.73604167,7.25333333 C9.82104167,7.25333333 9.90604167,7.28875 9.955625,7.34541667 L9.96270833,7.34541667 C10.0122917,7.40208333 10.0547917,7.48 10.0547917,7.57208333 C10.0547917,7.65708333 10.0122917,7.74208333 9.955625,7.79875 C9.90604167,7.85541667 9.82104167,7.88375 9.73604167,7.88375 C9.64395833,7.88375 9.56604167,7.85541667 9.509375,7.79875 C9.445625,7.74208333 9.41729167,7.65708333 9.41729167,7.57208333 C9.41729167,7.48 9.445625,7.40208333 9.509375,7.34541667 L9.509375,7.34541667 Z M6.066875,11.1775 C6.26520833,11.3758333 6.534375,11.49625 6.82479167,11.49625 C7.11520833,11.49625 7.39145833,11.3758333 7.58270833,11.1775 C7.78104167,10.98625 7.90145833,10.7170833 7.90145833,10.4195833 C7.90145833,10.1291667 7.78104167,9.86 7.58270833,9.66166667 C7.39145833,9.47041667 7.11520833,9.35 6.82479167,9.35 C6.534375,9.35 6.26520833,9.47041667 6.066875,9.66166667 C5.875625,9.86 5.75520833,10.1291667 5.75520833,10.4195833 C5.75520833,10.7170833 5.875625,10.98625 6.066875,11.1775 L6.066875,11.1775 Z M6.598125,10.2 L6.60520833,10.1929167 C6.65479167,10.1433333 6.73979167,10.1079167 6.82479167,10.1079167 C6.916875,10.1079167 6.99479167,10.1433333 7.05145833,10.1929167 C7.10104167,10.2566667 7.14354167,10.3345833 7.14354167,10.4195833 C7.14354167,10.5116667 7.10104167,10.5895833 7.05145833,10.64625 C6.99479167,10.7029167 6.916875,10.7383333 6.82479167,10.7383333 C6.73979167,10.7383333 6.65479167,10.7029167 6.60520833,10.64625 L6.598125,10.64625 C6.54854167,10.5895833 6.50604167,10.5116667 6.50604167,10.4195833 C6.50604167,10.3345833 6.54854167,10.2566667 6.598125,10.2 L6.598125,10.2 Z" id="Fill-1637"></path>
            </g>
        </g>
    </g>
</svg>