<svg width="1066" height="1024" xmlns="http://www.w3.org/2000/svg">
 <title></title>
 <g id="icomoon-ignore">
 </g>
 <path stroke="null" fill="#ffcf00" stroke-width="2" id="svg_6" d="m390.450756,364.718487l104.205361,-322.539713c4.059294,-11.728671 13.533713,-21.652931 25.712225,-25.712225c21.201197,-6.766541 43.757596,4.511027 50.522875,25.712225l104.205361,322.539713l336.072164,-0.902205c13.533713,-0.901575 27.066164,4.961499 35.186013,16.690801c13.081348,18.04474 9.022055,42.85539 -9.022055,55.936738l-274.27109,198.486463l105.106936,322.08798c3.609453,11.728671 2.255514,25.261753 -5.864335,36.087587c-12.630876,17.592376 -37.892629,21.652931 -55.486267,8.570321l-273.820619,-199.838509l-271.565105,198.033467c-10.375363,8.570952 -24.81065,12.179774 -38.343101,7.670008c-21.201828,-6.766541 -32.480027,-29.321677 -25.712856,-50.522875l105.107567,-322.08798l-274.27109,-198.486463c-10.375994,-7.217013 -16.240329,-19.397417 -16.240329,-32.480027c0,-22.104034 17.592376,-40.148143 39.246568,-40.148143l339.229884,0.901575l0.001893,0.001262z"/>
</svg>