<?xml version="1.0" encoding="UTF-8" standalone="no"?>
<svg width="18px" height="18px" viewBox="0 0 18 18" version="1.1" xmlns="http://www.w3.org/2000/svg" xmlns:xlink="http://www.w3.org/1999/xlink">
    <!-- Generator: sketchtool 3.8.3 (29802) - http://www.bohemiancoding.com/sketch -->
    <title>A95B98C7-9137-41C0-90D3-537DD35B359C</title>
    <desc>Created with sketchtool.</desc>
    <defs></defs>
    <g id="Page-1" stroke="none" stroke-width="1" fill="none" fill-rule="evenodd">
        <g id="stylebook-forms-elements" transform="translate(-152.000000, -1651.000000)" fill="#5D6071">
            <g id="Group-14" transform="translate(54.000000, 1642.000000)">
                <path d="M106.996106,9 C109.488533,9 111.739507,10.0125487 113.359585,11.6404154 L113.398529,11.6793596 C115.010818,13.3072263 116,15.5426222 116,18.0038944 C116,20.4885331 114.987451,22.7395067 113.359585,24.3673734 L113.32064,24.4063176 C111.700563,26.0108178 109.465167,27 106.996106,27 C104.519256,27 102.268282,25.9952402 100.632627,24.3673734 C99.0047598,22.7395067 98,20.4885331 98,18.0038944 C98,15.5192557 99.0047598,13.276071 100.632627,11.6404154 L100.640415,11.6404154 C102.268282,10.0125487 104.519256,9 106.996106,9 L106.996106,9 Z M110.929468,17.310688 L107.689312,17.310688 L107.689312,11.803981 C107.689312,11.422328 107.377759,11.1107746 106.996106,11.1107746 C106.614453,11.1107746 106.302899,11.422328 106.302899,11.803981 L106.302899,17.9883167 L106.302899,18.0038944 C106.302899,18.3855474 106.614453,18.6971008 106.996106,18.6971008 L110.929468,18.6971008 C111.311121,18.6971008 111.622674,18.3855474 111.622674,18.0038944 C111.622674,17.6222415 111.311121,17.310688 110.929468,17.310688 L110.929468,17.310688 Z M112.38598,12.6218087 C111.007356,11.2431848 109.099091,10.3864128 106.996106,10.3864128 C104.89312,10.3864128 102.992644,11.2431848 101.61402,12.6140199 C100.235396,13.9926439 99.3864128,15.9009087 99.3864128,18.0038944 C99.3864128,20.1068801 100.235396,22.0073561 101.61402,23.3859801 C102.992644,24.7646041 104.89312,25.621376 106.996106,25.621376 C109.083514,25.621376 110.98399,24.7801817 112.354825,23.4249243 L112.38598,23.3859801 C113.764604,22.0073561 114.613587,20.1068801 114.613587,18.0038944 C114.613587,15.9164864 113.772393,14.0237992 112.417135,12.6529641 L112.38598,12.6218087 Z" id="Fill-657"></path>
            </g>
        </g>
    </g>
</svg>