<?xml version="1.0" encoding="UTF-8" standalone="no"?>
<svg
   xmlns:dc="http://purl.org/dc/elements/1.1/"
   xmlns:cc="http://creativecommons.org/ns#"
   xmlns:rdf="http://www.w3.org/1999/02/22-rdf-syntax-ns#"
   xmlns:svg="http://www.w3.org/2000/svg"
   xmlns="http://www.w3.org/2000/svg"
   xmlns:sodipodi="http://sodipodi.sourceforge.net/DTD/sodipodi-0.dtd"
   xmlns:inkscape="http://www.inkscape.org/namespaces/inkscape"
   width="191.772pt"
   height="90.7085pt"
   viewBox="0 0 191.772 90.7085"
   version="1.2"
   id="svg105"
   sodipodi:docname="logo.svg"
   inkscape:version="0.92.0 unknown">
  <metadata
     id="metadata111">
    <rdf:RDF>
      <cc:Work
         rdf:about="">
        <dc:format>image/svg+xml</dc:format>
        <dc:type
           rdf:resource="http://purl.org/dc/dcmitype/StillImage" />
        <dc:title></dc:title>
      </cc:Work>
    </rdf:RDF>
  </metadata>
  <defs
     id="defs109" />
  <sodipodi:namedview
     pagecolor="#ffffff"
     bordercolor="#666666"
     borderopacity="1"
     objecttolerance="10"
     gridtolerance="10"
     guidetolerance="10"
     inkscape:pageopacity="0"
     inkscape:pageshadow="2"
     inkscape:window-width="1920"
     inkscape:window-height="1026"
     id="namedview107"
     showgrid="false"
     inkscape:zoom="5.7877515"
     inkscape:cx="151.18134"
     inkscape:cy="60.472336"
     inkscape:window-x="0"
     inkscape:window-y="25"
     inkscape:window-maximized="1"
     inkscape:current-layer="svg105" />
  <g
     id="surface3625">
    <path
       style=" stroke:none;fill-rule:nonzero;fill:rgb(8.117676%,45.960999%,77.313232%);fill-opacity:1;"
       d="M 57.261719 11.339844 L 56.125 11.339844 L 56.125 79.371094 L 57.261719 79.371094 Z M 45.289062 64.554688 C 45.332031 64.457031 45.355469 64.34375 45.355469 64.226562 C 45.355469 63.753906 44.972656 63.371094 44.496094 63.371094 L 43.632812 63.371094 C 43.574219 63.371094 43.519531 63.355469 43.46875 63.332031 C 43.421875 63.304688 43.378906 63.265625 43.34375 63.21875 L 42.910156 62.578125 C 42.941406 62.625 42.984375 62.664062 43.035156 62.691406 C 43.082031 62.714844 43.140625 62.730469 43.199219 62.730469 L 44.339844 62.730469 C 44.398438 62.730469 44.453125 62.746094 44.503906 62.769531 C 44.550781 62.796875 44.59375 62.832031 44.628906 62.882812 L 44.101562 62.113281 C 44.070312 62.066406 44.027344 62.027344 43.976562 62.003906 C 43.929688 61.976562 43.871094 61.960938 43.816406 61.960938 L 42.683594 61.964844 C 42.625 61.964844 42.570312 61.949219 42.519531 61.921875 C 42.472656 61.898438 42.429688 61.859375 42.394531 61.8125 L 41.902344 61.085938 C 41.9375 61.136719 41.980469 61.171875 42.027344 61.199219 C 42.078125 61.222656 42.132812 61.238281 42.191406 61.238281 L 43.328125 61.238281 C 43.386719 61.238281 43.441406 61.253906 43.488281 61.277344 C 43.539062 61.304688 43.582031 61.339844 43.613281 61.390625 L 43.089844 60.621094 C 43.058594 60.574219 43.015625 60.535156 42.964844 60.511719 C 42.917969 60.484375 42.859375 60.46875 42.804688 60.46875 L 41.898438 60.46875 C 41.839844 60.46875 41.785156 60.457031 41.738281 60.429688 C 41.6875 60.40625 41.644531 60.367188 41.613281 60.320312 L 41.003906 59.425781 C 42.230469 59.28125 43.222656 58.617188 43.417969 57.699219 C 43.675781 56.511719 42.492188 55.359375 40.78125 55.109375 C 40.496094 55.066406 40.273438 54.820312 40.273438 54.519531 C 40.273438 54.265625 40.433594 54.046875 40.660156 53.964844 C 40.476562 53.886719 40.273438 53.839844 40.058594 53.839844 C 39.300781 53.839844 38.6875 54.382812 38.6875 55.050781 C 38.6875 55.171875 38.710938 55.289062 38.746094 55.398438 C 37.898438 55.765625 37.125 56.414062 36.535156 57.117188 C 37.167969 56.949219 37.832031 56.859375 38.515625 56.859375 C 38.511719 56.824219 38.511719 56.792969 38.511719 56.761719 C 38.511719 56.246094 38.925781 55.832031 39.4375 55.832031 L 39.453125 55.832031 C 39.101562 55.988281 38.933594 56.324219 38.933594 56.542969 C 38.933594 56.808594 39.148438 57.023438 39.410156 57.023438 C 39.515625 57.023438 39.609375 56.992188 39.6875 56.9375 C 39.671875 56.875 39.660156 56.8125 39.660156 56.746094 C 39.660156 56.378906 39.957031 56.082031 40.324219 56.082031 C 40.355469 56.082031 40.390625 56.082031 40.421875 56.089844 C 40.167969 56.207031 39.992188 56.464844 39.992188 56.761719 C 39.992188 57.171875 40.324219 57.507812 40.734375 57.507812 C 40.78125 57.507812 40.820312 57.503906 40.863281 57.496094 C 40.851562 57.453125 40.847656 57.40625 40.847656 57.359375 C 40.847656 57.066406 41.085938 56.828125 41.378906 56.828125 C 41.675781 56.828125 41.914062 57.066406 41.914062 57.359375 C 41.914062 58 41.199219 58.058594 40.683594 57.910156 C 39.203125 57.484375 37.820312 57.292969 36.480469 57.480469 C 34.761719 57.722656 31.949219 58.882812 28.960938 58.789062 C 28.292969 58.765625 27.566406 58.65625 26.832031 58.453125 C 26.921875 58.550781 26.980469 58.621094 27.015625 58.679688 C 27.308594 59.132812 27.40625 59.609375 27.152344 60.203125 C 27.15625 59.535156 26.609375 58.988281 26.148438 58.652344 C 25.960938 58.515625 25.886719 58.386719 25.917969 58.214844 L 26.054688 57.445312 C 26.042969 57.503906 26.046875 57.558594 26.066406 57.613281 C 26.082031 57.664062 26.109375 57.714844 26.152344 57.753906 L 26.441406 58.035156 C 26.550781 57.257812 26.371094 56.535156 25.910156 55.863281 C 26.113281 55.328125 26.144531 54.734375 26.007812 54.179688 C 25.953125 54.601562 25.746094 54.78125 25.550781 54.902344 C 25.1875 55.128906 25.128906 55.511719 25.316406 55.769531 C 25.007812 55.613281 24.585938 55.042969 24.828125 54.710938 C 25.09375 54.351562 25.816406 54.523438 25.90625 53.90625 C 25.4375 53.757812 24.953125 53.863281 24.808594 53.902344 C 24.527344 53.582031 24.160156 53.425781 23.699219 53.429688 C 23.339844 53.097656 22.871094 52.960938 22.300781 53.019531 C 21.734375 52.960938 21.265625 53.097656 20.902344 53.429688 C 20.445312 53.425781 20.074219 53.582031 19.796875 53.902344 C 19.648438 53.863281 19.167969 53.757812 18.699219 53.90625 C 18.785156 54.523438 19.511719 54.351562 19.773438 54.710938 C 20.019531 55.042969 19.597656 55.613281 19.289062 55.769531 C 19.476562 55.511719 19.417969 55.128906 19.054688 54.902344 C 18.859375 54.78125 18.652344 54.601562 18.597656 54.179688 C 18.460938 54.734375 18.488281 55.328125 18.695312 55.863281 C 18.230469 56.535156 18.054688 57.257812 18.164062 58.035156 L 18.453125 57.753906 C 18.492188 57.714844 18.523438 57.664062 18.539062 57.613281 C 18.558594 57.558594 18.5625 57.503906 18.550781 57.445312 L 18.6875 58.214844 C 18.71875 58.386719 18.644531 58.515625 18.457031 58.652344 C 17.996094 58.988281 17.445312 59.535156 17.453125 60.203125 C 17.195312 59.609375 17.300781 59.113281 17.589844 58.679688 C 16.710938 58.207031 16.046875 57.429688 15.921875 57.289062 C 15.65625 56.980469 15.691406 56.585938 15.933594 56.242188 C 16.394531 55.578125 16.503906 54.875 15.925781 54.390625 C 15.929688 54.355469 15.929688 54.320312 15.929688 54.285156 C 15.929688 53.84375 15.617188 53.480469 15.203125 53.398438 C 15.28125 53.515625 15.324219 53.660156 15.324219 53.8125 C 15.324219 53.988281 15.265625 54.148438 15.167969 54.277344 C 15.25 54.386719 15.300781 54.519531 15.300781 54.667969 C 15.300781 54.863281 15.210938 55.039062 15.070312 55.15625 C 15.085938 55.085938 15.09375 55.015625 15.09375 54.945312 C 15.09375 54.492188 14.8125 54.117188 14.433594 54.011719 C 14.371094 53.683594 14.085938 53.433594 13.738281 53.433594 C 13.539062 53.433594 13.359375 53.515625 13.230469 53.652344 C 13.496094 53.671875 13.714844 53.882812 13.742188 54.148438 C 13.613281 54.246094 13.511719 54.375 13.445312 54.53125 L 13.460938 54.53125 C 13.925781 54.53125 14.300781 54.90625 14.300781 55.371094 C 14.300781 55.421875 14.292969 55.472656 14.285156 55.523438 C 14.25 55.332031 14.164062 55.160156 14.023438 55.023438 C 13.765625 54.769531 13.386719 54.714844 13.039062 54.847656 C 12.910156 54.683594 12.710938 54.582031 12.488281 54.582031 C 12.234375 54.582031 12.011719 54.714844 11.886719 54.914062 C 12.140625 54.925781 12.367188 55.054688 12.507812 55.25 C 12.144531 55.714844 12.140625 56.359375 12.511719 56.722656 C 12.765625 56.96875 13.125 57.023438 13.460938 56.910156 C 13.484375 56.902344 13.507812 56.898438 13.53125 56.898438 C 13.65625 56.898438 13.757812 56.996094 13.757812 57.121094 C 13.757812 57.242188 13.65625 57.34375 13.53125 57.34375 C 13.480469 57.34375 13.429688 57.324219 13.390625 57.292969 C 13.304688 57.222656 13.195312 57.179688 13.078125 57.179688 C 12.808594 57.179688 12.585938 57.398438 12.585938 57.667969 C 12.585938 57.691406 12.589844 57.710938 12.589844 57.730469 C 12.546875 57.746094 12.496094 57.753906 12.445312 57.753906 C 12.3125 57.753906 12.191406 57.699219 12.105469 57.613281 C 12.089844 57.664062 12.085938 57.722656 12.085938 57.78125 C 12.085938 58.125 12.351562 58.40625 12.6875 58.433594 C 12.839844 58.8125 13.210938 59.078125 13.644531 59.078125 C 13.867188 59.078125 14.070312 59.007812 14.238281 58.890625 C 14.3125 58.835938 14.402344 58.808594 14.496094 58.808594 C 14.746094 58.808594 14.949219 59.007812 14.949219 59.257812 C 14.949219 59.472656 14.796875 59.652344 14.597656 59.699219 L 14.246094 59.777344 C 14.1875 59.789062 14.132812 59.785156 14.078125 59.769531 C 14.023438 59.757812 13.976562 59.730469 13.933594 59.6875 L 14.734375 60.453125 C 14.777344 60.492188 14.828125 60.519531 14.882812 60.535156 C 14.933594 60.546875 14.992188 60.550781 15.050781 60.539062 L 15.707031 60.390625 C 15.765625 60.378906 15.820312 60.382812 15.875 60.398438 C 15.925781 60.410156 15.976562 60.4375 16.019531 60.480469 L 16.570312 61.003906 C 16.527344 60.960938 16.476562 60.933594 16.425781 60.921875 C 16.371094 60.90625 16.316406 60.902344 16.257812 60.917969 L 15.601562 61.0625 C 15.542969 61.074219 15.484375 61.070312 15.433594 61.054688 C 15.382812 61.042969 15.328125 61.015625 15.289062 60.976562 L 16.023438 61.671875 C 16.066406 61.714844 16.117188 61.742188 16.167969 61.753906 C 16.222656 61.769531 16.28125 61.773438 16.335938 61.757812 L 16.996094 61.617188 C 17.054688 61.601562 17.109375 61.605469 17.164062 61.621094 C 17.214844 61.632812 17.265625 61.664062 17.308594 61.703125 L 17.859375 62.226562 C 17.816406 62.1875 17.765625 62.160156 17.714844 62.144531 C 17.660156 62.128906 17.605469 62.125 17.546875 62.140625 L 16.890625 62.285156 C 16.832031 62.296875 16.773438 62.292969 16.722656 62.28125 C 16.667969 62.265625 16.617188 62.238281 16.574219 62.199219 L 17.3125 62.894531 C 17.355469 62.9375 17.40625 62.964844 17.457031 62.976562 C 17.511719 62.992188 17.566406 62.996094 17.625 62.984375 L 18.421875 62.808594 C 17.648438 63.246094 16.828125 63.738281 15.957031 64.289062 C 15.441406 64.613281 14.878906 64.675781 14.230469 64.425781 C 13.882812 64.292969 13.507812 64.273438 13.269531 64.3125 C 12.957031 64.367188 12.695312 64.554688 12.542969 64.816406 C 12.660156 64.765625 12.792969 64.742188 12.929688 64.742188 C 13.21875 64.742188 13.480469 64.859375 13.671875 65.046875 C 13.371094 64.917969 12.996094 64.90625 12.632812 65.039062 C 11.984375 65.277344 11.605469 65.886719 11.753906 66.4375 C 11.511719 66.53125 11.339844 66.765625 11.339844 67.039062 C 11.339844 67.21875 11.414062 67.382812 11.53125 67.5 C 11.597656 67.214844 11.847656 66.996094 12.152344 66.984375 C 12.28125 67.070312 12.429688 67.128906 12.589844 67.160156 C 12.636719 67.078125 12.695312 67.003906 12.765625 66.941406 C 12.761719 66.886719 12.757812 66.835938 12.757812 66.78125 C 12.757812 66.1875 13.234375 65.707031 13.828125 65.707031 C 13.878906 65.707031 13.925781 65.710938 13.972656 65.714844 C 13.503906 65.828125 13.152344 66.253906 13.152344 66.761719 C 13.152344 66.824219 13.15625 66.886719 13.167969 66.949219 C 12.914062 67.046875 12.734375 67.292969 12.734375 67.578125 C 12.734375 67.746094 12.796875 67.894531 12.894531 68.011719 C 13.074219 67.65625 13.429688 67.40625 13.847656 67.367188 C 14.003906 67.410156 14.171875 67.4375 14.34375 67.4375 C 14.449219 67.4375 14.554688 67.425781 14.65625 67.410156 C 14.566406 67.273438 14.511719 67.113281 14.511719 66.9375 C 14.511719 66.476562 14.886719 66.101562 15.347656 66.101562 C 15.386719 66.101562 15.425781 66.105469 15.464844 66.109375 C 15.023438 66.296875 14.753906 66.679688 14.847656 67.027344 C 14.910156 67.277344 15.144531 67.449219 15.445312 67.503906 C 15.441406 67.691406 15.390625 67.863281 15.304688 68.015625 C 15.691406 67.988281 16.023438 67.753906 16.1875 67.421875 C 16.644531 67.238281 16.925781 66.847656 16.828125 66.492188 C 16.796875 66.367188 16.71875 66.257812 16.609375 66.175781 C 16.609375 66.164062 16.609375 66.152344 16.609375 66.140625 C 16.609375 65.898438 16.808594 65.699219 17.050781 65.699219 C 17.296875 65.699219 17.492188 65.898438 17.492188 66.140625 C 17.492188 66.257812 17.449219 66.363281 17.378906 66.441406 L 18.304688 66.441406 C 18.363281 66.441406 18.417969 66.425781 18.464844 66.402344 C 18.515625 66.375 18.558594 66.335938 18.589844 66.289062 L 19.1875 65.40625 C 19.207031 65.375 19.238281 65.347656 19.269531 65.332031 C 19.304688 65.3125 19.34375 65.300781 19.382812 65.300781 L 20.109375 65.300781 C 20.070312 65.300781 20.03125 65.3125 20 65.332031 C 19.964844 65.347656 19.9375 65.375 19.914062 65.40625 L 19.316406 66.289062 C 19.285156 66.335938 19.242188 66.375 19.191406 66.402344 C 19.144531 66.425781 19.089844 66.441406 19.03125 66.441406 L 20.136719 66.441406 C 20.195312 66.441406 20.253906 66.425781 20.300781 66.402344 C 20.347656 66.375 20.394531 66.335938 20.425781 66.289062 L 21.09375 65.304688 C 20.632812 65.050781 20.441406 64.609375 20.441406 64.003906 C 20.441406 63.628906 20.65625 63.199219 20.6875 62.921875 L 20.699219 62.808594 C 20.707031 62.75 20.699219 62.695312 20.679688 62.644531 C 20.664062 62.601562 20.632812 62.542969 20.597656 62.5 L 21.164062 63.085938 C 21.210938 63.125 21.242188 63.171875 21.261719 63.222656 C 21.28125 63.273438 21.289062 63.332031 21.285156 63.386719 L 21.265625 63.523438 C 21.238281 63.753906 20.949219 64.253906 21.488281 64.710938 C 21.515625 64.734375 21.585938 64.78125 21.648438 64.824219 L 22.03125 65.066406 L 22.03125 63.644531 L 22.570312 63.644531 L 22.570312 65.226562 C 22.574219 65.285156 22.589844 65.339844 22.617188 65.386719 C 22.644531 65.433594 22.683594 65.476562 22.730469 65.507812 L 23.257812 65.84375 C 23.308594 65.875 23.363281 65.890625 23.417969 65.898438 C 23.472656 65.902344 23.53125 65.890625 23.582031 65.867188 L 24.554688 65.449219 C 24.5 65.46875 24.441406 65.480469 24.390625 65.472656 C 24.335938 65.46875 24.277344 65.453125 24.230469 65.421875 L 23.113281 64.710938 C 23.65625 64.253906 23.363281 63.753906 23.335938 63.523438 L 23.320312 63.386719 C 23.3125 63.332031 23.320312 63.273438 23.34375 63.222656 C 23.363281 63.171875 23.394531 63.125 23.4375 63.085938 L 24.007812 62.5 C 23.972656 62.542969 23.941406 62.601562 23.925781 62.644531 C 23.90625 62.695312 23.898438 62.75 23.90625 62.808594 L 23.917969 62.921875 C 23.964844 63.316406 24.363281 64.03125 24.03125 64.429688 L 25.050781 65.078125 C 25.097656 65.109375 25.152344 65.125 25.207031 65.128906 C 25.261719 65.132812 25.320312 65.125 25.375 65.101562 L 26.390625 64.660156 C 26.335938 64.683594 26.277344 64.691406 26.226562 64.6875 C 26.171875 64.683594 26.113281 64.667969 26.066406 64.636719 L 24.964844 63.933594 C 25.203125 63.441406 25 62.660156 24.769531 62.210938 L 24.734375 62.140625 C 24.707031 62.089844 24.695312 62.035156 24.695312 61.976562 C 24.695312 61.921875 24.710938 61.867188 24.738281 61.816406 L 25.117188 61.132812 C 25.089844 61.183594 25.074219 61.242188 25.074219 61.296875 C 25.074219 61.351562 25.085938 61.40625 25.113281 61.457031 L 25.25 61.730469 C 25.324219 61.863281 25.363281 61.945312 25.429688 62.101562 C 26.050781 61.542969 26.1875 61.003906 25.792969 60.542969 L 25.675781 60.40625 C 25.636719 60.359375 25.609375 60.308594 25.597656 60.253906 C 25.585938 60.203125 25.585938 60.144531 25.601562 60.085938 L 25.804688 59.335938 C 25.789062 59.390625 25.789062 59.449219 25.800781 59.5 C 25.8125 59.554688 25.839844 59.605469 25.878906 59.648438 L 26.265625 60.101562 C 27.019531 60.953125 26.5625 62.050781 25.664062 62.890625 C 25.714844 63.050781 25.757812 63.351562 25.71875 63.515625 L 26.914062 64.273438 C 26.964844 64.304688 27.019531 64.320312 27.074219 64.324219 C 27.128906 64.332031 27.1875 64.320312 27.238281 64.296875 L 28.105469 63.921875 C 28.054688 63.945312 28 63.957031 27.945312 63.957031 C 27.722656 63.957031 27.539062 63.777344 27.539062 63.554688 C 27.539062 63.375 27.65625 63.21875 27.820312 63.167969 C 31.121094 62.164062 34.15625 59.574219 36.152344 59.582031 C 37.121094 59.585938 37.90625 60.171875 37.90625 60.898438 C 37.90625 61.015625 37.886719 61.128906 37.847656 61.238281 C 37.421875 62.433594 38.042969 63.574219 39.675781 64.011719 C 39.9375 64.082031 40.128906 64.320312 40.128906 64.601562 C 40.128906 64.65625 40.121094 64.710938 40.109375 64.761719 C 40.144531 64.765625 40.183594 64.765625 40.222656 64.765625 C 40.671875 64.765625 41.070312 64.542969 41.3125 64.199219 C 41.59375 64.199219 41.898438 64.179688 42.210938 64.148438 C 42.25 64.222656 42.28125 64.3125 42.296875 64.40625 C 42.363281 64.75 42.246094 65.058594 42.035156 65.128906 C 41.660156 65.25 41.199219 65.101562 40.84375 65.105469 C 40.171875 65.113281 39.628906 65.660156 39.628906 66.332031 C 39.628906 66.386719 39.632812 66.4375 39.640625 66.488281 C 39.429688 66.621094 39.289062 66.855469 39.289062 67.121094 C 39.289062 67.253906 39.324219 67.378906 39.386719 67.488281 C 39.59375 67.246094 39.859375 67.058594 40.167969 66.949219 C 40.195312 66.359375 40.679688 65.890625 41.277344 65.890625 C 41.367188 65.890625 41.457031 65.902344 41.539062 65.921875 C 40.9375 66 40.46875 66.515625 40.46875 67.140625 C 40.46875 67.183594 40.472656 67.230469 40.476562 67.273438 C 40.402344 67.363281 40.355469 67.480469 40.355469 67.609375 C 40.355469 67.769531 40.429688 67.914062 40.542969 68.007812 C 40.65625 67.757812 40.929688 67.523438 41.285156 67.40625 C 41.527344 67.324219 41.761719 67.308594 41.957031 67.347656 C 41.925781 67.253906 41.910156 67.15625 41.910156 67.050781 C 41.910156 66.515625 42.34375 66.085938 42.875 66.085938 C 42.925781 66.085938 42.972656 66.089844 43.019531 66.097656 C 42.648438 66.148438 42.363281 66.464844 42.363281 66.851562 C 42.363281 67.105469 42.488281 67.332031 42.679688 67.46875 C 42.679688 67.484375 42.679688 67.5 42.679688 67.511719 C 42.679688 67.722656 42.777344 67.910156 42.925781 68.03125 C 42.992188 67.679688 43.300781 67.417969 43.671875 67.417969 C 43.988281 67.417969 44.246094 67.378906 44.441406 67.3125 C 44.773438 67.207031 45.015625 66.902344 45.015625 66.535156 C 45.015625 66.28125 44.898438 66.054688 44.71875 65.90625 C 44.808594 65.496094 44.789062 64.824219 44.652344 64.265625 C 44.679688 64.261719 44.710938 64.257812 44.738281 64.257812 C 44.96875 64.257812 45.171875 64.375 45.289062 64.554688 M 19.355469 61.730469 L 19.492188 61.457031 C 19.519531 61.40625 19.53125 61.351562 19.527344 61.296875 C 19.527344 61.242188 19.515625 61.183594 19.484375 61.132812 L 19.863281 61.816406 C 19.894531 61.867188 19.90625 61.921875 19.90625 61.976562 C 19.910156 62.035156 19.898438 62.089844 19.871094 62.140625 L 19.835938 62.210938 C 19.605469 62.660156 19.386719 63.507812 19.628906 64 C 19.066406 63.789062 18.882812 63.296875 18.941406 62.890625 C 17.882812 61.886719 17.617188 60.871094 18.371094 60.019531 L 18.761719 59.566406 C 18.800781 59.523438 18.824219 59.46875 18.835938 59.417969 C 18.847656 59.363281 18.847656 59.304688 18.832031 59.25 L 19.035156 60.003906 C 19.050781 60.058594 19.050781 60.117188 19.039062 60.171875 C 19.027344 60.222656 19 60.277344 18.964844 60.320312 L 18.84375 60.457031 C 18.449219 60.917969 18.554688 61.542969 19.175781 62.101562 C 19.238281 61.945312 19.28125 61.863281 19.355469 61.730469 M 20.761719 56.289062 L 20.511719 56.289062 C 20.242188 56.289062 20.003906 55.925781 20.003906 55.597656 C 20.152344 55.765625 20.308594 55.835938 20.519531 55.835938 L 21.660156 55.835938 C 21.765625 55.835938 21.867188 55.914062 21.910156 56.046875 C 21.941406 56.144531 21.925781 56.289062 21.90625 56.425781 C 21.851562 56.324219 21.78125 56.289062 21.691406 56.289062 L 21.433594 56.289062 C 21.496094 56.363281 21.53125 56.457031 21.53125 56.566406 C 21.53125 56.804688 21.335938 57 21.097656 57 C 20.855469 57 20.660156 56.804688 20.660156 56.566406 C 20.660156 56.457031 20.699219 56.363281 20.761719 56.289062 M 21.050781 54.226562 L 21.523438 54.828125 C 21.628906 54.957031 21.660156 55.042969 21.785156 55.058594 L 21.390625 55.058594 C 21.191406 55.058594 21.054688 54.976562 20.9375 54.84375 L 20.480469 54.25 C 20.40625 54.15625 20.347656 54.089844 20.25 54.046875 L 20.699219 54.046875 C 20.835938 54.046875 20.953125 54.105469 21.050781 54.226562 M 22.367188 54.078125 L 22.949219 54.898438 C 23.042969 55.03125 23.128906 55.105469 23.253906 55.15625 L 22.722656 55.15625 C 22.515625 55.15625 22.394531 55.0625 22.304688 54.914062 L 21.84375 54.210938 C 21.671875 53.949219 21.601562 53.882812 21.398438 53.8125 L 21.894531 53.8125 C 22.089844 53.8125 22.273438 53.941406 22.367188 54.078125 M 24.449219 55.058594 L 24.050781 55.058594 C 23.851562 55.058594 23.714844 54.976562 23.597656 54.84375 L 23.144531 54.25 C 23.070312 54.15625 23.011719 54.089844 22.910156 54.046875 L 23.363281 54.046875 C 23.496094 54.046875 23.617188 54.105469 23.710938 54.226562 L 24.183594 54.828125 C 24.289062 54.957031 24.324219 55.042969 24.449219 55.058594 M 24.601562 55.597656 C 24.601562 55.925781 24.363281 56.289062 24.089844 56.289062 L 23.84375 56.289062 C 23.90625 56.363281 23.941406 56.457031 23.941406 56.566406 C 23.941406 56.804688 23.746094 57 23.507812 57 C 23.265625 57 23.070312 56.804688 23.070312 56.566406 C 23.070312 56.457031 23.109375 56.363281 23.171875 56.289062 L 22.910156 56.289062 C 22.824219 56.289062 22.753906 56.324219 22.699219 56.425781 C 22.679688 56.289062 22.664062 56.144531 22.695312 56.046875 C 22.738281 55.914062 22.839844 55.835938 22.941406 55.835938 L 24.085938 55.835938 C 24.296875 55.835938 24.453125 55.765625 24.601562 55.597656 M 24.25 58.070312 C 24.171875 58.09375 24.128906 58.136719 24.117188 58.222656 C 24.070312 58.667969 23.890625 58.847656 23.601562 58.949219 C 23.597656 59.398438 23.535156 59.738281 23.414062 60.160156 C 23.757812 60.878906 23.492188 61.378906 23.214844 61.484375 C 22.949219 61.589844 22.609375 61.449219 22.304688 61.449219 C 22.003906 61.449219 21.65625 61.589844 21.390625 61.484375 C 21.109375 61.378906 20.847656 60.878906 21.191406 60.160156 C 21.070312 59.738281 21.007812 59.398438 21.003906 58.949219 C 20.714844 58.847656 20.53125 58.667969 20.484375 58.222656 C 20.476562 58.136719 20.433594 58.09375 20.355469 58.070312 C 19.214844 57.757812 19.109375 56.34375 19.683594 55.941406 C 19.632812 56.574219 19.578125 57.46875 20.875 57.589844 C 20.855469 58.332031 21.175781 58.53125 21.507812 58.53125 C 21.777344 58.53125 21.933594 58.445312 22 58.410156 C 22.242188 58.28125 22.074219 58.085938 22.015625 58.027344 C 21.847656 57.875 21.765625 57.652344 21.804688 57.433594 C 21.8125 57.394531 21.824219 57.375 21.863281 57.375 L 22.742188 57.375 C 22.777344 57.375 22.792969 57.394531 22.800781 57.433594 C 22.839844 57.652344 22.757812 57.875 22.589844 58.027344 C 22.527344 58.085938 22.363281 58.28125 22.605469 58.410156 C 22.671875 58.445312 22.828125 58.53125 23.097656 58.53125 C 23.429688 58.53125 23.75 58.332031 23.730469 57.589844 C 25.027344 57.46875 24.972656 56.574219 24.921875 55.941406 C 25.496094 56.34375 25.386719 57.757812 24.25 58.070312 M 23.101562 60.800781 C 23.136719 60.421875 22.703125 60.285156 22.300781 60.285156 C 21.898438 60.285156 21.46875 60.421875 21.503906 60.800781 C 21.542969 61.261719 21.976562 61.042969 22.300781 61.042969 C 22.628906 61.042969 23.058594 61.261719 23.101562 60.800781 M 22.96875 59.902344 C 23.03125 59.566406 23.054688 59.242188 23.042969 58.929688 L 22.746094 59.28125 C 22.6875 59.140625 22.648438 59.054688 22.605469 58.988281 C 22.574219 58.929688 22.546875 58.890625 22.507812 58.882812 C 22.488281 58.894531 22.457031 58.910156 22.425781 58.917969 C 22.386719 58.925781 22.335938 58.925781 22.300781 58.925781 C 22.269531 58.925781 22.21875 58.925781 22.179688 58.917969 C 22.148438 58.910156 22.117188 58.894531 22.097656 58.882812 C 22.058594 58.890625 22.03125 58.929688 21.996094 58.988281 C 21.957031 59.054688 21.917969 59.140625 21.859375 59.28125 L 21.558594 58.929688 C 21.550781 59.242188 21.574219 59.566406 21.636719 59.902344 C 21.859375 59.851562 22.085938 59.835938 22.300781 59.835938 C 22.519531 59.835938 22.746094 59.851562 22.96875 59.902344 M 28.40625 50.570312 C 28.457031 50.570312 28.503906 50.574219 28.550781 50.578125 C 28.082031 50.714844 27.703125 51.0625 27.527344 51.511719 C 27.238281 51.609375 27.027344 51.882812 27.027344 52.207031 C 27.027344 52.359375 27.074219 52.496094 27.152344 52.613281 C 27.402344 52.332031 27.734375 52.121094 28.113281 52.019531 C 28.222656 51.476562 28.671875 51.058594 29.230469 51 C 28.742188 51.203125 28.402344 51.683594 28.402344 52.246094 C 28.402344 52.445312 28.445312 52.632812 28.519531 52.804688 C 28.605469 52.496094 28.890625 52.265625 29.226562 52.265625 C 29.3125 52.265625 29.390625 52.28125 29.46875 52.308594 C 29.570312 52.347656 29.683594 52.367188 29.800781 52.367188 C 30.34375 52.367188 30.78125 51.925781 30.78125 51.386719 C 30.78125 51.277344 30.761719 51.171875 30.730469 51.074219 C 30.988281 51.152344 31.175781 51.386719 31.175781 51.671875 C 31.175781 51.800781 31.136719 51.917969 31.070312 52.019531 C 31.140625 52.03125 31.214844 52.039062 31.292969 52.039062 C 31.929688 52.039062 32.453125 51.558594 32.527344 50.941406 C 32.847656 50.765625 33.128906 50.535156 33.371094 50.242188 L 33.539062 51.070312 C 33.554688 51.128906 33.550781 51.183594 33.535156 51.238281 C 33.519531 51.289062 33.492188 51.339844 33.449219 51.382812 L 34.152344 50.660156 C 34.195312 50.617188 34.222656 50.570312 34.234375 50.515625 C 34.253906 50.460938 34.253906 50.40625 34.242188 50.347656 L 34.035156 49.335938 C 34.023438 49.28125 34.027344 49.222656 34.042969 49.167969 C 34.058594 49.117188 34.085938 49.066406 34.128906 49.023438 L 34.679688 48.460938 C 34.640625 48.503906 34.609375 48.550781 34.597656 48.605469 C 34.582031 48.660156 34.578125 48.714844 34.589844 48.773438 L 34.796875 49.785156 C 34.808594 49.84375 34.804688 49.902344 34.789062 49.953125 C 34.777344 50.003906 34.75 50.054688 34.710938 50.097656 L 35.335938 49.445312 C 35.375 49.402344 35.402344 49.351562 35.417969 49.300781 C 35.433594 49.246094 35.4375 49.191406 35.425781 49.132812 L 35.21875 48.121094 C 35.207031 48.066406 35.210938 48.007812 35.226562 47.957031 C 35.242188 47.902344 35.269531 47.851562 35.308594 47.808594 L 35.863281 47.246094 C 35.820312 47.289062 35.792969 47.339844 35.777344 47.390625 C 35.765625 47.445312 35.761719 47.5 35.773438 47.558594 L 35.980469 48.570312 C 35.992188 48.628906 35.988281 48.6875 35.972656 48.738281 C 35.960938 48.789062 35.933594 48.839844 35.890625 48.882812 L 36.519531 48.230469 C 36.558594 48.1875 36.585938 48.136719 36.601562 48.085938 C 36.617188 48.03125 36.621094 47.976562 36.609375 47.917969 L 36.507812 47.421875 C 36.402344 46.863281 36.980469 46.222656 37.4375 46.15625 C 37.492188 46.050781 37.523438 45.933594 37.523438 45.816406 C 37.523438 45.25 36.847656 44.789062 36.011719 44.789062 C 35.605469 44.789062 35.234375 44.898438 34.964844 45.078125 C 35.074219 45.402344 35.097656 45.730469 34.027344 45.882812 C 33.179688 46 32.433594 46.167969 31.867188 46.648438 C 30.992188 47.386719 31.0625 48.378906 30.566406 48.753906 C 30.785156 48.808594 31.066406 48.808594 31.367188 48.742188 C 31.558594 48.703125 31.734375 48.640625 31.890625 48.5625 C 31.796875 48.742188 31.585938 48.910156 31.304688 49.03125 C 31.210938 49.378906 30.902344 49.714844 30.480469 49.871094 C 30.214844 49.96875 29.953125 49.976562 29.734375 49.914062 L 28.710938 49.617188 C 28.585938 49.582031 28.453125 49.5625 28.316406 49.5625 C 27.5625 49.5625 26.941406 50.144531 26.851562 50.894531 C 26.492188 50.945312 26.222656 51.25 26.222656 51.621094 C 26.222656 51.757812 26.257812 51.882812 26.320312 51.992188 C 26.566406 51.742188 26.878906 51.558594 27.226562 51.464844 C 27.371094 50.949219 27.847656 50.570312 28.40625 50.570312 M 28.480469 56.339844 C 28.464844 56.25 28.464844 56.160156 28.484375 56.066406 C 28.523438 55.890625 28.679688 55.757812 28.867188 55.757812 C 29.082031 55.757812 29.257812 55.933594 29.257812 56.152344 C 29.257812 56.253906 29.214844 56.347656 29.152344 56.417969 C 29.222656 56.425781 29.300781 56.429688 29.378906 56.429688 C 29.578125 56.429688 29.769531 56.402344 29.9375 56.359375 C 30.210938 56.285156 30.414062 56.035156 30.414062 55.734375 C 30.414062 55.378906 30.125 55.089844 29.769531 55.089844 C 29.75 55.089844 29.730469 55.089844 29.710938 55.09375 C 29.800781 55.054688 29.898438 55.035156 30.003906 55.035156 C 30.417969 55.035156 30.753906 55.371094 30.753906 55.785156 C 30.753906 55.804688 30.753906 55.828125 30.75 55.847656 C 31.867188 55.824219 33.125 54.804688 33.398438 54.417969 C 33.050781 54.496094 32.671875 54.539062 32.273438 54.539062 C 31.824219 54.539062 31.394531 54.484375 31.007812 54.382812 C 30.460938 54.238281 29.917969 54.15625 29.503906 54.15625 C 28.136719 54.15625 27.023438 55.050781 27.023438 56.152344 C 27.023438 57.0625 27.777344 57.855469 28.820312 58.070312 C 31.191406 58.554688 33.980469 57.144531 36.335938 56.65625 C 36.925781 56.082031 37.605469 55.601562 38.355469 55.238281 C 38.332031 55.152344 38.320312 55.058594 38.320312 54.96875 L 38.320312 54.960938 C 35.195312 55.476562 32.382812 57.082031 29.839844 57.066406 C 29.128906 57.066406 28.570312 56.789062 28.480469 56.339844 M 45.289062 49.390625 C 45.332031 49.289062 45.355469 49.179688 45.355469 49.0625 C 45.355469 48.589844 44.972656 48.207031 44.496094 48.207031 L 43.632812 48.207031 C 43.574219 48.207031 43.519531 48.191406 43.46875 48.164062 C 43.421875 48.140625 43.378906 48.101562 43.34375 48.054688 L 42.910156 47.414062 C 42.941406 47.460938 42.984375 47.5 43.035156 47.523438 C 43.082031 47.550781 43.140625 47.566406 43.199219 47.566406 L 44.339844 47.566406 C 44.398438 47.566406 44.453125 47.578125 44.503906 47.605469 C 44.550781 47.628906 44.59375 47.667969 44.628906 47.714844 L 44.101562 46.949219 C 44.070312 46.902344 44.027344 46.863281 43.976562 46.839844 C 43.929688 46.8125 43.871094 46.796875 43.816406 46.796875 L 42.683594 46.796875 C 42.625 46.796875 42.570312 46.785156 42.519531 46.757812 C 42.472656 46.734375 42.429688 46.695312 42.394531 46.648438 L 41.902344 45.921875 C 41.9375 45.972656 41.980469 46.007812 42.027344 46.035156 C 42.078125 46.058594 42.132812 46.074219 42.191406 46.074219 L 43.328125 46.074219 C 43.386719 46.074219 43.441406 46.085938 43.488281 46.113281 C 43.539062 46.136719 43.582031 46.175781 43.613281 46.222656 L 43.089844 45.457031 C 43.058594 45.410156 43.015625 45.371094 42.964844 45.34375 C 42.917969 45.320312 42.859375 45.304688 42.804688 45.304688 L 41.898438 45.304688 C 41.839844 45.304688 41.785156 45.289062 41.738281 45.265625 C 41.6875 45.238281 41.644531 45.203125 41.613281 45.152344 L 41.003906 44.261719 C 42.230469 44.117188 43.222656 43.453125 43.417969 42.535156 C 43.675781 41.347656 42.492188 40.195312 40.78125 39.945312 C 40.496094 39.902344 40.273438 39.65625 40.273438 39.355469 C 40.273438 39.101562 40.433594 38.882812 40.660156 38.800781 C 40.476562 38.71875 40.273438 38.675781 40.058594 38.675781 C 39.300781 38.675781 38.6875 39.21875 38.6875 39.886719 C 38.6875 40.007812 38.710938 40.125 38.746094 40.234375 C 37.898438 40.601562 37.125 41.25 36.535156 41.949219 C 37.167969 41.78125 37.832031 41.691406 38.515625 41.691406 C 38.511719 41.660156 38.511719 41.628906 38.511719 41.59375 C 38.511719 41.082031 38.925781 40.667969 39.4375 40.667969 L 39.453125 40.667969 C 39.101562 40.820312 38.933594 41.15625 38.933594 41.378906 C 38.933594 41.644531 39.148438 41.859375 39.410156 41.859375 C 39.515625 41.859375 39.609375 41.828125 39.6875 41.773438 C 39.671875 41.710938 39.660156 41.648438 39.660156 41.582031 C 39.660156 41.214844 39.957031 40.917969 40.324219 40.917969 C 40.355469 40.917969 40.390625 40.917969 40.421875 40.921875 C 40.167969 41.042969 39.992188 41.300781 39.992188 41.597656 C 39.992188 42.007812 40.324219 42.339844 40.734375 42.339844 C 40.78125 42.339844 40.820312 42.339844 40.863281 42.332031 C 40.851562 42.289062 40.847656 42.242188 40.847656 42.195312 C 40.847656 41.902344 41.085938 41.660156 41.378906 41.660156 C 41.675781 41.660156 41.914062 41.902344 41.914062 42.195312 C 41.914062 42.835938 41.199219 42.894531 40.683594 42.746094 C 39.203125 42.320312 37.820312 42.128906 36.480469 42.316406 C 34.761719 42.558594 31.949219 43.71875 28.960938 43.621094 C 28.292969 43.601562 27.566406 43.492188 26.832031 43.289062 C 26.921875 43.386719 26.980469 43.457031 27.015625 43.515625 C 27.308594 43.96875 27.40625 44.441406 27.152344 45.035156 C 27.15625 44.371094 26.609375 43.824219 26.148438 43.488281 C 25.960938 43.351562 25.886719 43.222656 25.917969 43.050781 L 26.054688 42.28125 C 26.042969 42.339844 26.046875 42.394531 26.066406 42.445312 C 26.082031 42.5 26.109375 42.546875 26.152344 42.589844 L 26.441406 42.871094 C 26.550781 42.09375 26.371094 41.367188 25.910156 40.699219 C 26.113281 40.160156 26.144531 39.570312 26.007812 39.015625 C 25.953125 39.433594 25.746094 39.617188 25.550781 39.738281 C 25.1875 39.964844 25.128906 40.347656 25.316406 40.605469 C 25.007812 40.449219 24.585938 39.878906 24.828125 39.546875 C 25.09375 39.1875 25.816406 39.359375 25.90625 38.742188 C 25.4375 38.59375 24.953125 38.699219 24.808594 38.738281 C 24.527344 38.417969 24.160156 38.261719 23.699219 38.261719 C 23.339844 37.933594 22.871094 37.796875 22.300781 37.855469 C 21.734375 37.796875 21.265625 37.933594 20.902344 38.261719 C 20.445312 38.261719 20.074219 38.417969 19.796875 38.738281 C 19.648438 38.699219 19.167969 38.59375 18.699219 38.742188 C 18.785156 39.359375 19.511719 39.1875 19.773438 39.546875 C 20.019531 39.878906 19.597656 40.449219 19.289062 40.605469 C 19.476562 40.347656 19.417969 39.964844 19.054688 39.738281 C 18.859375 39.617188 18.652344 39.433594 18.597656 39.015625 C 18.460938 39.570312 18.488281 40.160156 18.695312 40.699219 C 18.230469 41.367188 18.054688 42.09375 18.164062 42.871094 L 18.453125 42.589844 C 18.492188 42.546875 18.523438 42.5 18.539062 42.445312 C 18.558594 42.394531 18.5625 42.339844 18.550781 42.28125 L 18.6875 43.050781 C 18.71875 43.222656 18.644531 43.351562 18.457031 43.488281 C 17.996094 43.824219 17.445312 44.371094 17.453125 45.035156 C 17.195312 44.441406 17.300781 43.949219 17.589844 43.515625 C 16.710938 43.042969 16.046875 42.265625 15.921875 42.121094 C 15.65625 41.816406 15.691406 41.421875 15.933594 41.078125 C 16.394531 40.414062 16.503906 39.710938 15.925781 39.226562 C 15.929688 39.191406 15.929688 39.15625 15.929688 39.121094 C 15.929688 38.679688 15.617188 38.316406 15.203125 38.230469 C 15.28125 38.351562 15.324219 38.496094 15.324219 38.648438 C 15.324219 38.824219 15.265625 38.984375 15.167969 39.113281 C 15.25 39.21875 15.300781 39.355469 15.300781 39.5 C 15.300781 39.699219 15.210938 39.871094 15.070312 39.988281 C 15.085938 39.921875 15.09375 39.851562 15.09375 39.78125 C 15.09375 39.328125 14.8125 38.949219 14.433594 38.847656 C 14.371094 38.519531 14.085938 38.269531 13.738281 38.269531 C 13.539062 38.269531 13.359375 38.351562 13.230469 38.488281 C 13.496094 38.507812 13.714844 38.71875 13.742188 38.984375 C 13.613281 39.078125 13.511719 39.210938 13.445312 39.367188 L 13.460938 39.367188 C 13.925781 39.367188 14.300781 39.742188 14.300781 40.207031 C 14.300781 40.257812 14.292969 40.308594 14.285156 40.359375 C 14.25 40.167969 14.164062 39.992188 14.023438 39.859375 C 13.765625 39.605469 13.386719 39.550781 13.039062 39.683594 C 12.910156 39.519531 12.710938 39.414062 12.488281 39.414062 C 12.234375 39.414062 12.011719 39.546875 11.886719 39.75 C 12.140625 39.757812 12.367188 39.886719 12.507812 40.082031 C 12.144531 40.550781 12.140625 41.195312 12.511719 41.554688 C 12.765625 41.800781 13.125 41.859375 13.460938 41.742188 C 13.484375 41.738281 13.507812 41.734375 13.53125 41.734375 C 13.65625 41.734375 13.757812 41.832031 13.757812 41.957031 C 13.757812 42.078125 13.65625 42.179688 13.53125 42.179688 C 13.480469 42.179688 13.429688 42.160156 13.390625 42.128906 C 13.304688 42.054688 13.195312 42.015625 13.078125 42.015625 C 12.808594 42.015625 12.585938 42.234375 12.585938 42.503906 C 12.585938 42.527344 12.589844 42.546875 12.589844 42.566406 C 12.546875 42.578125 12.496094 42.585938 12.445312 42.585938 C 12.3125 42.585938 12.191406 42.535156 12.105469 42.449219 C 12.089844 42.5 12.085938 42.554688 12.085938 42.613281 C 12.085938 42.960938 12.351562 43.242188 12.6875 43.269531 C 12.839844 43.648438 13.210938 43.914062 13.644531 43.914062 C 13.867188 43.914062 14.070312 43.84375 14.238281 43.722656 C 14.3125 43.671875 14.402344 43.640625 14.496094 43.640625 C 14.746094 43.640625 14.949219 43.84375 14.949219 44.09375 C 14.949219 44.308594 14.796875 44.488281 14.597656 44.535156 L 14.246094 44.609375 C 14.1875 44.625 14.132812 44.621094 14.078125 44.605469 C 14.023438 44.589844 13.976562 44.566406 13.933594 44.523438 L 14.734375 45.285156 C 14.777344 45.328125 14.828125 45.355469 14.882812 45.367188 C 14.933594 45.382812 14.992188 45.386719 15.050781 45.375 L 15.707031 45.226562 C 15.765625 45.214844 15.820312 45.21875 15.875 45.234375 C 15.925781 45.246094 15.976562 45.273438 16.019531 45.316406 L 16.570312 45.839844 C 16.527344 45.796875 16.476562 45.769531 16.425781 45.757812 C 16.371094 45.742188 16.316406 45.738281 16.257812 45.75 L 15.601562 45.898438 C 15.542969 45.910156 15.484375 45.90625 15.433594 45.890625 C 15.382812 45.878906 15.328125 45.851562 15.289062 45.808594 L 16.023438 46.507812 C 16.066406 46.546875 16.117188 46.574219 16.167969 46.589844 C 16.222656 46.605469 16.28125 46.609375 16.335938 46.59375 L 16.996094 46.449219 C 17.054688 46.4375 17.109375 46.441406 17.164062 46.457031 C 17.214844 46.46875 17.265625 46.496094 17.308594 46.539062 L 17.859375 47.0625 C 17.816406 47.023438 17.765625 46.992188 17.714844 46.980469 C 17.660156 46.964844 17.605469 46.960938 17.546875 46.972656 L 16.890625 47.121094 C 16.832031 47.132812 16.773438 47.128906 16.722656 47.113281 C 16.667969 47.101562 16.617188 47.074219 16.574219 47.035156 L 17.3125 47.730469 C 17.355469 47.773438 17.40625 47.796875 17.457031 47.8125 C 17.511719 47.828125 17.566406 47.832031 17.625 47.816406 L 18.421875 47.644531 C 17.648438 48.078125 16.828125 48.574219 15.957031 49.125 C 15.441406 49.449219 14.878906 49.511719 14.230469 49.261719 C 13.882812 49.128906 13.507812 49.109375 13.269531 49.148438 C 12.957031 49.203125 12.695312 49.390625 12.542969 49.652344 C 12.660156 49.601562 12.792969 49.574219 12.929688 49.574219 C 13.21875 49.574219 13.480469 49.691406 13.671875 49.878906 C 13.371094 49.753906 12.996094 49.742188 12.632812 49.875 C 11.984375 50.109375 11.605469 50.722656 11.753906 51.273438 C 11.511719 51.367188 11.339844 51.601562 11.339844 51.875 C 11.339844 52.054688 11.414062 52.21875 11.53125 52.335938 C 11.597656 52.046875 11.847656 51.832031 12.152344 51.820312 C 12.28125 51.90625 12.429688 51.964844 12.589844 51.996094 C 12.636719 51.914062 12.695312 51.835938 12.765625 51.773438 C 12.761719 51.722656 12.757812 51.667969 12.757812 51.617188 C 12.757812 51.023438 13.234375 50.542969 13.828125 50.542969 C 13.878906 50.542969 13.925781 50.542969 13.972656 50.550781 C 13.503906 50.664062 13.152344 51.089844 13.152344 51.59375 C 13.152344 51.660156 13.15625 51.722656 13.167969 51.785156 C 12.914062 51.882812 12.734375 52.125 12.734375 52.414062 C 12.734375 52.578125 12.796875 52.730469 12.894531 52.847656 C 13.074219 52.492188 13.429688 52.242188 13.847656 52.199219 C 14.003906 52.246094 14.171875 52.273438 14.34375 52.273438 C 14.449219 52.273438 14.554688 52.261719 14.65625 52.242188 C 14.566406 52.109375 14.511719 51.945312 14.511719 51.773438 C 14.511719 51.308594 14.886719 50.9375 15.347656 50.9375 C 15.386719 50.9375 15.425781 50.941406 15.464844 50.945312 C 15.023438 51.132812 14.753906 51.515625 14.847656 51.863281 C 14.910156 52.113281 15.144531 52.28125 15.445312 52.339844 C 15.441406 52.523438 15.390625 52.699219 15.304688 52.847656 C 15.691406 52.820312 16.023438 52.589844 16.1875 52.257812 C 16.644531 52.074219 16.925781 51.683594 16.828125 51.328125 C 16.796875 51.203125 16.71875 51.09375 16.609375 51.011719 C 16.609375 51 16.609375 50.988281 16.609375 50.976562 C 16.609375 50.734375 16.808594 50.535156 17.050781 50.535156 C 17.296875 50.535156 17.492188 50.734375 17.492188 50.976562 C 17.492188 51.09375 17.449219 51.199219 17.378906 51.277344 L 18.304688 51.277344 C 18.363281 51.277344 18.417969 51.261719 18.464844 51.234375 C 18.515625 51.210938 18.558594 51.171875 18.589844 51.125 L 19.1875 50.242188 C 19.207031 50.207031 19.238281 50.183594 19.269531 50.164062 C 19.304688 50.148438 19.34375 50.136719 19.382812 50.136719 L 20.109375 50.136719 C 20.070312 50.136719 20.03125 50.148438 20 50.164062 C 19.964844 50.183594 19.9375 50.207031 19.914062 50.242188 L 19.316406 51.125 C 19.285156 51.171875 19.242188 51.210938 19.191406 51.234375 C 19.144531 51.261719 19.089844 51.277344 19.03125 51.277344 L 20.136719 51.277344 C 20.195312 51.277344 20.253906 51.261719 20.300781 51.234375 C 20.347656 51.210938 20.394531 51.171875 20.425781 51.125 L 21.09375 50.136719 C 20.632812 49.886719 20.441406 49.445312 20.441406 48.839844 C 20.441406 48.460938 20.65625 48.03125 20.6875 47.753906 L 20.699219 47.644531 C 20.707031 47.585938 20.699219 47.53125 20.679688 47.480469 C 20.664062 47.4375 20.632812 47.378906 20.597656 47.335938 L 21.164062 47.921875 C 21.210938 47.957031 21.242188 48.007812 21.261719 48.058594 C 21.28125 48.109375 21.289062 48.164062 21.285156 48.222656 L 21.265625 48.359375 C 21.238281 48.589844 20.949219 49.089844 21.488281 49.546875 C 21.515625 49.570312 21.585938 49.617188 21.648438 49.660156 L 22.03125 49.902344 L 22.03125 48.480469 L 22.570312 48.480469 L 22.570312 50.058594 C 22.574219 50.121094 22.589844 50.175781 22.617188 50.222656 C 22.644531 50.269531 22.683594 50.3125 22.730469 50.34375 L 23.257812 50.679688 C 23.308594 50.710938 23.363281 50.726562 23.417969 50.730469 C 23.472656 50.734375 23.53125 50.726562 23.582031 50.703125 L 24.554688 50.28125 C 24.5 50.304688 24.441406 50.316406 24.390625 50.308594 C 24.335938 50.304688 24.277344 50.289062 24.230469 50.257812 L 23.113281 49.546875 C 23.65625 49.089844 23.363281 48.589844 23.335938 48.359375 L 23.320312 48.222656 C 23.3125 48.164062 23.320312 48.109375 23.34375 48.058594 C 23.363281 48.007812 23.394531 47.957031 23.4375 47.921875 L 24.007812 47.335938 C 23.972656 47.378906 23.941406 47.4375 23.925781 47.480469 C 23.90625 47.53125 23.898438 47.585938 23.90625 47.644531 L 23.917969 47.753906 C 23.964844 48.152344 24.363281 48.867188 24.03125 49.265625 L 25.050781 49.914062 C 25.097656 49.945312 25.152344 49.960938 25.207031 49.964844 C 25.261719 49.96875 25.320312 49.960938 25.375 49.9375 L 26.390625 49.496094 C 26.335938 49.519531 26.277344 49.527344 26.226562 49.523438 C 26.171875 49.519531 26.113281 49.503906 26.066406 49.46875 L 24.964844 48.769531 C 25.203125 48.277344 25 47.496094 24.769531 47.042969 L 24.734375 46.976562 C 24.707031 46.925781 24.695312 46.867188 24.695312 46.8125 C 24.695312 46.757812 24.710938 46.703125 24.738281 46.652344 L 25.117188 45.96875 C 25.089844 46.019531 25.074219 46.078125 25.074219 46.128906 C 25.074219 46.183594 25.085938 46.242188 25.113281 46.292969 L 25.25 46.566406 C 25.324219 46.699219 25.363281 46.777344 25.429688 46.933594 C 26.050781 46.375 26.1875 45.835938 25.792969 45.378906 L 25.675781 45.238281 C 25.636719 45.195312 25.609375 45.144531 25.597656 45.089844 C 25.585938 45.035156 25.585938 44.980469 25.601562 44.921875 L 25.804688 44.167969 C 25.789062 44.226562 25.789062 44.28125 25.800781 44.335938 C 25.8125 44.386719 25.839844 44.441406 25.878906 44.484375 L 26.265625 44.9375 C 27.019531 45.789062 26.5625 46.886719 25.664062 47.726562 C 25.714844 47.886719 25.757812 48.1875 25.71875 48.347656 L 26.914062 49.109375 C 26.964844 49.140625 27.019531 49.15625 27.074219 49.160156 C 27.128906 49.164062 27.1875 49.15625 27.238281 49.132812 L 28.105469 48.757812 C 28.054688 48.777344 28 48.789062 27.945312 48.789062 C 27.722656 48.789062 27.539062 48.609375 27.539062 48.386719 C 27.539062 48.207031 27.65625 48.054688 27.820312 48.003906 C 31.121094 47 34.15625 44.410156 36.152344 44.417969 C 37.121094 44.421875 37.90625 45.007812 37.90625 45.734375 C 37.90625 45.851562 37.886719 45.964844 37.847656 46.074219 C 37.421875 47.265625 38.042969 48.40625 39.675781 48.847656 C 39.9375 48.917969 40.128906 49.15625 40.128906 49.4375 C 40.128906 49.492188 40.121094 49.546875 40.109375 49.597656 C 40.144531 49.601562 40.183594 49.601562 40.222656 49.601562 C 40.671875 49.601562 41.070312 49.378906 41.3125 49.035156 C 41.59375 49.035156 41.898438 49.015625 42.210938 48.984375 C 42.25 49.058594 42.28125 49.148438 42.296875 49.242188 C 42.363281 49.585938 42.246094 49.894531 42.035156 49.960938 C 41.660156 50.085938 41.199219 49.9375 40.84375 49.941406 C 40.171875 49.949219 39.628906 50.496094 39.628906 51.167969 C 39.628906 51.21875 39.632812 51.273438 39.640625 51.324219 C 39.429688 51.457031 39.289062 51.691406 39.289062 51.957031 C 39.289062 52.089844 39.324219 52.214844 39.386719 52.320312 C 39.59375 52.082031 39.859375 51.894531 40.167969 51.785156 C 40.195312 51.195312 40.679688 50.726562 41.277344 50.726562 C 41.367188 50.726562 41.457031 50.738281 41.539062 50.757812 C 40.9375 50.832031 40.46875 51.347656 40.46875 51.972656 C 40.46875 52.019531 40.472656 52.066406 40.476562 52.109375 C 40.402344 52.199219 40.355469 52.316406 40.355469 52.441406 C 40.355469 52.601562 40.429688 52.746094 40.542969 52.84375 C 40.65625 52.59375 40.929688 52.359375 41.285156 52.238281 C 41.527344 52.160156 41.761719 52.144531 41.957031 52.183594 C 41.925781 52.089844 41.910156 51.988281 41.910156 51.886719 C 41.910156 51.351562 42.34375 50.921875 42.875 50.921875 C 42.925781 50.921875 42.972656 50.925781 43.019531 50.929688 C 42.648438 50.984375 42.363281 51.300781 42.363281 51.683594 C 42.363281 51.941406 42.488281 52.167969 42.679688 52.304688 C 42.679688 52.320312 42.679688 52.332031 42.679688 52.347656 C 42.679688 52.558594 42.777344 52.742188 42.925781 52.867188 C 42.992188 52.515625 43.300781 52.253906 43.671875 52.253906 C 43.988281 52.253906 44.246094 52.210938 44.441406 52.148438 C 44.773438 52.039062 45.015625 51.734375 45.015625 51.371094 C 45.015625 51.117188 44.898438 50.890625 44.71875 50.742188 C 44.808594 50.332031 44.789062 49.660156 44.652344 49.097656 C 44.679688 49.09375 44.710938 49.09375 44.738281 49.09375 C 44.96875 49.09375 45.171875 49.210938 45.289062 49.390625 M 19.355469 46.566406 L 19.492188 46.292969 C 19.519531 46.242188 19.53125 46.183594 19.527344 46.128906 C 19.527344 46.078125 19.515625 46.019531 19.484375 45.96875 L 19.863281 46.652344 C 19.894531 46.703125 19.90625 46.757812 19.90625 46.8125 C 19.910156 46.867188 19.898438 46.925781 19.871094 46.976562 L 19.835938 47.042969 C 19.605469 47.496094 19.386719 48.34375 19.628906 48.835938 C 19.066406 48.625 18.882812 48.132812 18.941406 47.726562 C 17.882812 46.722656 17.617188 45.707031 18.371094 44.851562 L 18.761719 44.402344 C 18.800781 44.355469 18.824219 44.304688 18.835938 44.25 C 18.847656 44.199219 18.847656 44.140625 18.832031 44.085938 L 19.035156 44.839844 C 19.050781 44.894531 19.050781 44.953125 19.039062 45.007812 C 19.027344 45.058594 19 45.113281 18.964844 45.15625 L 18.84375 45.292969 C 18.449219 45.753906 18.554688 46.375 19.175781 46.933594 C 19.238281 46.777344 19.28125 46.699219 19.355469 46.566406 M 20.761719 41.121094 L 20.511719 41.121094 C 20.242188 41.121094 20.003906 40.761719 20.003906 40.433594 C 20.152344 40.601562 20.308594 40.671875 20.519531 40.671875 L 21.660156 40.671875 C 21.765625 40.671875 21.867188 40.75 21.910156 40.882812 C 21.941406 40.976562 21.925781 41.121094 21.90625 41.261719 C 21.851562 41.160156 21.78125 41.121094 21.691406 41.121094 L 21.433594 41.121094 C 21.496094 41.199219 21.53125 41.292969 21.53125 41.398438 C 21.53125 41.640625 21.335938 41.835938 21.097656 41.835938 C 20.855469 41.835938 20.660156 41.640625 20.660156 41.398438 C 20.660156 41.292969 20.699219 41.199219 20.761719 41.121094 M 21.050781 39.058594 L 21.523438 39.664062 C 21.628906 39.792969 21.660156 39.878906 21.785156 39.894531 L 21.390625 39.894531 C 21.191406 39.894531 21.054688 39.8125 20.9375 39.679688 L 20.480469 39.085938 C 20.40625 38.992188 20.347656 38.925781 20.25 38.882812 L 20.699219 38.882812 C 20.835938 38.882812 20.953125 38.941406 21.050781 39.058594 M 22.367188 38.914062 L 22.949219 39.730469 C 23.042969 39.867188 23.128906 39.941406 23.253906 39.992188 L 22.722656 39.992188 C 22.515625 39.992188 22.394531 39.898438 22.304688 39.75 L 21.84375 39.046875 C 21.671875 38.785156 21.601562 38.71875 21.398438 38.648438 L 21.894531 38.648438 C 22.089844 38.648438 22.273438 38.773438 22.367188 38.914062 M 24.449219 39.894531 L 24.050781 39.894531 C 23.851562 39.894531 23.714844 39.8125 23.597656 39.679688 L 23.144531 39.085938 C 23.070312 38.992188 23.011719 38.925781 22.910156 38.882812 L 23.363281 38.882812 C 23.496094 38.882812 23.617188 38.941406 23.710938 39.058594 L 24.183594 39.664062 C 24.289062 39.792969 24.324219 39.878906 24.449219 39.894531 M 24.601562 40.433594 C 24.601562 40.761719 24.363281 41.121094 24.089844 41.121094 L 23.84375 41.121094 C 23.90625 41.199219 23.941406 41.292969 23.941406 41.398438 C 23.941406 41.640625 23.746094 41.835938 23.507812 41.835938 C 23.265625 41.835938 23.070312 41.640625 23.070312 41.398438 C 23.070312 41.292969 23.109375 41.199219 23.171875 41.121094 L 22.910156 41.121094 C 22.824219 41.121094 22.753906 41.160156 22.699219 41.261719 C 22.679688 41.121094 22.664062 40.976562 22.695312 40.882812 C 22.738281 40.75 22.839844 40.671875 22.941406 40.671875 L 24.085938 40.671875 C 24.296875 40.671875 24.453125 40.601562 24.601562 40.433594 M 24.25 42.90625 C 24.171875 42.925781 24.128906 42.972656 24.117188 43.054688 C 24.070312 43.503906 23.890625 43.683594 23.601562 43.785156 C 23.597656 44.234375 23.535156 44.574219 23.414062 44.996094 C 23.757812 45.710938 23.492188 46.214844 23.214844 46.320312 C 22.949219 46.421875 22.609375 46.285156 22.304688 46.285156 C 22.003906 46.285156 21.65625 46.421875 21.390625 46.320312 C 21.109375 46.214844 20.847656 45.710938 21.191406 44.996094 C 21.070312 44.574219 21.007812 44.234375 21.003906 43.785156 C 20.714844 43.683594 20.53125 43.503906 20.484375 43.054688 C 20.476562 42.972656 20.433594 42.925781 20.355469 42.90625 C 19.214844 42.59375 19.109375 41.175781 19.683594 40.777344 C 19.632812 41.410156 19.578125 42.304688 20.875 42.425781 C 20.855469 43.167969 21.175781 43.367188 21.507812 43.367188 C 21.777344 43.367188 21.933594 43.28125 22 43.246094 C 22.242188 43.117188 22.074219 42.921875 22.015625 42.863281 C 21.847656 42.707031 21.765625 42.488281 21.804688 42.269531 C 21.8125 42.230469 21.824219 42.210938 21.863281 42.210938 L 22.742188 42.210938 C 22.777344 42.210938 22.792969 42.230469 22.800781 42.269531 C 22.839844 42.488281 22.757812 42.707031 22.589844 42.863281 C 22.527344 42.921875 22.363281 43.117188 22.605469 43.246094 C 22.671875 43.28125 22.828125 43.367188 23.097656 43.367188 C 23.429688 43.367188 23.75 43.167969 23.730469 42.425781 C 25.027344 42.304688 24.972656 41.410156 24.921875 40.777344 C 25.496094 41.175781 25.386719 42.59375 24.25 42.90625 M 23.101562 45.636719 C 23.136719 45.257812 22.703125 45.121094 22.300781 45.121094 C 21.898438 45.121094 21.46875 45.257812 21.503906 45.636719 C 21.542969 46.097656 21.976562 45.878906 22.300781 45.878906 C 22.628906 45.878906 23.058594 46.097656 23.101562 45.636719 M 22.96875 44.738281 C 23.03125 44.402344 23.054688 44.078125 23.042969 43.765625 L 22.746094 44.117188 C 22.6875 43.976562 22.648438 43.890625 22.605469 43.824219 C 22.574219 43.765625 22.546875 43.726562 22.507812 43.71875 C 22.488281 43.730469 22.457031 43.746094 22.425781 43.753906 C 22.386719 43.761719 22.335938 43.757812 22.300781 43.757812 C 22.269531 43.757812 22.21875 43.761719 22.179688 43.753906 C 22.148438 43.746094 22.117188 43.730469 22.097656 43.71875 C 22.058594 43.726562 22.03125 43.765625 21.996094 43.824219 C 21.957031 43.890625 21.917969 43.976562 21.859375 44.117188 L 21.558594 43.765625 C 21.550781 44.078125 21.574219 44.402344 21.636719 44.738281 C 21.859375 44.6875 22.085938 44.671875 22.300781 44.671875 C 22.519531 44.671875 22.746094 44.6875 22.96875 44.738281 M 28.40625 35.40625 C 28.457031 35.40625 28.503906 35.410156 28.550781 35.414062 C 28.082031 35.546875 27.703125 35.898438 27.527344 36.347656 C 27.238281 36.445312 27.027344 36.71875 27.027344 37.042969 C 27.027344 37.191406 27.074219 37.332031 27.152344 37.449219 C 27.402344 37.167969 27.734375 36.957031 28.113281 36.851562 C 28.222656 36.3125 28.671875 35.894531 29.230469 35.835938 C 28.742188 36.039062 28.402344 36.519531 28.402344 37.082031 C 28.402344 37.28125 28.445312 37.46875 28.519531 37.636719 C 28.605469 37.328125 28.890625 37.101562 29.226562 37.101562 C 29.3125 37.101562 29.390625 37.117188 29.46875 37.144531 C 29.570312 37.179688 29.683594 37.203125 29.800781 37.203125 C 30.34375 37.203125 30.78125 36.761719 30.78125 36.21875 C 30.78125 36.113281 30.761719 36.007812 30.730469 35.910156 C 30.988281 35.984375 31.175781 36.222656 31.175781 36.503906 C 31.175781 36.632812 31.136719 36.753906 31.070312 36.851562 C 31.140625 36.867188 31.214844 36.871094 31.292969 36.871094 C 31.929688 36.871094 32.453125 36.394531 32.527344 35.777344 C 32.847656 35.601562 33.128906 35.367188 33.371094 35.078125 L 33.539062 35.90625 C 33.554688 35.964844 33.550781 36.019531 33.535156 36.074219 C 33.519531 36.125 33.492188 36.175781 33.449219 36.21875 L 34.152344 35.496094 C 34.195312 35.453125 34.222656 35.402344 34.234375 35.351562 C 34.253906 35.296875 34.253906 35.242188 34.242188 35.183594 L 34.035156 34.171875 C 34.023438 34.113281 34.027344 34.054688 34.042969 34.003906 C 34.058594 33.953125 34.085938 33.902344 34.128906 33.859375 L 34.679688 33.296875 C 34.640625 33.339844 34.609375 33.386719 34.597656 33.441406 C 34.582031 33.492188 34.578125 33.550781 34.589844 33.609375 L 34.796875 34.621094 C 34.808594 34.679688 34.804688 34.734375 34.789062 34.789062 C 34.777344 34.839844 34.75 34.890625 34.710938 34.929688 L 35.335938 34.28125 C 35.375 34.238281 35.402344 34.1875 35.417969 34.132812 C 35.433594 34.082031 35.4375 34.023438 35.425781 33.96875 L 35.21875 32.957031 C 35.207031 32.902344 35.210938 32.84375 35.226562 32.789062 C 35.242188 32.738281 35.269531 32.6875 35.308594 32.644531 L 35.863281 32.082031 C 35.820312 32.125 35.792969 32.171875 35.777344 32.226562 C 35.765625 32.28125 35.761719 32.335938 35.773438 32.394531 L 35.980469 33.40625 C 35.992188 33.464844 35.988281 33.523438 35.972656 33.574219 C 35.960938 33.625 35.933594 33.675781 35.890625 33.714844 L 36.519531 33.066406 C 36.558594 33.023438 36.585938 32.972656 36.601562 32.921875 C 36.617188 32.867188 36.621094 32.808594 36.609375 32.753906 L 36.507812 32.257812 C 36.402344 31.699219 36.980469 31.054688 37.4375 30.992188 C 37.492188 30.886719 37.523438 30.769531 37.523438 30.652344 C 37.523438 30.085938 36.847656 29.625 36.011719 29.625 C 35.605469 29.625 35.234375 29.734375 34.964844 29.914062 C 35.074219 30.238281 35.097656 30.566406 34.027344 30.714844 C 33.179688 30.835938 32.433594 31 31.867188 31.484375 C 30.992188 32.222656 31.0625 33.214844 30.566406 33.589844 C 30.785156 33.644531 31.066406 33.644531 31.367188 33.578125 C 31.558594 33.539062 31.734375 33.472656 31.890625 33.398438 C 31.796875 33.574219 31.585938 33.746094 31.304688 33.863281 C 31.210938 34.214844 30.902344 34.546875 30.480469 34.703125 C 30.214844 34.800781 29.953125 34.8125 29.734375 34.75 L 28.710938 34.453125 C 28.585938 34.417969 28.453125 34.398438 28.316406 34.398438 C 27.5625 34.398438 26.941406 34.980469 26.851562 35.730469 C 26.492188 35.78125 26.222656 36.085938 26.222656 36.457031 C 26.222656 36.589844 26.257812 36.71875 26.320312 36.828125 C 26.566406 36.578125 26.878906 36.390625 27.226562 36.296875 C 27.371094 35.785156 27.847656 35.40625 28.40625 35.40625 M 28.480469 41.175781 C 28.464844 41.085938 28.464844 40.996094 28.484375 40.902344 C 28.523438 40.726562 28.679688 40.59375 28.867188 40.59375 C 29.082031 40.59375 29.257812 40.769531 29.257812 40.984375 C 29.257812 41.089844 29.214844 41.183594 29.152344 41.253906 C 29.222656 41.257812 29.300781 41.261719 29.378906 41.261719 C 29.578125 41.261719 29.769531 41.238281 29.9375 41.195312 C 30.210938 41.121094 30.414062 40.867188 30.414062 40.570312 C 30.414062 40.214844 30.125 39.925781 29.769531 39.925781 C 29.75 39.925781 29.730469 39.925781 29.710938 39.929688 C 29.800781 39.890625 29.898438 39.871094 30.003906 39.871094 C 30.417969 39.871094 30.753906 40.203125 30.753906 40.617188 C 30.753906 40.640625 30.753906 40.660156 30.75 40.683594 C 31.867188 40.65625 33.125 39.640625 33.398438 39.25 C 33.050781 39.332031 32.671875 39.375 32.273438 39.375 C 31.824219 39.375 31.394531 39.320312 31.007812 39.21875 C 30.460938 39.074219 29.917969 38.992188 29.503906 38.992188 C 28.136719 38.992188 27.023438 39.882812 27.023438 40.988281 C 27.023438 41.898438 27.777344 42.691406 28.820312 42.90625 C 31.191406 43.390625 33.980469 41.980469 36.335938 41.492188 C 36.925781 40.917969 37.605469 40.433594 38.355469 40.074219 C 38.332031 39.984375 38.320312 39.894531 38.320312 39.804688 L 38.320312 39.796875 C 35.195312 40.3125 32.382812 41.914062 29.839844 41.902344 C 29.128906 41.898438 28.570312 41.625 28.480469 41.175781 M 45.289062 34.226562 C 45.332031 34.125 45.355469 34.015625 45.355469 33.898438 C 45.355469 33.425781 44.972656 33.039062 44.496094 33.039062 L 43.632812 33.039062 C 43.574219 33.042969 43.519531 33.027344 43.46875 33 C 43.421875 32.976562 43.378906 32.9375 43.34375 32.890625 L 42.910156 32.25 C 42.941406 32.296875 42.984375 32.335938 43.035156 32.359375 C 43.082031 32.386719 43.140625 32.402344 43.199219 32.398438 L 44.339844 32.402344 C 44.398438 32.402344 44.453125 32.414062 44.503906 32.441406 C 44.550781 32.464844 44.59375 32.503906 44.628906 32.550781 L 44.101562 31.785156 C 44.070312 31.734375 44.027344 31.699219 43.976562 31.671875 C 43.929688 31.648438 43.871094 31.632812 43.816406 31.632812 L 42.683594 31.632812 C 42.625 31.632812 42.570312 31.621094 42.519531 31.59375 C 42.472656 31.566406 42.429688 31.53125 42.394531 31.484375 L 41.902344 30.757812 C 41.9375 30.804688 41.980469 30.84375 42.027344 30.867188 C 42.078125 30.894531 42.132812 30.910156 42.191406 30.910156 L 43.328125 30.910156 C 43.386719 30.910156 43.441406 30.921875 43.488281 30.949219 C 43.539062 30.972656 43.582031 31.011719 43.613281 31.058594 L 43.089844 30.292969 C 43.058594 30.242188 43.015625 30.207031 42.964844 30.179688 C 42.917969 30.15625 42.859375 30.140625 42.804688 30.140625 L 41.898438 30.140625 C 41.839844 30.140625 41.785156 30.125 41.738281 30.101562 C 41.6875 30.074219 41.644531 30.039062 41.613281 29.988281 L 41.003906 29.097656 C 42.230469 28.953125 43.222656 28.285156 43.417969 27.371094 C 43.675781 26.183594 42.492188 25.03125 40.78125 24.777344 C 40.496094 24.738281 40.273438 24.488281 40.273438 24.191406 C 40.273438 23.9375 40.433594 23.71875 40.660156 23.632812 C 40.476562 23.554688 40.273438 23.511719 40.058594 23.511719 C 39.300781 23.511719 38.6875 24.054688 38.6875 24.722656 C 38.6875 24.84375 38.710938 24.960938 38.746094 25.070312 C 37.898438 25.433594 37.125 26.085938 36.535156 26.785156 C 37.167969 26.617188 37.832031 26.527344 38.515625 26.527344 C 38.511719 26.496094 38.511719 26.464844 38.511719 26.429688 C 38.511719 25.917969 38.925781 25.503906 39.4375 25.503906 L 39.453125 25.503906 C 39.101562 25.65625 38.933594 25.992188 38.933594 26.214844 C 38.933594 26.480469 39.148438 26.695312 39.410156 26.695312 C 39.515625 26.695312 39.609375 26.660156 39.6875 26.605469 C 39.671875 26.546875 39.660156 26.484375 39.660156 26.414062 C 39.660156 26.046875 39.957031 25.75 40.324219 25.75 C 40.355469 25.75 40.390625 25.753906 40.421875 25.757812 C 40.167969 25.875 39.992188 26.132812 39.992188 26.433594 C 39.992188 26.84375 40.324219 27.175781 40.734375 27.175781 C 40.78125 27.175781 40.820312 27.171875 40.863281 27.167969 C 40.851562 27.121094 40.847656 27.078125 40.847656 27.03125 C 40.847656 26.734375 41.085938 26.496094 41.378906 26.496094 C 41.675781 26.496094 41.914062 26.734375 41.914062 27.03125 C 41.914062 27.671875 41.199219 27.730469 40.683594 27.582031 C 39.203125 27.15625 37.820312 26.964844 36.480469 27.152344 C 34.761719 27.394531 31.949219 28.554688 28.960938 28.457031 C 28.292969 28.4375 27.566406 28.324219 26.832031 28.125 C 26.921875 28.222656 26.980469 28.292969 27.015625 28.347656 C 27.308594 28.800781 27.40625 29.277344 27.152344 29.871094 C 27.15625 29.207031 26.609375 28.65625 26.148438 28.320312 C 25.960938 28.1875 25.886719 28.058594 25.917969 27.882812 L 26.054688 27.117188 C 26.042969 27.171875 26.046875 27.230469 26.066406 27.28125 C 26.082031 27.335938 26.109375 27.382812 26.152344 27.425781 L 26.441406 27.707031 C 26.550781 26.929688 26.371094 26.203125 25.910156 25.53125 C 26.113281 24.996094 26.144531 24.40625 26.007812 23.851562 C 25.953125 24.269531 25.746094 24.449219 25.550781 24.574219 C 25.1875 24.800781 25.128906 25.183594 25.316406 25.441406 C 25.007812 25.285156 24.585938 24.714844 24.828125 24.382812 C 25.09375 24.023438 25.816406 24.191406 25.90625 23.578125 C 25.4375 23.425781 24.953125 23.53125 24.808594 23.574219 C 24.527344 23.253906 24.160156 23.09375 23.699219 23.097656 C 23.339844 22.769531 22.871094 22.632812 22.300781 22.691406 C 21.734375 22.632812 21.265625 22.769531 20.902344 23.097656 C 20.445312 23.09375 20.074219 23.253906 19.796875 23.574219 C 19.648438 23.53125 19.167969 23.425781 18.699219 23.578125 C 18.785156 24.191406 19.511719 24.023438 19.773438 24.382812 C 20.019531 24.714844 19.597656 25.285156 19.289062 25.441406 C 19.476562 25.183594 19.417969 24.800781 19.054688 24.574219 C 18.859375 24.449219 18.652344 24.269531 18.597656 23.851562 C 18.460938 24.40625 18.488281 24.996094 18.695312 25.53125 C 18.230469 26.203125 18.054688 26.929688 18.164062 27.707031 L 18.453125 27.425781 C 18.492188 27.382812 18.523438 27.335938 18.539062 27.28125 C 18.558594 27.230469 18.5625 27.171875 18.550781 27.117188 L 18.6875 27.882812 C 18.71875 28.058594 18.644531 28.1875 18.457031 28.320312 C 17.996094 28.65625 17.445312 29.207031 17.453125 29.871094 C 17.195312 29.277344 17.300781 28.78125 17.589844 28.347656 C 16.710938 27.875 16.046875 27.097656 15.921875 26.957031 C 15.65625 26.648438 15.691406 26.257812 15.933594 25.914062 C 16.394531 25.25 16.503906 24.542969 15.925781 24.0625 C 15.929688 24.027344 15.929688 23.992188 15.929688 23.953125 C 15.929688 23.515625 15.617188 23.148438 15.203125 23.066406 C 15.28125 23.1875 15.324219 23.328125 15.324219 23.484375 C 15.324219 23.65625 15.265625 23.820312 15.167969 23.949219 C 15.25 24.054688 15.300781 24.191406 15.300781 24.335938 C 15.300781 24.53125 15.210938 24.707031 15.070312 24.824219 C 15.085938 24.757812 15.09375 24.6875 15.09375 24.617188 C 15.09375 24.164062 14.8125 23.785156 14.433594 23.679688 C 14.371094 23.351562 14.085938 23.105469 13.738281 23.105469 C 13.539062 23.105469 13.359375 23.1875 13.230469 23.320312 C 13.496094 23.34375 13.714844 23.550781 13.742188 23.820312 C 13.613281 23.914062 13.511719 24.046875 13.445312 24.203125 L 13.460938 24.203125 C 13.925781 24.203125 14.300781 24.578125 14.300781 25.039062 C 14.300781 25.09375 14.292969 25.144531 14.285156 25.195312 C 14.25 25.003906 14.164062 24.828125 14.023438 24.695312 C 13.765625 24.441406 13.386719 24.386719 13.039062 24.519531 C 12.910156 24.355469 12.710938 24.25 12.488281 24.25 C 12.234375 24.25 12.011719 24.382812 11.886719 24.582031 C 12.140625 24.59375 12.367188 24.722656 12.507812 24.917969 C 12.144531 25.382812 12.140625 26.027344 12.511719 26.390625 C 12.765625 26.636719 13.125 26.695312 13.460938 26.578125 C 13.484375 26.570312 13.507812 26.566406 13.53125 26.566406 C 13.65625 26.566406 13.757812 26.667969 13.757812 26.789062 C 13.757812 26.914062 13.65625 27.011719 13.53125 27.011719 C 13.480469 27.011719 13.429688 26.996094 13.390625 26.960938 C 13.304688 26.890625 13.195312 26.847656 13.078125 26.847656 C 12.808594 26.847656 12.585938 27.070312 12.585938 27.339844 C 12.585938 27.359375 12.589844 27.378906 12.589844 27.402344 C 12.546875 27.414062 12.496094 27.421875 12.445312 27.421875 C 12.3125 27.421875 12.191406 27.367188 12.105469 27.28125 C 12.089844 27.335938 12.085938 27.390625 12.085938 27.449219 C 12.085938 27.792969 12.351562 28.078125 12.6875 28.101562 C 12.839844 28.480469 13.210938 28.746094 13.644531 28.746094 C 13.867188 28.746094 14.070312 28.675781 14.238281 28.558594 C 14.3125 28.507812 14.402344 28.476562 14.496094 28.476562 C 14.746094 28.476562 14.949219 28.679688 14.949219 28.929688 C 14.949219 29.144531 14.796875 29.324219 14.597656 29.367188 L 14.246094 29.445312 C 14.1875 29.457031 14.132812 29.457031 14.078125 29.441406 C 14.023438 29.425781 13.976562 29.398438 13.933594 29.359375 L 14.734375 30.121094 C 14.777344 30.160156 14.828125 30.191406 14.882812 30.203125 C 14.933594 30.21875 14.992188 30.222656 15.050781 30.207031 L 15.707031 30.0625 C 15.765625 30.050781 15.820312 30.050781 15.875 30.066406 C 15.925781 30.082031 15.976562 30.109375 16.019531 30.148438 L 16.570312 30.671875 C 16.527344 30.632812 16.476562 30.605469 16.425781 30.589844 C 16.371094 30.578125 16.316406 30.574219 16.257812 30.585938 L 15.601562 30.730469 C 15.542969 30.746094 15.484375 30.742188 15.433594 30.726562 C 15.382812 30.710938 15.328125 30.683594 15.289062 30.644531 L 16.023438 31.34375 C 16.066406 31.382812 16.117188 31.410156 16.167969 31.425781 C 16.222656 31.441406 16.28125 31.441406 16.335938 31.429688 L 16.996094 31.285156 C 17.054688 31.273438 17.109375 31.277344 17.164062 31.289062 C 17.214844 31.304688 17.265625 31.332031 17.308594 31.371094 L 17.859375 31.898438 C 17.816406 31.855469 17.765625 31.828125 17.714844 31.816406 C 17.660156 31.800781 17.605469 31.796875 17.546875 31.808594 L 16.890625 31.953125 C 16.832031 31.96875 16.773438 31.964844 16.722656 31.949219 C 16.667969 31.933594 16.617188 31.910156 16.574219 31.867188 L 17.3125 32.566406 C 17.355469 32.605469 17.40625 32.632812 17.457031 32.648438 C 17.511719 32.664062 17.566406 32.664062 17.625 32.652344 L 18.421875 32.476562 C 17.648438 32.914062 16.828125 33.410156 15.957031 33.960938 C 15.441406 34.285156 14.878906 34.34375 14.230469 34.097656 C 13.882812 33.964844 13.507812 33.941406 13.269531 33.984375 C 12.957031 34.035156 12.695312 34.222656 12.542969 34.484375 C 12.660156 34.4375 12.792969 34.410156 12.929688 34.410156 C 13.21875 34.410156 13.480469 34.527344 13.671875 34.714844 C 13.371094 34.589844 12.996094 34.578125 12.632812 34.710938 C 11.984375 34.945312 11.605469 35.558594 11.753906 36.109375 C 11.511719 36.199219 11.339844 36.433594 11.339844 36.710938 C 11.339844 36.890625 11.414062 37.054688 11.53125 37.171875 C 11.597656 36.882812 11.847656 36.667969 12.152344 36.65625 C 12.28125 36.738281 12.429688 36.796875 12.589844 36.832031 C 12.636719 36.746094 12.695312 36.671875 12.765625 36.609375 C 12.761719 36.558594 12.757812 36.503906 12.757812 36.449219 C 12.757812 35.859375 13.234375 35.375 13.828125 35.375 C 13.878906 35.375 13.925781 35.378906 13.972656 35.386719 C 13.503906 35.5 13.152344 35.921875 13.152344 36.429688 C 13.152344 36.496094 13.15625 36.558594 13.167969 36.617188 C 12.914062 36.714844 12.734375 36.960938 12.734375 37.25 C 12.734375 37.414062 12.796875 37.566406 12.894531 37.683594 C 13.074219 37.328125 13.429688 37.074219 13.847656 37.035156 C 14.003906 37.082031 14.171875 37.105469 14.34375 37.105469 C 14.449219 37.105469 14.554688 37.097656 14.65625 37.078125 C 14.566406 36.945312 14.511719 36.78125 14.511719 36.605469 C 14.511719 36.144531 14.886719 35.773438 15.347656 35.773438 C 15.386719 35.773438 15.425781 35.773438 15.464844 35.78125 C 15.023438 35.96875 14.753906 36.351562 14.847656 36.699219 C 14.910156 36.945312 15.144531 37.117188 15.445312 37.175781 C 15.441406 37.359375 15.390625 37.535156 15.304688 37.683594 C 15.691406 37.65625 16.023438 37.421875 16.1875 37.09375 C 16.644531 36.910156 16.925781 36.519531 16.828125 36.164062 C 16.796875 36.035156 16.71875 35.929688 16.609375 35.847656 C 16.609375 35.835938 16.609375 35.824219 16.609375 35.8125 C 16.609375 35.566406 16.808594 35.367188 17.050781 35.367188 C 17.296875 35.367188 17.492188 35.566406 17.492188 35.8125 C 17.492188 35.925781 17.449219 36.03125 17.378906 36.113281 L 18.304688 36.113281 C 18.363281 36.113281 18.417969 36.097656 18.464844 36.070312 C 18.515625 36.046875 18.558594 36.007812 18.589844 35.957031 L 19.1875 35.078125 C 19.207031 35.042969 19.238281 35.019531 19.269531 35 C 19.304688 34.984375 19.34375 34.972656 19.382812 34.972656 L 20.109375 34.972656 C 20.070312 34.972656 20.03125 34.984375 20 35 C 19.964844 35.019531 19.9375 35.042969 19.914062 35.078125 L 19.316406 35.957031 C 19.285156 36.007812 19.242188 36.046875 19.191406 36.070312 C 19.144531 36.097656 19.089844 36.113281 19.03125 36.113281 L 20.136719 36.113281 C 20.195312 36.113281 20.253906 36.097656 20.300781 36.070312 C 20.347656 36.046875 20.394531 36.007812 20.425781 35.957031 L 21.09375 34.972656 C 20.632812 34.722656 20.441406 34.28125 20.441406 33.675781 C 20.441406 33.296875 20.65625 32.867188 20.6875 32.589844 L 20.699219 32.480469 C 20.707031 32.421875 20.699219 32.367188 20.679688 32.316406 C 20.664062 32.273438 20.632812 32.210938 20.597656 32.171875 L 21.164062 32.753906 C 21.210938 32.792969 21.242188 32.839844 21.261719 32.890625 C 21.28125 32.945312 21.289062 33 21.285156 33.058594 L 21.265625 33.191406 C 21.238281 33.425781 20.949219 33.925781 21.488281 34.382812 C 21.515625 34.40625 21.585938 34.453125 21.648438 34.492188 L 22.03125 34.734375 L 22.03125 33.316406 L 22.570312 33.316406 L 22.570312 34.894531 C 22.574219 34.953125 22.589844 35.007812 22.617188 35.058594 C 22.644531 35.105469 22.683594 35.148438 22.730469 35.179688 L 23.257812 35.511719 C 23.308594 35.546875 23.363281 35.5625 23.417969 35.566406 C 23.472656 35.570312 23.53125 35.5625 23.582031 35.539062 L 24.554688 35.117188 C 24.5 35.140625 24.441406 35.148438 24.390625 35.144531 C 24.335938 35.140625 24.277344 35.125 24.230469 35.09375 L 23.113281 34.382812 C 23.65625 33.925781 23.363281 33.425781 23.335938 33.191406 L 23.320312 33.058594 C 23.3125 33 23.320312 32.945312 23.34375 32.890625 C 23.363281 32.839844 23.394531 32.792969 23.4375 32.753906 L 24.007812 32.171875 C 23.972656 32.210938 23.941406 32.273438 23.925781 32.316406 C 23.90625 32.367188 23.898438 32.421875 23.90625 32.480469 L 23.917969 32.589844 C 23.964844 32.984375 24.363281 33.703125 24.03125 34.101562 L 25.050781 34.746094 C 25.097656 34.777344 25.152344 34.796875 25.207031 34.800781 C 25.261719 34.804688 25.320312 34.796875 25.375 34.773438 L 26.390625 34.332031 C 26.335938 34.355469 26.277344 34.363281 26.226562 34.359375 C 26.171875 34.355469 26.113281 34.335938 26.066406 34.304688 L 24.964844 33.605469 C 25.203125 33.113281 25 32.332031 24.769531 31.878906 L 24.734375 31.8125 C 24.707031 31.761719 24.695312 31.703125 24.695312 31.648438 C 24.695312 31.59375 24.710938 31.539062 24.738281 31.488281 L 25.117188 30.804688 C 25.089844 30.855469 25.074219 30.910156 25.074219 30.964844 C 25.074219 31.019531 25.085938 31.078125 25.113281 31.128906 L 25.25 31.398438 C 25.324219 31.53125 25.363281 31.613281 25.429688 31.769531 C 26.050781 31.210938 26.1875 30.671875 25.792969 30.214844 L 25.675781 30.074219 C 25.636719 30.03125 25.609375 29.976562 25.597656 29.925781 C 25.585938 29.871094 25.585938 29.816406 25.601562 29.757812 L 25.804688 29.003906 C 25.789062 29.058594 25.789062 29.117188 25.800781 29.171875 C 25.8125 29.222656 25.839844 29.277344 25.878906 29.320312 L 26.265625 29.773438 C 27.019531 30.625 26.5625 31.722656 25.664062 32.558594 C 25.714844 32.71875 25.757812 33.023438 25.71875 33.183594 L 26.914062 33.941406 C 26.964844 33.972656 27.019531 33.992188 27.074219 33.996094 C 27.128906 34 27.1875 33.992188 27.238281 33.96875 L 28.105469 33.59375 C 28.054688 33.613281 28 33.625 27.945312 33.625 C 27.722656 33.625 27.539062 33.445312 27.539062 33.222656 C 27.539062 33.042969 27.65625 32.886719 27.820312 32.839844 C 31.121094 31.835938 34.15625 29.246094 36.152344 29.253906 C 37.121094 29.253906 37.90625 29.839844 37.90625 30.570312 C 37.90625 30.683594 37.886719 30.800781 37.847656 30.910156 C 37.421875 32.101562 38.042969 33.242188 39.675781 33.683594 C 39.9375 33.753906 40.128906 33.992188 40.128906 34.273438 C 40.128906 34.328125 40.121094 34.382812 40.109375 34.429688 C 40.144531 34.433594 40.183594 34.4375 40.222656 34.4375 C 40.671875 34.4375 41.070312 34.214844 41.3125 33.871094 C 41.59375 33.867188 41.898438 33.851562 42.210938 33.820312 C 42.25 33.894531 42.28125 33.980469 42.296875 34.074219 C 42.363281 34.417969 42.246094 34.730469 42.035156 34.796875 C 41.660156 34.917969 41.199219 34.773438 40.84375 34.777344 C 40.171875 34.785156 39.628906 35.328125 39.628906 36.003906 C 39.628906 36.054688 39.632812 36.109375 39.640625 36.160156 C 39.429688 36.289062 39.289062 36.523438 39.289062 36.789062 C 39.289062 36.921875 39.324219 37.046875 39.386719 37.15625 C 39.59375 36.914062 39.859375 36.726562 40.167969 36.621094 C 40.195312 36.03125 40.679688 35.558594 41.277344 35.558594 C 41.367188 35.558594 41.457031 35.570312 41.539062 35.59375 C 40.9375 35.667969 40.46875 36.183594 40.46875 36.808594 C 40.46875 36.855469 40.472656 36.898438 40.476562 36.945312 C 40.402344 37.035156 40.355469 37.152344 40.355469 37.277344 C 40.355469 37.4375 40.429688 37.582031 40.542969 37.679688 C 40.65625 37.429688 40.929688 37.195312 41.285156 37.074219 C 41.527344 36.996094 41.761719 36.976562 41.957031 37.019531 C 41.925781 36.925781 41.910156 36.824219 41.910156 36.722656 C 41.910156 36.1875 42.34375 35.753906 42.875 35.753906 C 42.925781 35.753906 42.972656 35.757812 43.019531 35.765625 C 42.648438 35.816406 42.363281 36.136719 42.363281 36.519531 C 42.363281 36.777344 42.488281 37.003906 42.679688 37.140625 C 42.679688 37.15625 42.679688 37.167969 42.679688 37.183594 C 42.679688 37.390625 42.777344 37.578125 42.925781 37.703125 C 42.992188 37.351562 43.300781 37.085938 43.671875 37.085938 C 43.988281 37.085938 44.246094 37.046875 44.441406 36.984375 C 44.773438 36.875 45.015625 36.570312 45.015625 36.207031 C 45.015625 35.953125 44.898438 35.726562 44.71875 35.578125 C 44.808594 35.167969 44.789062 34.496094 44.652344 33.933594 C 44.679688 33.929688 44.710938 33.929688 44.738281 33.929688 C 44.96875 33.929688 45.171875 34.046875 45.289062 34.226562 M 19.355469 31.398438 L 19.492188 31.128906 C 19.519531 31.078125 19.53125 31.019531 19.527344 30.964844 C 19.527344 30.910156 19.515625 30.855469 19.484375 30.804688 L 19.863281 31.488281 C 19.894531 31.539062 19.90625 31.59375 19.90625 31.648438 C 19.910156 31.703125 19.898438 31.761719 19.871094 31.8125 L 19.835938 31.878906 C 19.605469 32.332031 19.386719 33.179688 19.628906 33.667969 C 19.066406 33.460938 18.882812 32.96875 18.941406 32.558594 C 17.882812 31.558594 17.617188 30.539062 18.371094 29.6875 L 18.761719 29.234375 C 18.800781 29.191406 18.824219 29.140625 18.835938 29.085938 C 18.847656 29.035156 18.847656 28.976562 18.832031 28.921875 L 19.035156 29.671875 C 19.050781 29.730469 19.050781 29.789062 19.039062 29.839844 C 19.027344 29.894531 19 29.945312 18.964844 29.992188 L 18.84375 30.128906 C 18.449219 30.589844 18.554688 31.210938 19.175781 31.769531 C 19.238281 31.613281 19.28125 31.53125 19.355469 31.398438 M 20.761719 25.957031 L 20.511719 25.957031 C 20.242188 25.957031 20.003906 25.59375 20.003906 25.269531 C 20.152344 25.433594 20.308594 25.507812 20.519531 25.507812 L 21.660156 25.507812 C 21.765625 25.507812 21.867188 25.585938 21.910156 25.71875 C 21.941406 25.8125 21.925781 25.957031 21.90625 26.097656 C 21.851562 25.996094 21.78125 25.957031 21.691406 25.957031 L 21.433594 25.957031 C 21.496094 26.03125 21.53125 26.128906 21.53125 26.234375 C 21.53125 26.472656 21.335938 26.667969 21.097656 26.667969 C 20.855469 26.667969 20.660156 26.472656 20.660156 26.234375 C 20.660156 26.128906 20.699219 26.03125 20.761719 25.957031 M 21.050781 23.894531 L 21.523438 24.5 C 21.628906 24.625 21.660156 24.710938 21.785156 24.730469 L 21.390625 24.730469 C 21.191406 24.730469 21.054688 24.648438 20.9375 24.515625 L 20.480469 23.921875 C 20.40625 23.828125 20.347656 23.761719 20.25 23.71875 L 20.699219 23.71875 C 20.835938 23.71875 20.953125 23.777344 21.050781 23.894531 M 22.367188 23.75 L 22.949219 24.566406 C 23.042969 24.699219 23.128906 24.777344 23.253906 24.828125 L 22.722656 24.828125 C 22.515625 24.828125 22.394531 24.734375 22.304688 24.585938 L 21.84375 23.882812 C 21.671875 23.621094 21.601562 23.554688 21.398438 23.484375 L 21.894531 23.484375 C 22.089844 23.484375 22.273438 23.609375 22.367188 23.75 M 24.449219 24.730469 L 24.050781 24.730469 C 23.851562 24.730469 23.714844 24.648438 23.597656 24.515625 L 23.144531 23.921875 C 23.070312 23.828125 23.011719 23.761719 22.910156 23.71875 L 23.363281 23.71875 C 23.496094 23.71875 23.617188 23.777344 23.710938 23.894531 L 24.183594 24.5 C 24.289062 24.625 24.324219 24.710938 24.449219 24.730469 M 24.601562 25.269531 C 24.601562 25.59375 24.363281 25.957031 24.089844 25.957031 L 23.84375 25.957031 C 23.90625 26.03125 23.941406 26.128906 23.941406 26.234375 C 23.941406 26.472656 23.746094 26.667969 23.507812 26.667969 C 23.265625 26.667969 23.070312 26.472656 23.070312 26.234375 C 23.070312 26.128906 23.109375 26.03125 23.171875 25.957031 L 22.910156 25.957031 C 22.824219 25.957031 22.753906 25.996094 22.699219 26.097656 C 22.679688 25.957031 22.664062 25.8125 22.695312 25.71875 C 22.738281 25.585938 22.839844 25.507812 22.941406 25.507812 L 24.085938 25.507812 C 24.296875 25.507812 24.453125 25.433594 24.601562 25.269531 M 24.25 27.742188 C 24.171875 27.761719 24.128906 27.808594 24.117188 27.890625 C 24.070312 28.335938 23.890625 28.515625 23.601562 28.617188 C 23.597656 29.070312 23.535156 29.410156 23.414062 29.832031 C 23.757812 30.546875 23.492188 31.046875 23.214844 31.15625 C 22.949219 31.257812 22.609375 31.121094 22.304688 31.121094 C 22.003906 31.121094 21.65625 31.257812 21.390625 31.15625 C 21.109375 31.046875 20.847656 30.546875 21.191406 29.832031 C 21.070312 29.410156 21.007812 29.070312 21.003906 28.617188 C 20.714844 28.515625 20.53125 28.335938 20.484375 27.890625 C 20.476562 27.808594 20.433594 27.761719 20.355469 27.742188 C 19.214844 27.429688 19.109375 26.011719 19.683594 25.613281 C 19.632812 26.246094 19.578125 27.140625 20.875 27.257812 C 20.855469 28.003906 21.175781 28.203125 21.507812 28.203125 C 21.777344 28.203125 21.933594 28.117188 22 28.082031 C 22.242188 27.953125 22.074219 27.757812 22.015625 27.699219 C 21.847656 27.542969 21.765625 27.324219 21.804688 27.105469 C 21.8125 27.066406 21.824219 27.042969 21.863281 27.042969 L 22.742188 27.042969 C 22.777344 27.042969 22.792969 27.066406 22.800781 27.105469 C 22.839844 27.324219 22.757812 27.542969 22.589844 27.699219 C 22.527344 27.757812 22.363281 27.953125 22.605469 28.082031 C 22.671875 28.117188 22.828125 28.203125 23.097656 28.203125 C 23.429688 28.203125 23.75 28.003906 23.730469 27.257812 C 25.027344 27.140625 24.972656 26.246094 24.921875 25.613281 C 25.496094 26.011719 25.386719 27.429688 24.25 27.742188 M 23.101562 30.46875 C 23.136719 30.089844 22.703125 29.957031 22.300781 29.957031 C 21.898438 29.957031 21.46875 30.089844 21.503906 30.46875 C 21.542969 30.933594 21.976562 30.710938 22.300781 30.714844 C 22.628906 30.710938 23.058594 30.933594 23.101562 30.46875 M 22.96875 29.570312 C 23.03125 29.238281 23.054688 28.914062 23.042969 28.601562 L 22.746094 28.953125 C 22.6875 28.8125 22.648438 28.726562 22.605469 28.65625 C 22.574219 28.601562 22.546875 28.5625 22.507812 28.554688 C 22.488281 28.566406 22.457031 28.582031 22.425781 28.589844 C 22.386719 28.597656 22.335938 28.59375 22.300781 28.59375 C 22.269531 28.59375 22.21875 28.597656 22.179688 28.589844 C 22.148438 28.582031 22.117188 28.566406 22.097656 28.554688 C 22.058594 28.5625 22.03125 28.601562 21.996094 28.65625 C 21.957031 28.726562 21.917969 28.8125 21.859375 28.953125 L 21.558594 28.601562 C 21.550781 28.914062 21.574219 29.238281 21.636719 29.570312 C 21.859375 29.523438 22.085938 29.503906 22.300781 29.503906 C 22.519531 29.503906 22.746094 29.523438 22.96875 29.570312 M 36.335938 26.328125 C 36.925781 25.75 37.605469 25.269531 38.355469 24.90625 C 38.332031 24.820312 38.320312 24.730469 38.320312 24.636719 L 38.320312 24.632812 C 35.195312 25.148438 32.382812 26.75 29.839844 26.738281 C 29.128906 26.734375 28.570312 26.460938 28.480469 26.011719 C 28.464844 25.921875 28.464844 25.828125 28.484375 25.738281 C 28.523438 25.5625 28.679688 25.429688 28.867188 25.429688 C 29.082031 25.429688 29.257812 25.605469 29.257812 25.820312 C 29.257812 25.921875 29.214844 26.015625 29.152344 26.085938 C 29.222656 26.09375 29.300781 26.097656 29.378906 26.097656 C 29.578125 26.097656 29.769531 26.074219 29.9375 26.027344 C 30.210938 25.953125 30.414062 25.703125 30.414062 25.40625 C 30.414062 25.050781 30.125 24.761719 29.769531 24.761719 C 29.75 24.761719 29.730469 24.761719 29.710938 24.761719 C 29.800781 24.726562 29.898438 24.703125 30.003906 24.703125 C 30.417969 24.703125 30.753906 25.039062 30.753906 25.453125 C 30.753906 25.476562 30.753906 25.496094 30.75 25.515625 C 31.867188 25.492188 33.125 24.472656 33.398438 24.085938 C 33.050781 24.167969 32.671875 24.210938 32.273438 24.210938 C 31.824219 24.210938 31.394531 24.15625 31.007812 24.050781 C 30.460938 23.90625 29.917969 23.828125 29.503906 23.828125 C 28.136719 23.828125 27.023438 24.71875 27.023438 25.820312 C 27.023438 26.730469 27.777344 27.527344 28.820312 27.738281 C 31.191406 28.222656 33.980469 26.816406 36.335938 26.328125 M 26.222656 66.785156 C 26.222656 66.921875 26.257812 67.046875 26.320312 67.15625 C 26.566406 66.90625 26.878906 66.722656 27.226562 66.628906 C 27.371094 66.113281 27.847656 65.734375 28.40625 65.734375 C 28.457031 65.734375 28.503906 65.738281 28.550781 65.742188 C 28.082031 65.878906 27.703125 66.226562 27.527344 66.675781 C 27.238281 66.773438 27.027344 67.046875 27.027344 67.371094 C 27.027344 67.523438 27.074219 67.664062 27.152344 67.777344 C 27.402344 67.496094 27.734375 67.285156 28.113281 67.183594 C 28.222656 66.640625 28.671875 66.222656 29.230469 66.164062 C 28.742188 66.367188 28.402344 66.851562 28.402344 67.410156 C 28.402344 67.609375 28.445312 67.796875 28.519531 67.96875 C 28.605469 67.660156 28.890625 67.433594 29.226562 67.433594 C 29.3125 67.433594 29.390625 67.445312 29.46875 67.472656 C 29.570312 67.511719 29.683594 67.53125 29.800781 67.53125 C 30.34375 67.53125 30.78125 67.09375 30.78125 66.550781 C 30.78125 66.441406 30.761719 66.339844 30.730469 66.242188 C 30.988281 66.316406 31.175781 66.554688 31.175781 66.835938 C 31.175781 66.964844 31.136719 67.082031 31.070312 67.183594 C 31.140625 67.195312 31.214844 67.203125 31.292969 67.203125 C 31.929688 67.203125 32.453125 66.722656 32.527344 66.105469 C 32.847656 65.933594 33.128906 65.699219 33.371094 65.40625 L 33.539062 66.234375 C 33.554688 66.292969 33.550781 66.351562 33.535156 66.402344 C 33.519531 66.457031 33.492188 66.503906 33.449219 66.546875 L 34.152344 65.824219 C 34.195312 65.785156 34.222656 65.734375 34.234375 65.679688 C 34.253906 65.628906 34.253906 65.570312 34.242188 65.511719 L 34.035156 64.5 C 34.023438 64.445312 34.027344 64.386719 34.042969 64.335938 C 34.058594 64.28125 34.085938 64.230469 34.128906 64.191406 L 34.679688 63.625 C 34.640625 63.667969 34.609375 63.71875 34.597656 63.769531 C 34.582031 63.824219 34.578125 63.878906 34.589844 63.9375 L 34.796875 64.949219 C 34.808594 65.007812 34.804688 65.066406 34.789062 65.117188 C 34.777344 65.171875 34.75 65.21875 34.710938 65.261719 L 35.335938 64.609375 C 35.375 64.566406 35.402344 64.515625 35.417969 64.464844 C 35.433594 64.414062 35.4375 64.355469 35.425781 64.296875 L 35.21875 63.289062 C 35.207031 63.230469 35.210938 63.171875 35.226562 63.121094 C 35.242188 63.066406 35.269531 63.015625 35.308594 62.976562 L 35.863281 62.410156 C 35.820312 62.453125 35.792969 62.503906 35.777344 62.554688 C 35.765625 62.609375 35.761719 62.667969 35.773438 62.722656 L 35.980469 63.738281 C 35.992188 63.792969 35.988281 63.851562 35.972656 63.902344 C 35.960938 63.957031 35.933594 64.003906 35.890625 64.046875 L 36.519531 63.394531 C 36.558594 63.351562 36.585938 63.300781 36.601562 63.25 C 36.617188 63.199219 36.621094 63.140625 36.609375 63.082031 L 36.507812 62.589844 C 36.402344 62.03125 36.980469 61.386719 37.4375 61.320312 C 37.492188 61.214844 37.523438 61.101562 37.523438 60.980469 C 37.523438 60.414062 36.847656 59.953125 36.011719 59.953125 C 35.605469 59.953125 35.234375 60.066406 34.964844 60.242188 C 35.074219 60.566406 35.097656 60.894531 34.027344 61.046875 C 33.179688 61.167969 32.433594 61.332031 31.867188 61.8125 C 30.992188 62.554688 31.0625 63.542969 30.566406 63.917969 C 30.785156 63.972656 31.066406 63.972656 31.367188 63.910156 C 31.558594 63.867188 31.734375 63.804688 31.890625 63.726562 C 31.796875 63.90625 31.585938 64.074219 31.304688 64.195312 C 31.210938 64.542969 30.902344 64.878906 30.480469 65.035156 C 30.214844 65.132812 29.953125 65.140625 29.734375 65.078125 L 28.710938 64.785156 C 28.585938 64.746094 28.453125 64.726562 28.316406 64.726562 C 27.5625 64.726562 26.941406 65.308594 26.851562 66.058594 C 26.492188 66.109375 26.222656 66.417969 26.222656 66.785156 "
       id="path100" />
    <path
       style=" stroke:none;fill-rule:nonzero;fill:rgb(13.729858%,12.159729%,12.548828%);fill-opacity:1;"
       d="M 68.03125 40.824219 L 68.03125 49.875 L 69.28125 49.875 L 69.28125 46.398438 L 69.164062 42.925781 L 69.199219 42.917969 L 71.371094 49.875 L 72.203125 49.875 L 74.378906 42.914062 L 74.414062 42.917969 L 74.304688 46.398438 L 74.304688 49.875 L 75.550781 49.875 L 75.550781 40.824219 L 73.925781 40.824219 L 71.804688 48.207031 L 71.769531 48.207031 L 69.652344 40.824219 Z M 81.667969 49.875 L 82.988281 49.875 L 80.574219 42.632812 L 79.277344 42.632812 L 76.851562 49.875 L 78.175781 49.875 L 78.691406 48.238281 L 81.148438 48.238281 Z M 79.898438 44.398438 L 79.933594 44.398438 L 80.847656 47.28125 L 78.988281 47.28125 Z M 87.746094 49.875 L 89.359375 49.875 L 87.015625 46.019531 L 89.214844 42.632812 L 87.648438 42.632812 L 85.96875 45.742188 L 85.492188 45.742188 L 85.492188 42.632812 L 84.234375 42.632812 L 84.234375 49.875 L 85.492188 49.875 L 85.492188 46.777344 L 86.039062 46.777344 Z M 93.527344 48.730469 C 93.316406 48.925781 93.003906 49.023438 92.589844 49.023438 C 92.203125 49.023438 91.890625 48.921875 91.640625 48.71875 C 91.394531 48.519531 91.273438 48.191406 91.273438 47.734375 L 90.066406 47.734375 L 90.046875 47.769531 C 90.027344 48.511719 90.253906 49.066406 90.726562 49.429688 C 91.199219 49.796875 91.820312 49.980469 92.589844 49.980469 C 93.355469 49.980469 93.964844 49.800781 94.421875 49.441406 C 94.875 49.085938 95.101562 48.59375 95.101562 47.96875 C 95.101562 47.363281 94.921875 46.898438 94.5625 46.578125 C 94.199219 46.257812 93.640625 45.988281 92.882812 45.765625 C 92.320312 45.59375 91.945312 45.421875 91.765625 45.246094 C 91.585938 45.074219 91.496094 44.832031 91.496094 44.523438 C 91.496094 44.226562 91.585938 43.976562 91.773438 43.78125 C 91.957031 43.585938 92.238281 43.492188 92.621094 43.492188 C 92.996094 43.492188 93.28125 43.605469 93.476562 43.839844 C 93.667969 44.074219 93.765625 44.378906 93.765625 44.765625 L 94.96875 44.765625 L 94.984375 44.726562 C 95 44.039062 94.796875 43.5 94.375 43.113281 C 93.957031 42.726562 93.371094 42.53125 92.621094 42.53125 C 91.890625 42.53125 91.3125 42.71875 90.882812 43.085938 C 90.453125 43.453125 90.242188 43.9375 90.242188 44.539062 C 90.242188 45.15625 90.417969 45.617188 90.777344 45.929688 C 91.136719 46.238281 91.710938 46.503906 92.496094 46.722656 C 93.011719 46.894531 93.363281 47.070312 93.558594 47.253906 C 93.75 47.4375 93.84375 47.675781 93.84375 47.976562 C 93.84375 48.285156 93.738281 48.535156 93.527344 48.730469 M 100.6875 42.632812 L 100.6875 47.371094 C 100.6875 47.894531 100.5625 48.296875 100.308594 48.585938 C 100.050781 48.878906 99.703125 49.023438 99.265625 49.023438 C 98.832031 49.023438 98.484375 48.878906 98.226562 48.585938 C 97.96875 48.296875 97.839844 47.894531 97.839844 47.371094 L 97.839844 42.632812 L 96.585938 42.632812 L 96.585938 47.382812 C 96.585938 48.199219 96.832031 48.835938 97.324219 49.292969 C 97.820312 49.75 98.464844 49.980469 99.265625 49.980469 C 100.066406 49.980469 100.710938 49.75 101.203125 49.292969 C 101.699219 48.835938 101.945312 48.199219 101.945312 47.382812 L 101.945312 42.632812 Z M 106.175781 45.542969 L 103.40625 45.542969 L 103.40625 46.5 L 106.175781 46.5 Z M 113.503906 47.632812 C 113.503906 48.054688 113.414062 48.390625 113.234375 48.644531 C 113.054688 48.898438 112.824219 49.023438 112.546875 49.023438 C 112.226562 49.023438 111.96875 48.917969 111.78125 48.707031 C 111.589844 48.492188 111.496094 48.175781 111.496094 47.746094 L 110.285156 47.746094 L 110.273438 47.785156 C 110.25 48.503906 110.449219 49.046875 110.859375 49.417969 C 111.273438 49.792969 111.835938 49.980469 112.546875 49.980469 C 113.195312 49.980469 113.726562 49.769531 114.140625 49.34375 C 114.554688 48.921875 114.761719 48.355469 114.761719 47.640625 L 114.761719 42.632812 L 113.503906 42.632812 Z M 120.816406 49.875 L 122.132812 49.875 L 119.71875 42.632812 L 118.421875 42.632812 L 115.996094 49.875 L 117.320312 49.875 L 117.835938 48.238281 L 120.292969 48.238281 Z M 119.042969 44.398438 L 119.078125 44.398438 L 119.992188 47.28125 L 118.136719 47.28125 Z M 131.730469 40.824219 L 125.828125 40.824219 L 125.828125 41.78125 L 128.144531 41.78125 L 128.144531 49.875 L 129.40625 49.875 L 129.40625 41.78125 L 131.730469 41.78125 Z M 137.882812 45.496094 C 137.882812 44.617188 137.632812 43.902344 137.136719 43.355469 C 136.640625 42.808594 135.992188 42.53125 135.203125 42.53125 C 134.40625 42.53125 133.765625 42.808594 133.269531 43.355469 C 132.777344 43.902344 132.53125 44.617188 132.53125 45.496094 L 132.53125 47.007812 C 132.53125 47.898438 132.777344 48.617188 133.273438 49.164062 C 133.769531 49.707031 134.414062 49.980469 135.214844 49.980469 C 136.007812 49.980469 136.648438 49.707031 137.144531 49.164062 C 137.636719 48.617188 137.882812 47.898438 137.882812 47.007812 Z M 136.625 47 C 136.625 47.632812 136.5 48.128906 136.25 48.484375 C 136 48.84375 135.65625 49.023438 135.214844 49.023438 C 134.765625 49.023438 134.414062 48.84375 134.160156 48.484375 C 133.910156 48.128906 133.785156 47.632812 133.785156 47 L 133.785156 45.488281 C 133.785156 44.867188 133.910156 44.378906 134.160156 44.023438 C 134.40625 43.667969 134.753906 43.492188 135.203125 43.492188 C 135.648438 43.492188 135.992188 43.667969 136.246094 44.023438 C 136.5 44.378906 136.625 44.867188 136.625 45.488281 Z M 141.046875 42.632812 L 139.789062 42.632812 L 139.789062 49.875 L 143.71875 49.875 L 143.71875 48.917969 L 141.046875 48.917969 Z M 146.410156 42.632812 L 145.15625 42.632812 L 145.15625 49.875 L 149.082031 49.875 L 149.082031 48.917969 L 146.410156 48.917969 Z M 151.773438 42.632812 L 150.519531 42.632812 L 150.519531 49.875 L 151.773438 49.875 Z M 157.863281 49.875 L 159.183594 49.875 L 156.773438 42.632812 L 155.472656 42.632812 L 153.046875 49.875 L 154.371094 49.875 L 154.886719 48.238281 L 157.34375 48.238281 Z M 156.09375 44.398438 L 156.128906 44.398438 L 157.042969 47.28125 L 155.1875 47.28125 Z M 162.019531 42.632812 L 160.433594 42.632812 L 160.433594 49.875 L 161.6875 49.875 L 161.6875 45.09375 L 161.726562 45.085938 L 163.285156 49.875 L 164.136719 49.875 L 165.691406 45.117188 L 165.726562 45.125 L 165.726562 49.875 L 166.988281 49.875 L 166.988281 42.632812 L 165.410156 42.632812 L 163.726562 48.324219 L 163.691406 48.324219 Z M 172.8125 45.628906 L 170.148438 45.628906 L 170.148438 43.589844 L 173.269531 43.589844 L 173.269531 42.632812 L 168.890625 42.632812 L 168.890625 49.875 L 173.269531 49.875 L 173.269531 48.917969 L 170.148438 48.917969 L 170.148438 46.585938 L 172.8125 46.585938 Z M 179.507812 42.632812 L 174.546875 42.632812 L 174.546875 43.589844 L 176.382812 43.589844 L 176.382812 49.875 L 177.636719 49.875 L 177.636719 43.589844 L 179.507812 43.589844 Z M 179.507812 42.632812 "
       id="path102" />
  </g>
</svg>
