<svg xmlns="http://www.w3.org/2000/svg" width="147" height="60" viewBox="0 0 147 60">
    <g fill="none" fill-rule="evenodd">
        <path fill="#0083BA" d="M39.252 59.452h.986V.295h-.986v59.157zm-9.426-12.88a.746.746 0 0 0-.689-1.031l-.753-.001a.3.3 0 0 1-.25-.131l-.378-.558a.296.296 0 0 0 .109.097c.042.022.09.035.142.035h.992c.051 0 .1.013.142.034.042.023.08.056.109.098l-.456-.668a.306.306 0 0 0-.25-.131h-.985a.307.307 0 0 1-.25-.133l-.429-.628a.295.295 0 0 0 .109.096.29.29 0 0 0 .142.035h.988c.051 0 .1.012.142.035.042.022.08.054.108.096l-.456-.667a.298.298 0 0 0-.11-.097.297.297 0 0 0-.14-.035h-.785a.3.3 0 0 1-.251-.132l-.528-.775c1.067-.127 1.928-.705 2.1-1.501.222-1.034-.806-2.036-2.293-2.254a.517.517 0 0 1-.107-.996 1.328 1.328 0 0 0-.524-.106c-.657 0-1.191.471-1.191 1.053 0 .104.018.206.05.302-.738.318-1.409.882-1.923 1.492a6.701 6.701 0 0 1 1.723-.224.807.807 0 0 1 .803-.891h.011c-.304.133-.452.425-.452.618a.417.417 0 0 0 .657.34.577.577 0 0 1 .638-.737.647.647 0 0 0 .385 1.224.464.464 0 1 1 .912-.117c0 .557-.618.609-1.07.479-1.286-.37-2.49-.536-3.654-.374-1.494.21-3.942 1.22-6.54 1.136a8.067 8.067 0 0 1-1.854-.29c.078.085.129.145.162.196.253.394.34.807.117 1.323.006-.579-.473-1.055-.874-1.347-.162-.118-.227-.23-.2-.38l.118-.668a.3.3 0 0 0 .087.268l.25.244c.095-.677-.058-1.306-.46-1.89.177-.466.202-.98.083-1.462-.047.365-.227.521-.396.628-.317.197-.369.53-.205.753-.267-.135-.635-.63-.422-.919.23-.312.858-.165.936-.7-.408-.13-.828-.039-.956-.004-.242-.277-.563-.415-.962-.412-.316-.287-.721-.405-1.217-.356-.495-.05-.9.069-1.216.356-.4-.003-.72.135-.962.412-.129-.035-.548-.126-.957.003.077.536.706.39.936.701.213.289-.155.784-.422.92.164-.223.111-.557-.205-.754-.17-.107-.35-.263-.396-.628-.12.482-.094.996.083 1.462-.402.584-.555 1.213-.46 1.89l.25-.244a.3.3 0 0 0 .086-.268l.118.668c.027.15-.037.262-.199.38-.402.292-.88.768-.874 1.347-.223-.516-.132-.947.117-1.323-.762-.411-1.342-1.087-1.449-1.21-.23-.268-.2-.61.009-.91.403-.576.498-1.189-.007-1.609a.788.788 0 0 0-.627-.865.668.668 0 0 1-.03.766.556.556 0 0 1-.084.763.894.894 0 0 0 .018-.182c0-.393-.243-.722-.573-.812a.615.615 0 0 0-1.048-.313c.233.017.42.2.446.432a.82.82 0 0 0-.26.334h.016a.729.729 0 0 1 .716.862.807.807 0 0 0-.226-.436c-.226-.22-.555-.266-.856-.151a.616.616 0 0 0-1.004.056c.222.01.418.122.54.291-.316.406-.32.966.004 1.281.22.214.533.264.827.163a.194.194 0 1 1-.062.334.426.426 0 0 0-.696.38.423.423 0 0 1-.423-.102.57.57 0 0 0 .508.714.896.896 0 0 0 1.348.396.392.392 0 1 1 .311.703l-.305.068a.286.286 0 0 1-.146-.005.273.273 0 0 1-.126-.07l.699.663a.3.3 0 0 0 .273.075l.571-.127c.05-.01.1-.008.146.005.046.012.09.035.127.071l.479.456a.29.29 0 0 0-.127-.072.293.293 0 0 0-.145-.004l-.572.125c-.05.012-.1.01-.145-.003a.292.292 0 0 1-.127-.07l.64.605a.296.296 0 0 0 .272.076l.573-.125a.3.3 0 0 1 .273.076l.479.455a.29.29 0 0 0-.127-.071.296.296 0 0 0-.146-.004l-.57.126a.296.296 0 0 1-.147-.005.29.29 0 0 1-.127-.071l.64.606c.038.036.081.06.127.072a.296.296 0 0 0 .146.005l.692-.152c-.672.38-1.387.809-2.144 1.288-.448.283-.938.336-1.5.12a1.714 1.714 0 0 0-.838-.099.91.91 0 0 0-.632.437.912.912 0 0 1 .982.2 1.25 1.25 0 0 0-.903-.007c-.565.207-.895.74-.766 1.215a.564.564 0 0 0-.19.927.575.575 0 0 1 .54-.449c.11.074.239.125.377.153a.795.795 0 0 1 .156-.193.933.933 0 0 1 1.05-1.063.934.934 0 0 0-.7 1.071.586.586 0 0 0-.24.926c.159-.31.468-.528.83-.563a1.529 1.529 0 0 0 .704.037.726.726 0 0 1 .702-1.128c-.384.162-.619.495-.538.798.058.216.26.364.522.413a.927.927 0 0 1-.123.444.936.936 0 0 0 .768-.515c.396-.159.64-.499.56-.807a.511.511 0 0 0-.192-.275l-.002-.031a.386.386 0 1 1 .669.26h.806c.05 0 .1-.013.141-.035a.29.29 0 0 0 .109-.098l.517-.767a.207.207 0 0 1 .17-.09h.634a.207.207 0 0 0-.17.09l-.52.767a.29.29 0 0 1-.108.098.295.295 0 0 1-.141.035h.963c.052 0 .1-.013.141-.035a.284.284 0 0 0 .11-.098l.58-.856c-.4-.22-.565-.603-.565-1.13 0-.328.184-.701.212-.942l.011-.096a.3.3 0 0 0-.018-.145.48.48 0 0 0-.072-.124l.496.508c.039.033.067.075.083.12a.288.288 0 0 1 .02.144l-.016.116c-.023.202-.277.637.194 1.035.024.02.082.06.138.096l.335.21v-1.235h.469v1.375c0 .051.015.1.039.14.023.042.056.08.1.106l.458.291a.295.295 0 0 0 .282.022l.845-.366a.298.298 0 0 1-.282-.023l-.97-.616c.471-.398.216-.833.193-1.035l-.014-.116a.298.298 0 0 1 .102-.264l.496-.508a.475.475 0 0 0-.072.124.3.3 0 0 0-.018.145l.01.096c.04.343.388.966.099 1.313l.886.562a.306.306 0 0 0 .283.022l.883-.383a.305.305 0 0 1-.282-.023l-.959-.61c.21-.427.033-1.107-.17-1.5l-.03-.058a.299.299 0 0 1-.031-.142c0-.048.012-.096.037-.141l.33-.593a.293.293 0 0 0-.037.14.293.293 0 0 0 .03.141l.122.236c.063.116.099.186.155.323.539-.486.659-.955.315-1.355l-.102-.12a.298.298 0 0 1-.065-.13.284.284 0 0 1 .002-.146l.176-.655a.3.3 0 0 0 .063.274l.338.394c.656.741.259 1.696-.524 2.424.044.14.081.401.05.543l1.04.66a.297.297 0 0 0 .138.045.298.298 0 0 0 .144-.023l.751-.327a.35.35 0 0 1-.245-.655c2.87-.873 5.511-3.125 7.246-3.12.843.003 1.526.513 1.526 1.145 0 .102-.018.201-.051.296-.37 1.038.169 2.03 1.59 2.411a.534.534 0 0 1 .376.653 1.157 1.157 0 0 0 1.046-.488 8.13 8.13 0 0 0 .784-.045c.033.066.059.14.075.223.058.298-.046.569-.23.628-.325.106-.725-.021-1.034-.018a1.067 1.067 0 0 0-1.048 1.201.648.648 0 0 0-.222.868c.18-.21.414-.372.681-.466a.965.965 0 0 1 1.194-.894 1.067 1.067 0 0 0-.925 1.176.456.456 0 0 0 .057.638c.098-.216.338-.42.647-.525.208-.07.413-.084.583-.049a.84.84 0 0 1 .925-1.089.662.662 0 0 0-.295 1.195l-.001.037a.58.58 0 0 0 .215.451.658.658 0 0 1 .647-.534 2.2 2.2 0 0 0 .671-.09.714.714 0 0 0 .497-.677c0-.22-.1-.416-.257-.546.077-.356.063-.942-.058-1.429a.572.572 0 0 1 .555.254zm-22.56-2.459l.12-.236a.304.304 0 0 0-.005-.282l.33.594a.307.307 0 0 1 .005.283l-.03.058c-.202.393-.39 1.13-.181 1.557-.489-.182-.65-.61-.598-.965-.92-.872-1.151-1.756-.495-2.497l.338-.394a.282.282 0 0 0 .065-.13.29.29 0 0 0-.002-.144l.176.655a.298.298 0 0 1-.063.276l-.102.12c-.344.4-.252.942.287 1.428.055-.137.092-.207.155-.323zm1.225-4.732h-.216c-.235 0-.443-.315-.443-.598a.555.555 0 0 0 .449.206h.993c.089 0 .177.068.216.182.028.085.012.21-.004.332-.048-.09-.108-.122-.185-.122h-.226a.379.379 0 1 1-.584 0zm.25-1.793l.412.524c.092.111.121.185.23.201h-.346a.489.489 0 0 1-.394-.187l-.395-.516a.533.533 0 0 0-.202-.178h.391c.118 0 .222.051.304.156zm1.147-.128l.506.711c.08.117.156.182.265.226h-.464a.394.394 0 0 1-.363-.21l-.399-.61c-.152-.23-.212-.287-.387-.348h.43c.17 0 .329.11.412.231zm1.81.853h-.346a.489.489 0 0 1-.393-.187l-.396-.516a.533.533 0 0 0-.202-.178h.392c.117 0 .222.051.303.156l.413.524c.092.111.12.185.23.201zm.132.47c0 .283-.207.598-.443.598h-.216a.379.379 0 1 1-.584 0h-.226c-.077 0-.137.031-.185.122-.016-.122-.031-.247-.003-.332.038-.114.127-.182.215-.182h.994c.183 0 .32-.062.448-.206zm-.306 2.148c-.068.02-.106.06-.114.132-.04.387-.198.544-.45.632a3.625 3.625 0 0 1-.163 1.054c.298.623.07 1.059-.172 1.152-.23.09-.528-.03-.792-.03-.263 0-.565.12-.796.03-.242-.093-.47-.529-.173-1.152a3.625 3.625 0 0 1-.162-1.054c-.252-.088-.41-.245-.45-.632-.009-.073-.046-.113-.114-.132-.992-.271-1.085-1.502-.584-1.851-.044.551-.092 1.33 1.035 1.433-.018.647.262.82.55.82.236 0 .37-.076.43-.107.21-.111.065-.28.011-.331a.569.569 0 0 1-.182-.517c.006-.035.019-.052.05-.052h.765c.032 0 .046.017.052.052a.573.573 0 0 1-.183.517c-.054.05-.198.22.011.331.059.031.194.107.43.107.288 0 .568-.173.55-.82 1.127-.103 1.08-.882 1.035-1.433.502.349.407 1.58-.584 1.851zm-.998 2.374c.03-.33-.346-.447-.695-.447-.35 0-.724.118-.695.447.035.402.411.21.695.212.283-.001.66.19.695-.212zm-.116-.782c.054-.29.077-.572.066-.843l-.26.304a2.294 2.294 0 0 0-.12-.255c-.029-.05-.053-.084-.087-.09-.017.009-.043.023-.072.03-.033.008-.078.005-.106.005-.027 0-.072.003-.106-.005-.028-.007-.054-.021-.072-.03-.035.006-.058.04-.087.09-.034.06-.068.134-.12.255l-.26-.304c-.01.271.012.553.066.843.193-.042.39-.057.579-.057.188 0 .386.015.579.057zm4.732-8.113c.042 0 .083.002.123.007a1.36 1.36 0 0 0-.889.812.636.636 0 0 0-.327.957c.22-.245.508-.429.836-.517.094-.472.487-.835.972-.886a1.176 1.176 0 0 0-.617 1.568.637.637 0 0 1 .823-.43.852.852 0 0 0 1.1-1.072.54.54 0 0 1 .294.82 1.083 1.083 0 0 0 1.268-.937c.279-.151.523-.355.734-.609l.148.721c.01.05.007.1-.006.146a.292.292 0 0 1-.073.126l.611-.628a.285.285 0 0 0 .072-.126.292.292 0 0 0 .006-.145l-.18-.88a.292.292 0 0 1 .006-.146.295.295 0 0 1 .073-.126l.481-.49a.295.295 0 0 0-.078.272l.18.88a.303.303 0 0 1-.076.27l.545-.567a.305.305 0 0 0 .078-.27l-.18-.88a.292.292 0 0 1 .006-.144.295.295 0 0 1 .073-.126l.481-.49a.295.295 0 0 0-.078.27l.181.881a.303.303 0 0 1-.077.27l.545-.566a.293.293 0 0 0 .072-.126.295.295 0 0 0 .006-.146l-.088-.43c-.092-.486.41-1.045.808-1.102a.64.64 0 0 0 .074-.295c0-.493-.587-.893-1.312-.893-.354 0-.676.095-.913.25.095.282.115.567-.815.7-.737.104-1.386.247-1.88.665-.76.645-.698 1.506-1.13 1.832.192.047.437.047.698-.01.166-.035.319-.09.454-.157-.081.155-.267.302-.51.407-.08.304-.35.594-.716.73-.23.085-.46.094-.649.04l-.89-.258a1.24 1.24 0 0 0-.342-.048c-.656 0-1.197.505-1.277 1.157a.638.638 0 0 0-.46.954 1.74 1.74 0 0 1 .787-.459 1.07 1.07 0 0 1 1.028-.776zm.063 5.017a.59.59 0 0 1 .003-.237.34.34 0 1 1 .58.304 1.9 1.9 0 0 0 .684-.051.561.561 0 0 0-.146-1.102c-.017 0-.034 0-.05.002a.654.654 0 0 1 .903.654c.97-.02 2.065-.906 2.304-1.243-.304.07-.634.108-.978.108-.39 0-.764-.048-1.102-.138-.477-.126-.947-.196-1.308-.196-1.19 0-2.156.776-2.156 1.735 0 .79.654 1.482 1.56 1.667 2.063.421 4.489-.804 6.538-1.227.512-.501 1.105-.92 1.756-1.236a.94.94 0 0 1-.03-.233v-.005c-2.719.447-5.165 1.841-7.375 1.83-.619-.002-1.104-.24-1.183-.632zm14.621-6.043a.746.746 0 0 0-.689-1.031h-.753a.303.303 0 0 1-.25-.131l-.378-.558a.296.296 0 0 0 .109.097c.042.022.09.036.142.035h.992a.298.298 0 0 1 .25.132l-.455-.667a.29.29 0 0 0-.11-.097.297.297 0 0 0-.14-.035h-.985a.298.298 0 0 1-.25-.131l-.429-.63a.3.3 0 0 0 .25.132h.989a.298.298 0 0 1 .25.13l-.456-.667a.3.3 0 0 0-.25-.132h-.785a.305.305 0 0 1-.25-.132l-.529-.775c1.067-.127 1.928-.705 2.1-1.501.222-1.033-.806-2.036-2.293-2.254a.516.516 0 0 1-.107-.995 1.313 1.313 0 0 0-.524-.107c-.657 0-1.191.471-1.191 1.053 0 .104.018.206.05.302-.738.318-1.409.882-1.923 1.492a6.701 6.701 0 0 1 1.723-.224.807.807 0 0 1 .803-.891h.011c-.304.133-.452.425-.452.618a.417.417 0 0 0 .657.341.577.577 0 0 1 .638-.737.647.647 0 0 0 .385 1.224.464.464 0 1 1 .912-.118c0 .557-.618.609-1.07.48-1.286-.371-2.49-.537-3.654-.375-1.494.21-3.942 1.22-6.54 1.136a8.067 8.067 0 0 1-1.854-.29c.078.086.129.145.162.196.253.394.34.807.117 1.323.006-.579-.473-1.055-.874-1.347-.162-.118-.227-.23-.2-.38l.118-.668a.3.3 0 0 0 .087.268l.25.244c.095-.677-.058-1.306-.46-1.89.177-.466.202-.98.083-1.462-.047.365-.227.521-.396.628-.317.197-.369.53-.205.754-.267-.135-.635-.631-.422-.92.23-.312.858-.165.936-.7-.408-.13-.828-.039-.956-.004-.242-.277-.563-.415-.962-.412-.316-.286-.721-.405-1.217-.356-.495-.05-.9.07-1.216.356-.4-.003-.72.135-.962.412-.129-.035-.548-.126-.957.003.077.536.706.39.936.701.213.289-.155.785-.422.92.164-.223.111-.557-.205-.754-.17-.107-.35-.263-.396-.628-.12.482-.094.996.083 1.462-.402.584-.555 1.213-.46 1.89l.25-.244a.3.3 0 0 0 .086-.268l.118.668c.027.15-.037.262-.199.38-.402.292-.88.768-.874 1.347-.223-.516-.132-.947.117-1.323-.762-.411-1.342-1.087-1.449-1.21-.23-.268-.2-.61.009-.91.403-.575.498-1.189-.007-1.609a.788.788 0 0 0-.627-.865.668.668 0 0 1-.03.767.554.554 0 0 1-.084.762.888.888 0 0 0 .018-.182c0-.393-.243-.722-.573-.812a.615.615 0 0 0-1.048-.313c.233.017.42.2.446.432a.82.82 0 0 0-.26.334h.016a.729.729 0 0 1 .716.862.804.804 0 0 0-.226-.435c-.226-.221-.555-.267-.856-.152a.616.616 0 0 0-1.004.056c.222.01.418.122.54.291-.316.406-.32.966.004 1.281.22.214.533.264.827.163a.194.194 0 1 1-.062.334.426.426 0 0 0-.696.38.423.423 0 0 1-.423-.102.57.57 0 0 0 .508.714.895.895 0 0 0 1.348.397.392.392 0 1 1 .311.703l-.305.067a.296.296 0 0 1-.146-.004.29.29 0 0 1-.126-.07l.699.662a.3.3 0 0 0 .273.075l.571-.127c.05-.01.1-.008.146.005.046.012.09.036.127.071l.479.456a.29.29 0 0 0-.127-.072.293.293 0 0 0-.145-.004l-.572.126a.292.292 0 0 1-.145-.004.292.292 0 0 1-.127-.07l.64.606a.298.298 0 0 0 .272.075l.573-.125a.3.3 0 0 1 .273.076l.479.454a.307.307 0 0 0-.273-.074l-.57.126a.296.296 0 0 1-.147-.005.297.297 0 0 1-.127-.07l.64.606a.29.29 0 0 0 .127.071.296.296 0 0 0 .146.005l.692-.152c-.672.38-1.387.809-2.144 1.288-.448.283-.938.336-1.5.12a1.725 1.725 0 0 0-.838-.099.91.91 0 0 0-.632.437.909.909 0 0 1 .982.2 1.245 1.245 0 0 0-.903-.006c-.565.206-.895.739-.766 1.216a.56.56 0 0 0-.19.925.575.575 0 0 1 .54-.448c.11.073.239.124.377.152a.795.795 0 0 1 .156-.192.933.933 0 0 1 1.05-1.063.934.934 0 0 0-.7 1.07.587.587 0 0 0-.24.926c.159-.31.468-.528.83-.563a1.53 1.53 0 0 0 .704.037.725.725 0 0 1 .702-1.128c-.384.162-.619.495-.538.799.058.215.26.363.522.413a.926.926 0 0 1-.123.443.934.934 0 0 0 .768-.514c.396-.16.64-.5.56-.808a.506.506 0 0 0-.192-.274.386.386 0 1 1 .667.229h.806c.05 0 .1-.014.141-.036a.29.29 0 0 0 .109-.098l.517-.767a.207.207 0 0 1 .17-.09h.634a.212.212 0 0 0-.17.09l-.52.768a.296.296 0 0 1-.108.097.295.295 0 0 1-.141.035h.963c.052 0 .1-.013.141-.035a.284.284 0 0 0 .11-.098l.58-.856c-.4-.22-.565-.603-.565-1.13 0-.327.184-.701.212-.942l.011-.097c.006-.05 0-.099-.018-.143a.47.47 0 0 0-.072-.125l.496.508c.039.033.067.075.083.12a.29.29 0 0 1 .02.145l-.016.115c-.023.202-.277.637.194 1.035.024.02.082.062.138.097l.335.21v-1.236h.469v1.375a.297.297 0 0 0 .139.246l.458.291a.307.307 0 0 0 .282.023l.845-.367a.288.288 0 0 1-.144.024.3.3 0 0 1-.138-.046l-.97-.617c.471-.398.216-.833.193-1.035l-.014-.115a.3.3 0 0 1 .102-.265l.496-.508a.466.466 0 0 0-.072.125.294.294 0 0 0-.018.143l.01.097c.04.343.388.966.099 1.314l.886.561a.307.307 0 0 0 .283.022l.883-.383a.305.305 0 0 1-.282-.023l-.959-.61c.21-.426.033-1.106-.17-1.5l-.03-.058a.296.296 0 0 1-.031-.142c0-.048.012-.096.037-.14l.33-.593a.284.284 0 0 0-.037.139.293.293 0 0 0 .03.141l.122.236c.063.116.099.186.155.323.539-.486.659-.955.315-1.354l-.102-.121a.3.3 0 0 1-.063-.276l.176-.655a.3.3 0 0 0 .063.274l.338.394c.656.741.259 1.696-.524 2.425.044.139.081.4.05.542l1.04.66a.297.297 0 0 0 .138.045.298.298 0 0 0 .144-.023l.751-.327a.35.35 0 0 1-.245-.655c2.87-.873 5.511-3.125 7.246-3.12.843.004 1.526.513 1.526 1.145 0 .102-.018.201-.051.296-.37 1.038.169 2.03 1.59 2.412a.532.532 0 0 1 .376.652 1.157 1.157 0 0 0 1.046-.488 8.13 8.13 0 0 0 .784-.045c.033.066.059.141.075.223.058.3-.046.569-.23.628-.325.106-.725-.021-1.034-.018a1.067 1.067 0 0 0-1.048 1.202.645.645 0 0 0-.222.867c.18-.21.414-.372.681-.466a.965.965 0 0 1 1.194-.894 1.067 1.067 0 0 0-.925 1.176.46.46 0 0 0 .057.64c.098-.218.338-.423.647-.527.208-.07.413-.084.583-.049a.84.84 0 0 1 .925-1.089.662.662 0 0 0-.295 1.196l-.001.036a.58.58 0 0 0 .215.451.658.658 0 0 1 .647-.534 2.2 2.2 0 0 0 .671-.09.714.714 0 0 0 .497-.677c0-.22-.1-.416-.257-.546.077-.356.063-.942-.058-1.429a.572.572 0 0 1 .555.254zm-22.56-2.458l.12-.236a.295.295 0 0 0-.005-.28l.33.593a.301.301 0 0 1 .005.282l-.03.058c-.202.394-.39 1.13-.181 1.557-.489-.182-.65-.61-.598-.964-.92-.873-1.151-1.757-.495-2.498l.338-.394a.282.282 0 0 0 .065-.13.29.29 0 0 0-.002-.144l.176.655a.297.297 0 0 1-.063.276l-.102.12c-.344.4-.252.942.287 1.428.055-.137.092-.207.155-.323zm1.225-4.732h-.216c-.235 0-.443-.315-.443-.597a.557.557 0 0 0 .449.205h.993c.089 0 .177.068.216.182.028.085.012.21-.004.333-.048-.09-.108-.123-.185-.123h-.226a.379.379 0 1 1-.584 0zm.25-1.793l.412.524c.092.112.121.186.23.201h-.346a.489.489 0 0 1-.394-.187l-.395-.516a.523.523 0 0 0-.202-.177h.391c.118 0 .222.05.304.155zm1.147-.128l.506.711c.08.117.156.182.265.226h-.464a.394.394 0 0 1-.363-.21l-.399-.61c-.152-.23-.212-.286-.387-.348h.43c.17 0 .329.11.412.231zm1.81.853h-.346a.489.489 0 0 1-.393-.187l-.396-.516a.523.523 0 0 0-.202-.177h.392c.117 0 .222.05.303.155l.413.524c.092.112.12.186.23.201zm.132.47c0 .283-.207.598-.443.598h-.216a.379.379 0 1 1-.584 0h-.226c-.077 0-.137.032-.185.123-.016-.123-.031-.248-.003-.333.038-.114.127-.182.215-.182h.994c.183 0 .32-.062.448-.205zm-.306 2.15c-.068.017-.106.057-.114.13-.04.387-.198.544-.45.632a3.625 3.625 0 0 1-.163 1.054c.298.623.07 1.059-.172 1.152-.23.09-.528-.03-.792-.03-.263 0-.565.12-.796.03-.242-.093-.47-.529-.173-1.152a3.625 3.625 0 0 1-.162-1.054c-.252-.088-.41-.245-.45-.632-.009-.073-.046-.113-.114-.13-.992-.273-1.085-1.504-.584-1.853-.044.551-.092 1.33 1.035 1.433-.018.647.262.82.55.82.236.001.37-.075.43-.106.21-.111.065-.282.011-.332a.569.569 0 0 1-.182-.517c.006-.034.019-.052.05-.052h.765c.032 0 .046.018.052.052a.573.573 0 0 1-.183.517c-.054.05-.198.22.011.332.059.031.194.107.43.106.288 0 .568-.173.55-.82 1.127-.103 1.08-.882 1.035-1.433.502.349.407 1.58-.584 1.852zm-.998 2.372c.03-.33-.346-.447-.695-.447-.35 0-.724.118-.695.447.035.402.411.21.695.212.283-.001.66.19.695-.212zm-.116-.781c.054-.29.077-.573.066-.844l-.26.304a2.373 2.373 0 0 0-.12-.255c-.029-.05-.053-.084-.087-.09a.27.27 0 0 1-.072.03c-.033.008-.078.005-.106.005-.027 0-.072.003-.106-.005a.275.275 0 0 1-.072-.03c-.035.006-.058.04-.087.09-.034.06-.068.135-.12.255l-.26-.304c-.01.271.012.553.066.844.193-.042.39-.058.579-.058.188 0 .386.016.579.058zm4.732-8.114c.042 0 .083.002.123.007a1.36 1.36 0 0 0-.889.812.636.636 0 0 0-.327.957c.22-.245.508-.429.836-.517.094-.472.487-.835.972-.886a1.176 1.176 0 0 0-.617 1.568.637.637 0 0 1 .823-.43.853.853 0 0 0 1.1-1.071.538.538 0 0 1 .294.819 1.083 1.083 0 0 0 1.268-.937c.279-.151.523-.355.734-.608l.148.72a.306.306 0 0 1-.08.272l.612-.628a.285.285 0 0 0 .072-.126.292.292 0 0 0 .006-.145l-.18-.88a.292.292 0 0 1 .006-.146.295.295 0 0 1 .073-.126l.481-.49a.306.306 0 0 0-.078.272l.18.88a.303.303 0 0 1-.076.27l.545-.567a.302.302 0 0 0 .078-.27l-.18-.88a.292.292 0 0 1 .006-.144.295.295 0 0 1 .073-.126l.481-.49a.295.295 0 0 0-.078.27l.181.881a.302.302 0 0 1-.077.27l.545-.566a.293.293 0 0 0 .072-.126.295.295 0 0 0 .006-.146l-.088-.43c-.092-.486.41-1.045.808-1.102a.64.64 0 0 0 .074-.295c0-.493-.587-.893-1.312-.893-.354 0-.676.095-.913.251.095.28.115.566-.815.698-.737.105-1.386.248-1.88.666-.76.645-.698 1.506-1.13 1.832.192.047.437.047.698-.01.166-.035.319-.09.454-.156-.081.154-.267.301-.51.406-.08.304-.35.594-.716.73-.23.085-.46.094-.649.04l-.89-.258a1.24 1.24 0 0 0-.342-.048c-.656 0-1.197.505-1.277 1.158a.637.637 0 0 0-.46.953 1.74 1.74 0 0 1 .787-.459 1.07 1.07 0 0 1 1.028-.776zm.063 5.017a.586.586 0 0 1 .003-.237.34.34 0 1 1 .58.303 1.9 1.9 0 0 0 .684-.051.561.561 0 0 0-.197-1.1.654.654 0 0 1 .904.656c.97-.021 2.065-.907 2.304-1.244-.304.07-.634.108-.978.108-.39 0-.764-.048-1.102-.138-.477-.126-.947-.196-1.308-.196-1.19 0-2.156.776-2.156 1.735 0 .791.654 1.482 1.56 1.667 2.063.422 4.489-.803 6.538-1.227.512-.501 1.105-.92 1.756-1.235a.952.952 0 0 1-.03-.234v-.005c-2.719.447-5.165 1.841-7.375 1.83-.619-.002-1.104-.24-1.183-.632zm14.621-6.043a.746.746 0 0 0-.689-1.031h-.753a.303.303 0 0 1-.25-.131l-.378-.558a.288.288 0 0 0 .109.097c.042.023.09.036.142.035h.992a.298.298 0 0 1 .25.132l-.455-.667a.29.29 0 0 0-.11-.097.297.297 0 0 0-.14-.035h-.985a.306.306 0 0 1-.25-.131l-.429-.63a.3.3 0 0 0 .25.132h.989a.298.298 0 0 1 .25.13l-.456-.667a.306.306 0 0 0-.25-.132h-.785a.305.305 0 0 1-.25-.132l-.529-.774c1.067-.128 1.928-.706 2.1-1.502.222-1.033-.806-2.036-2.293-2.254a.516.516 0 0 1-.107-.995 1.313 1.313 0 0 0-.524-.107c-.657 0-1.191.471-1.191 1.053 0 .104.018.206.05.302-.738.318-1.409.882-1.923 1.492a6.701 6.701 0 0 1 1.723-.224.807.807 0 0 1 .803-.891h.011c-.304.133-.452.425-.452.618a.417.417 0 0 0 .657.341.577.577 0 0 1 .638-.737.647.647 0 0 0 .385 1.224.463.463 0 1 1 .912-.118c0 .557-.618.609-1.07.48-1.286-.371-2.49-.537-3.654-.374-1.494.21-3.942 1.22-6.54 1.135a8.067 8.067 0 0 1-1.854-.29c.078.086.129.146.162.196.253.394.34.807.117 1.323.006-.579-.473-1.055-.874-1.347-.162-.118-.227-.23-.2-.38l.118-.668a.299.299 0 0 0 .087.268l.25.244c.095-.676-.058-1.306-.46-1.89.177-.466.202-.98.083-1.462-.047.365-.227.522-.396.628-.317.198-.369.53-.205.754-.267-.135-.635-.63-.422-.92.23-.312.858-.165.936-.7-.408-.13-.828-.039-.956-.004-.242-.277-.563-.415-.962-.412-.316-.286-.721-.405-1.217-.356-.495-.05-.9.07-1.216.356-.4-.003-.72.135-.962.412-.129-.035-.548-.126-.957.004.077.535.706.388.936.7.213.29-.155.785-.422.92.164-.223.111-.556-.205-.754-.17-.106-.35-.263-.396-.628-.12.482-.094.996.083 1.462-.402.584-.555 1.214-.46 1.89l.25-.244a.303.303 0 0 0 .086-.268l.118.668c.027.15-.037.262-.199.38-.402.292-.88.768-.874 1.347-.223-.516-.132-.947.117-1.323-.762-.411-1.342-1.087-1.449-1.21-.23-.268-.2-.61.009-.91.403-.575.498-1.189-.007-1.609a.786.786 0 0 0-.627-.864.663.663 0 0 1-.03.766.554.554 0 0 1-.084.762.888.888 0 0 0 .018-.182c0-.393-.243-.722-.573-.812a.615.615 0 0 0-1.048-.313c.233.018.42.2.446.432-.111.083-.2.2-.26.334h.016a.729.729 0 0 1 .716.862.804.804 0 0 0-.226-.435c-.226-.221-.555-.267-.856-.152a.616.616 0 0 0-1.004.056c.222.01.418.122.54.291-.316.406-.32.966.004 1.281.22.214.533.264.827.163a.194.194 0 1 1-.062.334.426.426 0 0 0-.696.38.423.423 0 0 1-.423-.103.57.57 0 0 0 .508.714.895.895 0 0 0 1.348.398.392.392 0 1 1 .311.703l-.305.067a.296.296 0 0 1-.146-.004.29.29 0 0 1-.126-.07l.699.662a.3.3 0 0 0 .273.075l.571-.126c.05-.012.1-.01.146.004.046.012.09.036.127.071l.479.456a.3.3 0 0 0-.272-.076l-.572.126a.292.292 0 0 1-.145-.004.292.292 0 0 1-.127-.07l.64.606a.306.306 0 0 0 .272.075l.573-.125a.306.306 0 0 1 .273.076l.479.455a.309.309 0 0 0-.273-.075l-.57.126a.296.296 0 0 1-.147-.005.29.29 0 0 1-.127-.07l.64.606a.29.29 0 0 0 .127.071.296.296 0 0 0 .146.005l.692-.152c-.672.38-1.387.81-2.144 1.288-.448.283-.938.336-1.5.12a1.714 1.714 0 0 0-.838-.099.91.91 0 0 0-.632.437.909.909 0 0 1 .982.2 1.245 1.245 0 0 0-.903-.006c-.565.206-.895.739-.766 1.216a.56.56 0 0 0-.19.925.575.575 0 0 1 .54-.448c.11.073.239.124.377.152a.812.812 0 0 1 .156-.192.933.933 0 0 1 1.05-1.063.934.934 0 0 0-.7 1.07.587.587 0 0 0-.24.926c.159-.31.468-.528.83-.563a1.53 1.53 0 0 0 .704.037.726.726 0 0 1 .702-1.129c-.384.163-.619.496-.538.8.058.215.26.363.522.413a.926.926 0 0 1-.123.443.934.934 0 0 0 .768-.514c.396-.16.64-.5.56-.808a.506.506 0 0 0-.192-.274.386.386 0 1 1 .667.229h.806c.05 0 .1-.014.141-.036a.29.29 0 0 0 .109-.098l.517-.766a.207.207 0 0 1 .17-.09h.634a.212.212 0 0 0-.17.09l-.52.766a.29.29 0 0 1-.108.098.295.295 0 0 1-.141.036h.963c.052 0 .1-.014.141-.036a.284.284 0 0 0 .11-.098l.58-.856c-.4-.22-.565-.603-.565-1.13 0-.327.184-.701.212-.942l.011-.096c.006-.05 0-.1-.018-.144a.47.47 0 0 0-.072-.125l.496.508c.039.033.067.075.083.12a.288.288 0 0 1 .02.144l-.016.116c-.023.202-.277.637.194 1.035.024.02.082.062.138.097l.335.21v-1.236h.469v1.375a.297.297 0 0 0 .139.246l.458.292a.305.305 0 0 0 .282.023l.845-.368a.288.288 0 0 1-.144.024.3.3 0 0 1-.138-.046l-.97-.617c.471-.398.216-.833.193-1.035l-.014-.116a.298.298 0 0 1 .102-.264l.496-.508a.466.466 0 0 0-.072.125.298.298 0 0 0-.018.144l.01.096c.04.343.388.966.099 1.313l.886.562a.307.307 0 0 0 .283.022l.883-.383a.305.305 0 0 1-.282-.023l-.959-.61c.21-.426.033-1.106-.17-1.5l-.03-.058a.296.296 0 0 1-.031-.142c0-.047.012-.096.037-.14l.33-.593a.287.287 0 0 0-.037.139.293.293 0 0 0 .03.141l.122.236c.063.116.099.186.155.323.539-.486.659-.955.315-1.354l-.102-.121a.3.3 0 0 1-.063-.276l.176-.654a.3.3 0 0 0 .063.274l.338.393c.656.741.259 1.696-.524 2.424.044.14.081.402.05.543l1.04.66a.297.297 0 0 0 .138.046.298.298 0 0 0 .144-.024l.751-.327a.35.35 0 0 1-.245-.655c2.87-.872 5.511-3.125 7.246-3.119.843.003 1.526.512 1.526 1.145 0 .101-.018.2-.051.295-.37 1.038.169 2.03 1.59 2.412a.532.532 0 0 1 .376.652 1.155 1.155 0 0 0 1.046-.488 8.13 8.13 0 0 0 .784-.045c.033.066.059.141.075.223.058.3-.046.569-.23.628-.325.106-.725-.021-1.034-.017a1.066 1.066 0 0 0-1.048 1.201.645.645 0 0 0-.222.867c.18-.21.414-.372.681-.466a.965.965 0 0 1 1.194-.894 1.067 1.067 0 0 0-.925 1.176.454.454 0 0 0 .056.639c.1-.217.339-.42.648-.526.208-.07.413-.084.583-.049a.84.84 0 0 1 .925-1.089.662.662 0 0 0-.295 1.196l-.001.036a.58.58 0 0 0 .215.451.658.658 0 0 1 .647-.534 2.2 2.2 0 0 0 .671-.09.714.714 0 0 0 .497-.677c0-.22-.1-.416-.257-.546.077-.356.063-.942-.058-1.429a.574.574 0 0 1 .555.254zM7.266 17.74l.12-.236a.298.298 0 0 0-.005-.28l.33.593a.304.304 0 0 1 .005.282l-.03.059c-.202.393-.39 1.13-.181 1.556-.489-.182-.65-.61-.598-.965-.92-.871-1.151-1.756-.495-2.497l.338-.394a.282.282 0 0 0 .065-.13.29.29 0 0 0-.002-.144l.176.655a.297.297 0 0 1-.063.276l-.102.12c-.344.4-.252.942.287 1.428.055-.137.092-.207.155-.323zm1.225-4.732h-.216c-.235 0-.443-.315-.443-.597a.558.558 0 0 0 .449.206h.993c.089 0 .177.067.216.182.028.084.012.209-.004.332-.048-.09-.108-.123-.185-.123h-.226a.379.379 0 1 1-.584 0zm.25-1.793l.412.524c.092.112.121.186.23.201h-.346a.489.489 0 0 1-.394-.187l-.395-.516a.523.523 0 0 0-.202-.177h.391c.118 0 .222.05.304.155zm1.147-.128l.506.711c.08.117.156.182.265.226h-.464a.394.394 0 0 1-.363-.21l-.399-.61c-.152-.23-.212-.286-.387-.348h.43c.17 0 .329.11.412.231zm1.81.853h-.346a.489.489 0 0 1-.393-.187l-.396-.516a.523.523 0 0 0-.202-.177h.392c.117 0 .222.05.303.155l.413.524c.092.112.12.186.23.201zm.132.47c0 .283-.207.598-.443.598h-.216a.378.378 0 1 1-.584 0h-.226c-.077 0-.137.032-.185.123-.016-.123-.031-.248-.003-.332.038-.115.127-.182.215-.182h.994c.183 0 .32-.063.448-.206zm-.306 2.15c-.068.018-.106.058-.114.13-.04.388-.198.544-.45.632a3.625 3.625 0 0 1-.163 1.054c.298.623.07 1.059-.172 1.153-.23.089-.528-.031-.792-.031-.263 0-.565.12-.796.03-.242-.093-.47-.529-.173-1.152a3.625 3.625 0 0 1-.162-1.054c-.252-.088-.41-.244-.45-.632-.009-.072-.046-.112-.114-.13-.992-.273-1.085-1.504-.584-1.853-.044.551-.092 1.33 1.035 1.433-.018.647.262.82.55.82.236.001.37-.075.43-.106.21-.111.065-.282.011-.332a.568.568 0 0 1-.182-.517c.006-.034.019-.052.05-.052h.765c.032 0 .046.018.052.052a.572.572 0 0 1-.183.517c-.054.05-.198.22.011.332.059.031.194.107.43.106.288 0 .568-.173.55-.82 1.127-.103 1.08-.882 1.035-1.433.502.349.407 1.58-.584 1.852zm-.998 2.372c.03-.33-.346-.447-.695-.447-.35 0-.724.118-.695.447.035.402.411.21.695.212.283-.001.66.19.695-.212zm-.116-.781c.054-.29.077-.573.066-.844l-.26.304a2.373 2.373 0 0 0-.12-.255c-.029-.05-.053-.084-.087-.09a.27.27 0 0 1-.072.03c-.033.008-.078.005-.106.005-.027 0-.072.003-.106-.005a.275.275 0 0 1-.072-.03c-.035.006-.058.04-.087.09-.034.06-.068.135-.12.255l-.26-.304c-.01.271.012.553.066.844.193-.042.39-.058.579-.058.188 0 .386.016.579.058zm11.627-2.821c.512-.501 1.105-.92 1.756-1.235a.952.952 0 0 1-.03-.234v-.005c-2.719.447-5.165 1.842-7.375 1.83-.619-.002-1.104-.24-1.183-.632a.586.586 0 0 1 .003-.236.34.34 0 1 1 .58.303 1.9 1.9 0 0 0 .684-.051.561.561 0 0 0-.197-1.1.654.654 0 0 1 .904.655c.97-.021 2.065-.907 2.304-1.244-.304.07-.634.108-.978.108-.39 0-.764-.048-1.102-.138-.477-.126-.947-.196-1.308-.196-1.19 0-2.156.776-2.156 1.735 0 .791.654 1.482 1.56 1.668 2.063.421 4.489-.804 6.538-1.228zm-8.797 35.18c0 .118.032.228.087.323a1.74 1.74 0 0 1 .787-.459 1.068 1.068 0 0 1 1.15-.77 1.36 1.36 0 0 0-.888.813.636.636 0 0 0-.327.957c.22-.246.508-.429.836-.517.094-.472.487-.835.972-.886a1.176 1.176 0 0 0-.617 1.568.637.637 0 0 1 .823-.43.852.852 0 0 0 1.1-1.072.54.54 0 0 1 .294.819 1.085 1.085 0 0 0 1.269-.937c.278-.15.522-.354.733-.608l.148.721c.01.05.007.1-.006.146a.295.295 0 0 1-.073.126l.611-.628a.285.285 0 0 0 .072-.126.295.295 0 0 0 .006-.146l-.18-.88a.292.292 0 0 1 .006-.145.295.295 0 0 1 .073-.126l.481-.49a.297.297 0 0 0-.078.271l.18.88a.306.306 0 0 1-.076.271l.545-.567a.302.302 0 0 0 .078-.27l-.18-.88a.292.292 0 0 1 .006-.144.295.295 0 0 1 .073-.126l.481-.49a.295.295 0 0 0-.078.27l.181.881a.302.302 0 0 1-.077.27l.545-.567a.29.29 0 0 0 .072-.125.295.295 0 0 0 .006-.146l-.088-.43c-.092-.486.41-1.045.808-1.102a.64.64 0 0 0 .074-.295c0-.493-.587-.893-1.312-.893-.354 0-.676.095-.913.25.095.282.115.567-.815.7-.737.103-1.386.247-1.88.665-.76.645-.698 1.506-1.13 1.832.192.047.437.047.698-.01.166-.035.319-.09.454-.157-.081.155-.267.302-.51.407-.08.304-.35.594-.716.73-.23.085-.46.094-.649.04l-.89-.258a1.24 1.24 0 0 0-.342-.048c-.656 0-1.197.505-1.277 1.158a.637.637 0 0 0-.547.63z"/>
        <path fill="#34394C" d="M49.607 25.934v7.87h1.087v-3.021l-.103-3.022.033-.005 1.887 6.048h.724l1.892-6.053.033.005-.097 3.027v3.02h1.086v-7.869h-1.416l-1.844 6.421h-.032l-1.839-6.42h-1.41zm11.862 7.87h1.147l-2.098-6.297h-1.13l-2.109 6.297h1.152l.449-1.422h2.135l.454 1.422zm-1.54-4.762h.032l.795 2.508h-1.617l.79-2.508zm6.828 4.762h1.4L66.12 30.45l1.914-2.944H66.67l-1.46 2.703h-.416v-2.703h-1.093v6.297h1.093v-2.692h.475l1.487 2.692zm5.028-.994c-.184.17-.456.254-.816.254-.335 0-.61-.088-.825-.265-.214-.174-.322-.46-.322-.857h-1.048l-.017.031c-.018.646.179 1.129.59 1.445.41.319.95.478 1.622.478.667 0 1.197-.156 1.592-.467.394-.311.592-.738.592-1.282 0-.527-.157-.93-.47-1.21-.314-.278-.8-.512-1.46-.706-.49-.148-.814-.299-.97-.45-.158-.152-.236-.362-.236-.63 0-.26.08-.474.24-.644.161-.17.407-.254.739-.254.327 0 .575.101.743.304.168.202.252.47.252.805h1.049l.01-.033c.015-.598-.16-1.066-.527-1.403-.365-.337-.875-.506-1.527-.506-.635 0-1.138.161-1.511.481-.374.32-.56.742-.56 1.264 0 .536.156.939.467 1.208.313.27.811.501 1.496.69.447.148.754.302.922.462.167.16.251.37.251.627a.85.85 0 0 1-.276.658zm6.228-5.303v4.121c0 .453-.11.806-.332 1.057-.222.253-.524.379-.906.379-.378 0-.679-.126-.902-.379-.224-.25-.336-.604-.336-1.057v-4.12h-1.092v4.129c0 .71.214 1.263.643 1.661.429.399.992.598 1.687.598.695 0 1.258-.2 1.687-.598.429-.398.644-.952.644-1.661v-4.13h-1.093zm2.363 3.362h2.41v-.832h-2.41v.832zm8.785.986c0 .366-.08.66-.235.878-.157.221-.356.33-.598.33-.28 0-.503-.092-.667-.275-.164-.184-.246-.462-.246-.833h-1.054l-.011.033c-.019.623.152 1.097.511 1.42.358.325.847.488 1.467.488.563 0 1.024-.185 1.384-.552.361-.367.541-.86.541-1.481v-4.356h-1.092v4.348zm6.358 1.949h1.147l-2.098-6.297h-1.13l-2.11 6.297h1.153l.449-1.422h2.135l.454 1.422zm-1.541-4.762h.032l.794 2.508H93.19l.789-2.508zm11.035-3.108H99.88v.832h2.012v7.038h1.098v-7.038h2.022v-.832zm5.352 4.064c0-.767-.216-1.388-.648-1.864-.433-.476-.995-.714-1.683-.714-.692 0-1.251.238-1.68.714-.429.476-.644 1.097-.644 1.864v1.314c0 .775.216 1.4.646 1.873.431.473.994.71 1.69.71.689 0 1.247-.237 1.676-.71.429-.474.643-1.098.643-1.873v-1.314zm-1.092 1.307c0 .55-.109.981-.327 1.292a1.039 1.039 0 0 1-.9.467c-.393 0-.699-.156-.917-.467-.219-.31-.327-.741-.327-1.292V29.99c0-.54.108-.964.324-1.273.216-.31.52-.464.908-.464.387 0 .688.154.908.464.221.31.33.733.33 1.273v1.315zm3.844-3.798h-1.093v6.297h3.418v-.833h-2.325v-5.464zm4.665 0h-1.091v6.297h3.416v-.833h-2.325v-5.464zm3.574 6.297h1.092v-6.297h-1.092v6.297zm6.39 0h1.147l-2.097-6.297h-1.13l-2.11 6.297h1.151l.45-1.422h2.135l.454 1.422zm-1.54-4.762h.032l.795 2.508h-1.616l.789-2.508zm5.153-1.535h-1.38v6.297h1.093v-4.157l.032-.005 1.357 4.162h.74l1.352-4.135.033.005v4.13h1.097v-6.297h-1.374l-1.464 4.95h-.032l-1.454-4.95zm9.39 2.605h-2.319V28.34h2.714v-.832h-3.806v6.297h3.806v-.833h-2.714v-2.026h2.32v-.833zm5.823-2.605h-4.315v.832h1.596v5.465h1.091v-5.465h1.628v-.832z"/>
    </g>
</svg>
