<svg xmlns="http://www.w3.org/2000/svg" width="234" height="60" viewBox="0 0 234 60">
    <g fill="none" fill-rule="evenodd">
        <path fill="#0083BA" d="M39.252 59.452h.986V.295h-.986v59.157zm-9.426-12.88a.746.746 0 0 0-.689-1.031l-.753-.001a.3.3 0 0 1-.25-.131l-.378-.558a.296.296 0 0 0 .109.097c.042.022.09.035.142.035h.992c.051 0 .1.013.142.034.042.023.08.056.109.098l-.456-.668a.306.306 0 0 0-.25-.131h-.985a.307.307 0 0 1-.25-.133l-.429-.628a.295.295 0 0 0 .109.096.29.29 0 0 0 .142.035h.988c.051 0 .1.012.142.035.042.022.08.054.108.096l-.456-.667a.298.298 0 0 0-.11-.097.297.297 0 0 0-.14-.035h-.785a.3.3 0 0 1-.251-.132l-.528-.775c1.067-.127 1.928-.705 2.1-1.501.222-1.034-.806-2.036-2.293-2.254a.517.517 0 0 1-.107-.996 1.328 1.328 0 0 0-.524-.106c-.657 0-1.191.471-1.191 1.053 0 .104.018.206.05.302-.738.318-1.409.882-1.923 1.492a6.701 6.701 0 0 1 1.723-.224.807.807 0 0 1 .803-.891h.011c-.304.133-.452.425-.452.618a.417.417 0 0 0 .657.34.577.577 0 0 1 .638-.737.647.647 0 0 0 .385 1.224.464.464 0 1 1 .912-.117c0 .557-.618.609-1.07.479-1.286-.37-2.49-.536-3.654-.374-1.494.21-3.942 1.22-6.54 1.136a8.067 8.067 0 0 1-1.854-.29c.078.085.129.145.162.196.253.394.34.807.117 1.323.006-.579-.473-1.055-.874-1.347-.162-.118-.227-.23-.2-.38l.118-.668a.3.3 0 0 0 .087.268l.25.244c.095-.677-.058-1.306-.46-1.89.177-.466.202-.98.083-1.462-.047.365-.227.521-.396.628-.317.197-.369.53-.205.753-.267-.135-.635-.63-.422-.919.23-.312.858-.165.936-.7-.408-.13-.828-.039-.956-.004-.242-.277-.563-.415-.962-.412-.316-.287-.721-.405-1.217-.356-.495-.05-.9.069-1.216.356-.4-.003-.72.135-.962.412-.129-.035-.548-.126-.957.003.077.536.706.39.936.701.213.289-.155.784-.422.92.164-.223.111-.557-.205-.754-.17-.107-.35-.263-.396-.628-.12.482-.094.996.083 1.462-.402.584-.555 1.213-.46 1.89l.25-.244a.3.3 0 0 0 .086-.268l.118.668c.027.15-.037.262-.199.38-.402.292-.88.768-.874 1.347-.223-.516-.132-.947.117-1.323-.762-.411-1.342-1.087-1.449-1.21-.23-.268-.2-.61.009-.91.403-.576.498-1.189-.007-1.609a.788.788 0 0 0-.627-.865.668.668 0 0 1-.03.766.556.556 0 0 1-.084.763.894.894 0 0 0 .018-.182c0-.393-.243-.722-.573-.812a.615.615 0 0 0-1.048-.313c.233.017.42.2.446.432a.82.82 0 0 0-.26.334h.016a.729.729 0 0 1 .716.862.807.807 0 0 0-.226-.436c-.226-.22-.555-.266-.856-.151a.616.616 0 0 0-1.004.056c.222.01.418.122.54.291-.316.406-.32.966.004 1.281.22.214.533.264.827.163a.194.194 0 1 1-.062.334.426.426 0 0 0-.696.38.423.423 0 0 1-.423-.102.57.57 0 0 0 .508.714.896.896 0 0 0 1.348.396.392.392 0 1 1 .311.703l-.305.068a.286.286 0 0 1-.146-.005.273.273 0 0 1-.126-.07l.699.663a.3.3 0 0 0 .273.075l.571-.127c.05-.01.1-.008.146.005.046.012.09.035.127.071l.479.456a.29.29 0 0 0-.127-.072.293.293 0 0 0-.145-.004l-.572.125c-.05.012-.1.01-.145-.003a.292.292 0 0 1-.127-.07l.64.605a.296.296 0 0 0 .272.076l.573-.125a.3.3 0 0 1 .273.076l.479.455a.29.29 0 0 0-.127-.071.296.296 0 0 0-.146-.004l-.57.126a.296.296 0 0 1-.147-.005.29.29 0 0 1-.127-.071l.64.606c.038.036.081.06.127.072a.296.296 0 0 0 .146.005l.692-.152c-.672.38-1.387.809-2.144 1.288-.448.283-.938.336-1.5.12a1.714 1.714 0 0 0-.838-.099.91.91 0 0 0-.632.437.912.912 0 0 1 .982.2 1.25 1.25 0 0 0-.903-.007c-.565.207-.895.74-.766 1.215a.564.564 0 0 0-.19.927.575.575 0 0 1 .54-.449c.11.074.239.125.377.153a.795.795 0 0 1 .156-.193.933.933 0 0 1 1.05-1.063.934.934 0 0 0-.7 1.071.586.586 0 0 0-.24.926c.159-.31.468-.528.83-.563a1.529 1.529 0 0 0 .704.037.726.726 0 0 1 .702-1.128c-.384.162-.619.495-.538.798.058.216.26.364.522.413a.927.927 0 0 1-.123.444.936.936 0 0 0 .768-.515c.396-.159.64-.499.56-.807a.511.511 0 0 0-.192-.275l-.002-.031a.386.386 0 1 1 .669.26h.806c.05 0 .1-.013.141-.035a.29.29 0 0 0 .109-.098l.517-.767a.207.207 0 0 1 .17-.09h.634a.207.207 0 0 0-.17.09l-.52.767a.29.29 0 0 1-.108.098.295.295 0 0 1-.141.035h.963c.052 0 .1-.013.141-.035a.284.284 0 0 0 .11-.098l.58-.856c-.4-.22-.565-.603-.565-1.13 0-.328.184-.701.212-.942l.011-.096a.3.3 0 0 0-.018-.145.48.48 0 0 0-.072-.124l.496.508c.039.033.067.075.083.12a.288.288 0 0 1 .02.144l-.016.116c-.023.202-.277.637.194 1.035.024.02.082.06.138.096l.335.21v-1.235h.469v1.375c0 .051.015.1.039.14.023.042.056.08.1.106l.458.291a.295.295 0 0 0 .282.022l.845-.366a.298.298 0 0 1-.282-.023l-.97-.616c.471-.398.216-.833.193-1.035l-.014-.116a.298.298 0 0 1 .102-.264l.496-.508a.475.475 0 0 0-.072.124.3.3 0 0 0-.018.145l.01.096c.04.343.388.966.099 1.313l.886.562a.306.306 0 0 0 .283.022l.883-.383a.305.305 0 0 1-.282-.023l-.959-.61c.21-.427.033-1.107-.17-1.5l-.03-.058a.299.299 0 0 1-.031-.142c0-.048.012-.096.037-.141l.33-.593a.293.293 0 0 0-.037.14.293.293 0 0 0 .03.141l.122.236c.063.116.099.186.155.323.539-.486.659-.955.315-1.355l-.102-.12a.298.298 0 0 1-.065-.13.284.284 0 0 1 .002-.146l.176-.655a.3.3 0 0 0 .063.274l.338.394c.656.741.259 1.696-.524 2.424.044.14.081.401.05.543l1.04.66a.297.297 0 0 0 .138.045.298.298 0 0 0 .144-.023l.751-.327a.35.35 0 0 1-.245-.655c2.87-.873 5.511-3.125 7.246-3.12.843.003 1.526.513 1.526 1.145 0 .102-.018.201-.051.296-.37 1.038.169 2.03 1.59 2.411a.534.534 0 0 1 .376.653 1.157 1.157 0 0 0 1.046-.488 8.13 8.13 0 0 0 .784-.045c.033.066.059.14.075.223.058.298-.046.569-.23.628-.325.106-.725-.021-1.034-.018a1.067 1.067 0 0 0-1.048 1.201.648.648 0 0 0-.222.868c.18-.21.414-.372.681-.466a.965.965 0 0 1 1.194-.894 1.067 1.067 0 0 0-.925 1.176.456.456 0 0 0 .057.638c.098-.216.338-.42.647-.525.208-.07.413-.084.583-.049a.84.84 0 0 1 .925-1.089.662.662 0 0 0-.295 1.195l-.001.037a.58.58 0 0 0 .215.451.658.658 0 0 1 .647-.534 2.2 2.2 0 0 0 .671-.09.714.714 0 0 0 .497-.677c0-.22-.1-.416-.257-.546.077-.356.063-.942-.058-1.429a.572.572 0 0 1 .555.254zm-22.56-2.459l.12-.236a.304.304 0 0 0-.005-.282l.33.594a.307.307 0 0 1 .005.283l-.03.058c-.202.393-.39 1.13-.181 1.557-.489-.182-.65-.61-.598-.965-.92-.872-1.151-1.756-.495-2.497l.338-.394a.282.282 0 0 0 .065-.13.29.29 0 0 0-.002-.144l.176.655a.298.298 0 0 1-.063.276l-.102.12c-.344.4-.252.942.287 1.428.055-.137.092-.207.155-.323zm1.225-4.732h-.216c-.235 0-.443-.315-.443-.598a.555.555 0 0 0 .449.206h.993c.089 0 .177.068.216.182.028.085.012.21-.004.332-.048-.09-.108-.122-.185-.122h-.226a.379.379 0 1 1-.584 0zm.25-1.793l.412.524c.092.111.121.185.23.201h-.346a.489.489 0 0 1-.394-.187l-.395-.516a.533.533 0 0 0-.202-.178h.391c.118 0 .222.051.304.156zm1.147-.128l.506.711c.08.117.156.182.265.226h-.464a.394.394 0 0 1-.363-.21l-.399-.61c-.152-.23-.212-.287-.387-.348h.43c.17 0 .329.11.412.231zm1.81.853h-.346a.489.489 0 0 1-.393-.187l-.396-.516a.533.533 0 0 0-.202-.178h.392c.117 0 .222.051.303.156l.413.524c.092.111.12.185.23.201zm.132.47c0 .283-.207.598-.443.598h-.216a.379.379 0 1 1-.584 0h-.226c-.077 0-.137.031-.185.122-.016-.122-.031-.247-.003-.332.038-.114.127-.182.215-.182h.994c.183 0 .32-.062.448-.206zm-.306 2.148c-.068.02-.106.06-.114.132-.04.387-.198.544-.45.632a3.625 3.625 0 0 1-.163 1.054c.298.623.07 1.059-.172 1.152-.23.09-.528-.03-.792-.03-.263 0-.565.12-.796.03-.242-.093-.47-.529-.173-1.152a3.625 3.625 0 0 1-.162-1.054c-.252-.088-.41-.245-.45-.632-.009-.073-.046-.113-.114-.132-.992-.271-1.085-1.502-.584-1.851-.044.551-.092 1.33 1.035 1.433-.018.647.262.82.55.82.236 0 .37-.076.43-.107.21-.111.065-.28.011-.331a.569.569 0 0 1-.182-.517c.006-.035.019-.052.05-.052h.765c.032 0 .046.017.052.052a.573.573 0 0 1-.183.517c-.054.05-.198.22.011.331.059.031.194.107.43.107.288 0 .568-.173.55-.82 1.127-.103 1.08-.882 1.035-1.433.502.349.407 1.58-.584 1.851zm-.998 2.374c.03-.33-.346-.447-.695-.447-.35 0-.724.118-.695.447.035.402.411.21.695.212.283-.001.66.19.695-.212zm-.116-.782c.054-.29.077-.572.066-.843l-.26.304a2.294 2.294 0 0 0-.12-.255c-.029-.05-.053-.084-.087-.09-.017.009-.043.023-.072.03-.033.008-.078.005-.106.005-.027 0-.072.003-.106-.005-.028-.007-.054-.021-.072-.03-.035.006-.058.04-.087.09-.034.06-.068.134-.12.255l-.26-.304c-.01.271.012.553.066.843.193-.042.39-.057.579-.057.188 0 .386.015.579.057zm4.732-8.113c.042 0 .083.002.123.007a1.36 1.36 0 0 0-.889.812.636.636 0 0 0-.327.957c.22-.245.508-.429.836-.517.094-.472.487-.835.972-.886a1.176 1.176 0 0 0-.617 1.568.637.637 0 0 1 .823-.43.852.852 0 0 0 1.1-1.072.54.54 0 0 1 .294.82 1.083 1.083 0 0 0 1.268-.937c.279-.151.523-.355.734-.609l.148.721c.01.05.007.1-.006.146a.292.292 0 0 1-.073.126l.611-.628a.285.285 0 0 0 .072-.126.292.292 0 0 0 .006-.145l-.18-.88a.292.292 0 0 1 .006-.146.295.295 0 0 1 .073-.126l.481-.49a.295.295 0 0 0-.078.272l.18.88a.303.303 0 0 1-.076.27l.545-.567a.305.305 0 0 0 .078-.27l-.18-.88a.292.292 0 0 1 .006-.144.295.295 0 0 1 .073-.126l.481-.49a.295.295 0 0 0-.078.27l.181.881a.303.303 0 0 1-.077.27l.545-.566a.293.293 0 0 0 .072-.126.295.295 0 0 0 .006-.146l-.088-.43c-.092-.486.41-1.045.808-1.102a.64.64 0 0 0 .074-.295c0-.493-.587-.893-1.312-.893-.354 0-.676.095-.913.25.095.282.115.567-.815.7-.737.104-1.386.247-1.88.665-.76.645-.698 1.506-1.13 1.832.192.047.437.047.698-.01.166-.035.319-.09.454-.157-.081.155-.267.302-.51.407-.08.304-.35.594-.716.73-.23.085-.46.094-.649.04l-.89-.258a1.24 1.24 0 0 0-.342-.048c-.656 0-1.197.505-1.277 1.157a.638.638 0 0 0-.46.954 1.74 1.74 0 0 1 .787-.459 1.07 1.07 0 0 1 1.028-.776zm.063 5.017a.59.59 0 0 1 .003-.237.34.34 0 1 1 .58.304 1.9 1.9 0 0 0 .684-.051.561.561 0 0 0-.146-1.102c-.017 0-.034 0-.05.002a.654.654 0 0 1 .903.654c.97-.02 2.065-.906 2.304-1.243-.304.07-.634.108-.978.108-.39 0-.764-.048-1.102-.138-.477-.126-.947-.196-1.308-.196-1.19 0-2.156.776-2.156 1.735 0 .79.654 1.482 1.56 1.667 2.063.421 4.489-.804 6.538-1.227.512-.501 1.105-.92 1.756-1.236a.94.94 0 0 1-.03-.233v-.005c-2.719.447-5.165 1.841-7.375 1.83-.619-.002-1.104-.24-1.183-.632zm14.621-6.043a.746.746 0 0 0-.689-1.031h-.753a.303.303 0 0 1-.25-.131l-.378-.558a.296.296 0 0 0 .109.097c.042.022.09.036.142.035h.992a.298.298 0 0 1 .25.132l-.455-.667a.29.29 0 0 0-.11-.097.297.297 0 0 0-.14-.035h-.985a.298.298 0 0 1-.25-.131l-.429-.63a.3.3 0 0 0 .25.132h.989a.298.298 0 0 1 .25.13l-.456-.667a.3.3 0 0 0-.25-.132h-.785a.305.305 0 0 1-.25-.132l-.529-.775c1.067-.127 1.928-.705 2.1-1.501.222-1.033-.806-2.036-2.293-2.254a.516.516 0 0 1-.107-.995 1.313 1.313 0 0 0-.524-.107c-.657 0-1.191.471-1.191 1.053 0 .104.018.206.05.302-.738.318-1.409.882-1.923 1.492a6.701 6.701 0 0 1 1.723-.224.807.807 0 0 1 .803-.891h.011c-.304.133-.452.425-.452.618a.417.417 0 0 0 .657.341.577.577 0 0 1 .638-.737.647.647 0 0 0 .385 1.224.464.464 0 1 1 .912-.118c0 .557-.618.609-1.07.48-1.286-.371-2.49-.537-3.654-.375-1.494.21-3.942 1.22-6.54 1.136a8.067 8.067 0 0 1-1.854-.29c.078.086.129.145.162.196.253.394.34.807.117 1.323.006-.579-.473-1.055-.874-1.347-.162-.118-.227-.23-.2-.38l.118-.668a.3.3 0 0 0 .087.268l.25.244c.095-.677-.058-1.306-.46-1.89.177-.466.202-.98.083-1.462-.047.365-.227.521-.396.628-.317.197-.369.53-.205.754-.267-.135-.635-.631-.422-.92.23-.312.858-.165.936-.7-.408-.13-.828-.039-.956-.004-.242-.277-.563-.415-.962-.412-.316-.286-.721-.405-1.217-.356-.495-.05-.9.07-1.216.356-.4-.003-.72.135-.962.412-.129-.035-.548-.126-.957.003.077.536.706.39.936.701.213.289-.155.785-.422.92.164-.223.111-.557-.205-.754-.17-.107-.35-.263-.396-.628-.12.482-.094.996.083 1.462-.402.584-.555 1.213-.46 1.89l.25-.244a.3.3 0 0 0 .086-.268l.118.668c.027.15-.037.262-.199.38-.402.292-.88.768-.874 1.347-.223-.516-.132-.947.117-1.323-.762-.411-1.342-1.087-1.449-1.21-.23-.268-.2-.61.009-.91.403-.575.498-1.189-.007-1.609a.788.788 0 0 0-.627-.865.668.668 0 0 1-.03.767.554.554 0 0 1-.084.762.888.888 0 0 0 .018-.182c0-.393-.243-.722-.573-.812a.615.615 0 0 0-1.048-.313c.233.017.42.2.446.432a.82.82 0 0 0-.26.334h.016a.729.729 0 0 1 .716.862.804.804 0 0 0-.226-.435c-.226-.221-.555-.267-.856-.152a.616.616 0 0 0-1.004.056c.222.01.418.122.54.291-.316.406-.32.966.004 1.281.22.214.533.264.827.163a.194.194 0 1 1-.062.334.426.426 0 0 0-.696.38.423.423 0 0 1-.423-.102.57.57 0 0 0 .508.714.895.895 0 0 0 1.348.397.392.392 0 1 1 .311.703l-.305.067a.296.296 0 0 1-.146-.004.29.29 0 0 1-.126-.07l.699.662a.3.3 0 0 0 .273.075l.571-.127c.05-.01.1-.008.146.005.046.012.09.036.127.071l.479.456a.29.29 0 0 0-.127-.072.293.293 0 0 0-.145-.004l-.572.126a.292.292 0 0 1-.145-.004.292.292 0 0 1-.127-.07l.64.606a.298.298 0 0 0 .272.075l.573-.125a.3.3 0 0 1 .273.076l.479.454a.307.307 0 0 0-.273-.074l-.57.126a.296.296 0 0 1-.147-.005.297.297 0 0 1-.127-.07l.64.606a.29.29 0 0 0 .127.071.296.296 0 0 0 .146.005l.692-.152c-.672.38-1.387.809-2.144 1.288-.448.283-.938.336-1.5.12a1.725 1.725 0 0 0-.838-.099.91.91 0 0 0-.632.437.909.909 0 0 1 .982.2 1.245 1.245 0 0 0-.903-.006c-.565.206-.895.739-.766 1.216a.56.56 0 0 0-.19.925.575.575 0 0 1 .54-.448c.11.073.239.124.377.152a.795.795 0 0 1 .156-.192.933.933 0 0 1 1.05-1.063.934.934 0 0 0-.7 1.07.587.587 0 0 0-.24.926c.159-.31.468-.528.83-.563a1.53 1.53 0 0 0 .704.037.725.725 0 0 1 .702-1.128c-.384.162-.619.495-.538.799.058.215.26.363.522.413a.926.926 0 0 1-.123.443.934.934 0 0 0 .768-.514c.396-.16.64-.5.56-.808a.506.506 0 0 0-.192-.274.386.386 0 1 1 .667.229h.806c.05 0 .1-.014.141-.036a.29.29 0 0 0 .109-.098l.517-.767a.207.207 0 0 1 .17-.09h.634a.212.212 0 0 0-.17.09l-.52.768a.296.296 0 0 1-.108.097.295.295 0 0 1-.141.035h.963c.052 0 .1-.013.141-.035a.284.284 0 0 0 .11-.098l.58-.856c-.4-.22-.565-.603-.565-1.13 0-.327.184-.701.212-.942l.011-.097c.006-.05 0-.099-.018-.143a.47.47 0 0 0-.072-.125l.496.508c.039.033.067.075.083.12a.29.29 0 0 1 .02.145l-.016.115c-.023.202-.277.637.194 1.035.024.02.082.062.138.097l.335.21v-1.236h.469v1.375a.297.297 0 0 0 .139.246l.458.291a.307.307 0 0 0 .282.023l.845-.367a.288.288 0 0 1-.144.024.3.3 0 0 1-.138-.046l-.97-.617c.471-.398.216-.833.193-1.035l-.014-.115a.3.3 0 0 1 .102-.265l.496-.508a.466.466 0 0 0-.072.125.294.294 0 0 0-.018.143l.01.097c.04.343.388.966.099 1.314l.886.561a.307.307 0 0 0 .283.022l.883-.383a.305.305 0 0 1-.282-.023l-.959-.61c.21-.426.033-1.106-.17-1.5l-.03-.058a.296.296 0 0 1-.031-.142c0-.048.012-.096.037-.14l.33-.593a.284.284 0 0 0-.037.139.293.293 0 0 0 .03.141l.122.236c.063.116.099.186.155.323.539-.486.659-.955.315-1.354l-.102-.121a.3.3 0 0 1-.063-.276l.176-.655a.3.3 0 0 0 .063.274l.338.394c.656.741.259 1.696-.524 2.425.044.139.081.4.05.542l1.04.66a.297.297 0 0 0 .138.045.298.298 0 0 0 .144-.023l.751-.327a.35.35 0 0 1-.245-.655c2.87-.873 5.511-3.125 7.246-3.12.843.004 1.526.513 1.526 1.145 0 .102-.018.201-.051.296-.37 1.038.169 2.03 1.59 2.412a.532.532 0 0 1 .376.652 1.157 1.157 0 0 0 1.046-.488 8.13 8.13 0 0 0 .784-.045c.033.066.059.141.075.223.058.3-.046.569-.23.628-.325.106-.725-.021-1.034-.018a1.067 1.067 0 0 0-1.048 1.202.645.645 0 0 0-.222.867c.18-.21.414-.372.681-.466a.965.965 0 0 1 1.194-.894 1.067 1.067 0 0 0-.925 1.176.46.46 0 0 0 .057.64c.098-.218.338-.423.647-.527.208-.07.413-.084.583-.049a.84.84 0 0 1 .925-1.089.662.662 0 0 0-.295 1.196l-.001.036a.58.58 0 0 0 .215.451.658.658 0 0 1 .647-.534 2.2 2.2 0 0 0 .671-.09.714.714 0 0 0 .497-.677c0-.22-.1-.416-.257-.546.077-.356.063-.942-.058-1.429a.572.572 0 0 1 .555.254zm-22.56-2.458l.12-.236a.295.295 0 0 0-.005-.28l.33.593a.301.301 0 0 1 .005.282l-.03.058c-.202.394-.39 1.13-.181 1.557-.489-.182-.65-.61-.598-.964-.92-.873-1.151-1.757-.495-2.498l.338-.394a.282.282 0 0 0 .065-.13.29.29 0 0 0-.002-.144l.176.655a.297.297 0 0 1-.063.276l-.102.12c-.344.4-.252.942.287 1.428.055-.137.092-.207.155-.323zm1.225-4.732h-.216c-.235 0-.443-.315-.443-.597a.557.557 0 0 0 .449.205h.993c.089 0 .177.068.216.182.028.085.012.21-.004.333-.048-.09-.108-.123-.185-.123h-.226a.379.379 0 1 1-.584 0zm.25-1.793l.412.524c.092.112.121.186.23.201h-.346a.489.489 0 0 1-.394-.187l-.395-.516a.523.523 0 0 0-.202-.177h.391c.118 0 .222.05.304.155zm1.147-.128l.506.711c.08.117.156.182.265.226h-.464a.394.394 0 0 1-.363-.21l-.399-.61c-.152-.23-.212-.286-.387-.348h.43c.17 0 .329.11.412.231zm1.81.853h-.346a.489.489 0 0 1-.393-.187l-.396-.516a.523.523 0 0 0-.202-.177h.392c.117 0 .222.05.303.155l.413.524c.092.112.12.186.23.201zm.132.47c0 .283-.207.598-.443.598h-.216a.379.379 0 1 1-.584 0h-.226c-.077 0-.137.032-.185.123-.016-.123-.031-.248-.003-.333.038-.114.127-.182.215-.182h.994c.183 0 .32-.062.448-.205zm-.306 2.15c-.068.017-.106.057-.114.13-.04.387-.198.544-.45.632a3.625 3.625 0 0 1-.163 1.054c.298.623.07 1.059-.172 1.152-.23.09-.528-.03-.792-.03-.263 0-.565.12-.796.03-.242-.093-.47-.529-.173-1.152a3.625 3.625 0 0 1-.162-1.054c-.252-.088-.41-.245-.45-.632-.009-.073-.046-.113-.114-.13-.992-.273-1.085-1.504-.584-1.853-.044.551-.092 1.33 1.035 1.433-.018.647.262.82.55.82.236.001.37-.075.43-.106.21-.111.065-.282.011-.332a.569.569 0 0 1-.182-.517c.006-.034.019-.052.05-.052h.765c.032 0 .046.018.052.052a.573.573 0 0 1-.183.517c-.054.05-.198.22.011.332.059.031.194.107.43.106.288 0 .568-.173.55-.82 1.127-.103 1.08-.882 1.035-1.433.502.349.407 1.58-.584 1.852zm-.998 2.372c.03-.33-.346-.447-.695-.447-.35 0-.724.118-.695.447.035.402.411.21.695.212.283-.001.66.19.695-.212zm-.116-.781c.054-.29.077-.573.066-.844l-.26.304a2.373 2.373 0 0 0-.12-.255c-.029-.05-.053-.084-.087-.09a.27.27 0 0 1-.072.03c-.033.008-.078.005-.106.005-.027 0-.072.003-.106-.005a.275.275 0 0 1-.072-.03c-.035.006-.058.04-.087.09-.034.06-.068.135-.12.255l-.26-.304c-.01.271.012.553.066.844.193-.042.39-.058.579-.058.188 0 .386.016.579.058zm4.732-8.114c.042 0 .083.002.123.007a1.36 1.36 0 0 0-.889.812.636.636 0 0 0-.327.957c.22-.245.508-.429.836-.517.094-.472.487-.835.972-.886a1.176 1.176 0 0 0-.617 1.568.637.637 0 0 1 .823-.43.853.853 0 0 0 1.1-1.071.538.538 0 0 1 .294.819 1.083 1.083 0 0 0 1.268-.937c.279-.151.523-.355.734-.608l.148.72a.306.306 0 0 1-.08.272l.612-.628a.285.285 0 0 0 .072-.126.292.292 0 0 0 .006-.145l-.18-.88a.292.292 0 0 1 .006-.146.295.295 0 0 1 .073-.126l.481-.49a.306.306 0 0 0-.078.272l.18.88a.303.303 0 0 1-.076.27l.545-.567a.302.302 0 0 0 .078-.27l-.18-.88a.292.292 0 0 1 .006-.144.295.295 0 0 1 .073-.126l.481-.49a.295.295 0 0 0-.078.27l.181.881a.302.302 0 0 1-.077.27l.545-.566a.293.293 0 0 0 .072-.126.295.295 0 0 0 .006-.146l-.088-.43c-.092-.486.41-1.045.808-1.102a.64.64 0 0 0 .074-.295c0-.493-.587-.893-1.312-.893-.354 0-.676.095-.913.251.095.28.115.566-.815.698-.737.105-1.386.248-1.88.666-.76.645-.698 1.506-1.13 1.832.192.047.437.047.698-.01.166-.035.319-.09.454-.156-.081.154-.267.301-.51.406-.08.304-.35.594-.716.73-.23.085-.46.094-.649.04l-.89-.258a1.24 1.24 0 0 0-.342-.048c-.656 0-1.197.505-1.277 1.158a.637.637 0 0 0-.46.953 1.74 1.74 0 0 1 .787-.459 1.07 1.07 0 0 1 1.028-.776zm.063 5.017a.586.586 0 0 1 .003-.237.34.34 0 1 1 .58.303 1.9 1.9 0 0 0 .684-.051.561.561 0 0 0-.197-1.1.654.654 0 0 1 .904.656c.97-.021 2.065-.907 2.304-1.244-.304.07-.634.108-.978.108-.39 0-.764-.048-1.102-.138-.477-.126-.947-.196-1.308-.196-1.19 0-2.156.776-2.156 1.735 0 .791.654 1.482 1.56 1.667 2.063.422 4.489-.803 6.538-1.227.512-.501 1.105-.92 1.756-1.235a.952.952 0 0 1-.03-.234v-.005c-2.719.447-5.165 1.841-7.375 1.83-.619-.002-1.104-.24-1.183-.632zm14.621-6.043a.746.746 0 0 0-.689-1.031h-.753a.303.303 0 0 1-.25-.131l-.378-.558a.288.288 0 0 0 .109.097c.042.023.09.036.142.035h.992a.298.298 0 0 1 .25.132l-.455-.667a.29.29 0 0 0-.11-.097.297.297 0 0 0-.14-.035h-.985a.306.306 0 0 1-.25-.131l-.429-.63a.3.3 0 0 0 .25.132h.989a.298.298 0 0 1 .25.13l-.456-.667a.306.306 0 0 0-.25-.132h-.785a.305.305 0 0 1-.25-.132l-.529-.774c1.067-.128 1.928-.706 2.1-1.502.222-1.033-.806-2.036-2.293-2.254a.516.516 0 0 1-.107-.995 1.313 1.313 0 0 0-.524-.107c-.657 0-1.191.471-1.191 1.053 0 .104.018.206.05.302-.738.318-1.409.882-1.923 1.492a6.701 6.701 0 0 1 1.723-.224.807.807 0 0 1 .803-.891h.011c-.304.133-.452.425-.452.618a.417.417 0 0 0 .657.341.577.577 0 0 1 .638-.737.647.647 0 0 0 .385 1.224.463.463 0 1 1 .912-.118c0 .557-.618.609-1.07.48-1.286-.371-2.49-.537-3.654-.374-1.494.21-3.942 1.22-6.54 1.135a8.067 8.067 0 0 1-1.854-.29c.078.086.129.146.162.196.253.394.34.807.117 1.323.006-.579-.473-1.055-.874-1.347-.162-.118-.227-.23-.2-.38l.118-.668a.299.299 0 0 0 .087.268l.25.244c.095-.676-.058-1.306-.46-1.89.177-.466.202-.98.083-1.462-.047.365-.227.522-.396.628-.317.198-.369.53-.205.754-.267-.135-.635-.63-.422-.92.23-.312.858-.165.936-.7-.408-.13-.828-.039-.956-.004-.242-.277-.563-.415-.962-.412-.316-.286-.721-.405-1.217-.356-.495-.05-.9.07-1.216.356-.4-.003-.72.135-.962.412-.129-.035-.548-.126-.957.004.077.535.706.388.936.7.213.29-.155.785-.422.92.164-.223.111-.556-.205-.754-.17-.106-.35-.263-.396-.628-.12.482-.094.996.083 1.462-.402.584-.555 1.214-.46 1.89l.25-.244a.303.303 0 0 0 .086-.268l.118.668c.027.15-.037.262-.199.38-.402.292-.88.768-.874 1.347-.223-.516-.132-.947.117-1.323-.762-.411-1.342-1.087-1.449-1.21-.23-.268-.2-.61.009-.91.403-.575.498-1.189-.007-1.609a.786.786 0 0 0-.627-.864.663.663 0 0 1-.03.766.554.554 0 0 1-.084.762.888.888 0 0 0 .018-.182c0-.393-.243-.722-.573-.812a.615.615 0 0 0-1.048-.313c.233.018.42.2.446.432-.111.083-.2.2-.26.334h.016a.729.729 0 0 1 .716.862.804.804 0 0 0-.226-.435c-.226-.221-.555-.267-.856-.152a.616.616 0 0 0-1.004.056c.222.01.418.122.54.291-.316.406-.32.966.004 1.281.22.214.533.264.827.163a.194.194 0 1 1-.062.334.426.426 0 0 0-.696.38.423.423 0 0 1-.423-.103.57.57 0 0 0 .508.714.895.895 0 0 0 1.348.398.392.392 0 1 1 .311.703l-.305.067a.296.296 0 0 1-.146-.004.29.29 0 0 1-.126-.07l.699.662a.3.3 0 0 0 .273.075l.571-.126c.05-.012.1-.01.146.004.046.012.09.036.127.071l.479.456a.3.3 0 0 0-.272-.076l-.572.126a.292.292 0 0 1-.145-.004.292.292 0 0 1-.127-.07l.64.606a.306.306 0 0 0 .272.075l.573-.125a.306.306 0 0 1 .273.076l.479.455a.309.309 0 0 0-.273-.075l-.57.126a.296.296 0 0 1-.147-.005.29.29 0 0 1-.127-.07l.64.606a.29.29 0 0 0 .127.071.296.296 0 0 0 .146.005l.692-.152c-.672.38-1.387.81-2.144 1.288-.448.283-.938.336-1.5.12a1.714 1.714 0 0 0-.838-.099.91.91 0 0 0-.632.437.909.909 0 0 1 .982.2 1.245 1.245 0 0 0-.903-.006c-.565.206-.895.739-.766 1.216a.56.56 0 0 0-.19.925.575.575 0 0 1 .54-.448c.11.073.239.124.377.152a.812.812 0 0 1 .156-.192.933.933 0 0 1 1.05-1.063.934.934 0 0 0-.7 1.07.587.587 0 0 0-.24.926c.159-.31.468-.528.83-.563a1.53 1.53 0 0 0 .704.037.726.726 0 0 1 .702-1.129c-.384.163-.619.496-.538.8.058.215.26.363.522.413a.926.926 0 0 1-.123.443.934.934 0 0 0 .768-.514c.396-.16.64-.5.56-.808a.506.506 0 0 0-.192-.274.386.386 0 1 1 .667.229h.806c.05 0 .1-.014.141-.036a.29.29 0 0 0 .109-.098l.517-.766a.207.207 0 0 1 .17-.09h.634a.212.212 0 0 0-.17.09l-.52.766a.29.29 0 0 1-.108.098.295.295 0 0 1-.141.036h.963c.052 0 .1-.014.141-.036a.284.284 0 0 0 .11-.098l.58-.856c-.4-.22-.565-.603-.565-1.13 0-.327.184-.701.212-.942l.011-.096c.006-.05 0-.1-.018-.144a.47.47 0 0 0-.072-.125l.496.508c.039.033.067.075.083.12a.288.288 0 0 1 .02.144l-.016.116c-.023.202-.277.637.194 1.035.024.02.082.062.138.097l.335.21v-1.236h.469v1.375a.297.297 0 0 0 .139.246l.458.292a.305.305 0 0 0 .282.023l.845-.368a.288.288 0 0 1-.144.024.3.3 0 0 1-.138-.046l-.97-.617c.471-.398.216-.833.193-1.035l-.014-.116a.298.298 0 0 1 .102-.264l.496-.508a.466.466 0 0 0-.072.125.298.298 0 0 0-.018.144l.01.096c.04.343.388.966.099 1.313l.886.562a.307.307 0 0 0 .283.022l.883-.383a.305.305 0 0 1-.282-.023l-.959-.61c.21-.426.033-1.106-.17-1.5l-.03-.058a.296.296 0 0 1-.031-.142c0-.047.012-.096.037-.14l.33-.593a.287.287 0 0 0-.037.139.293.293 0 0 0 .03.141l.122.236c.063.116.099.186.155.323.539-.486.659-.955.315-1.354l-.102-.121a.3.3 0 0 1-.063-.276l.176-.654a.3.3 0 0 0 .063.274l.338.393c.656.741.259 1.696-.524 2.424.044.14.081.402.05.543l1.04.66a.297.297 0 0 0 .138.046.298.298 0 0 0 .144-.024l.751-.327a.35.35 0 0 1-.245-.655c2.87-.872 5.511-3.125 7.246-3.119.843.003 1.526.512 1.526 1.145 0 .101-.018.2-.051.295-.37 1.038.169 2.03 1.59 2.412a.532.532 0 0 1 .376.652 1.155 1.155 0 0 0 1.046-.488 8.13 8.13 0 0 0 .784-.045c.033.066.059.141.075.223.058.3-.046.569-.23.628-.325.106-.725-.021-1.034-.017a1.066 1.066 0 0 0-1.048 1.201.645.645 0 0 0-.222.867c.18-.21.414-.372.681-.466a.965.965 0 0 1 1.194-.894 1.067 1.067 0 0 0-.925 1.176.454.454 0 0 0 .056.639c.1-.217.339-.42.648-.526.208-.07.413-.084.583-.049a.84.84 0 0 1 .925-1.089.662.662 0 0 0-.295 1.196l-.001.036a.58.58 0 0 0 .215.451.658.658 0 0 1 .647-.534 2.2 2.2 0 0 0 .671-.09.714.714 0 0 0 .497-.677c0-.22-.1-.416-.257-.546.077-.356.063-.942-.058-1.429a.574.574 0 0 1 .555.254zM7.266 17.74l.12-.236a.298.298 0 0 0-.005-.28l.33.593a.304.304 0 0 1 .005.282l-.03.059c-.202.393-.39 1.13-.181 1.556-.489-.182-.65-.61-.598-.965-.92-.871-1.151-1.756-.495-2.497l.338-.394a.282.282 0 0 0 .065-.13.29.29 0 0 0-.002-.144l.176.655a.297.297 0 0 1-.063.276l-.102.12c-.344.4-.252.942.287 1.428.055-.137.092-.207.155-.323zm1.225-4.732h-.216c-.235 0-.443-.315-.443-.597a.558.558 0 0 0 .449.206h.993c.089 0 .177.067.216.182.028.084.012.209-.004.332-.048-.09-.108-.123-.185-.123h-.226a.379.379 0 1 1-.584 0zm.25-1.793l.412.524c.092.112.121.186.23.201h-.346a.489.489 0 0 1-.394-.187l-.395-.516a.523.523 0 0 0-.202-.177h.391c.118 0 .222.05.304.155zm1.147-.128l.506.711c.08.117.156.182.265.226h-.464a.394.394 0 0 1-.363-.21l-.399-.61c-.152-.23-.212-.286-.387-.348h.43c.17 0 .329.11.412.231zm1.81.853h-.346a.489.489 0 0 1-.393-.187l-.396-.516a.523.523 0 0 0-.202-.177h.392c.117 0 .222.05.303.155l.413.524c.092.112.12.186.23.201zm.132.47c0 .283-.207.598-.443.598h-.216a.378.378 0 1 1-.584 0h-.226c-.077 0-.137.032-.185.123-.016-.123-.031-.248-.003-.332.038-.115.127-.182.215-.182h.994c.183 0 .32-.063.448-.206zm-.306 2.15c-.068.018-.106.058-.114.13-.04.388-.198.544-.45.632a3.625 3.625 0 0 1-.163 1.054c.298.623.07 1.059-.172 1.153-.23.089-.528-.031-.792-.031-.263 0-.565.12-.796.03-.242-.093-.47-.529-.173-1.152a3.625 3.625 0 0 1-.162-1.054c-.252-.088-.41-.244-.45-.632-.009-.072-.046-.112-.114-.13-.992-.273-1.085-1.504-.584-1.853-.044.551-.092 1.33 1.035 1.433-.018.647.262.82.55.82.236.001.37-.075.43-.106.21-.111.065-.282.011-.332a.568.568 0 0 1-.182-.517c.006-.034.019-.052.05-.052h.765c.032 0 .046.018.052.052a.572.572 0 0 1-.183.517c-.054.05-.198.22.011.332.059.031.194.107.43.106.288 0 .568-.173.55-.82 1.127-.103 1.08-.882 1.035-1.433.502.349.407 1.58-.584 1.852zm-.998 2.372c.03-.33-.346-.447-.695-.447-.35 0-.724.118-.695.447.035.402.411.21.695.212.283-.001.66.19.695-.212zm-.116-.781c.054-.29.077-.573.066-.844l-.26.304a2.373 2.373 0 0 0-.12-.255c-.029-.05-.053-.084-.087-.09a.27.27 0 0 1-.072.03c-.033.008-.078.005-.106.005-.027 0-.072.003-.106-.005a.275.275 0 0 1-.072-.03c-.035.006-.058.04-.087.09-.034.06-.068.135-.12.255l-.26-.304c-.01.271.012.553.066.844.193-.042.39-.058.579-.058.188 0 .386.016.579.058zm11.627-2.821c.512-.501 1.105-.92 1.756-1.235a.952.952 0 0 1-.03-.234v-.005c-2.719.447-5.165 1.842-7.375 1.83-.619-.002-1.104-.24-1.183-.632a.586.586 0 0 1 .003-.236.34.34 0 1 1 .58.303 1.9 1.9 0 0 0 .684-.051.561.561 0 0 0-.197-1.1.654.654 0 0 1 .904.655c.97-.021 2.065-.907 2.304-1.244-.304.07-.634.108-.978.108-.39 0-.764-.048-1.102-.138-.477-.126-.947-.196-1.308-.196-1.19 0-2.156.776-2.156 1.735 0 .791.654 1.482 1.56 1.668 2.063.421 4.489-.804 6.538-1.228zm-8.797 35.18c0 .118.032.228.087.323a1.74 1.74 0 0 1 .787-.459 1.068 1.068 0 0 1 1.15-.77 1.36 1.36 0 0 0-.888.813.636.636 0 0 0-.327.957c.22-.246.508-.429.836-.517.094-.472.487-.835.972-.886a1.176 1.176 0 0 0-.617 1.568.637.637 0 0 1 .823-.43.852.852 0 0 0 1.1-1.072.54.54 0 0 1 .294.819 1.085 1.085 0 0 0 1.269-.937c.278-.15.522-.354.733-.608l.148.721c.01.05.007.1-.006.146a.295.295 0 0 1-.073.126l.611-.628a.285.285 0 0 0 .072-.126.295.295 0 0 0 .006-.146l-.18-.88a.292.292 0 0 1 .006-.145.295.295 0 0 1 .073-.126l.481-.49a.297.297 0 0 0-.078.271l.18.88a.306.306 0 0 1-.076.271l.545-.567a.302.302 0 0 0 .078-.27l-.18-.88a.292.292 0 0 1 .006-.144.295.295 0 0 1 .073-.126l.481-.49a.295.295 0 0 0-.078.27l.181.881a.302.302 0 0 1-.077.27l.545-.567a.29.29 0 0 0 .072-.125.295.295 0 0 0 .006-.146l-.088-.43c-.092-.486.41-1.045.808-1.102a.64.64 0 0 0 .074-.295c0-.493-.587-.893-1.312-.893-.354 0-.676.095-.913.25.095.282.115.567-.815.7-.737.103-1.386.247-1.88.665-.76.645-.698 1.506-1.13 1.832.192.047.437.047.698-.01.166-.035.319-.09.454-.157-.081.155-.267.302-.51.407-.08.304-.35.594-.716.73-.23.085-.46.094-.649.04l-.89-.258a1.24 1.24 0 0 0-.342-.048c-.656 0-1.197.505-1.277 1.158a.637.637 0 0 0-.547.63z"/>
        <path fill="#34394C" stroke="#34394C" stroke-width=".2" d="M54.962 41h-.988v-3.615h-3.148V41h-.983v-7.82h.983v3.362h3.148V33.18h.988V41zm5.133-1.67h-2.162L57.436 41h-.826l2.061-6.398h.69L61.427 41H60.6l-.505-1.67zm-1.951-.694h1.745l-.875-2.91-.87 2.91zm8.94-4.034V41h-.808v-5.704h-1.78l-.052 2.303c-.012.583-.05 1.087-.112 1.514-.063.426-.16.779-.29 1.059-.13.28-.3.487-.51.624-.21.136-.467.204-.771.204h-.207v-.69h.15c.17 0 .311-.05.426-.15.114-.099.208-.256.28-.472.074-.215.128-.495.164-.84.035-.343.058-.76.07-1.25l.07-2.996h3.37zm6.19 3.761c0 .454-.05.851-.149 1.191-.1.34-.242.623-.426.85-.185.228-.41.398-.675.513a2.238 2.238 0 0 1-.894.17c-.322 0-.615-.056-.879-.17a1.829 1.829 0 0 1-.681-.512 2.397 2.397 0 0 1-.442-.85 4.083 4.083 0 0 1-.156-1.192v-1.112c0-.45.052-.847.156-1.188.104-.342.25-.627.438-.857.187-.23.413-.403.676-.519.264-.115.557-.173.88-.173.33 0 .628.058.894.173.265.116.491.289.679.519.187.23.33.515.43.857.1.341.15.737.15 1.188v1.112zm-.804-1.12c0-.352-.029-.654-.087-.908a1.773 1.773 0 0 0-.26-.624 1.039 1.039 0 0 0-.422-.358 1.385 1.385 0 0 0-.58-.114c-.208 0-.394.038-.56.114a1.074 1.074 0 0 0-.424.358c-.117.163-.207.37-.27.624a3.803 3.803 0 0 0-.095.908v1.12c0 .355.032.659.097.912.064.254.155.462.272.624.117.163.26.282.427.358.167.076.354.115.562.115.22 0 .413-.039.58-.115.167-.076.307-.195.42-.358.113-.162.198-.37.255-.624.057-.253.085-.557.085-.912v-1.12zm6.014-1.947h-2.518V41h-.808v-6.398h3.326v.694zm5.492 3.067c0 .454-.05.851-.15 1.191-.1.34-.242.623-.426.85-.185.228-.41.398-.675.513a2.238 2.238 0 0 1-.894.17c-.322 0-.615-.056-.879-.17a1.829 1.829 0 0 1-.681-.512 2.397 2.397 0 0 1-.442-.85 4.083 4.083 0 0 1-.156-1.192v-1.112c0-.45.052-.847.156-1.188.104-.342.25-.627.438-.857.187-.23.413-.403.676-.519.264-.115.557-.173.88-.173.33 0 .628.058.894.173.265.116.491.289.679.519.187.23.33.515.43.857.1.341.15.737.15 1.188v1.112zm-.805-1.12c0-.352-.029-.654-.088-.908a1.773 1.773 0 0 0-.259-.624 1.039 1.039 0 0 0-.422-.358 1.385 1.385 0 0 0-.58-.114c-.208 0-.395.038-.56.114a1.074 1.074 0 0 0-.424.358c-.117.163-.207.37-.27.624a3.803 3.803 0 0 0-.095.908v1.12c0 .355.032.659.097.912.064.254.155.462.272.624.117.163.26.282.427.358.167.076.354.115.562.115.22 0 .413-.039.58-.115.167-.076.307-.195.42-.358.113-.162.198-.37.255-.624.057-.253.085-.557.085-.912v-1.12zM85.82 41v-6.398h1.824c.275 0 .522.033.74.098a1.4 1.4 0 0 1 .554.308c.151.14.266.316.345.53.08.213.119.47.119.769 0 .298-.075.562-.224.79-.15.23-.352.406-.607.532.155.047.292.119.411.216.119.096.218.211.299.345.08.133.141.282.182.446.041.164.062.337.062.518 0 .3-.043.564-.128.794-.085.23-.205.423-.362.58a1.504 1.504 0 0 1-.57.353c-.222.08-.47.119-.742.119H85.82zm.804-2.993v2.303h1.1c.157 0 .298-.027.42-.081a.871.871 0 0 0 .313-.229.989.989 0 0 0 .193-.36 1.938 1.938 0 0 0 .011-.956.979.979 0 0 0-.171-.365.768.768 0 0 0-.299-.23 1.069 1.069 0 0 0-.437-.082h-1.13zm0-.676h1.033c.135 0 .26-.024.374-.07a.827.827 0 0 0 .294-.203.944.944 0 0 0 .193-.323c.047-.127.07-.272.07-.433 0-.351-.077-.607-.232-.767-.155-.16-.393-.24-.712-.24h-1.02v2.036zm8.867 1.032c0 .454-.05.851-.15 1.191-.1.34-.242.623-.426.85-.185.228-.41.398-.675.513a2.238 2.238 0 0 1-.894.17c-.322 0-.615-.056-.879-.17a1.829 1.829 0 0 1-.681-.512 2.397 2.397 0 0 1-.442-.85 4.083 4.083 0 0 1-.156-1.192v-1.112c0-.45.052-.847.156-1.188.104-.342.25-.627.438-.857.187-.23.413-.403.676-.519.264-.115.557-.173.88-.173.33 0 .628.058.894.173.265.116.491.289.678.519.188.23.332.515.431.857.1.341.15.737.15 1.188v1.112zm-.805-1.12c0-.352-.029-.654-.088-.908a1.773 1.773 0 0 0-.259-.624 1.039 1.039 0 0 0-.422-.358 1.385 1.385 0 0 0-.58-.114c-.208 0-.395.038-.56.114a1.074 1.074 0 0 0-.424.358c-.117.163-.207.37-.27.624a3.803 3.803 0 0 0-.095.908v1.12c0 .355.032.659.097.912.064.254.155.462.272.624.117.163.26.282.427.358.167.076.354.115.562.115.22 0 .413-.039.58-.115.167-.076.307-.195.42-.358.113-.162.198-.37.255-.624.057-.253.085-.557.085-.912v-1.12zm4.429.84h-2.218v-.81h2.218v.81zm9.176-4.055h-2.057V41h-.983v-6.972h-2.052v-.848h5.092v.848zm4.585 5.302h-2.162l-.496 1.67h-.826l2.06-6.398h.69L114.208 41h-.826l-.506-1.67zm-1.95-.694h1.744l-.875-2.91-.87 2.91zm5.79-4.034l1.67 5.22 1.669-5.22h1.037V41h-.804v-2.492l.075-2.496L118.687 41h-.615l-1.665-4.97.074 2.478V41h-.804v-6.398h1.037zm10.522 3.761c0 .454-.05.851-.15 1.191-.099.34-.241.623-.426.85-.184.228-.41.398-.674.513a2.238 2.238 0 0 1-.895.17c-.322 0-.615-.056-.878-.17a1.829 1.829 0 0 1-.682-.512 2.397 2.397 0 0 1-.441-.85 4.083 4.083 0 0 1-.156-1.192v-1.112c0-.45.052-.847.156-1.188.104-.342.25-.627.437-.857.188-.23.413-.403.677-.519.263-.115.556-.173.879-.173.33 0 .629.058.894.173.265.116.491.289.679.519.187.23.331.515.43.857.1.341.15.737.15 1.188v1.112zm-.804-1.12c0-.352-.03-.654-.088-.908a1.773 1.773 0 0 0-.26-.624 1.039 1.039 0 0 0-.421-.358 1.385 1.385 0 0 0-.58-.114c-.208 0-.395.038-.56.114a1.074 1.074 0 0 0-.425.358c-.117.163-.207.37-.27.624a3.803 3.803 0 0 0-.094.908v1.12c0 .355.032.659.096.912.065.254.156.462.273.624.117.163.259.282.426.358.167.076.354.115.562.115.22 0 .414-.039.58-.115.168-.076.307-.195.42-.358.113-.162.198-.37.255-.624.057-.253.086-.557.086-.912v-1.12zm6.431.839h-.558V41h-.808v-2.918h-.594L129.49 41h-1.002l1.771-3.397-1.63-3.001h.95l1.326 2.777h.594v-2.777h.808v2.777h.563l1.327-2.777h.945l-1.626 2.997L135.28 41h-.997l-1.42-2.918zm6.907-.04h-2.264v2.268h2.637V41h-3.44v-6.398h3.396v.694h-2.593v2.057h2.264v.69zM145.96 41h-.81v-2.958h-2.574V41h-.805v-6.398h.805v2.75h2.575v-2.75h.808V41zm6.18 0h-.808v-2.958h-2.575V41h-.805v-6.398h.805v2.75h2.575v-2.75h.808V41zm2.842-3.788h1.283c.299 0 .562.045.79.134.23.09.422.216.579.38.156.164.275.361.356.591.08.23.12.487.12.771 0 .282-.04.54-.12.774-.08.234-.2.436-.356.604-.157.169-.35.3-.58.393-.23.094-.493.141-.79.141h-2.087v-6.398h.805v2.61zM159.478 41h-.804v-6.398h.804V41zm-4.495-3.094v2.404h1.283c.184 0 .342-.034.472-.101a.906.906 0 0 0 .321-.272c.084-.115.145-.246.185-.394a1.788 1.788 0 0 0 0-.918 1.062 1.062 0 0 0-.185-.374.871.871 0 0 0-.32-.252 1.1 1.1 0 0 0-.473-.093h-1.283zm9.885-3.304h.804V41h-.804v-4.93L162.377 41h-.809v-6.398h.809v4.93l2.491-4.93zm.084-1.591c0 .173-.03.33-.09.474-.06.144-.148.268-.262.372a1.226 1.226 0 0 1-.415.244 1.606 1.606 0 0 1-.547.087c-.202 0-.385-.029-.547-.087a1.226 1.226 0 0 1-.416-.244 1.062 1.062 0 0 1-.263-.372 1.192 1.192 0 0 1-.093-.474h.664c0 .088.012.171.035.25a.531.531 0 0 0 .314.352.787.787 0 0 0 .306.053.774.774 0 0 0 .3-.053.551.551 0 0 0 .205-.143c.053-.06.091-.13.114-.209a.877.877 0 0 0 .036-.25h.659zm10.708 7.146h.918l-.01 2.76h-.984V41h-4.619v1.923h-.988l-.005-2.766h.574c.08-.1.17-.245.272-.433.102-.188.2-.434.292-.738.093-.305.174-.674.242-1.11.068-.434.106-.95.113-1.549l.15-3.147h4.045v6.977zm-3.202-3.83c-.025.899-.114 1.665-.268 2.299-.154.634-.35 1.144-.586 1.53h3.067v-6.128h-2.105l-.108 2.3zm8.837 1.715h-2.263v2.268h2.637V41h-3.441v-6.398h3.397v.694h-2.593v2.057h2.263v.69zm6.16 2.958h-.81v-5.704h-2.504V41h-.804v-6.398h4.117V41zm5.011-1.67h-2.162l-.496 1.67h-.826l2.06-6.398h.69L193.799 41h-.826l-.506-1.67zm-1.95-.694h1.744l-.875-2.91-.87 2.91zm5.556-.14V41h-.804v-6.398h2.04c.307 0 .58.048.819.145a1.643 1.643 0 0 1 .967 1.026c.083.238.125.5.125.784 0 .308-.042.582-.125.824a1.585 1.585 0 0 1-.37.609c-.162.164-.362.29-.6.375-.237.087-.51.13-.817.13h-1.235zm0-.69h1.235c.196 0 .364-.032.503-.093a.905.905 0 0 0 .343-.257c.09-.11.155-.24.198-.391.042-.151.064-.317.064-.5 0-.163-.022-.322-.064-.476a1.181 1.181 0 0 0-.198-.406.979.979 0 0 0-.343-.282 1.105 1.105 0 0 0-.503-.105h-1.235v2.51zm8.524-2.51h-1.684V41h-.804v-5.704h-1.678v-.694h4.166v.694zm4.181 4.034h-2.162l-.497 1.67h-.826l2.061-6.398h.69L210.11 41h-.826l-.506-1.67zm-1.951-.694h1.745l-.875-2.91-.87 2.91zm5.79-4.034l1.67 5.22 1.67-5.22h1.037V41h-.804v-2.492l.074-2.496L214.59 41h-.615l-1.666-4.97.075 2.478V41h-.804v-6.398h1.037zm9.429 3.44h-2.264v2.268h2.637V41h-3.44v-6.398h3.396v.694h-2.593v2.057h2.264v.69zm6.19 2.958h-.81v-2.958h-2.574V41h-.805v-6.398h.805v2.75h2.575v-2.75h.808V41zm5.605-5.704h-1.683V41h-.805v-5.704h-1.678v-.694h4.166v.694zM50.364 26.562c.036.329.097.617.183.864s.201.453.346.618c.145.165.323.288.535.37.211.083.46.124.746.124.305 0 .573-.073.806-.22.233-.147.429-.352.588-.615.16-.263.28-.576.363-.937.082-.362.123-.758.123-1.187v-.22h-2.718v-.575h2.718V24.6c0-.444-.044-.847-.131-1.208a3.05 3.05 0 0 0-.38-.93 1.82 1.82 0 0 0-.603-.598 1.552 1.552 0 0 0-.809-.213c-.275 0-.516.044-.722.132-.206.088-.38.216-.524.384a1.93 1.93 0 0 0-.343.62 3.677 3.677 0 0 0-.178.84h-.617c.035-.4.113-.76.233-1.076.12-.317.28-.585.48-.803.201-.218.441-.386.72-.502.28-.117.597-.175.951-.175.387 0 .737.085 1.05.255.314.17.58.41.8.72.22.31.39.682.508 1.117.118.435.178.918.178 1.448v.967c0 .53-.06 1.011-.178 1.444a3.564 3.564 0 0 1-.502 1.115c-.217.31-.479.549-.787.717-.308.168-.65.252-1.026.252a2.58 2.58 0 0 1-.977-.174 2.007 2.007 0 0 1-.733-.505 2.476 2.476 0 0 1-.484-.8 3.974 3.974 0 0 1-.233-1.066h.617zm10.166.443c-.047.718-.24 1.244-.58 1.58-.34.335-.81.503-1.41.503-.308 0-.586-.06-.833-.18a1.748 1.748 0 0 1-.63-.519 2.47 2.47 0 0 1-.4-.824 3.942 3.942 0 0 1-.141-1.096v-1.376c0-.401.046-.761.14-1.08.094-.32.229-.59.404-.812.176-.22.39-.39.642-.51.252-.118.538-.177.857-.177.29 0 .55.04.78.123.23.082.428.208.595.378.167.17.3.386.396.65.097.264.157.577.18.94h-.51a3.25 3.25 0 0 0-.136-.747 1.35 1.35 0 0 0-.279-.5 1.038 1.038 0 0 0-.433-.282 1.82 1.82 0 0 0-.593-.088c-.249 0-.469.048-.66.143-.19.095-.35.232-.48.411-.13.179-.229.398-.295.66-.066.26-.099.554-.099.882v1.385c0 .325.032.62.095.885s.157.492.281.68c.125.187.28.332.466.434.186.103.403.154.652.154.235 0 .44-.027.616-.081.175-.054.323-.145.444-.27.12-.126.214-.293.283-.5.069-.206.115-.461.138-.766h.51zm5.386-3.929h-1.82V29h-.505v-5.924h-1.815v-.474h4.14v.474zm5.473 3.42c0 .421-.047.794-.142 1.118a2.284 2.284 0 0 1-.411.813 1.72 1.72 0 0 1-.65.494 2.13 2.13 0 0 1-.862.167 2.12 2.12 0 0 1-.857-.167 1.757 1.757 0 0 1-.655-.494 2.295 2.295 0 0 1-.42-.813 3.86 3.86 0 0 1-.147-1.119v-1.38c0-.422.049-.794.145-1.118.097-.324.235-.596.416-.815.18-.22.397-.386.652-.5.255-.112.54-.168.857-.168.32 0 .607.056.864.169.256.113.474.279.652.499.179.22.317.491.413.815.097.324.145.696.145 1.118v1.38zm-.505-1.39c0-.7-.135-1.226-.404-1.577-.27-.352-.658-.528-1.165-.528-.495 0-.88.176-1.156.528-.275.351-.413.877-.413 1.577v1.39c0 .702.14 1.23.418 1.583.278.353.665.53 1.16.53.51 0 .897-.176 1.162-.527.265-.352.398-.88.398-1.587v-1.389zM77.342 29h-.505v-3.063H73.83V29h-.501v-6.398h.5v2.87h3.007v-2.87h.505V29zm5.957-1.995c-.047.718-.24 1.244-.58 1.58-.34.335-.81.503-1.41.503-.309 0-.586-.06-.834-.18a1.748 1.748 0 0 1-.63-.519 2.47 2.47 0 0 1-.4-.824 3.942 3.942 0 0 1-.14-1.096v-1.376c0-.401.046-.761.14-1.08.094-.32.228-.59.404-.812.176-.22.39-.39.642-.51.252-.118.537-.177.857-.177.29 0 .55.04.78.123.23.082.428.208.595.378.167.17.299.386.396.65.096.264.156.577.18.94h-.51a3.25 3.25 0 0 0-.136-.747 1.35 1.35 0 0 0-.28-.5 1.038 1.038 0 0 0-.432-.282 1.82 1.82 0 0 0-.593-.088c-.25 0-.47.048-.66.143-.19.095-.35.232-.48.411-.131.179-.23.398-.295.66-.066.26-.099.554-.099.882v1.385c0 .325.031.62.094.885s.157.492.282.68c.124.187.28.332.466.434.186.103.403.154.652.154.234 0 .44-.027.615-.081.176-.054.324-.145.444-.27.12-.126.215-.293.284-.5.068-.206.115-.461.138-.766h.51zm3.092-1.002h-.717V29h-.5v-6.398h.5v2.93h.686l2.039-2.93h.633l-2.193 3.142L89.194 29h-.624l-2.18-2.997zm7.28 1.208h-2.4L90.726 29h-.523l2.039-6.398h.466L94.747 29h-.523l-.554-1.789zm-2.255-.47h2.11L92.47 23.31l-1.055 3.432zM99.156 29v-2.602h-1.48L96.507 29h-.54l1.265-2.76a1.632 1.632 0 0 1-.793-.648c-.183-.291-.275-.645-.275-1.061 0-.31.043-.585.128-.824s.206-.44.364-.604a1.54 1.54 0 0 1 .578-.374c.227-.085.483-.127.767-.127h1.661V29h-.505zm-2.486-4.474c0 .205.027.394.08.565.055.171.133.32.236.444.103.124.23.221.382.29.153.069.328.103.528.103h1.26v-2.852h-1.155c-.22 0-.413.033-.58.099a1.073 1.073 0 0 0-.417.288 1.234 1.234 0 0 0-.25.457c-.057.179-.084.38-.084.606zm8.462 1.294V29h-.612v-7.82h2.272c.365 0 .686.057.964.172.277.114.51.274.698.48.188.206.33.452.424.739.095.286.143.601.143.945 0 .362-.048.686-.143.972a1.896 1.896 0 0 1-.424.725 1.84 1.84 0 0 1-.698.452 2.743 2.743 0 0 1-.964.155h-1.66zm0-.574h1.66c.286 0 .531-.044.735-.132a1.34 1.34 0 0 0 .503-.363 1.46 1.46 0 0 0 .287-.545c.06-.21.091-.436.091-.68 0-.235-.03-.461-.091-.676a1.558 1.558 0 0 0-.287-.564 1.388 1.388 0 0 0-.503-.384 1.735 1.735 0 0 0-.735-.142h-1.66v3.486zm8.733.691h-2.483v2.597h2.857V29h-3.358v-6.398h3.336v.474h-2.835v2.395h2.483v.466zm5.926 1.068c-.047.718-.24 1.244-.58 1.58-.34.335-.81.503-1.41.503-.308 0-.586-.06-.833-.18a1.748 1.748 0 0 1-.63-.519 2.47 2.47 0 0 1-.4-.824 3.942 3.942 0 0 1-.141-1.096v-1.376c0-.401.047-.761.14-1.08.094-.32.229-.59.405-.812.175-.22.39-.39.641-.51.252-.118.538-.177.857-.177.29 0 .55.04.78.123.23.082.429.208.596.378.167.17.298.386.395.65.097.264.157.577.18.94h-.51a3.25 3.25 0 0 0-.136-.747 1.35 1.35 0 0 0-.279-.5 1.038 1.038 0 0 0-.433-.282 1.82 1.82 0 0 0-.593-.088c-.249 0-.469.048-.659.143-.19.095-.35.232-.481.411-.13.179-.229.398-.295.66-.066.26-.099.554-.099.882v1.385c0 .325.032.62.095.885s.157.492.281.68c.125.187.28.332.466.434.186.103.404.154.653.154.234 0 .439-.027.615-.081.176-.054.324-.145.444-.27.12-.126.214-.293.283-.5.069-.206.115-.461.139-.766h.51zM125.638 29h-.5v-5.924h-2.971V29h-.501v-6.398h3.972V29zm3.936-2.351l1.48-4.047h.59l-2.026 5.304a9.512 9.512 0 0 1-.178.397 1.79 1.79 0 0 1-.246.385 1.2 1.2 0 0 1-.363.29 1.103 1.103 0 0 1-.523.114c-.055 0-.12-.004-.195-.013a.524.524 0 0 1-.156-.035l.04-.448c.014.006.034.01.06.013a5.51 5.51 0 0 0 .176.015c.03.002.056.002.08.002a.594.594 0 0 0 .298-.072.767.767 0 0 0 .222-.191c.063-.08.119-.17.167-.27.049-.102.095-.206.139-.315l.184-.47-1.995-4.706h.572l1.674 4.047zm6.95-3.573h-2.747v2.294h1.323c.293 0 .552.044.776.132.224.088.411.21.562.37.151.157.265.347.34.568.077.221.115.467.115.736 0 .27-.039.517-.116.74a1.578 1.578 0 0 1-.343.576c-.151.16-.338.285-.56.374-.223.09-.48.134-.774.134h-1.828v-6.398h3.252v.474zm-2.747 2.769v2.69h1.323c.229 0 .424-.037.587-.11.162-.074.296-.174.4-.3.104-.125.18-.271.228-.437a1.848 1.848 0 0 0 0-1.024 1.102 1.102 0 0 0-.628-.712 1.447 1.447 0 0 0-.587-.107h-1.323zm9.007-3.243V29h-.505v-5.924h-2.202l-.092 2.422c-.02.618-.058 1.148-.112 1.59-.054.443-.139.805-.253 1.088-.114.283-.264.49-.45.624-.186.133-.42.2-.701.2h-.163v-.466h.14a.72.72 0 0 0 .456-.145c.124-.097.226-.261.305-.494.079-.233.14-.544.185-.934.043-.39.076-.878.096-1.463l.11-2.896h3.186zm5.636 0h.501V29h-.5v-5.45L145.435 29h-.505v-6.398h.505v5.444l2.984-5.444zm3.879 3.4h-.717V29h-.5v-6.398h.5v2.93h.686l2.039-2.93h.633l-2.193 3.142L155.102 29h-.624l-2.18-2.997zm7.28 1.21h-2.4L156.634 29h-.523l2.039-6.398h.466L160.655 29h-.523l-.554-1.789zm-2.255-.47h2.11l-1.055-3.433-1.055 3.432z"/>
    </g>
</svg>
