<svg xmlns="http://www.w3.org/2000/svg" xmlns:xlink="http://www.w3.org/1999/xlink" width="163" height="60" viewBox="0 0 163 60">
    <defs>
        <path id="a" d="M54.414 34.028h-2.057V41h-.983v-6.972h-2.052v-.848h5.092v.848zM59 39.33h-2.162L56.341 41h-.826l2.06-6.398h.69L60.332 41h-.826l-.506-1.67zm-1.95-.694h1.744l-.875-2.91-.87 2.91zm6.55-1.582l1.204-2.452h.944l-1.665 3.172 1.7 3.226h-.953l-1.23-2.496L62.363 41h-.954l1.71-3.226-1.675-3.172h.94l1.213 2.452zm9.404 2.276h-2.162L70.344 41h-.826l2.061-6.398h.69L74.335 41h-.827l-.505-1.67zm-1.951-.694h1.744l-.874-2.91-.87 2.91zM79.984 41h-.809l-2.562-4.93V41h-.808v-6.398h.808l2.571 4.952v-4.952h.8V41zm1.993 0v-6.398h1.525c.36 0 .685.056.975.169.29.113.538.281.743.505.205.224.363.503.475.835.111.333.167.717.167 1.154v1.08c0 .437-.056.821-.167 1.152a2.245 2.245 0 0 1-.48.83c-.207.223-.462.391-.764.504a2.91 2.91 0 0 1-1.024.169h-1.45zm.804-5.704v5.014h.646c.571 0 .987-.165 1.248-.497.26-.33.391-.82.391-1.467V37.25c0-.673-.13-1.168-.389-1.483-.259-.315-.65-.472-1.175-.472h-.72zm12.651 3.223a3.86 3.86 0 0 1-.201 1.085c-.113.318-.273.59-.48.813a2.031 2.031 0 0 1-.772.513 2.95 2.95 0 0 1-1.066.177 2.39 2.39 0 0 1-1.063-.23 2.27 2.27 0 0 1-.806-.661 3.122 3.122 0 0 1-.513-1.037c-.12-.404-.18-.86-.18-1.364V36.37c0-.501.06-.955.18-1.361.12-.407.294-.753.521-1.04.228-.286.506-.507.835-.663.33-.156.702-.234 1.118-.234.38 0 .715.058 1.007.172.292.115.54.283.744.505.204.222.363.496.478.822.114.326.18.7.198 1.122h-.993a4.127 4.127 0 0 0-.124-.795 1.53 1.53 0 0 0-.263-.55 1.035 1.035 0 0 0-.43-.322 1.639 1.639 0 0 0-.617-.105c-.287 0-.534.058-.742.174-.207.117-.38.28-.515.492a2.336 2.336 0 0 0-.304.768c-.066.3-.1.636-.1 1.004v1.456c0 .344.029.664.084.961.056.298.145.557.269.78.123.221.285.396.486.523.2.127.444.19.73.19.269 0 .495-.033.68-.099.184-.066.335-.17.45-.311a1.45 1.45 0 0 0 .267-.543c.06-.22.104-.486.129-.797h.993zm5.593-3.917v4.508c0 .36-.054.666-.162.917-.109.25-.254.454-.435.613a1.665 1.665 0 0 1-.629.342c-.237.07-.486.106-.747.106-.275 0-.532-.035-.77-.106a1.585 1.585 0 0 1-.623-.342 1.628 1.628 0 0 1-.415-.613c-.101-.25-.152-.556-.152-.917v-4.508h.8v4.508c0 .25.028.457.084.622a.99.99 0 0 0 .235.398c.1.1.222.17.365.21.142.042.3.062.476.062s.336-.02.48-.061a.843.843 0 0 0 .366-.211.99.99 0 0 0 .235-.398c.056-.165.084-.373.084-.622v-4.508h.808zm4.635 4.78c0-.149-.017-.28-.05-.395a.767.767 0 0 0-.188-.314 1.466 1.466 0 0 0-.369-.268 4.48 4.48 0 0 0-.602-.257 4.765 4.765 0 0 1-.716-.31 2.345 2.345 0 0 1-.547-.4 1.618 1.618 0 0 1-.35-.516 1.686 1.686 0 0 1-.123-.664c0-.249.044-.48.13-.692a1.625 1.625 0 0 1 .95-.92c.226-.088.479-.132.757-.132.31 0 .585.054.824.162.239.109.44.252.602.43.163.18.285.386.367.62.082.235.123.477.123.726h-.808c0-.18-.022-.345-.064-.497a1.073 1.073 0 0 0-.2-.395.914.914 0 0 0-.345-.26 1.228 1.228 0 0 0-.499-.092c-.178 0-.332.026-.461.08a.862.862 0 0 0-.319.217.869.869 0 0 0-.184.327c-.04.126-.06.264-.06.413 0 .27.097.495.29.677.194.182.493.344.897.488.31.102.577.216.8.34.222.125.405.266.547.424.142.159.246.336.312.532s.099.419.099.668c0 .26-.044.497-.132.708-.088.21-.213.39-.376.54-.163.15-.36.264-.591.345a2.37 2.37 0 0 1-.782.12c-.252 0-.5-.04-.745-.122a1.973 1.973 0 0 1-.655-.367 1.847 1.847 0 0 1-.466-.609 1.902 1.902 0 0 1-.178-.843h.809c0 .22.032.407.097.564.064.157.153.287.265.39.113.102.244.177.394.225.15.049.309.073.479.073.354 0 .62-.09.8-.273.178-.181.268-.429.268-.742zm6.207-4.086h-1.683V41h-.804v-5.704H107.7v-.694h4.166v.694zm5.583 3.067c0 .454-.05.851-.149 1.191-.1.34-.242.623-.426.85-.185.228-.41.398-.675.513a2.238 2.238 0 0 1-.894.17c-.322 0-.615-.056-.879-.17a1.829 1.829 0 0 1-.681-.512 2.397 2.397 0 0 1-.442-.85 4.083 4.083 0 0 1-.156-1.192v-1.112c0-.45.052-.847.156-1.188.104-.342.25-.627.438-.857.187-.23.413-.403.676-.519.264-.115.557-.173.88-.173.33 0 .628.058.893.173.266.116.492.289.68.519.187.23.33.515.43.857.1.341.15.737.15 1.188v1.112zm-.804-1.12c0-.352-.029-.654-.088-.908a1.773 1.773 0 0 0-.259-.624 1.039 1.039 0 0 0-.422-.358 1.385 1.385 0 0 0-.58-.114c-.208 0-.395.038-.56.114a1.074 1.074 0 0 0-.424.358c-.117.163-.207.37-.27.624a3.803 3.803 0 0 0-.095.908v1.12c0 .355.032.659.097.912.064.254.155.462.272.624.117.163.26.282.426.358.167.076.355.115.563.115.22 0 .413-.039.58-.115.167-.076.307-.195.42-.358.113-.162.197-.37.255-.624.057-.253.085-.557.085-.912v-1.12zm3.685-2.641l1.67 5.22 1.67-5.22h1.037V41h-.804v-2.492l.075-2.496L122.304 41h-.615l-1.665-4.97.074 2.478V41h-.804v-6.398h1.037zm9.156 4.78c0-.149-.016-.28-.05-.395a.767.767 0 0 0-.187-.314 1.466 1.466 0 0 0-.369-.268 4.48 4.48 0 0 0-.602-.257 4.765 4.765 0 0 1-.716-.31 2.345 2.345 0 0 1-.548-.4 1.618 1.618 0 0 1-.349-.516 1.686 1.686 0 0 1-.123-.664c0-.249.043-.48.13-.692a1.625 1.625 0 0 1 .949-.92c.227-.088.48-.132.758-.132.31 0 .585.054.824.162.239.109.44.252.602.43.163.18.285.386.367.62.082.235.123.477.123.726h-.809c0-.18-.02-.345-.063-.497a1.073 1.073 0 0 0-.2-.395.914.914 0 0 0-.345-.26 1.228 1.228 0 0 0-.499-.092c-.179 0-.333.026-.461.08a.862.862 0 0 0-.319.217.869.869 0 0 0-.185.327c-.04.126-.059.264-.059.413 0 .27.097.495.29.677.193.182.492.344.897.488.31.102.577.216.8.34.222.125.404.266.547.424.142.159.246.336.312.532.065.196.098.419.098.668 0 .26-.044.497-.131.708-.088.21-.214.39-.376.54-.163.15-.36.264-.591.345a2.37 2.37 0 0 1-.782.12c-.252 0-.5-.04-.745-.122a1.973 1.973 0 0 1-.655-.367 1.847 1.847 0 0 1-.466-.609 1.902 1.902 0 0 1-.178-.843h.809c0 .22.032.407.096.564.065.157.153.287.266.39.113.102.244.177.394.225.149.049.309.073.479.073.354 0 .62-.09.8-.273.178-.181.267-.429.267-.742zM134.77 41v-7.82H137c.336 0 .638.04.904.12.267.081.493.206.677.377.185.17.325.385.422.647.097.261.145.574.145.94 0 .365-.091.687-.274.966a1.84 1.84 0 0 1-.741.65c.19.058.357.145.502.264.145.118.267.258.365.421.099.163.173.345.223.545.05.2.075.412.075.634 0 .365-.052.689-.155.97a1.934 1.934 0 0 1-.444.709 1.839 1.839 0 0 1-.695.432 2.697 2.697 0 0 1-.908.145h-2.326zm.983-3.658v2.815h1.343c.193 0 .365-.033.516-.1.15-.066.277-.159.381-.279.104-.12.183-.267.236-.44.054-.174.081-.368.081-.583 0-.215-.022-.41-.067-.586a1.196 1.196 0 0 0-.21-.445.939.939 0 0 0-.365-.282 1.306 1.306 0 0 0-.534-.1h-1.38zm0-.827h1.263c.164 0 .316-.029.456-.086.14-.057.26-.14.36-.247.1-.107.179-.239.236-.395.058-.155.086-.332.086-.529 0-.43-.095-.742-.284-.937-.19-.195-.48-.293-.87-.293h-1.247v2.487zm9.625 1.848c0 .454-.05.851-.15 1.191-.099.34-.24.623-.425.85-.185.228-.41.398-.675.513a2.238 2.238 0 0 1-.894.17c-.323 0-.616-.056-.88-.17a1.829 1.829 0 0 1-.68-.512 2.397 2.397 0 0 1-.442-.85 4.083 4.083 0 0 1-.156-1.192v-1.112c0-.45.052-.847.156-1.188.104-.342.25-.627.437-.857.188-.23.413-.403.677-.519.264-.115.557-.173.879-.173.331 0 .63.058.894.173.265.116.492.289.68.519.187.23.33.515.43.857.1.341.15.737.15 1.188v1.112zm-.804-1.12c0-.352-.03-.654-.088-.908a1.773 1.773 0 0 0-.26-.624 1.039 1.039 0 0 0-.421-.358 1.385 1.385 0 0 0-.58-.114c-.208 0-.395.038-.56.114a1.074 1.074 0 0 0-.424.358c-.118.163-.208.37-.27.624a3.803 3.803 0 0 0-.095.908v1.12c0 .355.032.659.096.912.065.254.156.462.273.624.117.163.26.282.426.358.167.076.355.115.563.115.22 0 .413-.039.58-.115.167-.076.307-.195.42-.358.112-.162.197-.37.254-.624.057-.253.086-.557.086-.912v-1.12zm5.54 2.087h-2.163l-.496 1.67h-.826l2.06-6.398h.69L151.445 41h-.826l-.505-1.67zm-1.952-.694h1.745l-.875-2.91-.87 2.91zm6.687-.224h-1.125V41h-.809v-6.398h1.793c.627 0 1.102.163 1.424.49.322.326.483.804.483 1.434 0 .396-.087.74-.261 1.035a1.652 1.652 0 0 1-.74.666l1.239 2.72V41h-.866l-1.138-2.588zm-1.125-.69h.975c.185 0 .346-.032.484-.095a.995.995 0 0 0 .345-.255c.092-.107.162-.233.208-.378.047-.145.07-.3.07-.468 0-.184-.02-.352-.06-.503a1.043 1.043 0 0 0-.194-.389.858.858 0 0 0-.34-.25 1.294 1.294 0 0 0-.504-.088h-.984v2.426zM158.29 41v-6.398h1.525c.36 0 .685.056.976.169.29.113.537.281.742.505.205.224.363.503.475.835.111.333.167.717.167 1.154v1.08c0 .437-.056.821-.167 1.152a2.245 2.245 0 0 1-.48.83c-.207.223-.462.391-.764.504a2.91 2.91 0 0 1-1.024.169h-1.45zm.804-5.704v5.014h.646c.572 0 .988-.165 1.248-.497.261-.33.391-.82.391-1.467V37.25c0-.673-.13-1.168-.389-1.483-.259-.315-.65-.472-1.175-.472h-.72z"/>
    </defs>
    <g fill="none" fill-rule="evenodd">
        <path fill="#0083BA" d="M39.252 59.452h.986V.295h-.986v59.157zm-9.426-12.88a.746.746 0 0 0-.689-1.031l-.753-.001a.3.3 0 0 1-.25-.131l-.378-.558a.296.296 0 0 0 .109.097c.042.022.09.035.142.035h.992c.051 0 .1.013.142.034.042.023.08.056.109.098l-.456-.668a.306.306 0 0 0-.25-.131h-.985a.307.307 0 0 1-.25-.133l-.429-.628a.295.295 0 0 0 .109.096.29.29 0 0 0 .142.035h.988c.051 0 .1.012.142.035.042.022.08.054.108.096l-.456-.667a.298.298 0 0 0-.11-.097.297.297 0 0 0-.14-.035h-.785a.3.3 0 0 1-.251-.132l-.528-.775c1.067-.127 1.928-.705 2.1-1.501.222-1.034-.806-2.036-2.293-2.254a.517.517 0 0 1-.107-.996 1.328 1.328 0 0 0-.524-.106c-.657 0-1.191.471-1.191 1.053 0 .104.018.206.05.302-.738.318-1.409.882-1.923 1.492a6.701 6.701 0 0 1 1.723-.224.807.807 0 0 1 .803-.891h.011c-.304.133-.452.425-.452.618a.417.417 0 0 0 .657.34.577.577 0 0 1 .638-.737.647.647 0 0 0 .385 1.224.464.464 0 1 1 .912-.117c0 .557-.618.609-1.07.479-1.286-.37-2.49-.536-3.654-.374-1.494.21-3.942 1.22-6.54 1.136a8.067 8.067 0 0 1-1.854-.29c.078.085.129.145.162.196.253.394.34.807.117 1.323.006-.579-.473-1.055-.874-1.347-.162-.118-.227-.23-.2-.38l.118-.668a.3.3 0 0 0 .087.268l.25.244c.095-.677-.058-1.306-.46-1.89.177-.466.202-.98.083-1.462-.047.365-.227.521-.396.628-.317.197-.369.53-.205.753-.267-.135-.635-.63-.422-.919.23-.312.858-.165.936-.7-.408-.13-.828-.039-.956-.004-.242-.277-.563-.415-.962-.412-.316-.287-.721-.405-1.217-.356-.495-.05-.9.069-1.216.356-.4-.003-.72.135-.962.412-.129-.035-.548-.126-.957.003.077.536.706.39.936.701.213.289-.155.784-.422.92.164-.223.111-.557-.205-.754-.17-.107-.35-.263-.396-.628-.12.482-.094.996.083 1.462-.402.584-.555 1.213-.46 1.89l.25-.244a.3.3 0 0 0 .086-.268l.118.668c.027.15-.037.262-.199.38-.402.292-.88.768-.874 1.347-.223-.516-.132-.947.117-1.323-.762-.411-1.342-1.087-1.449-1.21-.23-.268-.2-.61.009-.91.403-.576.498-1.189-.007-1.609a.788.788 0 0 0-.627-.865.668.668 0 0 1-.03.766.556.556 0 0 1-.084.763.894.894 0 0 0 .018-.182c0-.393-.243-.722-.573-.812a.615.615 0 0 0-1.048-.313c.233.017.42.2.446.432a.82.82 0 0 0-.26.334h.016a.729.729 0 0 1 .716.862.807.807 0 0 0-.226-.436c-.226-.22-.555-.266-.856-.151a.616.616 0 0 0-1.004.056c.222.01.418.122.54.291-.316.406-.32.966.004 1.281.22.214.533.264.827.163a.194.194 0 1 1-.062.334.426.426 0 0 0-.696.38.423.423 0 0 1-.423-.102.57.57 0 0 0 .508.714.896.896 0 0 0 1.348.396.392.392 0 1 1 .311.703l-.305.068a.286.286 0 0 1-.146-.005.273.273 0 0 1-.126-.07l.699.663a.3.3 0 0 0 .273.075l.571-.127c.05-.01.1-.008.146.005.046.012.09.035.127.071l.479.456a.29.29 0 0 0-.127-.072.293.293 0 0 0-.145-.004l-.572.125c-.05.012-.1.01-.145-.003a.292.292 0 0 1-.127-.07l.64.605a.296.296 0 0 0 .272.076l.573-.125a.3.3 0 0 1 .273.076l.479.455a.29.29 0 0 0-.127-.071.296.296 0 0 0-.146-.004l-.57.126a.296.296 0 0 1-.147-.005.29.29 0 0 1-.127-.071l.64.606c.038.036.081.06.127.072a.296.296 0 0 0 .146.005l.692-.152c-.672.38-1.387.809-2.144 1.288-.448.283-.938.336-1.5.12a1.714 1.714 0 0 0-.838-.099.91.91 0 0 0-.632.437.912.912 0 0 1 .982.2 1.25 1.25 0 0 0-.903-.007c-.565.207-.895.74-.766 1.215a.564.564 0 0 0-.19.927.575.575 0 0 1 .54-.449c.11.074.239.125.377.153a.795.795 0 0 1 .156-.193.933.933 0 0 1 1.05-1.063.934.934 0 0 0-.7 1.071.586.586 0 0 0-.24.926c.159-.31.468-.528.83-.563a1.529 1.529 0 0 0 .704.037.726.726 0 0 1 .702-1.128c-.384.162-.619.495-.538.798.058.216.26.364.522.413a.927.927 0 0 1-.123.444.936.936 0 0 0 .768-.515c.396-.159.64-.499.56-.807a.511.511 0 0 0-.192-.275l-.002-.031a.386.386 0 1 1 .669.26h.806c.05 0 .1-.013.141-.035a.29.29 0 0 0 .109-.098l.517-.767a.207.207 0 0 1 .17-.09h.634a.207.207 0 0 0-.17.09l-.52.767a.29.29 0 0 1-.108.098.295.295 0 0 1-.141.035h.963c.052 0 .1-.013.141-.035a.284.284 0 0 0 .11-.098l.58-.856c-.4-.22-.565-.603-.565-1.13 0-.328.184-.701.212-.942l.011-.096a.3.3 0 0 0-.018-.145.48.48 0 0 0-.072-.124l.496.508c.039.033.067.075.083.12a.288.288 0 0 1 .02.144l-.016.116c-.023.202-.277.637.194 1.035.024.02.082.06.138.096l.335.21v-1.235h.469v1.375c0 .051.015.1.039.14.023.042.056.08.1.106l.458.291a.295.295 0 0 0 .282.022l.845-.366a.298.298 0 0 1-.282-.023l-.97-.616c.471-.398.216-.833.193-1.035l-.014-.116a.298.298 0 0 1 .102-.264l.496-.508a.475.475 0 0 0-.072.124.3.3 0 0 0-.018.145l.01.096c.04.343.388.966.099 1.313l.886.562a.306.306 0 0 0 .283.022l.883-.383a.305.305 0 0 1-.282-.023l-.959-.61c.21-.427.033-1.107-.17-1.5l-.03-.058a.299.299 0 0 1-.031-.142c0-.048.012-.096.037-.141l.33-.593a.293.293 0 0 0-.037.14.293.293 0 0 0 .03.141l.122.236c.063.116.099.186.155.323.539-.486.659-.955.315-1.355l-.102-.12a.298.298 0 0 1-.065-.13.284.284 0 0 1 .002-.146l.176-.655a.3.3 0 0 0 .063.274l.338.394c.656.741.259 1.696-.524 2.424.044.14.081.401.05.543l1.04.66a.297.297 0 0 0 .138.045.298.298 0 0 0 .144-.023l.751-.327a.35.35 0 0 1-.245-.655c2.87-.873 5.511-3.125 7.246-3.12.843.003 1.526.513 1.526 1.145 0 .102-.018.201-.051.296-.37 1.038.169 2.03 1.59 2.411a.534.534 0 0 1 .376.653 1.157 1.157 0 0 0 1.046-.488 8.13 8.13 0 0 0 .784-.045c.033.066.059.14.075.223.058.298-.046.569-.23.628-.325.106-.725-.021-1.034-.018a1.067 1.067 0 0 0-1.048 1.201.648.648 0 0 0-.222.868c.18-.21.414-.372.681-.466a.965.965 0 0 1 1.194-.894 1.067 1.067 0 0 0-.925 1.176.456.456 0 0 0 .057.638c.098-.216.338-.42.647-.525.208-.07.413-.084.583-.049a.84.84 0 0 1 .925-1.089.662.662 0 0 0-.295 1.195l-.001.037a.58.58 0 0 0 .215.451.658.658 0 0 1 .647-.534 2.2 2.2 0 0 0 .671-.09.714.714 0 0 0 .497-.677c0-.22-.1-.416-.257-.546.077-.356.063-.942-.058-1.429a.572.572 0 0 1 .555.254zm-22.56-2.459l.12-.236a.304.304 0 0 0-.005-.282l.33.594a.307.307 0 0 1 .005.283l-.03.058c-.202.393-.39 1.13-.181 1.557-.489-.182-.65-.61-.598-.965-.92-.872-1.151-1.756-.495-2.497l.338-.394a.282.282 0 0 0 .065-.13.29.29 0 0 0-.002-.144l.176.655a.298.298 0 0 1-.063.276l-.102.12c-.344.4-.252.942.287 1.428.055-.137.092-.207.155-.323zm1.225-4.732h-.216c-.235 0-.443-.315-.443-.598a.555.555 0 0 0 .449.206h.993c.089 0 .177.068.216.182.028.085.012.21-.004.332-.048-.09-.108-.122-.185-.122h-.226a.379.379 0 1 1-.584 0zm.25-1.793l.412.524c.092.111.121.185.23.201h-.346a.489.489 0 0 1-.394-.187l-.395-.516a.533.533 0 0 0-.202-.178h.391c.118 0 .222.051.304.156zm1.147-.128l.506.711c.08.117.156.182.265.226h-.464a.394.394 0 0 1-.363-.21l-.399-.61c-.152-.23-.212-.287-.387-.348h.43c.17 0 .329.11.412.231zm1.81.853h-.346a.489.489 0 0 1-.393-.187l-.396-.516a.533.533 0 0 0-.202-.178h.392c.117 0 .222.051.303.156l.413.524c.092.111.12.185.23.201zm.132.47c0 .283-.207.598-.443.598h-.216a.379.379 0 1 1-.584 0h-.226c-.077 0-.137.031-.185.122-.016-.122-.031-.247-.003-.332.038-.114.127-.182.215-.182h.994c.183 0 .32-.062.448-.206zm-.306 2.148c-.068.02-.106.06-.114.132-.04.387-.198.544-.45.632a3.625 3.625 0 0 1-.163 1.054c.298.623.07 1.059-.172 1.152-.23.09-.528-.03-.792-.03-.263 0-.565.12-.796.03-.242-.093-.47-.529-.173-1.152a3.625 3.625 0 0 1-.162-1.054c-.252-.088-.41-.245-.45-.632-.009-.073-.046-.113-.114-.132-.992-.271-1.085-1.502-.584-1.851-.044.551-.092 1.33 1.035 1.433-.018.647.262.82.55.82.236 0 .37-.076.43-.107.21-.111.065-.28.011-.331a.569.569 0 0 1-.182-.517c.006-.035.019-.052.05-.052h.765c.032 0 .046.017.052.052a.573.573 0 0 1-.183.517c-.054.05-.198.22.011.331.059.031.194.107.43.107.288 0 .568-.173.55-.82 1.127-.103 1.08-.882 1.035-1.433.502.349.407 1.58-.584 1.851zm-.998 2.374c.03-.33-.346-.447-.695-.447-.35 0-.724.118-.695.447.035.402.411.21.695.212.283-.001.66.19.695-.212zm-.116-.782c.054-.29.077-.572.066-.843l-.26.304a2.294 2.294 0 0 0-.12-.255c-.029-.05-.053-.084-.087-.09-.017.009-.043.023-.072.03-.033.008-.078.005-.106.005-.027 0-.072.003-.106-.005-.028-.007-.054-.021-.072-.03-.035.006-.058.04-.087.09-.034.06-.068.134-.12.255l-.26-.304c-.01.271.012.553.066.843.193-.042.39-.057.579-.057.188 0 .386.015.579.057zm4.732-8.113c.042 0 .083.002.123.007a1.36 1.36 0 0 0-.889.812.636.636 0 0 0-.327.957c.22-.245.508-.429.836-.517.094-.472.487-.835.972-.886a1.176 1.176 0 0 0-.617 1.568.637.637 0 0 1 .823-.43.852.852 0 0 0 1.1-1.072.54.54 0 0 1 .294.82 1.083 1.083 0 0 0 1.268-.937c.279-.151.523-.355.734-.609l.148.721c.01.05.007.1-.006.146a.292.292 0 0 1-.073.126l.611-.628a.285.285 0 0 0 .072-.126.292.292 0 0 0 .006-.145l-.18-.88a.292.292 0 0 1 .006-.146.295.295 0 0 1 .073-.126l.481-.49a.295.295 0 0 0-.078.272l.18.88a.303.303 0 0 1-.076.27l.545-.567a.305.305 0 0 0 .078-.27l-.18-.88a.292.292 0 0 1 .006-.144.295.295 0 0 1 .073-.126l.481-.49a.295.295 0 0 0-.078.27l.181.881a.303.303 0 0 1-.077.27l.545-.566a.293.293 0 0 0 .072-.126.295.295 0 0 0 .006-.146l-.088-.43c-.092-.486.41-1.045.808-1.102a.64.64 0 0 0 .074-.295c0-.493-.587-.893-1.312-.893-.354 0-.676.095-.913.25.095.282.115.567-.815.7-.737.104-1.386.247-1.88.665-.76.645-.698 1.506-1.13 1.832.192.047.437.047.698-.01.166-.035.319-.09.454-.157-.081.155-.267.302-.51.407-.08.304-.35.594-.716.73-.23.085-.46.094-.649.04l-.89-.258a1.24 1.24 0 0 0-.342-.048c-.656 0-1.197.505-1.277 1.157a.638.638 0 0 0-.46.954 1.74 1.74 0 0 1 .787-.459 1.07 1.07 0 0 1 1.028-.776zm.063 5.017a.59.59 0 0 1 .003-.237.34.34 0 1 1 .58.304 1.9 1.9 0 0 0 .684-.051.561.561 0 0 0-.146-1.102c-.017 0-.034 0-.05.002a.654.654 0 0 1 .903.654c.97-.02 2.065-.906 2.304-1.243-.304.07-.634.108-.978.108-.39 0-.764-.048-1.102-.138-.477-.126-.947-.196-1.308-.196-1.19 0-2.156.776-2.156 1.735 0 .79.654 1.482 1.56 1.667 2.063.421 4.489-.804 6.538-1.227.512-.501 1.105-.92 1.756-1.236a.94.94 0 0 1-.03-.233v-.005c-2.719.447-5.165 1.841-7.375 1.83-.619-.002-1.104-.24-1.183-.632zm14.621-6.043a.746.746 0 0 0-.689-1.031h-.753a.303.303 0 0 1-.25-.131l-.378-.558a.296.296 0 0 0 .109.097c.042.022.09.036.142.035h.992a.298.298 0 0 1 .25.132l-.455-.667a.29.29 0 0 0-.11-.097.297.297 0 0 0-.14-.035h-.985a.298.298 0 0 1-.25-.131l-.429-.63a.3.3 0 0 0 .25.132h.989a.298.298 0 0 1 .25.13l-.456-.667a.3.3 0 0 0-.25-.132h-.785a.305.305 0 0 1-.25-.132l-.529-.775c1.067-.127 1.928-.705 2.1-1.501.222-1.033-.806-2.036-2.293-2.254a.516.516 0 0 1-.107-.995 1.313 1.313 0 0 0-.524-.107c-.657 0-1.191.471-1.191 1.053 0 .104.018.206.05.302-.738.318-1.409.882-1.923 1.492a6.701 6.701 0 0 1 1.723-.224.807.807 0 0 1 .803-.891h.011c-.304.133-.452.425-.452.618a.417.417 0 0 0 .657.341.577.577 0 0 1 .638-.737.647.647 0 0 0 .385 1.224.464.464 0 1 1 .912-.118c0 .557-.618.609-1.07.48-1.286-.371-2.49-.537-3.654-.375-1.494.21-3.942 1.22-6.54 1.136a8.067 8.067 0 0 1-1.854-.29c.078.086.129.145.162.196.253.394.34.807.117 1.323.006-.579-.473-1.055-.874-1.347-.162-.118-.227-.23-.2-.38l.118-.668a.3.3 0 0 0 .087.268l.25.244c.095-.677-.058-1.306-.46-1.89.177-.466.202-.98.083-1.462-.047.365-.227.521-.396.628-.317.197-.369.53-.205.754-.267-.135-.635-.631-.422-.92.23-.312.858-.165.936-.7-.408-.13-.828-.039-.956-.004-.242-.277-.563-.415-.962-.412-.316-.286-.721-.405-1.217-.356-.495-.05-.9.07-1.216.356-.4-.003-.72.135-.962.412-.129-.035-.548-.126-.957.003.077.536.706.39.936.701.213.289-.155.785-.422.92.164-.223.111-.557-.205-.754-.17-.107-.35-.263-.396-.628-.12.482-.094.996.083 1.462-.402.584-.555 1.213-.46 1.89l.25-.244a.3.3 0 0 0 .086-.268l.118.668c.027.15-.037.262-.199.38-.402.292-.88.768-.874 1.347-.223-.516-.132-.947.117-1.323-.762-.411-1.342-1.087-1.449-1.21-.23-.268-.2-.61.009-.91.403-.575.498-1.189-.007-1.609a.788.788 0 0 0-.627-.865.668.668 0 0 1-.03.767.554.554 0 0 1-.084.762.888.888 0 0 0 .018-.182c0-.393-.243-.722-.573-.812a.615.615 0 0 0-1.048-.313c.233.017.42.2.446.432a.82.82 0 0 0-.26.334h.016a.729.729 0 0 1 .716.862.804.804 0 0 0-.226-.435c-.226-.221-.555-.267-.856-.152a.616.616 0 0 0-1.004.056c.222.01.418.122.54.291-.316.406-.32.966.004 1.281.22.214.533.264.827.163a.194.194 0 1 1-.062.334.426.426 0 0 0-.696.38.423.423 0 0 1-.423-.102.57.57 0 0 0 .508.714.895.895 0 0 0 1.348.397.392.392 0 1 1 .311.703l-.305.067a.296.296 0 0 1-.146-.004.29.29 0 0 1-.126-.07l.699.662a.3.3 0 0 0 .273.075l.571-.127c.05-.01.1-.008.146.005.046.012.09.036.127.071l.479.456a.29.29 0 0 0-.127-.072.293.293 0 0 0-.145-.004l-.572.126a.292.292 0 0 1-.145-.004.292.292 0 0 1-.127-.07l.64.606a.298.298 0 0 0 .272.075l.573-.125a.3.3 0 0 1 .273.076l.479.454a.307.307 0 0 0-.273-.074l-.57.126a.296.296 0 0 1-.147-.005.297.297 0 0 1-.127-.07l.64.606a.29.29 0 0 0 .127.071.296.296 0 0 0 .146.005l.692-.152c-.672.38-1.387.809-2.144 1.288-.448.283-.938.336-1.5.12a1.725 1.725 0 0 0-.838-.099.91.91 0 0 0-.632.437.909.909 0 0 1 .982.2 1.245 1.245 0 0 0-.903-.006c-.565.206-.895.739-.766 1.216a.56.56 0 0 0-.19.925.575.575 0 0 1 .54-.448c.11.073.239.124.377.152a.795.795 0 0 1 .156-.192.933.933 0 0 1 1.05-1.063.934.934 0 0 0-.7 1.07.587.587 0 0 0-.24.926c.159-.31.468-.528.83-.563a1.53 1.53 0 0 0 .704.037.725.725 0 0 1 .702-1.128c-.384.162-.619.495-.538.799.058.215.26.363.522.413a.926.926 0 0 1-.123.443.934.934 0 0 0 .768-.514c.396-.16.64-.5.56-.808a.506.506 0 0 0-.192-.274.386.386 0 1 1 .667.229h.806c.05 0 .1-.014.141-.036a.29.29 0 0 0 .109-.098l.517-.767a.207.207 0 0 1 .17-.09h.634a.212.212 0 0 0-.17.09l-.52.768a.296.296 0 0 1-.108.097.295.295 0 0 1-.141.035h.963c.052 0 .1-.013.141-.035a.284.284 0 0 0 .11-.098l.58-.856c-.4-.22-.565-.603-.565-1.13 0-.327.184-.701.212-.942l.011-.097c.006-.05 0-.099-.018-.143a.47.47 0 0 0-.072-.125l.496.508c.039.033.067.075.083.12a.29.29 0 0 1 .02.145l-.016.115c-.023.202-.277.637.194 1.035.024.02.082.062.138.097l.335.21v-1.236h.469v1.375a.297.297 0 0 0 .139.246l.458.291a.307.307 0 0 0 .282.023l.845-.367a.288.288 0 0 1-.144.024.3.3 0 0 1-.138-.046l-.97-.617c.471-.398.216-.833.193-1.035l-.014-.115a.3.3 0 0 1 .102-.265l.496-.508a.466.466 0 0 0-.072.125.294.294 0 0 0-.018.143l.01.097c.04.343.388.966.099 1.314l.886.561a.307.307 0 0 0 .283.022l.883-.383a.305.305 0 0 1-.282-.023l-.959-.61c.21-.426.033-1.106-.17-1.5l-.03-.058a.296.296 0 0 1-.031-.142c0-.048.012-.096.037-.14l.33-.593a.284.284 0 0 0-.037.139.293.293 0 0 0 .03.141l.122.236c.063.116.099.186.155.323.539-.486.659-.955.315-1.354l-.102-.121a.3.3 0 0 1-.063-.276l.176-.655a.3.3 0 0 0 .063.274l.338.394c.656.741.259 1.696-.524 2.425.044.139.081.4.05.542l1.04.66a.297.297 0 0 0 .138.045.298.298 0 0 0 .144-.023l.751-.327a.35.35 0 0 1-.245-.655c2.87-.873 5.511-3.125 7.246-3.12.843.004 1.526.513 1.526 1.145 0 .102-.018.201-.051.296-.37 1.038.169 2.03 1.59 2.412a.532.532 0 0 1 .376.652 1.157 1.157 0 0 0 1.046-.488 8.13 8.13 0 0 0 .784-.045c.033.066.059.141.075.223.058.3-.046.569-.23.628-.325.106-.725-.021-1.034-.018a1.067 1.067 0 0 0-1.048 1.202.645.645 0 0 0-.222.867c.18-.21.414-.372.681-.466a.965.965 0 0 1 1.194-.894 1.067 1.067 0 0 0-.925 1.176.46.46 0 0 0 .057.64c.098-.218.338-.423.647-.527.208-.07.413-.084.583-.049a.84.84 0 0 1 .925-1.089.662.662 0 0 0-.295 1.196l-.001.036a.58.58 0 0 0 .215.451.658.658 0 0 1 .647-.534 2.2 2.2 0 0 0 .671-.09.714.714 0 0 0 .497-.677c0-.22-.1-.416-.257-.546.077-.356.063-.942-.058-1.429a.572.572 0 0 1 .555.254zm-22.56-2.458l.12-.236a.295.295 0 0 0-.005-.28l.33.593a.301.301 0 0 1 .005.282l-.03.058c-.202.394-.39 1.13-.181 1.557-.489-.182-.65-.61-.598-.964-.92-.873-1.151-1.757-.495-2.498l.338-.394a.282.282 0 0 0 .065-.13.29.29 0 0 0-.002-.144l.176.655a.297.297 0 0 1-.063.276l-.102.12c-.344.4-.252.942.287 1.428.055-.137.092-.207.155-.323zm1.225-4.732h-.216c-.235 0-.443-.315-.443-.597a.557.557 0 0 0 .449.205h.993c.089 0 .177.068.216.182.028.085.012.21-.004.333-.048-.09-.108-.123-.185-.123h-.226a.379.379 0 1 1-.584 0zm.25-1.793l.412.524c.092.112.121.186.23.201h-.346a.489.489 0 0 1-.394-.187l-.395-.516a.523.523 0 0 0-.202-.177h.391c.118 0 .222.05.304.155zm1.147-.128l.506.711c.08.117.156.182.265.226h-.464a.394.394 0 0 1-.363-.21l-.399-.61c-.152-.23-.212-.286-.387-.348h.43c.17 0 .329.11.412.231zm1.81.853h-.346a.489.489 0 0 1-.393-.187l-.396-.516a.523.523 0 0 0-.202-.177h.392c.117 0 .222.05.303.155l.413.524c.092.112.12.186.23.201zm.132.47c0 .283-.207.598-.443.598h-.216a.379.379 0 1 1-.584 0h-.226c-.077 0-.137.032-.185.123-.016-.123-.031-.248-.003-.333.038-.114.127-.182.215-.182h.994c.183 0 .32-.062.448-.205zm-.306 2.15c-.068.017-.106.057-.114.13-.04.387-.198.544-.45.632a3.625 3.625 0 0 1-.163 1.054c.298.623.07 1.059-.172 1.152-.23.09-.528-.03-.792-.03-.263 0-.565.12-.796.03-.242-.093-.47-.529-.173-1.152a3.625 3.625 0 0 1-.162-1.054c-.252-.088-.41-.245-.45-.632-.009-.073-.046-.113-.114-.13-.992-.273-1.085-1.504-.584-1.853-.044.551-.092 1.33 1.035 1.433-.018.647.262.82.55.82.236.001.37-.075.43-.106.21-.111.065-.282.011-.332a.569.569 0 0 1-.182-.517c.006-.034.019-.052.05-.052h.765c.032 0 .046.018.052.052a.573.573 0 0 1-.183.517c-.054.05-.198.22.011.332.059.031.194.107.43.106.288 0 .568-.173.55-.82 1.127-.103 1.08-.882 1.035-1.433.502.349.407 1.58-.584 1.852zm-.998 2.372c.03-.33-.346-.447-.695-.447-.35 0-.724.118-.695.447.035.402.411.21.695.212.283-.001.66.19.695-.212zm-.116-.781c.054-.29.077-.573.066-.844l-.26.304a2.373 2.373 0 0 0-.12-.255c-.029-.05-.053-.084-.087-.09a.27.27 0 0 1-.072.03c-.033.008-.078.005-.106.005-.027 0-.072.003-.106-.005a.275.275 0 0 1-.072-.03c-.035.006-.058.04-.087.09-.034.06-.068.135-.12.255l-.26-.304c-.01.271.012.553.066.844.193-.042.39-.058.579-.058.188 0 .386.016.579.058zm4.732-8.114c.042 0 .083.002.123.007a1.36 1.36 0 0 0-.889.812.636.636 0 0 0-.327.957c.22-.245.508-.429.836-.517.094-.472.487-.835.972-.886a1.176 1.176 0 0 0-.617 1.568.637.637 0 0 1 .823-.43.853.853 0 0 0 1.1-1.071.538.538 0 0 1 .294.819 1.083 1.083 0 0 0 1.268-.937c.279-.151.523-.355.734-.608l.148.72a.306.306 0 0 1-.08.272l.612-.628a.285.285 0 0 0 .072-.126.292.292 0 0 0 .006-.145l-.18-.88a.292.292 0 0 1 .006-.146.295.295 0 0 1 .073-.126l.481-.49a.306.306 0 0 0-.078.272l.18.88a.303.303 0 0 1-.076.27l.545-.567a.302.302 0 0 0 .078-.27l-.18-.88a.292.292 0 0 1 .006-.144.295.295 0 0 1 .073-.126l.481-.49a.295.295 0 0 0-.078.27l.181.881a.302.302 0 0 1-.077.27l.545-.566a.293.293 0 0 0 .072-.126.295.295 0 0 0 .006-.146l-.088-.43c-.092-.486.41-1.045.808-1.102a.64.64 0 0 0 .074-.295c0-.493-.587-.893-1.312-.893-.354 0-.676.095-.913.251.095.28.115.566-.815.698-.737.105-1.386.248-1.88.666-.76.645-.698 1.506-1.13 1.832.192.047.437.047.698-.01.166-.035.319-.09.454-.156-.081.154-.267.301-.51.406-.08.304-.35.594-.716.73-.23.085-.46.094-.649.04l-.89-.258a1.24 1.24 0 0 0-.342-.048c-.656 0-1.197.505-1.277 1.158a.637.637 0 0 0-.46.953 1.74 1.74 0 0 1 .787-.459 1.07 1.07 0 0 1 1.028-.776zm.063 5.017a.586.586 0 0 1 .003-.237.34.34 0 1 1 .58.303 1.9 1.9 0 0 0 .684-.051.561.561 0 0 0-.197-1.1.654.654 0 0 1 .904.656c.97-.021 2.065-.907 2.304-1.244-.304.07-.634.108-.978.108-.39 0-.764-.048-1.102-.138-.477-.126-.947-.196-1.308-.196-1.19 0-2.156.776-2.156 1.735 0 .791.654 1.482 1.56 1.667 2.063.422 4.489-.803 6.538-1.227.512-.501 1.105-.92 1.756-1.235a.952.952 0 0 1-.03-.234v-.005c-2.719.447-5.165 1.841-7.375 1.83-.619-.002-1.104-.24-1.183-.632zm14.621-6.043a.746.746 0 0 0-.689-1.031h-.753a.303.303 0 0 1-.25-.131l-.378-.558a.288.288 0 0 0 .109.097c.042.023.09.036.142.035h.992a.298.298 0 0 1 .25.132l-.455-.667a.29.29 0 0 0-.11-.097.297.297 0 0 0-.14-.035h-.985a.306.306 0 0 1-.25-.131l-.429-.63a.3.3 0 0 0 .25.132h.989a.298.298 0 0 1 .25.13l-.456-.667a.306.306 0 0 0-.25-.132h-.785a.305.305 0 0 1-.25-.132l-.529-.774c1.067-.128 1.928-.706 2.1-1.502.222-1.033-.806-2.036-2.293-2.254a.516.516 0 0 1-.107-.995 1.313 1.313 0 0 0-.524-.107c-.657 0-1.191.471-1.191 1.053 0 .104.018.206.05.302-.738.318-1.409.882-1.923 1.492a6.701 6.701 0 0 1 1.723-.224.807.807 0 0 1 .803-.891h.011c-.304.133-.452.425-.452.618a.417.417 0 0 0 .657.341.577.577 0 0 1 .638-.737.647.647 0 0 0 .385 1.224.463.463 0 1 1 .912-.118c0 .557-.618.609-1.07.48-1.286-.371-2.49-.537-3.654-.374-1.494.21-3.942 1.22-6.54 1.135a8.067 8.067 0 0 1-1.854-.29c.078.086.129.146.162.196.253.394.34.807.117 1.323.006-.579-.473-1.055-.874-1.347-.162-.118-.227-.23-.2-.38l.118-.668a.299.299 0 0 0 .087.268l.25.244c.095-.676-.058-1.306-.46-1.89.177-.466.202-.98.083-1.462-.047.365-.227.522-.396.628-.317.198-.369.53-.205.754-.267-.135-.635-.63-.422-.92.23-.312.858-.165.936-.7-.408-.13-.828-.039-.956-.004-.242-.277-.563-.415-.962-.412-.316-.286-.721-.405-1.217-.356-.495-.05-.9.07-1.216.356-.4-.003-.72.135-.962.412-.129-.035-.548-.126-.957.004.077.535.706.388.936.7.213.29-.155.785-.422.92.164-.223.111-.556-.205-.754-.17-.106-.35-.263-.396-.628-.12.482-.094.996.083 1.462-.402.584-.555 1.214-.46 1.89l.25-.244a.303.303 0 0 0 .086-.268l.118.668c.027.15-.037.262-.199.38-.402.292-.88.768-.874 1.347-.223-.516-.132-.947.117-1.323-.762-.411-1.342-1.087-1.449-1.21-.23-.268-.2-.61.009-.91.403-.575.498-1.189-.007-1.609a.786.786 0 0 0-.627-.864.663.663 0 0 1-.03.766.554.554 0 0 1-.084.762.888.888 0 0 0 .018-.182c0-.393-.243-.722-.573-.812a.615.615 0 0 0-1.048-.313c.233.018.42.2.446.432-.111.083-.2.2-.26.334h.016a.729.729 0 0 1 .716.862.804.804 0 0 0-.226-.435c-.226-.221-.555-.267-.856-.152a.616.616 0 0 0-1.004.056c.222.01.418.122.54.291-.316.406-.32.966.004 1.281.22.214.533.264.827.163a.194.194 0 1 1-.062.334.426.426 0 0 0-.696.38.423.423 0 0 1-.423-.103.57.57 0 0 0 .508.714.895.895 0 0 0 1.348.398.392.392 0 1 1 .311.703l-.305.067a.296.296 0 0 1-.146-.004.29.29 0 0 1-.126-.07l.699.662a.3.3 0 0 0 .273.075l.571-.126c.05-.012.1-.01.146.004.046.012.09.036.127.071l.479.456a.3.3 0 0 0-.272-.076l-.572.126a.292.292 0 0 1-.145-.004.292.292 0 0 1-.127-.07l.64.606a.306.306 0 0 0 .272.075l.573-.125a.306.306 0 0 1 .273.076l.479.455a.309.309 0 0 0-.273-.075l-.57.126a.296.296 0 0 1-.147-.005.29.29 0 0 1-.127-.07l.64.606a.29.29 0 0 0 .127.071.296.296 0 0 0 .146.005l.692-.152c-.672.38-1.387.81-2.144 1.288-.448.283-.938.336-1.5.12a1.714 1.714 0 0 0-.838-.099.91.91 0 0 0-.632.437.909.909 0 0 1 .982.2 1.245 1.245 0 0 0-.903-.006c-.565.206-.895.739-.766 1.216a.56.56 0 0 0-.19.925.575.575 0 0 1 .54-.448c.11.073.239.124.377.152a.812.812 0 0 1 .156-.192.933.933 0 0 1 1.05-1.063.934.934 0 0 0-.7 1.07.587.587 0 0 0-.24.926c.159-.31.468-.528.83-.563a1.53 1.53 0 0 0 .704.037.726.726 0 0 1 .702-1.129c-.384.163-.619.496-.538.8.058.215.26.363.522.413a.926.926 0 0 1-.123.443.934.934 0 0 0 .768-.514c.396-.16.64-.5.56-.808a.506.506 0 0 0-.192-.274.386.386 0 1 1 .667.229h.806c.05 0 .1-.014.141-.036a.29.29 0 0 0 .109-.098l.517-.766a.207.207 0 0 1 .17-.09h.634a.212.212 0 0 0-.17.09l-.52.766a.29.29 0 0 1-.108.098.295.295 0 0 1-.141.036h.963c.052 0 .1-.014.141-.036a.284.284 0 0 0 .11-.098l.58-.856c-.4-.22-.565-.603-.565-1.13 0-.327.184-.701.212-.942l.011-.096c.006-.05 0-.1-.018-.144a.47.47 0 0 0-.072-.125l.496.508c.039.033.067.075.083.12a.288.288 0 0 1 .02.144l-.016.116c-.023.202-.277.637.194 1.035.024.02.082.062.138.097l.335.21v-1.236h.469v1.375a.297.297 0 0 0 .139.246l.458.292a.305.305 0 0 0 .282.023l.845-.368a.288.288 0 0 1-.144.024.3.3 0 0 1-.138-.046l-.97-.617c.471-.398.216-.833.193-1.035l-.014-.116a.298.298 0 0 1 .102-.264l.496-.508a.466.466 0 0 0-.072.125.298.298 0 0 0-.018.144l.01.096c.04.343.388.966.099 1.313l.886.562a.307.307 0 0 0 .283.022l.883-.383a.305.305 0 0 1-.282-.023l-.959-.61c.21-.426.033-1.106-.17-1.5l-.03-.058a.296.296 0 0 1-.031-.142c0-.047.012-.096.037-.14l.33-.593a.287.287 0 0 0-.037.139.293.293 0 0 0 .03.141l.122.236c.063.116.099.186.155.323.539-.486.659-.955.315-1.354l-.102-.121a.3.3 0 0 1-.063-.276l.176-.654a.3.3 0 0 0 .063.274l.338.393c.656.741.259 1.696-.524 2.424.044.14.081.402.05.543l1.04.66a.297.297 0 0 0 .138.046.298.298 0 0 0 .144-.024l.751-.327a.35.35 0 0 1-.245-.655c2.87-.872 5.511-3.125 7.246-3.119.843.003 1.526.512 1.526 1.145 0 .101-.018.2-.051.295-.37 1.038.169 2.03 1.59 2.412a.532.532 0 0 1 .376.652 1.155 1.155 0 0 0 1.046-.488 8.13 8.13 0 0 0 .784-.045c.033.066.059.141.075.223.058.3-.046.569-.23.628-.325.106-.725-.021-1.034-.017a1.066 1.066 0 0 0-1.048 1.201.645.645 0 0 0-.222.867c.18-.21.414-.372.681-.466a.965.965 0 0 1 1.194-.894 1.067 1.067 0 0 0-.925 1.176.454.454 0 0 0 .056.639c.1-.217.339-.42.648-.526.208-.07.413-.084.583-.049a.84.84 0 0 1 .925-1.089.662.662 0 0 0-.295 1.196l-.001.036a.58.58 0 0 0 .215.451.658.658 0 0 1 .647-.534 2.2 2.2 0 0 0 .671-.09.714.714 0 0 0 .497-.677c0-.22-.1-.416-.257-.546.077-.356.063-.942-.058-1.429a.574.574 0 0 1 .555.254zM7.266 17.74l.12-.236a.298.298 0 0 0-.005-.28l.33.593a.304.304 0 0 1 .005.282l-.03.059c-.202.393-.39 1.13-.181 1.556-.489-.182-.65-.61-.598-.965-.92-.871-1.151-1.756-.495-2.497l.338-.394a.282.282 0 0 0 .065-.13.29.29 0 0 0-.002-.144l.176.655a.297.297 0 0 1-.063.276l-.102.12c-.344.4-.252.942.287 1.428.055-.137.092-.207.155-.323zm1.225-4.732h-.216c-.235 0-.443-.315-.443-.597a.558.558 0 0 0 .449.206h.993c.089 0 .177.067.216.182.028.084.012.209-.004.332-.048-.09-.108-.123-.185-.123h-.226a.379.379 0 1 1-.584 0zm.25-1.793l.412.524c.092.112.121.186.23.201h-.346a.489.489 0 0 1-.394-.187l-.395-.516a.523.523 0 0 0-.202-.177h.391c.118 0 .222.05.304.155zm1.147-.128l.506.711c.08.117.156.182.265.226h-.464a.394.394 0 0 1-.363-.21l-.399-.61c-.152-.23-.212-.286-.387-.348h.43c.17 0 .329.11.412.231zm1.81.853h-.346a.489.489 0 0 1-.393-.187l-.396-.516a.523.523 0 0 0-.202-.177h.392c.117 0 .222.05.303.155l.413.524c.092.112.12.186.23.201zm.132.47c0 .283-.207.598-.443.598h-.216a.378.378 0 1 1-.584 0h-.226c-.077 0-.137.032-.185.123-.016-.123-.031-.248-.003-.332.038-.115.127-.182.215-.182h.994c.183 0 .32-.063.448-.206zm-.306 2.15c-.068.018-.106.058-.114.13-.04.388-.198.544-.45.632a3.625 3.625 0 0 1-.163 1.054c.298.623.07 1.059-.172 1.153-.23.089-.528-.031-.792-.031-.263 0-.565.12-.796.03-.242-.093-.47-.529-.173-1.152a3.625 3.625 0 0 1-.162-1.054c-.252-.088-.41-.244-.45-.632-.009-.072-.046-.112-.114-.13-.992-.273-1.085-1.504-.584-1.853-.044.551-.092 1.33 1.035 1.433-.018.647.262.82.55.82.236.001.37-.075.43-.106.21-.111.065-.282.011-.332a.568.568 0 0 1-.182-.517c.006-.034.019-.052.05-.052h.765c.032 0 .046.018.052.052a.572.572 0 0 1-.183.517c-.054.05-.198.22.011.332.059.031.194.107.43.106.288 0 .568-.173.55-.82 1.127-.103 1.08-.882 1.035-1.433.502.349.407 1.58-.584 1.852zm-.998 2.372c.03-.33-.346-.447-.695-.447-.35 0-.724.118-.695.447.035.402.411.21.695.212.283-.001.66.19.695-.212zm-.116-.781c.054-.29.077-.573.066-.844l-.26.304a2.373 2.373 0 0 0-.12-.255c-.029-.05-.053-.084-.087-.09a.27.27 0 0 1-.072.03c-.033.008-.078.005-.106.005-.027 0-.072.003-.106-.005a.275.275 0 0 1-.072-.03c-.035.006-.058.04-.087.09-.034.06-.068.135-.12.255l-.26-.304c-.01.271.012.553.066.844.193-.042.39-.058.579-.058.188 0 .386.016.579.058zm11.627-2.821c.512-.501 1.105-.92 1.756-1.235a.952.952 0 0 1-.03-.234v-.005c-2.719.447-5.165 1.842-7.375 1.83-.619-.002-1.104-.24-1.183-.632a.586.586 0 0 1 .003-.236.34.34 0 1 1 .58.303 1.9 1.9 0 0 0 .684-.051.561.561 0 0 0-.197-1.1.654.654 0 0 1 .904.655c.97-.021 2.065-.907 2.304-1.244-.304.07-.634.108-.978.108-.39 0-.764-.048-1.102-.138-.477-.126-.947-.196-1.308-.196-1.19 0-2.156.776-2.156 1.735 0 .791.654 1.482 1.56 1.668 2.063.421 4.489-.804 6.538-1.228zm-8.797 35.18c0 .118.032.228.087.323a1.74 1.74 0 0 1 .787-.459 1.068 1.068 0 0 1 1.15-.77 1.36 1.36 0 0 0-.888.813.636.636 0 0 0-.327.957c.22-.246.508-.429.836-.517.094-.472.487-.835.972-.886a1.176 1.176 0 0 0-.617 1.568.637.637 0 0 1 .823-.43.852.852 0 0 0 1.1-1.072.54.54 0 0 1 .294.819 1.085 1.085 0 0 0 1.269-.937c.278-.15.522-.354.733-.608l.148.721c.01.05.007.1-.006.146a.295.295 0 0 1-.073.126l.611-.628a.285.285 0 0 0 .072-.126.295.295 0 0 0 .006-.146l-.18-.88a.292.292 0 0 1 .006-.145.295.295 0 0 1 .073-.126l.481-.49a.297.297 0 0 0-.078.271l.18.88a.306.306 0 0 1-.076.271l.545-.567a.302.302 0 0 0 .078-.27l-.18-.88a.292.292 0 0 1 .006-.144.295.295 0 0 1 .073-.126l.481-.49a.295.295 0 0 0-.078.27l.181.881a.302.302 0 0 1-.077.27l.545-.567a.29.29 0 0 0 .072-.125.295.295 0 0 0 .006-.146l-.088-.43c-.092-.486.41-1.045.808-1.102a.64.64 0 0 0 .074-.295c0-.493-.587-.893-1.312-.893-.354 0-.676.095-.913.25.095.282.115.567-.815.7-.737.103-1.386.247-1.88.665-.76.645-.698 1.506-1.13 1.832.192.047.437.047.698-.01.166-.035.319-.09.454-.157-.081.155-.267.302-.51.407-.08.304-.35.594-.716.73-.23.085-.46.094-.649.04l-.89-.258a1.24 1.24 0 0 0-.342-.048c-.656 0-1.197.505-1.277 1.158a.637.637 0 0 0-.547.63z"/>
        <g>
            <use fill="#34394C" xlink:href="#a"/>
            <use fill="#000" xlink:href="#a"/>
        </g>
        <path fill="#34394C" stroke="#34394C" stroke-width=".2" d="M52.357 25.745H50.53V29h-.618v-7.82h2.143c.347 0 .66.05.937.15.278.1.513.248.707.443.193.195.342.436.446.723.103.286.155.615.155.988 0 .258-.032.5-.096.725-.065.226-.156.43-.274.612-.119.183-.26.341-.427.476-.167.134-.35.237-.55.308l1.627 3.325V29h-.656l-1.568-3.255zm-1.826-.57h1.633a1.5 1.5 0 0 0 .663-.139c.191-.093.35-.217.475-.373.126-.156.22-.336.285-.54a2.11 2.11 0 0 0 .097-.64c0-.264-.035-.503-.105-.716a1.448 1.448 0 0 0-.312-.543 1.382 1.382 0 0 0-.51-.343 1.885 1.885 0 0 0-.7-.121H50.53v3.416zm8.857.762h-2.483v2.597h2.856V29h-3.357v-6.398h3.335v.474h-2.834v2.395h2.483v.466zm2.59.461V29h-.5v-6.398h1.858c.3 0 .562.046.789.14.227.094.418.225.571.393.154.169.27.37.348.605.077.234.116.492.116.773 0 .296-.039.561-.116.796a1.551 1.551 0 0 1-.348.593 1.505 1.505 0 0 1-.571.369c-.227.085-.49.127-.789.127h-1.358zm0-.47h1.358c.235 0 .435-.036.602-.107a1.096 1.096 0 0 0 .646-.743c.05-.172.075-.357.075-.556 0-.193-.025-.378-.075-.554a1.275 1.275 0 0 0-.235-.461 1.136 1.136 0 0 0-.41-.314 1.42 1.42 0 0 0-.603-.117h-1.358v2.852zm8.669-3.326v4.513c0 .36-.05.666-.152.916-.101.25-.238.454-.41.61-.174.158-.375.271-.605.341-.23.07-.475.106-.736.106-.27 0-.52-.035-.752-.106a1.55 1.55 0 0 1-.604-.34 1.584 1.584 0 0 1-.402-.611 2.553 2.553 0 0 1-.145-.916v-4.513h.501v4.513c0 .278.034.513.103.705.07.192.166.347.29.466.125.119.273.204.444.257.172.053.36.08.565.08.205 0 .393-.027.565-.08.17-.053.318-.138.441-.257s.22-.274.288-.466c.069-.192.103-.427.103-.705v-4.513h.506zM72.662 29v-6.398h1.621c.273 0 .518.033.736.098.219.066.403.167.554.304.151.136.267.31.347.52.08.211.121.462.121.752 0 .328-.076.614-.228.857a1.3 1.3 0 0 1-.633.527c.16.041.305.11.433.205.127.095.236.21.327.347.09.136.16.288.209.457.048.168.072.345.072.53 0 .292-.041.55-.125.775a1.459 1.459 0 0 1-.899.91 2.06 2.06 0 0 1-.707.116h-1.828zm.5-3.072v2.606h1.328c.193 0 .366-.03.518-.092.153-.062.282-.15.387-.264.106-.114.186-.253.242-.417.055-.164.083-.349.083-.554 0-.182-.024-.35-.072-.505a1.126 1.126 0 0 0-.22-.405 1.028 1.028 0 0 0-.371-.27 1.31 1.31 0 0 0-.532-.099h-1.362zm0-.461h1.165c.381 0 .677-.101.888-.303.21-.203.316-.503.316-.901 0-.408-.103-.707-.31-.899-.206-.192-.519-.288-.938-.288h-1.12v2.39zm5.426 3.067h2.637V29h-3.142v-6.398h.505v5.932zM83.45 29h-.501v-6.398h.5V29zm6.04-1.995c-.047.718-.24 1.244-.58 1.58-.34.335-.81.503-1.41.503-.308 0-.586-.06-.833-.18a1.748 1.748 0 0 1-.631-.519 2.47 2.47 0 0 1-.4-.824 3.942 3.942 0 0 1-.14-1.096v-1.376c0-.401.046-.761.14-1.08.094-.32.229-.59.404-.812.176-.22.39-.39.642-.51.252-.118.538-.177.857-.177.29 0 .55.04.78.123.23.082.428.208.595.378.167.17.3.386.396.65.097.264.157.577.18.94h-.51a3.25 3.25 0 0 0-.136-.747 1.35 1.35 0 0 0-.279-.5 1.038 1.038 0 0 0-.433-.282 1.82 1.82 0 0 0-.593-.088c-.25 0-.469.048-.66.143-.19.095-.35.232-.48.411-.13.179-.23.398-.295.66-.066.26-.099.554-.099.882v1.385c0 .325.032.62.095.885s.156.492.28.68c.125.187.28.332.467.434.186.103.403.154.652.154.235 0 .44-.027.616-.081.175-.054.323-.145.443-.27.12-.126.215-.293.284-.5.069-.206.115-.461.138-.766h.51zm8.442-.51c0 .422-.047.795-.143 1.119a2.284 2.284 0 0 1-.41.813 1.72 1.72 0 0 1-.65.494 2.13 2.13 0 0 1-.862.167 2.12 2.12 0 0 1-.857-.167 1.757 1.757 0 0 1-.655-.494 2.295 2.295 0 0 1-.42-.813 3.86 3.86 0 0 1-.147-1.119v-1.38c0-.422.048-.794.145-1.118.097-.324.235-.596.415-.815.18-.22.398-.386.653-.5.255-.112.54-.168.857-.168.32 0 .607.056.864.169.256.113.473.279.652.499.179.22.317.491.413.815.097.324.145.696.145 1.118v1.38zm-.505-1.389c0-.7-.135-1.226-.404-1.577-.27-.352-.658-.528-1.165-.528-.495 0-.88.176-1.156.528-.275.351-.413.877-.413 1.577v1.39c0 .702.14 1.23.418 1.583.278.353.665.53 1.16.53.51 0 .897-.176 1.162-.527.265-.352.398-.88.398-1.587v-1.389zm5.407.915h-2.46V29h-.501v-6.398h3.33v.474h-2.83v2.47h2.461v.475zm8.936-.765h-3.034v3.175h3.49V29h-4.103v-7.82h4.077v.58h-3.464v2.927h3.034v.57zm5.259 2.17c0-.175-.023-.331-.068-.467a.956.956 0 0 0-.233-.372 1.693 1.693 0 0 0-.442-.307 5.365 5.365 0 0 0-.69-.281c-.27-.091-.512-.19-.727-.297a2.305 2.305 0 0 1-.551-.374 1.477 1.477 0 0 1-.352-.496 1.65 1.65 0 0 1-.123-.662c0-.246.045-.47.134-.674.09-.204.214-.378.374-.523.16-.145.35-.258.57-.338.222-.081.466-.121.732-.121.288 0 .545.05.774.15a1.737 1.737 0 0 1 .954 1.016c.085.233.127.483.127.75h-.505c0-.208-.03-.4-.09-.576a1.327 1.327 0 0 0-.262-.457 1.175 1.175 0 0 0-.422-.301 1.446 1.446 0 0 0-.576-.108c-.216 0-.406.031-.569.093a1.148 1.148 0 0 0-.406.252c-.108.107-.19.232-.246.374a1.236 1.236 0 0 0-.084.455c0 .152.024.292.073.42a.979.979 0 0 0 .24.353c.11.108.256.21.437.305.18.096.4.186.661.27.287.094.541.198.762.31.222.113.408.244.559.394.15.15.265.323.342.52.078.198.117.426.117.684a1.7 1.7 0 0 1-.139.7c-.092.207-.22.382-.384.526a1.704 1.704 0 0 1-.585.33 2.46 2.46 0 0 1-1.463.004 1.899 1.899 0 0 1-.646-.34 1.75 1.75 0 0 1-.466-.594 1.942 1.942 0 0 1-.18-.872h.5c0 .27.046.496.135.681a1.267 1.267 0 0 0 .835.694c.18.05.361.075.543.075.205 0 .39-.028.556-.086.165-.057.306-.137.421-.241.116-.104.206-.23.268-.376.063-.147.095-.31.095-.492zm5.909-4.35h-1.82V29h-.505v-5.924h-1.815v-.474h4.14v.474zm5.473 3.42c0 .421-.047.794-.143 1.118a2.284 2.284 0 0 1-.41.813 1.72 1.72 0 0 1-.651.494 2.13 2.13 0 0 1-.861.167 2.12 2.12 0 0 1-.857-.167 1.757 1.757 0 0 1-.655-.494 2.295 2.295 0 0 1-.42-.813 3.86 3.86 0 0 1-.147-1.119v-1.38c0-.422.048-.794.145-1.118.097-.324.235-.596.415-.815.18-.22.398-.386.653-.5.255-.112.54-.168.857-.168.32 0 .607.056.863.169.257.113.474.279.653.499.179.22.316.491.413.815.097.324.145.696.145 1.118v1.38zm-.505-1.39c0-.7-.135-1.226-.405-1.577-.27-.352-.657-.528-1.164-.528-.495 0-.88.176-1.156.528-.275.351-.413.877-.413 1.577v1.39c0 .702.14 1.23.418 1.583.278.353.665.53 1.16.53.51 0 .897-.176 1.162-.527.265-.352.398-.88.398-1.587v-1.389zm6.47 3.894h-.5l-3.02-5.45V29h-.505v-6.398h.506l3.023 5.458v-5.458h.497V29zm2.715 0h-.501v-6.398h.5V29zm5.192-1.789h-2.4L139.34 29h-.523l2.039-6.398h.465l2.04 6.398h-.523l-.554-1.789zm-2.255-.47h2.11l-1.055-3.432-1.055 3.432z"/>
    </g>
</svg>
