<?xml version="1.0" standalone="no"?>
<!DOCTYPE svg PUBLIC "-//W3C//DTD SVG 1.1//EN" "http://www.w3.org/Graphics/SVG/1.1/DTD/svg11.dtd" >
<svg xmlns="http://www.w3.org/2000/svg">
<metadata>Generated by IcoMoon</metadata>
<defs>
<font id="iconfont" horiz-adv-x="1024">
<font-face units-per-em="1024" ascent="960" descent="-64" />
<missing-glyph horiz-adv-x="1024" />
<glyph unicode="&#x20;" horiz-adv-x="512" d="" />
<glyph unicode="&#xe900;" glyph-name="icon-arrows" horiz-adv-x="931" d="M465.455 960l465.455-372.364h-930.909l465.455 372.364zM465.455-64l465.455 372.364h-930.909l465.455-372.364z" />
<glyph unicode="&#xe901;" glyph-name="icon-add-square" d="M0 806.697c0 84.667 68.778 153.303 153.303 153.303h717.394c84.667 0 153.303-68.778 153.303-153.303v-717.394c0-84.667-68.778-153.303-153.303-153.303h-717.394c-84.667 0-153.303 68.778-153.303 153.303v717.394zM601.6 537.6v268.8h-179.2v-268.8h-268.8v-179.2h268.8v-268.8h179.2v268.8h268.8v179.2h-268.8z" />
<glyph unicode="&#xe902;" glyph-name="icon-add-round" d="M512-64c-282.77 0-512 229.23-512 512s229.23 512 512 512c282.77 0 512-229.23 512-512s-229.23-512-512-512zM601.6 537.6v268.8h-179.2v-268.8h-268.8v-179.2h268.8v-268.8h179.2v268.8h268.8v179.2h-268.8z" />
<glyph unicode="&#xe903;" glyph-name="arrow-left" horiz-adv-x="632" d="M86.533 544.145l396.412 396.412c17.706 17.706 46.19 17.448 63.918-0.28l48.872-48.872c17.778-17.778 17.853-46.345 0.28-63.918l-379.173-379.173 379.173-379.173c17.706-17.706 17.448-46.19-0.28-63.918l-48.872-48.872c-17.778-17.778-46.345-17.853-63.918-0.28l-396.385 396.385c-6.75 2.15-13.111 5.918-18.483 11.291l-48.872 48.872c-9.775 9.775-14.198 22.811-13.278 35.488-1.048 12.824 3.407 26.031 13.278 35.903l48.872 48.872c5.369 5.369 11.721 9.123 18.457 11.264z" />
<glyph unicode="&#xe904;" glyph-name="icon-status-green" d="M362.338 473.76l-47.262-63.015 187.247-140.435 240.603 284.349-60.131 50.88-192.628-227.651zM78.769 763.169v-630.337c0-65.164 52.886-118.062 118.062-118.062h630.337c65.164 0 118.062 52.886 118.062 118.062v630.337c0 65.164-52.886 118.062-118.062 118.062h-630.337c-65.164 0-118.062-52.886-118.062-118.062zM0 763.169c0 108.707 88.192 196.831 196.831 196.831h630.337c108.707 0 196.831-88.192 196.831-196.831v-630.337c0-108.707-88.192-196.831-196.831-196.831h-630.337c-108.707 0-196.831 88.192-196.831 196.831v630.337z" />
<glyph unicode="&#xe905;" glyph-name="icon-cross" d="M512 253.934l-298.913-317.934-193.697 182.108 310.154 329.892-310.154 329.892 193.697 182.108 298.913-317.934 298.913 317.934 193.697-182.108-310.154-329.892 310.154-329.892-193.697-182.108-298.913 317.934z" />
<glyph unicode="&#xe906;" glyph-name="icon-twitter" horiz-adv-x="1229" d="M1229.001 829.161c-45.22-20.055-93.813-33.615-144.821-39.712 52.065 31.214 92.043 80.614 110.864 139.498-48.722-28.889-102.685-49.883-160.114-61.18-45.992 49.004-111.521 79.618-184.049 79.618-139.24 0-252.145-112.893-252.145-252.133 0-19.761 2.238-39.006 6.541-57.468-209.553 10.526-395.349 110.9-519.703 263.457-21.709-37.248-34.143-80.557-34.143-126.77 0-87.47 44.503-164.651 112.163-209.868-41.338 1.311-80.215 12.659-114.204 31.541-0.024-1.056-0.024-2.112-0.024-3.178 0-122.164 86.921-224.064 202.262-247.237-21.156-5.752-43.435-8.848-66.431-8.848-16.245 0-32.045 1.584-47.447 4.537 32.090-100.177 125.213-173.079 235.55-175.105-86.3-67.64-195.019-107.948-313.15-107.948-20.358 0-40.426 1.194-60.151 3.541 111.581-71.556 244.116-113.292 386.509-113.292 463.787 0 717.396 384.202 717.396 717.408 0 10.922-0.246 21.799-0.726 32.618 49.274 35.547 92.019 79.957 125.822 130.52v0z" />
<glyph unicode="&#xe907;" glyph-name="icon-messaging" horiz-adv-x="1205" d="M681.252 674.564h245.917v103.165c0 100.659-87.974 182.271-196.499 182.271h-526.064c-108.497 0-196.513-81.612-196.513-182.271v-487.819c0-100.659 88.015-182.285 196.513-182.285h33.88v-171.625l230.475 171.625h50.944c-10.64 21.15-16.603 44.701-16.603 69.538v332.332c0 91.026 79.826 165.069 177.95 165.069zM1133.908 188.42c0-36.275-31.807-65.773-70.922-65.773h-86.055v-53.517l-71.875 53.517h-200.46c-39.073 0-70.866 29.498-70.866 65.773v332.332c0 36.263 31.793 65.748 70.866 65.748h358.39c39.115 0 70.922-29.485 70.922-65.748v-332.332zM1062.986 644.923h-358.39c-73.904 0-133.865-55.594-133.865-124.172v-332.332c0-68.616 59.96-124.197 133.865-124.197h178.3l157.033-116.966v116.966h23.057c73.96 0 133.921 55.581 133.921 124.197v332.332c0 68.578-59.96 124.172-133.921 124.172v0zM800.42 369.231h-42.013c-10.43 0-18.885-7.854-18.885-17.54v-38.949c0-9.673 8.455-17.527 18.885-17.527h42.013c10.444 0 18.899 7.854 18.899 17.527v38.949c0 9.686-8.455 17.54-18.899 17.54zM922.325 369.231h-41.999c-10.444 0-18.899-7.854-18.899-17.54v-38.949c0-9.673 8.455-17.527 18.899-17.527h41.999c10.444 0 18.899 7.854 18.899 17.527v38.949c0 9.686-8.455 17.54-18.899 17.54zM1044.243 369.231h-42.013c-10.444 0-18.899-7.854-18.899-17.54v-38.949c0-9.673 8.455-17.527 18.899-17.527h42.013c10.43 0 18.885 7.854 18.885 17.527v38.949c0 9.686-8.455 17.54-18.885 17.54z" />
<glyph unicode="&#xe908;" glyph-name="icon-facebook" horiz-adv-x="480" d="M110.785-64v568.025h-104.278v132.777h104.278v77.723c0 78.587 22.669 139.145 68.008 181.677s109.028 63.798 191.069 63.798c15.976 0 32.277-1.187 48.901-3.562s34.867-5.721 54.73-10.039l-16.192-140.549c-10.363 1.727-20.402 3.238-30.118 4.534s-21.050 1.943-34.004 1.943c-30.658 0-53.866-8.42-69.627-25.26s-23.641-41.020-23.641-72.541v-77.723h139.254v-132.777h-139.254v-568.025h-189.126z" />
<glyph unicode="&#xe909;" glyph-name="icon-check" horiz-adv-x="1260" d="M142.372 556.718l-142.377-189.836 551.919-413.94 708.092 836.836-181.148 153.279-563.564-666.031z" />
<glyph unicode="&#xe90a;" glyph-name="icon-add" horiz-adv-x="979" d="M611.876 570.376v367.128h-244.752v-367.128h-367.128v-244.752h367.128v-367.128h244.752v367.128h367.128v244.752h-367.128z" />
<glyph unicode="&#xe90b;" glyph-name="icon-helpcenter" d="M474.255 322.715c0.253 31.695 3.417 53.664 9.49 65.905s22.016 28.417 47.83 48.527c25.054 25.575 42.895 45.248 53.523 59.019s15.943 30.384 15.943 49.838c0 23.17-7.149 40.986-21.447 53.445s-34.733 18.689-61.305 18.689c-23.029 0-42.641-5.41-58.838-16.23s-24.294-26.722-24.294-47.707h-71.364l-1.139 1.967c-0.759 35.193 13.602 63.391 43.085 84.594s66.998 31.804 112.551 31.804c49.854 0 88.573-10.984 116.156-32.952s41.376-52.626 41.376-91.972c0-28.198-8.921-53.991-26.761-77.38s-41.44-47.324-70.795-71.807c-13.666-11.804-21.953-22.405-24.864-31.804s-4.365-24.045-4.365-43.936h-74.782zM551.693 188.283h-78.197v68.2h78.197v-68.2zM512.221 960c141.349 0 269.403-57.16 361.568-149.767 93.051-92.607 150.21-220.663 150.21-362.011s-57.16-269.403-150.21-362.011l-0.886-0.886c-92.165-91.721-220.219-149.324-360.682-149.324-141.791 0-269.403 57.603-362.454 150.21-92.165 92.607-149.767 220.663-149.767 362.011s57.16 268.961 149.767 362.011c93.051 92.607 220.663 149.767 362.454 149.767zM818.401 754.403c-78.872 78.428-186.987 127.169-306.181 127.169-120.080 0-228.639-48.74-306.623-126.726-78.428-78.428-127.169-186.987-127.169-306.623s48.74-227.753 127.169-306.181c78.428-78.428 186.987-127.169 306.623-127.169 119.193 0 227.753 48.74 306.181 127.169 77.985 77.985 126.726 186.545 126.726 306.181s-48.74 227.753-126.726 306.181v-0.001z" />
<glyph unicode="&#xe90c;" glyph-name="icon-arveldus" horiz-adv-x="981" d="M368.327 356.759h-103.070l-0.425-1.063c-0.567-19.552 5.206-36.588 17.32-51.11s28.583-21.783 49.409-21.783c8.076 0 16.080 0.602 24.014 1.807s15.585 3.010 22.952 5.42l4.037-33.364c-7.934-2.125-16.257-3.755-24.97-4.888s-17.391-1.7-26.033-1.7c-32.727 0-59.185 10.236-79.375 30.708s-30.284 45.797-30.284 75.974h-31.027v32.94h31.027v28.902h-31.027v32.94h31.027v3.188c0 34.569 10.023 62.16 30.071 82.774s46.435 30.92 79.161 30.92c8.358 0 16.682-0.567 24.97-1.7s17.108-2.762 26.459-4.888l-4.037-33.79c-7.651 2.267-15.479 4.073-23.483 5.419s-15.974 2.019-23.907 2.019c-20.685 0-37.084-7.297-49.197-21.889s-18.169-34.073-18.169-58.442v-3.613h104.557v-32.94h-104.557v-28.902h104.557v-32.94zM341.218 758.534l10.010 36.995c5.223 20.455 26.549 32.642 47.005 27.419 20.455-5.658 32.642-26.549 27.855-47.44l-10.445-37.429c28.725-9.575 56.58-21.327 83.128-34.818l20.021 34.383c10.445 18.28 33.948 24.808 52.227 13.927 18.715-10.881 24.808-34.383 14.363-52.663l-19.585-34.383c24.808-16.974 48.746-35.689 71.377-55.709l28.29 28.725c15.233 14.798 39.606 14.798 54.403 0 15.233-15.233 15.233-39.606 0-54.839l-28.29-28.29c20.021-22.632 38.735-46.569 55.274-71.377l34.383 19.585c18.715 10.881 42.218 4.353 53.098-13.927 10.445-18.28 4.353-42.218-14.363-52.663l-33.948-19.585c38.301-75.73 62.237-159.729 67.46-248.081h88.787c21.327 0 38.735-17.41 38.735-38.735v-145.801c0-21.327-17.41-38.735-38.735-38.735h-903.1c-21.761 0-39.171 17.41-39.171 38.735v928.344c0 21.327 17.41 38.735 39.171 38.735h172.786c21.327 0 38.735-17.41 38.735-38.735v-141.884c30.901-1.741 60.932-5.658 90.528-11.751v0zM77.469 137.463h699.848c-2.611 151.46-65.72 289.427-166.258 390.401-102.714 102.279-244.599 166.258-399.105 166.258-21.327 0-38.735 17.41-38.735 38.735v140.579h-95.751v-735.972zM815.183 90.893h-737.713v-68.331h826.5v68.331h-88.787z" />
<glyph unicode="&#xe90d;" glyph-name="icon-registries" horiz-adv-x="1210" d="M192.851 395.106v0c-13.574 0-25.277 11.234-25.277 25.277v300.512c0 14.043 11.702 25.277 25.277 25.277s24.808-11.234 24.808-25.277v-300.512c0-14.043-11.234-25.277-24.808-25.277zM140.425 132.509l-1.404 1.404c-14.043 15.447-23.405 35.575-23.405 58.042 0 23.405 9.362 44.468 24.808 59.915 14.979 14.979 36.043 24.808 59.447 24.808s44.468-9.83 59.915-24.808c14.979-14.979 24.808-36.51 24.808-59.915 0-22.936-9.83-44-24.808-59.447l-0.936-0.468c-15.447-14.979-36.043-24.341-58.979-24.341-23.405 0-44.468 9.83-59.447 24.808zM175.064 216.765v0c-5.617-6.085-9.83-14.979-9.83-24.808 0-8.894 3.745-16.851 9.362-22.936l0.468-0.936c6.553-6.085 14.979-10.298 24.808-10.298s18.256 3.745 24.808 10.298c5.617 6.085 9.83 14.511 9.83 23.872 0 9.83-4.213 18.723-9.83 24.808-6.553 6.085-14.979 9.83-24.808 9.83s-18.256-3.745-24.808-9.83zM878.13 227.998c0-23.405 9.362-44.468 24.808-59.447 15.447-15.447 36.51-24.808 59.447-24.808 23.405 0 44.468 9.362 59.915 24.808 14.979 14.979 24.808 36.043 24.808 59.447 0 22.468-8.894 43.064-23.405 58.042l-1.404 1.873c-15.447 14.979-36.51 24.808-59.915 24.808-22.936 0-44-9.83-59.447-24.808-15.447-15.447-24.808-36.51-24.808-59.915v0zM938.512 252.339c6.085 6.085 14.511 10.298 23.872 10.298 9.83 0 18.256-4.213 24.341-10.298l1.404-0.468c5.617-6.553 8.894-14.511 8.894-23.872s-3.745-18.256-10.298-24.341c-6.085-6.085-14.511-9.83-24.341-9.83-9.362 0-17.787 3.745-23.872 9.83-6.553 6.085-10.298 14.979-10.298 24.341 0 9.83 3.745 18.256 10.298 24.341v0zM978.767 918.426l225.617-841.619c5.617-22-7.489-44.937-29.49-50.553l-292.086-78.638c-22.468-5.617-45.404 7.489-51.022 29.49l-143.703 536.427v-525.66c0-22.936-18.723-41.659-41.659-41.659h-604.767c-22.936 0-41.659 18.723-41.659 41.659v871.109c0 22.936 18.723 41.659 41.659 41.659h604.767c14.511 0 27.617-7.489 34.639-18.723l246.682 66c22 6.085 44.937-7.021 51.022-29.49zM83.319 29.53h235.915v787.789h-235.915v-787.789zM369.32 29.53h235.448v787.789h-235.448v-787.789zM901.066 38.892l212.511 56.638-204.085 761.108-212.043-56.638 203.618-761.108zM494.766 107.701c23.872 0 44.937 9.83 59.915 24.808 14.979 15.447 25.277 36.51 25.277 59.447 0 22.468-9.362 43.064-23.872 58.511l-1.404 1.404c-14.979 14.979-36.043 24.808-59.915 24.808-22.936 0-44-9.83-59.447-24.808s-24.808-36.51-24.808-59.915c0-22.936 9.362-44 24.808-59.447 15.447-14.979 36.51-24.808 59.447-24.808v0zM470.894 216.765c6.085 6.085 14.511 9.83 23.872 9.83 9.83 0 18.723-3.745 24.808-9.83l0.936-0.936c5.617-6.553 9.362-14.511 9.362-23.872s-4.213-17.787-10.298-23.872c-6.085-6.085-14.979-10.298-24.808-10.298-9.362 0-17.787 4.213-23.872 10.298s-10.298 14.511-10.298 23.872c0 9.83 4.213 18.723 10.298 24.808v0zM494.766 395.106v0c-13.574 0-24.808 11.234-24.808 25.277v300.512c0 14.043 11.234 25.277 24.808 25.277 14.511 0 25.277-11.234 25.277-25.277v-300.512c0-14.043-10.766-25.277-25.277-25.277zM821.491 759.276v0c13.107 3.276 27.149-4.213 30.894-17.787l77.702-290.681c3.745-13.107-4.213-26.681-17.787-30.426-12.638-3.276-27.149 4.681-30.426 17.787l-77.702 290.681c-3.745 13.107 4.681 27.149 17.319 30.426z" />
<glyph unicode="&#xe90e;" glyph-name="icon-statistics" d="M206.171 589.486c35.2 0 66.286-24.229 75.428-57.142l91.885-26.972 87.771 142.629c11.886 19.2 36.571 25.143 55.772 13.714l1.829-0.914 149.942-103.314 119.771 211.199c-5.943 10.972-9.6 24.229-9.6 37.486 0 21.942 8.686 41.6 22.857 55.314 14.172 14.172 33.372 22.857 54.857 22.857 42.971 0 78.171-35.2 78.171-78.171 0-21.029-8.686-40.685-22.857-54.857-13.714-13.257-32.456-21.942-52.572-22.857l-140.8-247.771-2.743-4.114c-12.343-18.286-37.943-23.314-56.229-10.514l-151.314 103.771-53.943-87.771 53.028-15.542c4.571-1.371 8.686-3.657 12.8-6.4l172.799-126.628 92.343 14.172c11.886 28.342 40.229 47.543 71.314 47.543 21.486 0 41.143-8.686 55.314-22.4 14.172-14.629 22.857-33.829 22.857-55.314 0-42.514-35.2-77.714-78.171-77.714-21.486 0-40.685 8.686-54.857 22.857l-4.571 4.571-108.8-16.457c-10.057-1.371-21.029 0.914-29.714 7.313l-181.028 133.028-67.199 19.2-134.857-219.428c5.486-10.514 8.686-22.857 8.686-35.657 0-21.486-8.686-40.685-22.857-54.857s-33.372-22.857-55.314-22.857c-42.514 0-77.714 35.2-77.714 77.714 0 42.971 35.2 78.171 77.714 78.171l123.428 200.228-70.858 20.572c-13.714-12.8-31.999-20.572-52.572-20.572-42.514 0-77.714 35.657-77.714 78.171s35.2 77.714 77.714 77.714zM24.229-63.771h975.085c13.257 0 24.686 10.972 24.686 24.229 0 13.714-11.428 24.229-24.686 24.229h-950.399v950.399c0 13.714-10.972 24.686-24.686 24.686-13.257 0-24.229-10.972-24.229-24.686v-974.626c0-13.257 10.972-24.229 24.229-24.229z" />
<glyph unicode="&#xe90f;" glyph-name="uniE90F" horiz-adv-x="402" d="M201 960c110.648 0 200.348-89.699 200.348-200.348v-623.304c0-110.648-89.699-200.348-200.348-200.348s-200.348 89.699-200.348 200.348v623.304c0 110.648 89.699 200.348 200.348 200.348z" />
<glyph unicode="&#xe910;" glyph-name="icon-mult-select" horiz-adv-x="1182" d="M390.373 801.906v158.094h784.853v-158.094h-784.853zM6.774 801.103v158.897h163.712v-158.897h-163.712zM390.373 369.354v158.094h784.853v-158.094h-784.853zM6.774 368.552v158.897h163.712v-158.897h-163.712zM390.373-63.197v158.094h784.853v-158.094h-784.853zM6.774-64v158.897h163.712v-158.897h-163.712z" />
<glyph unicode="&#xe911;" glyph-name="icon-calendar" d="M984.565 960v0c21.712 0 39.435-17.724 39.435-39.435v-945.129c0-21.712-17.724-39.435-39.435-39.435h-945.129c-22.154 0-39.435 17.724-39.435 39.435v945.129c0 21.712 17.281 39.435 39.435 39.435h945.129zM78.872 14.87h866.257v636.289h-866.257v-636.289zM945.13 698.571v182.556h-77.543v-58.489c0-22.154-17.724-39.435-39.435-39.435s-39.435 17.281-39.435 39.435v58.489h-132.044v-58.489c0-22.154-17.281-39.435-38.993-39.435-22.154 0-39.435 17.281-39.435 39.435v58.489h-132.486v-58.489c0-22.154-17.281-39.435-39.435-39.435-21.268 0-38.993 17.281-38.993 39.435v58.489h-132.486v-58.489c0-22.154-17.724-39.435-38.993-39.435-22.154 0-39.879 17.281-39.879 39.435v58.489h-77.099v-182.556h866.257zM192.305 284.275c11.964-12.407 28.359-19.94 46.969-19.94s35.005 7.533 47.411 19.94c11.964 11.964 19.496 28.801 19.496 47.411 0 18.167-7.533 35.005-19.496 47.411-12.407 11.964-28.801 19.496-47.411 19.496s-35.005-7.533-46.969-19.496h-0.444c-12.407-12.407-19.496-29.245-19.496-47.411 0-18.61 7.090-35.448 19.496-47.411h0.444zM225.094 345.422l0.444 0.444c3.102 3.102 8.42 5.317 13.737 5.317s10.191-2.216 14.179-5.317c3.544-3.988 5.761-8.861 5.761-14.179 0-5.761-2.216-10.634-5.761-14.179-3.988-3.544-8.861-5.761-14.179-5.761s-10.634 2.216-13.737 5.761h-0.444c-3.544 3.544-5.761 8.42-5.761 14.179 0 5.317 2.216 10.191 5.761 13.737v0zM737.316 284.275c12.407-12.407 28.801-19.94 47.411-19.94 18.167 0 35.005 7.533 46.969 19.94 12.407 11.964 19.94 28.801 19.94 47.411 0 18.167-7.533 35.005-19.94 47.411-11.964 11.964-28.801 19.496-46.969 19.496-18.61 0-35.005-7.533-47.411-19.496h-0.444c-11.964-12.407-19.496-29.245-19.496-47.411 0-18.61 7.533-35.448 19.496-47.411h0.444zM770.548 345.422c3.544 3.544 8.42 5.761 14.179 5.761 5.317 0 10.191-2.216 13.737-5.317 3.988-3.988 5.761-8.861 5.761-14.179 0-5.761-1.773-10.634-5.761-14.179-3.544-3.544-8.42-5.761-13.737-5.761-5.761 0-10.634 2.216-14.179 5.761s-5.761 8.42-5.761 14.179c0 5.317 2.216 10.191 5.761 13.737v0zM192.305 105.706c11.964-11.964 28.359-19.496 46.969-19.496s35.005 7.533 47.411 19.496c11.964 11.964 19.496 28.801 19.496 47.411s-7.533 35.005-19.496 47.411c-12.407 11.964-28.801 19.94-47.411 19.94s-35.005-7.976-46.969-19.94h-0.444c-12.407-12.407-19.496-29.245-19.496-47.411 0-18.61 7.090-35.448 19.496-47.411h0.444zM225.094 166.853l0.444 0.444c3.102 3.544 8.42 5.761 13.737 5.761s10.191-2.216 14.179-5.761c3.544-3.544 5.761-8.861 5.761-14.179s-2.216-10.634-5.761-14.179c-3.988-3.544-8.861-5.317-14.179-5.317s-10.634 1.773-13.737 5.317h-0.444c-3.544 3.544-5.761 8.861-5.761 14.179s2.216 10.634 5.761 13.737v0zM373.532 105.706c12.407-11.964 29.245-19.496 47.411-19.496s35.448 7.533 47.411 19.496c12.407 11.964 19.94 28.801 19.94 47.411s-7.533 35.005-19.94 47.411c-11.964 11.964-29.245 19.94-47.411 19.94s-35.005-7.976-47.411-19.94c-11.964-12.407-19.496-29.245-19.496-47.411 0-18.61 7.533-35.448 19.496-47.411v0zM406.765 166.853l0.444 0.444c3.102 3.544 8.42 5.761 13.737 5.761 5.761 0 10.634-2.216 14.179-5.761 3.102-3.544 5.761-8.861 5.761-14.179s-2.659-10.634-5.761-14.179c-3.544-3.544-8.42-5.317-14.179-5.317-5.317 0-10.634 1.773-13.737 5.317h-0.444c-3.102 3.544-5.761 8.861-5.761 14.179s2.659 10.634 5.761 13.737v0zM737.316 462.4c12.407-11.964 28.801-19.496 47.411-19.496 18.167 0 35.005 7.533 46.969 19.496 12.85 12.407 19.94 28.801 19.94 47.411s-7.533 35.005-19.94 47.411c-11.964 11.964-28.801 19.496-46.969 19.496-18.61 0-35.005-7.533-47.411-19.496h-0.444c-11.964-12.407-19.496-28.801-19.496-47.411s7.533-35.005 19.496-47.411h0.444zM770.548 523.991c3.544 3.544 8.42 5.761 14.179 5.761 5.317 0 10.191-2.216 13.737-5.761 3.988-3.544 5.761-8.42 5.761-14.179 0-5.317-1.773-10.634-5.761-14.179-3.544-3.544-8.42-5.317-13.737-5.317-5.761 0-10.634 1.773-14.179 5.317s-5.761 8.861-5.761 14.179c0 5.761 2.216 10.634 5.761 14.179v0zM373.532 462.4c12.407-11.964 29.245-19.496 47.411-19.496 18.61 0 35.448 7.533 47.411 19.496 12.407 12.407 19.94 28.801 19.94 47.411s-7.533 35.005-19.94 47.411c-11.964 11.964-29.245 19.496-47.411 19.496s-35.005-7.533-47.411-19.496c-11.964-12.407-19.496-28.801-19.496-47.411s7.533-35.005 19.496-47.411v0zM406.765 523.991h0.444c3.102 3.544 8.42 5.761 13.737 5.761 5.761 0 10.634-2.216 14.179-5.761 3.102-3.544 5.761-8.42 5.761-14.179 0-5.317-2.659-10.634-5.761-14.179-3.544-3.544-8.861-5.317-14.179-5.317s-10.634 1.773-14.179 5.317c-3.102 3.544-5.761 8.861-5.761 14.179 0 5.761 2.659 10.634 5.761 14.179v0zM555.646 105.706c11.964-11.964 28.801-19.496 47.411-19.496 18.167 0 34.562 7.533 46.969 19.496h0.444c11.964 11.964 19.496 28.801 19.496 47.411s-7.533 35.005-19.496 47.411h-0.444c-12.407 11.964-28.801 19.94-46.969 19.94-18.61 0-35.448-7.976-47.411-19.94-12.407-12.407-19.94-29.245-19.94-47.411 0-18.61 7.533-35.448 19.94-47.411v0zM588.878 166.853c3.544 3.988 8.42 6.203 14.179 6.203 5.317 0 10.634-2.216 13.737-5.761l0.444-0.444c3.102-3.102 5.761-8.42 5.761-13.737s-2.659-10.634-5.761-14.179h-0.444c-3.102-3.544-8.42-5.317-13.737-5.317-5.761 0-10.634 1.773-14.179 5.317-3.988 3.544-5.761 8.861-5.761 14.179s1.773 10.634 5.761 13.737v0zM555.646 284.275c11.964-12.407 28.801-19.94 47.411-19.94 18.167 0 34.562 7.533 46.969 19.94h0.444c11.964 11.964 19.496 28.801 19.496 47.411 0 18.167-7.533 35.005-19.496 47.411h-0.444c-12.407 11.964-28.801 19.496-46.969 19.496-18.61 0-35.448-7.533-47.411-19.496-12.407-12.407-19.94-29.245-19.94-47.411 0-18.61 7.533-35.448 19.94-47.411v0zM588.878 345.422c3.544 3.544 8.42 5.761 14.179 5.761 5.317 0 10.634-2.216 13.737-5.317l0.444-0.444c3.102-3.544 5.761-8.42 5.761-13.737 0-5.761-2.659-10.634-5.761-14.179h-0.444c-3.102-3.544-8.42-5.761-13.737-5.761-5.761 0-10.634 2.216-14.179 5.761-3.988 3.544-5.761 8.42-5.761 14.179 0 5.317 1.773 10.191 5.761 13.737v0zM555.646 462.4c11.964-11.964 28.801-19.496 47.411-19.496 18.167 0 35.005 7.533 47.411 19.496 11.964 12.407 19.496 28.801 19.496 47.411s-7.533 35.005-19.496 47.411h-0.444c-12.407 11.964-28.801 19.496-46.969 19.496-18.61 0-35.448-7.533-47.411-19.496-12.407-12.407-19.94-28.801-19.94-47.411s7.533-35.005 19.94-47.411v0zM588.878 523.991c3.544 3.544 8.42 5.761 14.179 5.761 5.317 0 10.634-2.216 13.737-5.761h0.444c3.102-3.544 5.761-8.42 5.761-14.179 0-5.317-2.659-10.634-6.203-14.179-3.102-3.544-8.42-5.317-13.737-5.317-5.761 0-10.634 1.773-14.179 5.317-3.988 3.544-5.761 8.861-5.761 14.179 0 5.761 1.773 10.634 5.761 14.179v0zM373.532 284.275c12.407-12.407 29.245-19.94 47.411-19.94s35.448 7.533 47.411 19.94c12.407 11.964 19.94 28.801 19.94 47.411 0 18.167-7.533 35.005-19.94 47.411-11.964 11.964-29.245 19.496-47.411 19.496s-35.005-7.533-47.411-19.496c-11.964-12.407-19.496-29.245-19.496-47.411 0-18.61 7.533-35.448 19.496-47.411v0zM406.765 345.422l0.444 0.444c3.102 3.102 8.42 5.317 13.737 5.317 5.761 0 10.634-2.216 14.179-5.317 3.102-3.988 5.761-8.861 5.761-14.179 0-5.761-2.659-10.634-5.761-14.179-3.544-3.544-8.42-5.761-14.179-5.761-5.317 0-10.634 2.216-13.737 5.761h-0.444c-3.102 3.544-5.761 8.42-5.761 14.179 0 5.317 2.659 10.191 5.761 13.737v0z" />
<glyph unicode="&#xe912;" glyph-name="icon-clock" d="M511.779 960c141.791 0 269.847-57.603 362.011-150.21l2.215-2.215c91.721-92.608 147.995-219.777 147.995-359.796 0-141.348-57.603-269.404-150.21-362.011l-2.216-2.215c-92.164-91.278-219.334-147.552-359.796-147.552-140.905 0-268.961 57.16-362.011 149.767-92.608 92.608-149.767 220.663-149.767 362.011s57.16 268.961 149.767 362.011h0.443c92.608 92.608 220.663 150.21 361.568 150.21v0zM735.544 487.214h-184.329v313.27c0 21.712-17.724 39.436-39.436 39.436s-39.436-17.724-39.436-39.436v-352.706c0-21.712 17.724-39.436 39.436-39.436h223.765c21.712 0 39.436 17.724 39.436 39.436s-17.724 39.436-39.436 39.436v0zM818.403 753.959c-78.428 78.428-186.987 127.169-306.624 127.169s-227.753-48.741-306.181-126.726c-78.428-78.428-126.726-186.987-126.726-306.624s48.298-227.752 126.726-306.181c78.428-78.428 186.544-127.169 306.181-127.169 118.75 0 226.866 47.855 304.852 124.954l1.772 2.215c78.428 78.428 126.726 186.544 126.726 306.181 0 118.75-47.855 226.423-124.954 304.408l-1.772 1.772z" />
<glyph unicode="&#xe913;" glyph-name="icon-dropdown-triangle" horiz-adv-x="341" d="M-0.001 448l341.001 511.502v-1023.003z" />
<glyph unicode="&#xe914;" glyph-name="icon-cancel" d="M292.572 448c0-80.792-65.494-146.286-146.286-146.286s-146.286 65.494-146.286 146.286c0 80.792 65.494 146.286 146.286 146.286s146.286-65.494 146.286-146.286zM658.286 448c0-80.792-65.494-146.286-146.286-146.286s-146.286 65.494-146.286 146.286c0 80.792 65.494 146.286 146.286 146.286s146.286-65.494 146.286-146.286zM1024 448c0-80.792-65.494-146.286-146.286-146.286s-146.286 65.494-146.286 146.286c0 80.792 65.494 146.286 146.286 146.286s146.286-65.494 146.286-146.286z" />
<glyph unicode="&#xe915;" glyph-name="icon-exit" d="M969.818 905.818c54.181-54.181 54.181-142.026 0-196.208l-719.43-719.43c-54.181-54.181-142.026-54.181-196.208 0s-54.181 142.026 0 196.208l719.43 719.43c54.181 54.181 142.026 54.181 196.208 0zM969.818-9.819c-54.181-54.181-142.026-54.181-196.208 0l-719.43 719.43c-54.181 54.181-54.181 142.026 0 196.208s142.026 54.181 196.208 0l719.43-719.43c54.181-54.181 54.181-142.026 0-196.208z" />
<glyph unicode="&#xe916;" glyph-name="icon-drag-file" horiz-adv-x="673" d="M362.709-47.6l-2.080-2.080-2.080-1.664-4.161-2.911-2.911-1.247-4.575-1.664-3.744-0.833-3.327-0.417-2.497-0.417-4.161 0.417-2.911 0.417-3.327 0.833c-2.497 0.417-3.744 1.247-5.408 1.664l-2.080 1.247c-2.080 0.833-3.327 1.664-4.161 2.911l-2.497 1.664-2.080 2.080-296.153 295.739c-14.558 14.143-14.558 37.435 0 51.994s38.268 14.558 52.409 0l232.93-232.515 4.575 850.195c0 20.798 16.222 37.019 37.019 37.019 19.965 0 36.604-16.222 36.604-37.019l-4.575-850.195 232.93 232.515c14.558 14.558 37.435 14.558 51.994 0s14.558-37.851 0-51.994l-295.739-295.739zM337.336-58.831v0z" />
<glyph unicode="&#xe917;" glyph-name="icon-pause" d="M78.769 763.169v-630.337c0-65.164 52.886-118.062 118.062-118.062h630.337c65.164 0 118.062 52.886 118.062 118.062v630.337c0 65.164-52.886 118.062-118.062 118.062h-630.337c-65.164 0-118.062-52.886-118.062-118.062zM0 763.169c0 108.707 88.192 196.831 196.831 196.831h630.337c108.707 0 196.831-88.192 196.831-196.831v-630.337c0-108.707-88.192-196.831-196.831-196.831h-630.337c-108.707 0-196.831 88.192-196.831 196.831v630.337zM307.692 684.308h104.088c21.752 0 39.385-17.633 39.385-39.385v-396.659c0-21.752-17.633-39.385-39.385-39.385h-104.088c-21.752 0-39.385 17.633-39.385 39.385v396.659c0 21.752 17.633 39.385 39.385 39.385zM622.769 684.308h104.088c21.752 0 39.385-17.633 39.385-39.385v-396.659c0-21.752-17.633-39.385-39.385-39.385h-104.088c-21.752 0-39.385 17.633-39.385 39.385v396.659c0 21.752 17.633 39.385 39.385 39.385z" />
<glyph unicode="&#xe918;" glyph-name="icon-status-disabled" d="M511.682 959.997c282.881 0 511.999-230.4 511.999-511.999 0-141.44-56.961-269.441-149.76-362.24l-3.2-2.559c-92.16-90.88-218.881-147.2-359.039-147.2-281.601 0-511.36 229.759-511.36 511.999 0 141.44 56.961 269.441 149.76 361.601l2.559 3.2c92.801 90.88 219.519 147.2 359.039 147.2zM193.601 209.915l556.8 556.8c-66.56 49.919-149.121 79.361-238.719 79.361-108.16 0-207.359-43.521-278.401-113.919l-2.559-3.2c-72.319-71.681-117.12-170.88-117.12-280.96 0-88.96 30.081-172.16 80-238.081zM830.403 686.076l-556.8-556.8c66.56-49.919 149.121-79.361 238.081-79.361 108.801 0 208 43.521 279.681 113.919l2.559 2.559c71.681 71.681 116.481 171.521 116.481 281.601 0 88.96-30.081 171.521-80 238.081z" />
<glyph unicode="&#xe919;" glyph-name="icon-i" d="M607.836-63.999h-191.672v710.234h191.672v-710.234zM607.836 816.248h-191.672v143.752h191.672v-143.752z" />
<glyph unicode="&#xe91a;" glyph-name="icon-status-warn" horiz-adv-x="1056" d="M630.683 289.055h-205.363v670.945h205.363v-670.945zM630.683-64h-205.363v180.044h205.363v-180.044z" />
<glyph unicode="&#xe91b;" glyph-name="icon-status-error" horiz-adv-x="1056" d="M434.814 289.056h-205.363v670.944h205.363v-670.944zM434.814-64h-205.363v180.044h205.363v-180.044zM826.55 289.056h-205.363v670.944h205.363v-670.944zM826.55-64h-205.363v180.044h205.363v-180.044z" />
<glyph unicode="&#xe91c;" glyph-name="icon-change-icon" horiz-adv-x="1229" d="M1168.020 960h-1107.559c-25.431 0-45.673-20.76-45.673-46.192v-931.616c0-25.431 20.241-46.192 45.673-46.192h1107.559c25.431 0 46.192 20.76 46.192 46.192v931.616c0 25.431-20.76 46.192-46.192 46.192v0zM1121.828 28.383h-1014.657v101.206l237.705 237.705 165.563-165.563 98.092-97.574c10.899-10.899 28.026-10.899 38.925 0 10.899 10.38 10.899 28.026 0 38.925l-78.889 78.889 223.691 223.691 329.569-329.569v-87.713zM1121.828 194.466l-309.846 309.846c-10.899 10.899-28.545 10.899-38.925 0l-243.414-243.414-165.044 165.563c-10.899 10.38-28.545 10.38-39.444 0l-217.983-218.501v659.657h1014.657v-673.151zM362.523 496.527c88.231 0 160.892 72.661 160.892 160.892s-72.661 160.892-160.892 160.892c-88.231 0-160.892-72.661-160.892-160.892s72.661-160.892 160.892-160.892v0zM362.523 762.777c58.128 0 105.358-47.23 105.358-105.358s-47.23-105.358-105.358-105.358c-58.128 0-105.358 47.23-105.358 105.358s47.23 105.358 105.358 105.358v0z" />
<glyph unicode="&#xe91d;" glyph-name="icon-close" d="M512 960c141.44 0 269.44-57.6 361.6-149.76 93.44-92.8 150.4-220.8 150.4-362.24s-56.96-269.44-149.76-362.24l-3.2-2.56c-92.16-90.88-219.52-147.2-359.040-147.2-140.8 0-268.8 57.6-361.6 149.76-92.8 92.8-150.4 220.8-150.4 362.24s57.6 269.44 150.4 362.24l2.56 2.56c92.8 90.88 219.52 147.2 359.040 147.2zM647.040 663.040l-135.040-134.4-134.4 134.4c-22.4 22.4-58.24 22.4-80.64 0s-22.4-58.24 0-80.64l135.040-134.4-135.040-134.4c-22.4-22.4-22.4-58.24 0-80.64 22.4-21.76 58.24-21.76 80.64 0l134.4 134.4 135.040-134.4c21.76-22.4 58.24-22.4 80 0 22.4 22.4 22.4 58.24 0 80.64l-134.4 134.4 134.4 135.040c22.4 21.76 22.4 58.24 0 80-21.76 22.4-58.24 22.4-80 0zM793.6 729.6c-71.68 72.32-171.52 117.12-281.6 117.12-108.8 0-207.36-44.16-279.040-114.56l-2.56-2.56c-71.68-72.32-116.48-171.52-116.48-281.6s44.8-209.28 116.48-281.6c72.32-71.68 171.52-116.48 281.6-116.48 108.8 0 207.36 43.52 279.040 113.92l2.56 2.56c72.32 72.32 117.12 171.52 117.12 281.6s-44.8 209.28-117.12 281.6z" />
<glyph unicode="&#xe91e;" glyph-name="icon-color" horiz-adv-x="1085" d="M941.568 774.322c-85.911 98.382-206.463 164.893-345.49 177.826-84.525 7.852-171.821-6.928-251.265-39.722s-151.498-84.063-206.463-149.651c-67.897-80.83-110.852-182.445-122.399-289.141-11.085-101.153 6.466-206.463 58.197-302.535 26.328-48.96 60.507-91.453 98.382-126.095 41.107-37.874 86.834-66.050 130.252-82.216 34.641-12.933 72.516-21.247 111.315-23.556 54.040-3.233 109.467 4.157 156.579 25.865 50.346 22.632 91.453 60.969 112.238 116.396 7.852 20.784 12.471 43.417 14.318 68.359 1.848 32.332 7.39 52.655 15.242 64.202 3.695 5.081 8.776 7.39 14.781 7.852 21.708 1.385 55.427-12.009 90.068-25.865l21.708-8.776 1.848-0.461c94.686-36.95 155.194-23.095 194.453 24.48 34.18 42.031 44.803 109.005 44.803 188.911 0 142.722-51.731 274.821-138.565 374.127zM971.59 263.015c-14.781-18.938-46.188-21.708-101.615 0l-0.924 0.461-21.708 8.314c-42.955 17.551-84.987 34.641-125.171 31.87-30.484-1.848-57.273-14.318-77.135-43.417-16.166-23.095-26.328-56.812-29.561-105.31-0.924-16.628-4.157-31.408-9.238-44.341-12.471-33.717-37.874-56.812-69.745-71.13-34.18-15.704-75.75-21.247-117.318-18.475-30.484 1.848-60.507 8.314-87.296 18.014-34.641 12.933-70.669 36.027-103.924 66.511-31.408 28.175-59.584 63.278-81.753 104.386-43.417 80.83-58.197 169.512-48.96 255.422 9.7 89.606 46.651 175.978 103.924 244.799 46.188 55.427 107.619 98.843 174.593 126.557 67.897 28.175 141.799 40.646 212.93 33.717 116.857-10.623 218.472-66.511 291.45-149.651 73.902-84.987 117.781-198.149 117.781-320.548 0-62.817-6.005-112.7-26.328-137.18zM485.226 638.066c0 31.408-12.933 60.507-33.717 80.83-20.784 21.247-49.422 34.18-81.292 34.18-30.946 0-59.121-12.471-79.907-32.332l-1.385-1.848c-20.784-20.323-33.717-49.422-33.717-80.83 0-31.87 12.933-60.507 33.717-81.753 20.784-20.323 49.422-33.256 81.292-33.256s60.507 12.933 81.292 33.256c20.784 21.247 33.717 49.884 33.717 81.753zM416.866 591.416c-12.009-12.009-28.637-19.399-46.651-19.399-18.475 0-34.641 7.39-46.651 18.938-12.009 12.009-19.399 28.637-19.399 47.112 0 18.014 7.39 34.18 19.399 46.188l0.924 1.385c12.009 11.085 27.713 18.014 45.727 18.014s34.641-7.39 46.651-18.938c11.547-12.009 18.938-28.637 18.938-46.651 0-18.475-7.39-35.104-18.938-46.651zM759.586 701.344c0 31.408-12.471 60.045-33.717 80.83-20.784 20.784-49.422 34.18-81.292 34.18-31.408 0-60.507-13.394-81.292-34.18s-33.717-49.422-33.717-80.83c0-31.87 12.933-60.969 33.717-81.753s49.884-33.717 81.292-33.717c31.87 0 60.507 12.933 81.292 33.717 21.247 20.784 33.717 49.884 33.717 81.753zM691.226 654.694c-12.009-12.009-28.637-19.399-46.651-19.399s-34.641 7.39-46.651 19.399c-11.547 12.009-18.938 28.175-18.938 46.651 0 17.551 7.39 34.18 18.938 46.188 12.009 12.009 28.637 19.399 46.651 19.399s34.641-7.39 46.651-19.399c12.009-12.009 19.399-28.637 19.399-46.188 0-18.475-7.39-34.641-19.399-46.651zM484.763 329.989c-61.893 0-112.7-50.807-112.7-112.7s50.807-112.7 112.7-112.7c61.43 0 112.7 50.807 112.7 112.7s-50.807 112.7-112.7 112.7zM484.763 186.804c-17.090 0-30.946 13.394-30.946 30.484s13.857 30.946 30.946 30.946c16.628 0 30.484-14.318 30.484-30.946 0-17.090-13.857-30.484-30.484-30.484zM742.496 590.954c-20.784-20.784-33.717-49.422-33.717-81.292 0-31.408 12.933-60.507 33.717-81.292s49.422-33.717 81.292-33.717c31.87 0 60.507 12.933 81.292 33.717s33.717 49.884 33.717 81.292c0 31.87-12.933 60.507-33.717 81.292s-49.422 34.18-81.292 34.18c-31.87 0-60.507-13.394-81.292-34.18zM889.837 509.663c0-18.014-7.39-34.641-19.399-46.651-12.009-11.547-28.637-18.938-46.651-18.938s-34.641 7.39-46.188 18.938c-12.009 12.009-19.399 28.637-19.399 46.651 0 18.475 7.39 34.641 19.399 46.651 11.547 12.009 28.175 19.399 46.188 19.399s34.641-7.39 46.651-19.399c12.009-12.009 19.399-28.175 19.399-46.651zM253.821 516.129c-30.946 0-59.121-12.471-79.444-32.332l-1.385-1.385c-21.247-20.784-33.717-49.422-33.717-81.292s12.471-60.507 33.717-81.292c20.784-20.784 49.422-33.717 80.83-33.717 31.87 0 60.969 12.933 81.753 33.717s33.717 49.422 33.717 81.292c0 31.87-12.933 60.507-33.717 81.292s-49.884 33.717-81.753 33.717zM300.471 354.469c-11.547-12.009-28.175-19.399-46.651-19.399-18.014 0-34.641 7.39-46.188 19.399-12.009 12.009-19.399 28.637-19.399 46.651s7.39 34.641 19.399 46.651l0.924 0.924c12.009 11.085 27.713 18.014 45.265 18.014 18.475 0 35.104-7.39 46.651-18.938 12.009-12.009 19.399-28.637 19.399-46.651s-7.39-34.641-19.399-46.651z" />
<glyph unicode="&#xe91f;" glyph-name="icon-share-data" horiz-adv-x="811" d="M518.814 180.56l-147.614 115.92-1.302-1.737-2.17-2.17c-39.074-37.772-92.475-61.216-150.652-61.216-59.914 0-114.617 24.312-153.257 63.386l-2.17 2.17c-38.206 39.074-61.651 92.475-61.651 151.086 0 59.914 24.312 113.749 63.821 152.823 38.64 39.509 93.343 63.821 153.257 63.821 59.479 0 113.749-24.312 152.823-63.386l1.302-1.737 147.614 115.92c-13.459 23.010-20.84 49.494-20.84 77.714 0 42.981 17.367 82.056 45.586 110.71 28.654 28.22 67.728 45.586 111.144 45.586 42.981 0 82.056-17.367 110.275-45.586 28.654-28.654 46.021-67.728 46.021-110.71 0-43.416-17.367-82.49-46.021-110.71-28.22-28.654-67.294-46.021-110.275-46.021-41.679 0-79.885 16.498-107.67 42.547l-147.179-115.485c21.274-33.43 33.43-72.938 33.43-115.485s-12.157-82.056-33.43-115.485l147.179-115.485c27.786 26.049 65.991 42.547 107.67 42.547 42.981 0 82.056-17.367 110.275-46.021 28.654-28.22 46.021-67.294 46.021-110.71 0-42.981-17.367-82.056-46.021-110.275-28.22-28.654-67.294-46.021-110.275-46.021-43.416 0-82.49 17.367-111.144 46.021-28.22 28.22-45.586 67.294-45.586 110.275 0 28.22 7.38 54.704 20.84 77.714v0zM710.71 159.286c-14.327 14.327-34.299 23.010-56.006 23.010-22.142 0-42.114-8.683-56.441-23.010s-23.444-34.299-23.444-56.441c0-21.707 9.117-41.679 23.444-56.006s34.299-23.444 56.441-23.444c21.707 0 41.679 9.117 56.006 23.444s23.444 34.299 23.444 56.006c0 22.142-9.117 42.114-23.444 56.441v0zM315.194 546.554c-24.747 25.181-59.914 40.811-98.12 40.811-38.64 0-73.806-15.63-98.988-40.811s-40.811-59.914-40.811-98.553c0-37.772 14.762-72.070 39.074-97.251l1.737-1.302c25.181-25.181 60.348-40.811 98.988-40.811 37.337 0 71.636 15.195 96.817 39.074l1.302 1.737c25.181 25.181 41.245 60.348 41.245 98.553 0 37.772-15.195 72.070-39.509 97.251l-1.737 1.302zM710.71 849.161c-14.327 14.327-34.299 23.444-56.006 23.444-22.142 0-42.114-9.117-56.441-23.444s-23.444-34.299-23.444-56.006c0-22.142 9.117-42.114 23.444-56.441s34.299-23.010 56.441-23.010c21.707 0 41.679 8.683 56.006 23.010s23.444 34.299 23.444 56.441c0 21.707-9.117 41.679-23.444 56.006v0z" />
<glyph unicode="&#xe920;" glyph-name="icon-auto-data" horiz-adv-x="1122" d="M676.6 246.181h-79.658v137.459c0 14.571-11.657 26.228-26.228 26.228-14.085 0-25.743-11.657-25.743-26.228v-163.201c0-14.571 11.657-26.228 25.743-26.228h105.886c14.571 0 25.743 11.657 25.743 26.228 0 14.085-11.171 25.743-25.743 25.743zM1069.061 524.985c-25.743 30.6-59.743 54.4-98.601 68.001-8.257 92.286-49.058 175.344-111.23 237.517-68.972 68.972-164.66 112.201-271.030 112.201-77.23 0-149.602-23.315-210.316-63.144-55.372-36.429-100.544-86.944-130.66-146.201-66.058-9.715-124.829-41.771-168.545-87.915-48.572-51.971-78.685-121.915-78.685-198.658 0-159.316 129.687-289.489 288.516-290.46h22.83c11.657-48.086 36.915-91.314 70.43-124.829 48.572-48.572 115.6-78.2 188.945-78.2 73.829 0 140.374 29.63 188.945 78.2 34 33.515 58.772 76.745 70.914 124.829h70.914c121.915 1.943 220.516 102.001 220.516 224.402 0 54.4-19.914 104.916-52.943 144.259zM723.23 67.924c-39.344-38.858-92.772-63.144-152.515-63.144-59.259 0-113.172 24.285-152.030 63.144-39.344 38.858-63.144 92.772-63.144 152.515 0 59.259 23.799 113.172 63.144 152.030l0.971 0.971c38.858 38.371 92.286 61.686 151.059 61.686 59.743 0 113.172-23.799 152.515-62.659l0.971-1.457c38.371-38.858 62.171-91.8 62.171-150.574 0-59.743-24.285-113.659-63.144-152.515zM900.518 242.781h-63.63c-5.343 63.63-33.515 121.43-75.773 164.66l-1.457 1.457c-48.572 48.572-115.115 78.2-188.945 78.2-72.858 0-138.915-29.144-187.001-76.745l-1.943-1.457c-43.229-43.229-71.4-101.515-76.745-166.116h-15.057c-112.687 0-204.002 91.314-204.002 204.002 0 53.915 21.372 103.459 55.372 139.886 34.486 36.429 82.087 60.229 135.030 63.63 16.515 0.486 32.057 10.2 38.858 25.743 23.315 54.4 61.686 100.059 109.772 131.63 46.629 30.6 102.972 48.572 163.201 48.572 82.087 0 156.401-33.029 210.316-86.944 53.429-53.915 86.944-128.229 86.944-209.83 0-20.887 15.057-39.344 35.944-42.743 32.542-5.828 61.686-22.83 82.087-47.115 20.4-23.799 32.542-54.886 32.542-88.886 0-74.801-61.2-136.974-135.516-137.944z" />
<glyph unicode="&#xe921;" glyph-name="icon-phone" d="M243.749 922.586l149.223-191.672 2.188-3.064c7.002-9.628 11.815-20.13 14.879-31.070 3.064-11.815 3.938-24.506 2.188-37.634-2.188-13.128-6.126-24.944-12.69-35.884l-1.313-2.188c-6.564-10.065-14.879-18.379-24.506-25.382l-2.188-1.751-72.643-52.951c-4.376-10.503-10.065-33.258 10.065-61.703 31.946-46.387 67.392-88.397 106.776-127.781s81.833-74.831 127.343-106.776c28.444-19.692 51.638-14.441 62.14-10.065l54.7 74.831c7.439 10.941 16.629 19.254 27.569 25.818s22.756 10.941 35.884 12.69h1.313c12.69 1.751 24.944 0.875 36.321-2.188l2.188-0.875c11.377-3.064 21.88-8.752 31.508-16.192l195.172-151.412c9.628-8.315 17.505-17.942 23.193-28.882 6.126-12.253 9.628-25.382 10.503-39.385 0.438-14.003-1.751-27.569-7.002-40.259-4.813-12.69-12.69-23.631-23.193-33.695-12.69-11.377-27.569-23.631-45.949-34.571l-2.188-1.313c-17.942-10.065-38.51-20.13-63.015-28.007-105.463-35.008-217.928-28.444-326.017 7.439-114.653 38.072-224.054 109.402-314.202 199.111-90.147 90.147-161.477 199.549-199.549 314.202-35.884 108.089-42.448 220.554-7.002 326.017 8.315 25.382 18.379 46.824 29.32 65.203s22.756 33.695 34.571 45.949c9.628 10.503 21.005 18.379 33.695 23.193l3.064 1.313c11.377 4.376 24.069 6.126 36.759 5.689 14.441-0.875 27.569-4.376 39.823-10.503l1.751-0.875 29.32-25.382zM331.708 683.216l-149.223 191.672c-1.313 2.188-3.064 3.501-4.376 4.813l-1.313 0.438c-1.751 0.875-4.376 1.313-7.002 1.751-2.626 0-4.376-0.438-6.564-0.875l-1.313-0.438c-1.751-0.875-3.938-2.188-5.689-4.376-8.315-8.752-16.629-19.692-24.944-33.258s-16.192-30.195-22.318-49.012c-29.757-88.397-24.069-184.67 7.002-277.88 34.133-101.962 98.899-201.299 181.169-283.131 81.833-82.27 180.731-146.598 283.131-180.731 93.21-31.070 189.046-36.759 277.88-7.439 18.379 6.126 34.133 13.566 47.261 21.443l1.751 0.875c13.566 8.315 24.506 17.067 33.258 24.944 1.751 1.751 3.501 3.938 4.376 6.126s1.313 4.813 0.875 7.439c0 2.626-0.438 5.251-1.751 7.439-0.438 1.313-1.751 3.064-3.064 4.376l-1.751 0.875-192.11 149.223c-1.313 1.313-3.064 2.626-4.813 3.064l-1.313 0.438c-1.751 0.438-3.938 0.438-6.126 0h-0.875c-2.188 0-4.376-0.875-6.126-2.188-2.188-0.875-3.501-2.626-5.251-4.813l-58.639-80.082c-3.501-4.813-7.439-9.19-12.69-12.253 0 0-68.705-49.012-152.287 9.628-50.325 35.008-96.274 73.518-138.284 115.090-42.010 42.448-80.52 88.397-115.090 138.284-58.639 83.582-10.065 152.287-10.065 152.287 3.064 4.376 6.564 8.315 10.941 11.377l79.207 58.202 2.626 1.751c1.751 1.313 3.064 3.064 3.938 3.938l0.875 1.313c1.313 1.751 1.751 3.938 2.188 6.564s0.438 4.813-0.438 7.002c-0.438 1.313-0.875 3.064-2.188 4.376l-0.875 1.751z" />
<glyph unicode="&#xe922;" glyph-name="icon-mail" horiz-adv-x="1293" d="M49.792 952.669h1.119zM1243.207 952.669c27.415 0 49.795-22.38 49.795-49.795v-909.747c0-27.415-22.38-49.795-49.795-49.795h-1193.415c-27.415 0-49.795 22.38-49.795 49.795v909.747c0 27.415 22.38 49.795 49.795 49.795v0 0zM1193.971 809.996l-526.489-525.931c-11.19-11.19-30.213-11.19-41.962 0l-525.931 525.931v-767.075h1094.383v767.075zM1152.568 853.637h-1012.136l506.347-506.347 505.788 506.347z" />
<glyph unicode="&#xe923;" glyph-name="uniE923" horiz-adv-x="1237" d="M39.31 736.048h942.343c21.648 0 39.319-17.672 39.319-39.319v-718.354c0-21.648-17.672-39.319-39.319-39.319h-942.343c-21.648 0-39.319 17.672-39.319 39.319v718.354c0 21.648 17.672 39.319 39.319 39.319v0zM942.775 623.391l-415.726-415.285c-8.835-8.835-23.857-8.835-33.134 0l-415.285 415.285v-605.697h864.146v605.697zM910.082 657.851h-799.202l399.822-399.822 399.38 399.822z" />
<glyph unicode="&#xe924;" glyph-name="uniE924" d="M341.333 960h341.333c188.513 0 341.333-152.82 341.333-341.333v-341.333c0-188.513-152.82-341.333-341.333-341.333h-341.333c-188.513 0-341.333 152.82-341.333 341.333v341.333c0 188.513 152.82 341.333 341.333 341.333z" />
<glyph unicode="&#xe925;" glyph-name="uniE925" d="M341.333 960h341.333c188.513 0 341.333-152.82 341.333-341.333v-341.333c0-188.513-152.82-341.333-341.333-341.333h-341.333c-188.513 0-341.333 152.82-341.333 341.333v341.333c0 188.513 152.82 341.333 341.333 341.333z" />
<glyph unicode="&#xe926;" glyph-name="arrow_up" horiz-adv-x="1658" d="M984.615 819.898l641.809-641.809c28.666-28.666 28.249-74.784-0.453-103.486l-79.126-79.126c-28.784-28.784-75.034-28.905-103.486-0.453l-613.9 613.9-613.9-613.9c-28.666-28.666-74.784-28.249-103.486 0.453l-79.126 79.126c-28.784 28.784-28.905 75.034-0.453 103.486l641.766 641.766c3.48 10.928 9.581 21.227 18.28 29.926l79.126 79.126c15.826 15.826 36.932 22.987 57.456 21.498 20.763 1.696 42.146-5.516 58.128-21.498l79.126-79.126c8.692-8.692 14.77-18.976 18.237-29.883z" />
<glyph unicode="&#xe927;" glyph-name="arrow_down" horiz-adv-x="1658" d="M673.29 76.102l-641.809 641.809c-28.666 28.666-28.249 74.784 0.453 103.486l79.126 79.126c28.784 28.784 75.034 28.905 103.486 0.453l613.9-613.9 613.9 613.9c28.666 28.666 74.784 28.249 103.486-0.453l79.126-79.126c28.784-28.784 28.905-75.034 0.453-103.486l-641.766-641.766c-3.48-10.928-9.581-21.227-18.28-29.926l-79.126-79.126c-15.826-15.826-36.932-22.987-57.456-21.498-20.763-1.696-42.146 5.516-58.128 21.498l-79.126 79.126c-8.692 8.692-14.77 18.976-18.237 29.883z" />
<glyph unicode="&#xe928;" glyph-name="triangle_up_arrow" horiz-adv-x="2731" d="M1365.333 960l1365.333-1024h-2730.667z" />
<glyph unicode="&#xe929;" glyph-name="triangle_down_arrow" horiz-adv-x="2731" d="M1365.333-64l1365.333 1024h-2730.667z" />
<glyph unicode="&#xe92a;" glyph-name="refresh" d="M216.747 460.516c-2.276-32.996-30.72-58.027-63.716-55.751-31.778 1.293-57.050 27.368-57.050 59.346 0 1.538 0.058 3.062 0.173 4.57l-0.012-0.201c1.138 13.653 2.276 27.307 4.551 40.96 2.276 14.791 5.689 28.444 9.102 40.96l1.138 3.413c3.413 11.378 6.827 23.893 11.378 36.409 5.689 13.653 10.24 26.169 17.067 38.684l1.138 3.413 18.204 32.996c6.827 10.24 14.791 22.756 23.893 34.133l1.138 2.276 26.169 30.72 1.138 1.138c9.102 9.102 18.204 19.342 29.582 28.444 10.24 9.102 21.618 19.342 34.133 27.307 11.378 9.102 23.893 17.067 36.409 23.893 13.653 7.964 26.169 14.791 38.684 20.48 12.516 4.551 26.169 10.24 42.098 15.929 12.516 4.551 27.307 7.964 40.96 11.378h1.138c14.791 3.413 28.444 5.689 40.96 6.827 11.378 2.276 26.169 3.413 40.96 3.413h1.138c13.653 0 28.444 0 40.96-1.138s27.307-2.276 40.96-4.551 27.307-5.689 39.822-9.102c12.516-3.413 26.169-6.827 39.822-12.516 13.653-4.551 26.169-10.24 38.684-15.929 11.378-5.689 23.893-12.516 36.409-20.48 12.516-6.827 23.893-14.791 34.133-23.893h1.138v36.409c2.020 32.040 28.5 57.261 60.871 57.261s58.851-25.221 60.862-57.085l0.009-0.176v-195.698c0-32.996-27.307-60.302-61.44-60.302h-194.56c-32.040 2.020-57.261 28.5-57.261 60.871s25.221 58.851 57.085 60.862l0.176 0.009h63.716l-2.276 1.138-25.031 17.067c-7.964 5.689-18.204 10.24-27.307 14.791s-18.204 9.102-27.307 11.378l-28.444 9.102c-9.102 3.413-19.342 5.689-29.582 6.827l-29.582 3.413-30.72 1.138c-7.964-1.138-18.204-1.138-29.582-3.413l-27.307-3.413-2.276-1.138c-10.24-2.276-20.48-4.551-29.582-7.964-9.102-2.276-18.204-6.827-29.582-12.516-10.24-4.551-19.342-7.964-27.307-13.653-9.102-4.551-18.204-11.378-27.307-17.067-7.964-5.689-17.067-12.516-25.031-19.342-6.827-6.827-14.791-13.653-21.618-21.618s-13.653-15.929-18.204-22.756l-1.138-1.138c-5.689-6.827-11.378-15.929-17.067-25.031l-13.653-23.893-1.138-2.276c-4.551-10.24-7.964-19.342-11.378-28.444l-9.102-27.307c-2.276-10.24-5.689-20.48-5.689-29.582-2.276-9.102-3.413-19.342-4.551-29.582zM837.973 417.28c2.276 32.996 31.858 58.027 64.853 55.751 32.996-1.138 59.164-30.72 56.889-63.716-1.138-13.653-3.413-27.307-5.689-40.96-2.276-14.791-4.551-28.444-9.102-40.96-2.276-12.516-6.827-25.031-12.516-39.822-4.551-13.653-10.24-26.169-15.929-38.684s-12.516-23.893-19.342-36.409c-7.964-12.516-15.929-23.893-23.893-34.133l-4.551-4.551c-7.964-10.24-15.929-20.48-22.756-28.444-9.102-10.24-19.342-19.342-30.72-29.582s-22.756-19.342-34.133-27.307l-4.551-3.413c-11.378-6.827-21.618-14.791-32.996-20.48l-5.689-3.413c-11.378-6.827-21.618-12.516-32.996-17.067-13.653-5.689-27.307-11.378-40.96-15.929l-3.413-1.138c-11.378-3.413-23.893-6.827-37.547-10.24-14.791-3.413-29.582-5.689-42.098-6.827-12.516-2.276-26.169-3.413-40.96-3.413h-1.138c-14.791 0-28.444 0-40.96 1.138-13.653 0-27.307 2.276-40.96 4.551l-40.96 9.102h-2.276c-12.516 3.413-25.031 7.964-37.547 12.516-13.653 4.551-26.169 10.24-37.547 15.929l-3.413 2.276c-11.378 4.551-21.618 11.378-32.996 18.204-12.516 7.964-25.031 14.791-35.271 23.893h-1.138v-36.409c0-34.133-26.169-60.302-60.302-60.302-32.996 0-60.302 26.169-60.302 60.302v194.56c0 34.133 27.307 61.44 60.302 61.44h194.56c32.040-2.020 57.261-28.5 57.261-60.871s-25.221-58.851-57.085-60.862l-0.176-0.009h-62.578l2.276-1.138c9.102-6.827 17.067-12.516 25.031-17.067s15.929-10.24 23.893-13.653l2.276-1.138 28.444-12.516 25.031-7.964h2.276l29.582-6.827c10.24-1.138 19.342-3.413 29.582-3.413l30.72-1.138c9.102 0 18.204 1.138 29.582 2.276 11.378 2.276 21.618 3.413 29.582 5.689 7.964 1.138 18.204 4.551 28.444 7.964h2.276c10.24 3.413 19.342 7.964 28.444 11.378l25.031 12.516 3.413 2.276 22.756 13.653 4.551 3.413 25.031 19.342 20.48 21.618 17.067 19.342 2.276 3.413 17.067 26.169c5.689 7.964 10.24 15.929 14.791 26.169 4.551 9.102 9.102 18.204 12.516 27.307 2.276 7.964 5.689 17.067 9.102 28.444 2.276 10.24 4.551 19.342 5.689 29.582l3.413 29.582z" />
<glyph unicode="&#xe92b;" glyph-name="add-company-01" horiz-adv-x="992" d="M730.72 242.496h112.384v-48.288h-112.384v-126.912h-51.488v126.944h-112.384v48.288h112.384v117.152h51.488v-117.216zM32 960h892.576c17.673 0 32-14.327 32-32v0-77.248c0-17.673-14.327-32-32-32v0h-892.576c-17.673 0-32 14.327-32 32v0 77.248c0 17.673 14.327 32 32 32v0zM32 712.832h892.576c17.673 0 32-14.327 32-32v0-77.248c0-17.673-14.327-32-32-32v0h-892.576c-17.673 0-32 14.327-32 32v0 77.248c0 17.673 14.327 32 32 32v0zM32 465.664h325.728c17.673 0 32-14.327 32-32v0-77.248c0-17.673-14.327-32-32-32v0h-325.728c-17.673 0-32 14.327-32 32v0 77.248c0 17.673 14.327 32 32 32v0zM708.576-64c-156.544 0-283.424 126.464-283.424 282.496 0 156 126.88 282.464 283.424 282.464s283.424-126.464 283.424-282.464c0-156.032-126.88-282.496-283.424-282.496zM708.576 6.624c117.408 0 212.576 94.848 212.576 211.84 0 117.024-95.168 211.872-212.576 211.872s-212.576-94.848-212.576-211.84c0-117.024 95.168-211.872 212.576-211.872z" />
<glyph unicode="&#xe92c;" glyph-name="add-company-02" horiz-adv-x="1161" d="M283.477 242.722h160.256c18.851 0 34.133-15.282 34.133-34.133v0-16.282c0-18.851-15.282-34.133-34.133-34.133v0h-160.256v-188.041c0-18.851-15.282-34.133-34.133-34.133v0h-20.821c-18.851 0-34.133 15.282-34.133 34.133v0 188.075h-160.256c-18.851 0-34.133 15.282-34.133 34.133v0 16.247c0 18.851 15.282 34.133 34.133 34.133v0h160.256v171.145c0 18.851 15.282 34.133 34.133 34.133v0h20.821c18.851 0 34.133-15.282 34.133-34.133v0-171.145zM34.133 960h1092.267c18.851 0 34.133-15.282 34.133-34.133v-102.4c0-18.851-15.282-34.133-34.133-34.133h-1092.267c-18.851 0-34.133 15.282-34.133 34.133v102.4c0 18.851 15.282 34.133 34.133 34.133zM34.133 652.8h1092.267c18.851 0 34.133-15.282 34.133-34.133v-102.4c0-18.851-15.282-34.133-34.133-34.133h-1092.267c-18.851 0-34.133 15.282-34.133 34.133v102.4c0 18.851 15.282 34.133 34.133 34.133zM716.8 379.733h409.6c18.851 0 34.133-15.282 34.133-34.133v0-102.4c0-18.851-15.282-34.133-34.133-34.133v0h-409.6c-18.851 0-34.133 15.282-34.133 34.133v0 102.4c0 18.851 15.282 34.133 34.133 34.133v0z" />
<glyph unicode="&#xe92d;" glyph-name="display-as-a-table-01" horiz-adv-x="1440" d="M32 960h800c17.673 0 32-14.327 32-32v0-128c0-17.673-14.327-32-32-32v0h-800c-17.673 0-32 14.327-32 32v0 128c0 17.673 14.327 32 32 32v0zM32 544h800c17.673 0 32-14.327 32-32v0-128c0-17.673-14.327-32-32-32v0h-800c-17.673 0-32 14.327-32 32v0 128c0 17.673 14.327 32 32 32v0zM32 128h800c17.673 0 32-14.327 32-32v0-128c0-17.673-14.327-32-32-32v0h-800c-17.673 0-32 14.327-32 32v0 128c0 17.673 14.327 32 32 32v0zM992 960h416c17.673 0 32-14.327 32-32v0-128c0-17.673-14.327-32-32-32v0h-416c-17.673 0-32 14.327-32 32v0 128c0 17.673 14.327 32 32 32v0zM992 544h416c17.673 0 32-14.327 32-32v0-128c0-17.673-14.327-32-32-32v0h-416c-17.673 0-32 14.327-32 32v0 128c0 17.673 14.327 32 32 32v0zM992 128h416c17.673 0 32-14.327 32-32v0-128c0-17.673-14.327-32-32-32v0h-416c-17.673 0-32 14.327-32 32v0 128c0 17.673 14.327 32 32 32v0z" />
<glyph unicode="&#xe92e;" glyph-name="display-as-a-timeline-01" horiz-adv-x="4403" d="M2652.262 346.112c-49.31-235.484-255.23-409.8-501.864-409.8-246.45 0-452.247 174.056-501.169 405.946l-0.59 3.342h-1051.648c-43.451-120.394-156.726-204.902-289.74-204.902-169.718 0-307.302 137.584-307.302 307.302s137.584 307.302 307.302 307.302c133.013 0 246.288-84.508 289.063-202.763l0.676-2.14h1051.648c49.512 235.232 255.309 409.288 501.759 409.288 246.634 0 452.554-174.316 501.278-406.465l0.586-3.335c3.379 0.307 6.758 0.512 10.138 0.512h1143.808c43.451 120.394 156.726 204.902 289.74 204.902 169.718 0 307.302-137.584 307.302-307.302s-137.584-307.302-307.302-307.302c-133.013 0-246.288 84.508-289.063 202.763l-0.676 2.14h-1143.808c-3.379 0-6.758 0.205-10.138 0.512zM2150.4 140.8c169.662 0 307.2 137.538 307.2 307.2s-137.538 307.2-307.2 307.2v0c-169.662 0-307.2-137.538-307.2-307.2s137.538-307.2 307.2-307.2v0z" />
<glyph unicode="&#xe92f;" glyph-name="location-01" horiz-adv-x="1088" d="M537.504 416c123.488 0 224 100.512 224 224s-100.512 224-224 224c-123.52 0-224-100.512-224-224s100.48-224 224-224zM537.504 800c88.224 0 160-71.776 160-160s-71.776-160-160-160-160 71.776-160 160 71.776 160 160 160zM893.184 328.544h-127.36l54.208 75.104c102.368 130.88 87.52 346.112-31.68 460.48-64.416 61.824-150.080 95.872-241.216 95.872-91.104 0-176.768-34.048-241.184-95.872-119.232-114.368-134.048-329.6-32.096-459.968l54.592-75.648h-133.632l-194.816-392.512h1088l-194.816 392.544zM302.752 424.128c-92.48 118.304-79.232 312.64 28.384 415.904 57.696 55.36 134.4 85.856 216 85.856 81.632 0 158.368-30.496 216.064-85.856 107.616-103.264 120.864-297.6 28-416.416l-244.064-338.176-244.384 338.688zM217.28 262.4h135.776l194.048-236.928 194.080 236.928h129.504l128.96-260.256h-911.328l128.96 260.256z" />
<glyph unicode="&#xec5f;" glyph-name="icon-fullscreen-exit" horiz-adv-x="1069" d="M390.151 760.908c-13.836 0-24.904-11.068-24.904-24.443v-83.935l-87.162 87.162c-9.685 9.223-25.365 9.223-35.050 0-9.223-9.685-9.223-25.365 0-35.050l87.623-87.162h-84.396c-13.374 0-24.443-11.068-24.443-24.443 0-13.836 11.068-24.904 24.443-24.904h143.888c13.374 0 24.443 11.068 24.443 24.904v143.427c0 13.374-11.068 24.443-24.443 24.443v0zM390.151 328.323h-143.888c-13.374 0-24.443-11.068-24.443-24.904 0-13.374 11.068-24.443 24.443-24.443h84.396l-87.623-87.162c-9.223-9.685-9.223-25.365 0-35.050 9.685-9.223 25.365-9.223 35.050 0l87.162 87.623v-84.396c0-13.374 11.068-24.443 24.904-24.443 13.374 0 24.443 11.068 24.443 24.443v143.427c0 13.836-11.068 24.904-24.443 24.904v0zM822.737 617.482h-83.935l87.162 87.162c9.685 9.685 9.685 25.365 0 35.050-9.685 9.223-24.904 9.223-34.588 0l-87.623-87.162v83.935c0 13.374-10.607 24.443-24.443 24.443-13.374 0-24.443-11.068-24.443-24.443v-143.427c0-13.836 11.068-24.904 24.443-24.904h143.427c13.836 0 24.904 11.068 24.904 24.904 0 13.374-11.068 24.443-24.904 24.443v0zM807.979 938.001h-546.957c-142.965 0-261.026-117.6-261.026-260.565v-458.41c0-142.965 118.062-261.026 261.026-261.026h546.957c143.427 0 261.026 118.062 261.026 261.026v458.41c0 142.965-117.6 260.565-261.026 260.565v0zM987.378 219.025c0-97.77-81.167-178.937-179.399-178.937h-546.957c-97.77 0-178.937 81.167-178.937 178.937v458.41c0 97.77 81.167 178.937 178.937 178.937h546.957c98.231 0 179.399-80.706 179.399-178.937v-458.41zM822.737 328.323h-143.427c-13.374 0-24.443-11.068-24.443-24.904v-143.427c0-13.374 11.068-24.443 24.443-24.443 13.836 0 24.443 11.068 24.443 24.443v84.396l87.623-87.623c9.685-9.223 24.904-9.223 34.588 0 9.685 9.685 9.685 25.365 0 35.050l-87.162 87.162h83.935c13.836 0 24.904 11.068 24.904 24.443 0 13.836-11.068 24.904-24.904 24.904v0z" />
<glyph unicode="&#xec60;" glyph-name="icon-preferences" horiz-adv-x="1104" d="M741.068 434.025l46.102 46.102c20.599-8.338 42.669-13.733 64.739-15.695 27.956-2.452 56.402-0.491 85.339 7.356 37.274 9.809 70.625 28.446 97.599 52.968 28.446 25.013 50.517 56.402 64.249 91.714 4.905 13.242-1.471 28.446-14.714 33.351-5.396 2.452-11.281 2.452-16.186 1.471l-70.135-18.637-56.402-15.695-41.198 41.688-41.688 41.198 15.204 56.892 15.204 56.402 56.402 15.204 69.644 18.637c13.733 3.434 22.561 18.146 18.637 31.88-1.471 5.885-4.905 10.299-9.318 13.733-28.936 23.542-63.758 40.216-100.542 47.573-36.294 7.356-74.057 6.866-111.331-3.434-64.249-16.675-115.747-58.363-146.154-111.822-30.898-53.459-41.688-118.69-24.522-182.938l0.491-2.452 0.491-0.491-53.949-53.459-154.001 154.492c4.414 7.847 8.338 16.186 12.261 24.033l0.491 1.962c6.376 13.242 10.79 25.994 14.223 39.237 9.318 15.695 20.599 26.975 34.332 33.351 15.695 7.356 35.312 9.809 60.816 7.356 7.356-0.981 15.695 1.471 21.58 7.847 10.299 10.299 9.809 26.975-0.491 36.784-38.746 37.765-82.887 60.325-128.008 63.758-41.688 2.452-83.867-11.281-123.103-45.612-8.828-2.943-18.146-6.866-26.975-11.77l-14.714-7.847-13.242 13.242c-9.809 10.299-26.485 10.299-36.784 0l-114.765-114.275c-9.809-10.299-9.809-26.976 0-37.274l13.242-13.242-2.943-5.396-0.981-0.981c-2.943-6.376-6.376-12.752-8.828-19.128-2.943-1.471-5.885-2.943-9.318-3.923-6.866-1.962-15.204-2.452-25.013-1.471-6.866 0.491-15.204-1.962-20.599-7.847l-55.911-56.402c-10.299-9.809-10.299-26.485 0-36.784l65.72-65.23 0.981-1.962 0.981-0.981 0.981-0.491 1.471-1.471 0.491-0.981 67.192-66.701c10.299-10.299 26.975-10.299 37.274 0l55.911 56.402c4.905 4.905 7.847 12.261 7.356 20.108 0 7.847 0 14.223 2.452 20.108 0.981 3.434 2.943 6.866 5.396 10.299 6.866 2.943 13.242 5.885 19.617 9.809l7.356 3.923 154.001-154.492-323.697-324.188c-9.809-9.809-9.809-26.485 0-36.784l114.765-114.765c10.299-10.299 26.975-10.299 36.784 0l323.697 324.188 333.507-333.016c10.299-10.299 26.975-10.299 36.784 0l114.765 114.765c10.299 9.809 10.299 26.976 0 36.784l-333.016 333.016zM306.039 640.014c-9.809 9.318-24.522 9.809-34.822 1.962-6.866-3.923-12.752-7.847-19.617-11.77-7.356-3.434-14.223-6.866-21.089-9.809-4.414-1.471-8.338-4.905-10.79-8.338-7.847-8.828-13.733-18.637-18.146-30.407-2.943-8.828-4.905-18.146-5.396-28.446l-29.917-29.917-48.555 48.555v0.491l-1.471 0.981-0.491 0.491-0.491 0.981-0.491 0.491-0.981 0.491-48.555 48.555 30.407 29.426c10.79 0 20.599 1.471 29.426 3.923 13.733 3.923 25.994 10.79 35.312 19.617 2.943 2.943 4.905 6.376 6.376 9.809 2.943 5.885 5.885 12.752 9.318 19.128l0.491 1.471 12.261 19.617c7.356 11.281 4.905 25.504-4.414 33.841l-8.338 8.338 77.982 77.491 9.318-9.318c8.828-8.828 22.561-9.809 32.86-2.943 9.809 6.376 18.637 11.77 26.975 15.695 9.318 4.414 17.656 8.338 25.994 11.281 3.923 0.981 6.866 2.943 9.318 5.396 28.446 25.994 58.854 36.784 88.28 34.822 13.733-0.981 27.465-4.414 41.198-10.299l-13.733-5.396c-25.013-11.77-44.631-31.389-59.836-59.836-1.471-1.962-2.452-4.414-2.943-6.376-1.962-10.299-5.885-21.089-10.79-32.86l-0.491-1.471c-5.396-11.281-12.261-23.051-20.108-35.312-6.866-10.299-5.396-24.033 3.434-32.86l168.715-168.715-77.491-77.982-168.715 169.205zM247.185 13.709l-77.491 77.982 521.352 521.352c6.866 6.866 9.318 17.165 6.376 26.975l-2.943 7.847-1.471 6.376-0.491 1.471c-13.733 50.517-4.905 101.523 18.637 143.211 24.522 41.198 64.739 74.057 114.765 87.3 29.917 7.847 59.345 8.338 87.3 2.943 9.318-1.962 18.637-4.905 27.465-7.847l-8.338-2.452-71.115-18.637c-8.828-2.452-15.695-9.809-18.637-18.637l-38.255-142.72c-1.962-8.828 0-18.146 6.866-25.013l102.995-102.995c6.376-7.356 16.675-10.79 26.485-8.338l71.115 19.617 8.338 1.962c-5.885-7.356-12.261-14.223-19.617-20.599-21.58-19.128-47.573-33.351-76.51-41.198-23.051-6.376-45.612-7.847-67.192-5.885s-43.159 8.338-62.777 17.165c-9.809 5.885-22.561 4.414-31.389-3.923l-515.468-515.957zM940.681 4.88l-314.378 314.378 77.982 77.982 314.378-314.869-77.982-77.491z" />
<glyph unicode="&#xec61;" glyph-name="icon-photo" horiz-adv-x="1276" d="M1054.888 621.223v0c-25.216 0-45.499-20.283-45.499-45.499s20.283-45.499 45.499-45.499c25.216 0 45.499 20.283 45.499 45.499s-20.283 45.499-45.499 45.499zM309.911 808.153l-8.771-25.216h-151.845v25.216h160.616zM90.641 782.937v54.818c0 15.897 13.157 29.054 29.054 29.054h212.145l21.928 61.396c7.126 19.734 25.765 31.795 45.499 31.795h477.464c22.475 0 41.113-14.801 47.144-35.632l51.529-141.431h247.777c26.313 0 48.24-21.928 48.24-48.788v-749.361c0-26.861-21.928-48.788-48.24-48.788h-1169.815c-26.861 0-48.788 21.928-48.788 48.788v749.361c0 26.861 21.928 48.788 48.788 48.788h37.276zM638.271 589.429v0c-89.902 0-163.906-74.004-163.906-163.906s73.456-163.906 163.906-163.906c89.902 0 163.357 74.004 163.357 163.906 0 43.307-16.993 84.967-47.692 115.666-29.601 29.601-70.715 48.24-115.666 48.24zM712.823 500.075v0c-19.187 18.638-45.499 30.698-74.553 30.698-58.107 0-105.25-47.144-105.25-105.25s47.144-105.25 105.25-105.25c57.559 0 105.25 47.692 105.25 105.25 0 29.054-12.060 55.366-30.698 74.553zM335.127 685.36h-232.976v-651.784h1071.691v651.784h-232.428c-20.283 0.549-38.921 12.608-46.047 32.342l-52.625 145.268h-409.491l-51.529-141.431c-5.482-20.83-24.12-36.18-46.595-36.18v0zM638.271 761.558v0c-184.736 0-336.583-151.298-336.583-336.034s151.298-336.034 336.583-336.034c184.189 0 336.034 151.845 336.034 336.034 0 185.285-151.298 336.034-336.034 336.034zM638.271 664.53c131.563 0 238.459-107.444 238.459-239.006 0-131.015-107.991-238.459-238.459-238.459-131.563 0-239.006 106.895-239.006 238.459s107.444 239.006 239.006 239.006v0z" />
<glyph unicode="&#xec62;" glyph-name="icon-ok-sq-small" d="M0 640.212c0 176.614 143.461 319.788 319.788 319.788h384.424c176.614 0 319.788-143.461 319.788-319.788v-384.424c0-176.614-143.461-319.788-319.788-319.788h-384.424c-176.614 0-319.788 143.461-319.788 319.788v384.424zM268.8 461.228l-76.8-102.4 263.856-197.892 335.401 396.383-97.713 82.681-257.441-304.249-167.302 125.477z" />
<glyph unicode="&#xec63;" glyph-name="icon-ok-rnd-small" d="M512-64c-282.77 0-512 229.23-512 512s229.23 512 512 512c282.77 0 512-229.23 512-512s-229.23-512-512-512zM268.8 461.228l-76.8-102.4 263.856-197.892 335.401 396.383-97.713 82.681-257.441-304.249-167.302 125.477z" />
<glyph unicode="&#xec64;" glyph-name="uniEC64" horiz-adv-x="1040" d="M1032 448c0-282.77-229.23-512-512-512s-512 229.23-512 512c0 282.77 229.23 512 512 512s512-229.23 512-512z" />
<glyph unicode="&#xec65;" glyph-name="icon-more" horiz-adv-x="1120" d="M1120.007 448c0-39.792-16.385-76.072-42.132-101.82l-1.755-1.755c-26.332-25.163-61.444-40.377-100.064-40.377-39.792 0-75.486 15.8-101.82 42.132-26.332 25.748-42.132 62.028-42.132 101.82s15.8 75.486 42.132 101.82c26.332 25.748 62.028 42.132 101.82 42.132s75.486-16.385 101.82-42.132c25.748-26.332 42.132-62.028 42.132-101.82v0zM1033.987 390.068c14.629 15.214 23.407 35.11 23.407 57.932s-8.778 42.717-23.407 57.932c-15.214 14.629-35.11 23.407-57.932 23.407-22.236 0-42.717-8.778-57.932-23.407-14.629-14.629-23.991-35.11-23.991-57.932s9.363-42.717 23.991-57.932c15.214-14.629 35.696-23.991 57.932-23.991 21.652 0 41.547 8.778 56.176 22.236l1.755 1.755zM703.952 448c0-39.792-16.385-76.072-42.132-101.82l-1.755-1.755c-26.332-25.163-61.444-40.377-100.064-40.377-39.792 0-76.072 15.8-101.82 42.132-26.332 25.748-42.132 62.028-42.132 101.82s16.385 75.486 42.132 101.82c25.748 25.748 62.028 42.132 101.82 42.132s75.486-16.385 101.82-42.132c25.748-26.332 42.132-62.028 42.132-101.82v0zM617.932 390.068c14.629 15.214 23.407 35.11 23.407 57.932s-8.778 42.717-23.407 57.932c-15.214 14.629-35.696 23.407-57.932 23.407-22.822 0-43.303-8.778-57.932-23.407s-23.991-35.11-23.991-57.932c0-22.822 9.363-42.717 23.991-57.932 14.629-14.629 35.11-23.991 57.932-23.991 21.652 0 41.547 8.778 56.176 22.236l1.755 1.755zM287.896 448c0-39.792-16.385-76.072-42.132-101.82l-2.341-1.755c-25.748-25.163-60.858-40.377-99.478-40.377-39.792 0-76.072 15.8-101.82 42.132-26.332 25.748-42.132 62.028-42.132 101.82s15.8 75.486 42.132 101.82c25.748 25.748 62.028 42.132 101.82 42.132s75.486-16.385 101.82-42.132c25.748-26.332 42.132-62.028 42.132-101.82v0zM201.876 390.068c14.629 15.214 23.407 35.11 23.407 57.932s-8.778 42.717-23.407 57.932c-15.214 14.629-35.696 23.407-57.932 23.407-22.822 0-43.303-8.778-57.932-23.407s-23.991-35.11-23.991-57.932c0-22.822 9.363-42.717 23.991-57.932 14.629-14.629 35.11-23.991 57.932-23.991 21.652 0 41.547 8.778 56.176 22.236l1.755 1.755z" />
<glyph unicode="&#xec66;" glyph-name="icon-filters" horiz-adv-x="1008" d="M957.569 653.066c-22.050 21.609-50.715 36.603-83.349 41.012l60.417 59.535c6.615 7.056 11.025 17.199 11.025 27.783v139.355c0 21.609-17.64 39.249-38.808 39.249h-859.067c-21.609 0-39.249-17.64-39.249-39.249v-137.151c-0.441-10.584 3.528-21.609 11.907-29.987l334.278-334.278v-439.235h0.441c0-8.82 2.646-17.64 8.82-25.137 13.67-16.758 38.367-18.963 55.125-4.851l164.493 135.828c9.702 7.497 15.876 18.963 15.876 31.752v301.644l112.013 111.573c4.41-32.193 18.963-60.858 41.012-82.908 26.46-26.019 62.622-42.336 102.753-42.336 39.69 0 75.852 16.317 102.312 42.336 26.019 26.46 42.336 62.622 42.336 102.753 0 39.69-16.317 75.852-42.336 102.312v0zM87.036 804.771v76.734h780.129v-76.734h-780.129zM532.445 462.995c-7.497-7.497-11.466-17.64-11.466-27.783v-299.439l-87.759-72.324v371.763c0 11.025-4.41 20.727-11.466 27.783l-295.029 295.029h700.748l-295.029-295.029zM924.052 481.518c-17.199-18.081-41.895-28.665-68.796-28.665-27.342 0-52.038 10.584-69.678 28.665-17.64 17.64-28.665 41.895-28.665 69.237 0 10.584 1.764 21.168 5.292 30.87l61.299 61.74c10.143 3.087 20.727 4.851 31.752 4.851 26.901 0 51.597-10.584 68.796-28.665 17.64-17.64 28.665-41.895 28.665-68.796 0-27.342-11.025-51.597-28.665-69.237v0z" />
<glyph unicode="&#xec67;" glyph-name="icon-checkerrors" horiz-adv-x="896" d="M365.398 188.676h0.443c15.501-15.059 40.305-15.059 55.363 0.443l147.045 147.045 99.654 99.211c15.059 15.059 15.059 39.862 0 55.363-15.501 15.501-40.305 15.501-55.363 0l-100.098-99.654-118.7-118.7-119.585 119.142c-15.059 15.501-40.305 15.501-55.806 0-15.059-15.059-15.059-40.305 0-55.363l147.045-147.488zM105.411 959.779h466.382c10.63 0 20.816-4.429 27.903-11.515l284.79-284.79c7.529-7.529 11.515-17.717 11.515-27.46v-593.939c0-29.232-11.959-55.363-31.004-74.409l-1.329-1.329c-18.602-18.602-44.733-30.117-73.080-30.117h-685.178c-28.789 0-55.363 11.959-74.409 31.004s-31.004 45.62-31.004 74.852v812.293c0 29.232 11.959 55.363 31.004 74.852 19.045 19.045 45.62 30.561 74.409 30.561v0zM817.164 612.096h-179.378c-24.802 0-46.949 10.187-63.335 26.574l-1.329 1.329c-15.501 15.945-24.802 37.648-24.802 62.007v179.378h-442.908c-7.087 0-13.73-3.101-18.602-7.972s-7.972-11.515-7.972-19.045v-812.293c0-7.529 3.101-14.173 7.972-19.045s11.515-7.972 18.602-7.972h685.178c7.087 0 13.73 3.101 18.602 7.972s7.972 11.515 7.972 19.045v570.022zM777.302 659.487l-182.035 181.592v-139.073c0-11.073 4.429-21.26 11.515-29.232l0.885-0.885c7.972-7.529 18.602-12.402 30.117-12.402h139.516z" />
<glyph unicode="&#xec68;" glyph-name="icon-warning-sq-small" d="M0 640.212v-384.424c0-176.327 143.174-319.788 319.788-319.788h384.424c176.327 0 319.788 143.174 319.788 319.788v384.424c0 176.327-143.174 319.788-319.788 319.788h-384.424c-176.327 0-319.788-143.174-319.788-319.788zM448 704h128v-320h-128v320zM448 320h128v-128h-128v128z" />
<glyph unicode="&#xec6a;" glyph-name="icon-warning-rnd-small" d="M512-64c282.77 0 512 229.23 512 512s-229.23 512-512 512c-282.77 0-512-229.23-512-512s229.23-512 512-512zM448 704h128v-320h-128v320zM448 320h128v-128h-128v128z" />
<glyph unicode="&#xec6c;" glyph-name="icon-viewmenu" horiz-adv-x="1252" d="M543.88 586.147c9.209 3.070 18.931 5.628 28.141 7.675l4.093 0.511c16.373 3.070 33.258 4.605 49.63 4.605 17.908 0 35.815-2.046 53.723-5.628l0.511 0.511c9.209-2.046 18.931-4.605 28.652-7.675 48.094 81.352 137.123 133.028 232.802 133.028 74.701 0 142.751-30.188 191.869-79.306l2.558-3.070c9.722-10.233 18.931-20.977 27.629-33.258h43.491c24.559 0 45.025-20.466 45.025-45.025 0-25.072-20.466-45.537-45.025-45.537h-2.046c5.117-20.977 8.187-42.467 8.187-64.979 0-74.701-30.7-142.751-79.817-191.869s-117.168-79.306-191.869-79.306c-148.891 0-271.175 122.285-271.175 271.175 0 17.908 2.046 36.327 5.628 53.211l-13.815 3.070c-11.257 2.558-23.025 4.093-36.327 4.093-11.257 0-22.001-1.535-32.234-3.070l-3.582-1.024c-5.117-0.511-9.209-2.046-13.303-3.070 2.558-16.885 5.117-35.304 5.117-53.211 0-149.402-122.285-271.175-271.175-271.175-75.213 0-142.751 30.188-191.869 79.306l-3.070 2.558c-47.072 49.119-76.747 116.144-76.747 189.31 0 22.512 3.070 44.002 8.187 64.979h-2.046c-24.559 0-45.025 20.466-45.025 45.537 0 24.559 20.466 45.025 45.025 45.025h43.491c50.654 71.631 133.541 115.633 222.057 115.633 74.701 0 142.751-30.188 191.869-79.306 15.86-15.86 29.676-34.28 41.443-53.723zM154.515 539.075l-2.558-5.628c-14.325-25.582-21.489-54.746-21.489-85.445 0-49.119 18.931-93.12 50.142-125.355l2.046-2.046c32.745-32.745 78.282-52.7 127.913-52.7 99.259 0 180.101 80.329 180.101 180.101 0 49.63-20.466 94.656-53.211 127.401-32.234 32.234-77.259 52.7-126.889 52.7-64.468 0-124.331-34.792-156.053-89.027zM1100.557 533.446c-1.535 1.535-2.046 3.582-3.070 5.628-7.675 12.28-16.373 24.048-26.606 34.28l-2.046 2.046c-32.234 32.234-77.771 52.7-127.401 52.7-99.259 0-180.101-80.841-180.101-180.101s80.841-180.101 180.101-180.101c49.63 0 95.167 19.954 127.401 52.7h0.511c32.234 32.745 52.189 77.259 52.189 127.401 0 30.7-7.163 59.862-20.977 85.445z" />
<glyph unicode="&#xec6d;" glyph-name="icon-video" horiz-adv-x="1173" d="M780.8 559.066c-28.346 28.861-68.031 46.384-111.323 46.384s-82.462-17.523-111.323-46.384c-28.346-28.346-46.384-67.515-46.384-110.808 0-43.808 18.038-82.977 46.384-111.323s68.031-46.384 111.323-46.384c43.293 0 82.977 18.038 111.323 46.384s46.384 67.515 46.384 111.323c0 42.262-17.008 80.916-44.838 109.261l-1.547 1.547zM742.146 375.589c-18.554-18.554-44.323-29.893-72.669-29.893s-54.115 11.338-72.669 29.893c-18.554 18.554-29.893 44.323-29.893 72.669 0 27.831 11.338 53.599 29.893 72.154s44.323 29.893 72.669 29.893c28.346 0 54.115-11.338 72.669-29.893l1.031-1.031c18.038-18.554 28.861-43.808 28.861-71.123 0-28.346-11.338-54.115-29.893-72.669v0zM1172.493 659.051c0 7.215-2.576 14.431-7.73 19.585-10.823 10.823-28.346 10.823-38.654 0l-146.369-145.855v161.831c0 53.599-21.646 102.046-56.692 137.092s-83.492 56.692-137.092 56.692h-592.177c-53.599 0-102.046-21.646-137.092-56.692s-56.692-83.492-56.692-137.092v-493.224c0-53.599 21.646-101.53 56.692-137.092 35.046-34.532 83.492-56.692 137.092-56.692h592.177c53.599 0 102.046 22.162 137.092 56.692 35.046 35.561 56.692 83.492 56.692 137.092v161.831l146.369-145.855c4.639-5.154 11.854-8.246 19.070-8.246 15.462 0 27.831 12.369 27.831 27.831v422.1h-0.515zM888.001 201.389c0-27.831-11.338-53.599-29.893-72.154s-44.323-29.893-72.154-29.893h-592.177c-27.831 0-53.599 11.338-72.154 29.893s-29.893 44.323-29.893 72.154v493.224c0 27.831 11.338 53.599 29.893 72.154s44.323 29.893 72.154 29.893h592.177c27.831 0 53.599-11.338 72.154-29.893s29.893-44.323 29.893-72.154v-493.224zM1117.862 302.919l-138.123 138.123v13.916l138.123 138.123v-290.161zM421.577 559.066c-28.346 28.861-68.031 46.384-111.323 46.384s-82.977-17.523-111.323-46.384c-28.346-28.346-46.384-67.515-46.384-110.808 0-43.808 18.038-82.977 46.384-111.323s68.031-46.384 111.323-46.384c43.293 0 82.977 18.038 111.323 46.384s46.384 67.515 46.384 111.323c0 42.262-17.008 80.916-44.838 109.261l-1.547 1.547zM382.922 375.589c-18.554-18.554-44.323-29.893-72.669-29.893s-54.115 11.338-72.669 29.893c-18.038 18.554-29.893 44.323-29.893 72.669 0 27.831 11.338 53.599 29.893 72.154s44.323 29.893 72.669 29.893c28.346 0 54.115-11.338 72.669-29.893l1.031-1.031c18.038-18.554 28.861-43.808 28.861-71.123 0-28.346-11.338-54.115-29.893-72.669v0z" />
<glyph unicode="&#xec6e;" glyph-name="icon-upload" horiz-adv-x="1117" d="M894.667 263.123c37.7 0.482 71.534 15.468 96.185 40.117s40.117 58.967 40.117 97.152c0 33.834-12.084 64.768-31.9 88.451-20.3 24.167-49.301 41.084-81.685 46.884-21.267 3.383-35.768 21.75-35.768 42.051 0 82.168-33.351 156.12-87.002 209.288-53.168 53.65-127.119 86.519-208.804 86.519-60.418 0-116.003-17.884-162.404-48.334-48.334-31.418-86.519-76.851-109.719-130.502-6.766-15.95-22.234-25.617-38.184-26.101-52.685-2.901-100.536-27.067-134.369-63.318-34.317-36.251-55.584-85.068-55.584-139.203 0-56.069 23.201-107.302 59.452-143.553 37.218-36.734 87.969-59.452 144.035-59.452h141.619c23.684 0 43.017-19.333 43.017-43.017s-19.333-43.017-43.017-43.017h-141.619c-79.752 0-152.253 32.384-204.454 84.586-52.201 52.685-84.586 124.702-84.586 204.454 0 76.369 29.968 146.454 78.785 198.17 43.5 45.918 101.502 77.818 167.237 87.484 29.968 58.967 74.917 108.752 130.019 145.002 60.418 39.634 132.436 62.835 209.771 62.835 105.368 0 200.587-43.017 269.706-111.653 61.868-61.868 102.469-144.52 110.202-236.354 38.667-13.050 72.501-36.734 98.602-67.669 32.867-39.151 52.685-88.936 52.685-143.553 0-61.868-25.134-117.452-65.251-157.569-35.768-35.768-83.135-58.967-135.336-64.284-3.383-0.967-6.766-1.449-10.151-1.449h-205.421c-24.167 0-43.017 19.333-43.017 43.017s18.851 43.017 43.017 43.017h193.82zM540.375 632.881l-206.388-206.388c-10.151-10.151-10.151-26.584 0-36.734 10.151-9.667 26.584-9.667 36.251 0l162.404 162.404v-589.68c0-14.016 11.6-26.101 25.617-26.101 14.501 0 26.101 12.084 26.101 26.101v589.68l161.919-162.404c10.151-9.667 26.584-9.667 36.734 0 9.667 10.151 9.667 26.584 0 36.734l-206.388 206.388-1.449 0.967-1.449 1.449-2.901 1.934-1.934 0.967-3.383 0.967-0.482 0.482h-1.934l-2.416 0.482h-4.35l-2.416-0.482h-2.416v-0.482l-3.867-0.967-0.482-0.482-0.967-0.482c-0.967-0.482-1.934-1.449-2.901-1.934l-0.967-0.482-1.934-1.934zM557.776 640.13v0z" />
<glyph unicode="&#xec6f;" glyph-name="icon-search" d="M350.534 772.116c-17.495-7.688-34.516-16.818-50.118-27.39-15.603-11.052-30.26-23.546-43.972-37.001v0c-13.712-13.935-26.005-28.832-36.406-45.17-10.402-15.857-19.385-32.676-26.951-50.936-5.674-12.974 0.472-27.871 13.239-33.156 12.766-5.766 27.423 0.481 33.097 13.455 6.146 14.896 13.239 28.832 22.695 42.287 8.984 13.455 18.913 25.949 30.26 37.001 10.875 11.533 23.168 22.104 36.407 30.754 13.239 9.13 26.951 16.818 41.608 23.065 12.766 5.286 18.439 20.663 13.239 33.637-5.201 12.494-20.331 18.741-33.097 13.455zM999.713 12.884l-181.562 184.522c29.314 35.559 53.429 75.923 70.923 119.17 22.222 55.261 34.988 115.327 34.988 178.275 0 61.508-12.293 121.092-34.043 175.392l-0.946 2.403c-22.695 55.741-55.793 106.197-97.401 148.963l-1.891 1.922c-42.081 42.767-92.672 77.365-148.465 100.911-54.373 23.065-113.476 35.559-175.415 35.559-126.243 0-240.664-51.897-323.88-136.469-41.608-42.287-76.123-93.703-98.819-150.885-22.695-55.261-34.988-115.327-34.988-177.794 0-61.988 11.821-121.573 34.043-175.872l0.946-2.403c22.695-56.702 57.211-108.119 98.819-150.885h0.472c42.081-42.767 92.672-77.365 148.465-100.911 54.375-22.585 113.003-35.079 174.942-35.079s121.041 12.494 175.415 35.079c42.554 17.78 82.27 42.287 117.259 72.079l181.562-184.522c16.549-16.338 43.026-16.338 59.575 0.481 16.076 16.338 16.076 43.728 0 60.066zM730.679 226.238l-0.946-0.961c-34.043-34.598-75.178-62.469-121.041-81.69-43.5-18.741-92.199-28.832-142.791-28.832-51.064 0-98.819 10.091-142.791 28.832-45.39 19.221-86.998 47.572-121.041 82.17l-0.473 0.481h0.473c-34.988 35.079-62.885 76.885-81.325 123.014l-0.946 2.403c-17.967 43.728-27.896 92.261-27.896 143.196 0 51.417 10.402 100.911 28.842 145.119 18.44 46.611 46.336 87.937 81.325 123.495 67.14 68.716 160.758 111.001 263.832 111.001 51.064 0 99.292-10.091 143.264-28.351l-0.472-0.481c45.863-18.741 87.472-47.092 121.987-82.17l1.418-1.922c34.043-34.598 60.521-75.923 79.906-121.573l0.946-1.922c17.021-44.209 26.951-92.261 26.951-143.196 0-51.897-9.929-100.911-27.896-145.599-19.385-46.611-47.281-88.417-81.324-123.014zM737.299 520.32c-14.184 0-25.533-11.533-25.533-25.468 0-32.676-5.674-65.352-18.44-96.106l-0.472-0.961c-11.821-28.832-29.788-56.222-52.955-79.768-23.641-24.026-50.592-42.287-79.434-54.3-30.26-12.494-61.939-18.741-94.564-18.741-13.712 0-25.059-11.533-25.059-25.949 0-13.935 11.347-25.468 25.059-25.468 38.771 0 77.542 7.688 113.949 23.065 34.988 14.896 67.14 36.52 95.982 65.352 27.896 28.351 49.173 61.027 63.357 96.586l0.473 0.961c15.13 36.52 22.695 75.923 22.695 115.327 0 13.935-10.875 25.468-25.059 25.468z" />
<glyph unicode="&#xec70;" glyph-name="icon-screenshare" horiz-adv-x="1142" d="M143.14 675.378h855.72c19.657 0 35.705-16.047 35.705-35.303v-566.067c0-19.657-16.047-35.705-35.705-35.705h-855.72c-19.657 0-35.705 16.047-35.705 35.705v566.067c0 19.257 16.047 35.303 35.705 35.303v0zM39.234-64c-19.657 0-35.303 16.047-35.303 35.705s15.646 35.705 35.303 35.705h1063.13c19.657 0 35.705-16.047 35.705-35.705s-16.047-35.705-35.705-35.705h-1063.13zM536.198 679.172h-90.968v-74.804h-266.385v-494.656h784.309v494.656h-277.217v74.804h-106.815v207.812l134.395-134.797c8.425-8.024 22.065-8.024 30.489 0 8.024 8.425 8.024 22.065 0 30.489l-171.304 171.304-1.204 0.803-1.204 1.204-2.407 1.604-1.604 0.803-2.808 0.803-0.401 0.401h-1.604l-2.006 0.401h-3.611l-2.006-0.401h-2.006v-0.401l-3.21-0.803-0.401-0.401-0.803-0.401c-0.803-0.401-1.604-1.204-2.407-1.604l-0.803-0.401-172.91-172.91c-8.425-8.425-8.425-22.065 0-30.489 8.425-8.024 22.065-8.024 30.088 0l134.797 134.797v-207.812z" />
<glyph unicode="&#xec71;" glyph-name="icon-print" horiz-adv-x="1213" d="M150.612 738.651h95.677v193.422c0 15.515 12.412 27.927 27.41 27.927h665.601c15.515 0 27.41-12.412 27.41-27.927v-193.422h95.677c14.998 0 27.41-12.412 27.41-27.41v-264.275h68.784c24.824 0 45.511-20.687 45.511-46.028v-418.909c0-25.341-20.687-46.028-45.511-46.028h-1103.645c-25.341 0-46.028 20.687-46.028 46.028v418.909c0 25.341 20.687 46.028 46.028 46.028h68.267v264.275c0 14.998 12.412 27.41 27.41 27.41v0zM178.539 446.966h67.749v236.865h-67.749v-236.865zM301.626 446.966h610.264v457.697h-610.264v-457.697zM966.709 446.966h67.749v236.865h-67.749v-236.865zM1112.035 354.909h-1011.072v-326.853h145.325v101.883c0 15.515 12.412 27.41 27.41 27.41h665.601c15.515 0 27.41-11.895 27.41-27.41v-101.883h145.325v326.853zM301.626 28.057h610.264v74.473h-610.264v-74.473z" />
<glyph unicode="&#xec72;" glyph-name="icon-phone-out" d="M244.424 921.117l148.532-191.781 2.184-2.621c6.99-10.047 11.795-20.096 14.854-31.017 3.058-12.232 3.932-24.901 2.184-38.007-1.748-12.669-6.116-24.901-12.669-35.386l-1.311-2.621c-6.553-9.611-14.416-17.911-24.028-25.338l-2.621-1.311-72.519-52.86c-4.369-10.485-10.047-33.638 10.047-62.034 31.891-45.87 67.713-88.246 106.594-127.126 39.317-39.317 81.693-75.14 127.126-106.594 28.833-20.096 51.55-14.416 62.034-10.047l54.607 74.703c7.426 10.485 16.6 19.221 27.522 25.774s22.717 10.485 35.823 12.669h1.311c12.669 1.748 24.901 0.873 36.259-2.184l2.184-0.873c11.358-3.058 21.843-8.737 31.891-16.164l191.344-148.968 3.058-2.621c9.611-7.863 17.475-17.911 23.153-28.833 6.116-11.795 9.611-24.901 10.485-39.317 0.437-13.979-1.748-27.522-6.99-39.754-4.805-12.669-12.669-24.028-23.153-33.638-12.232-11.795-27.522-23.59-45.87-34.512l-2.184-1.311c-17.475-10.485-38.444-20.096-62.47-27.959-105.719-35.386-217.993-28.833-325.896 6.99-114.457 38.007-223.671 109.215-313.664 199.207-89.992 89.556-161.201 199.207-199.207 313.227-35.823 107.904-41.938 220.614-6.99 325.896 8.301 25.338 18.785 46.743 29.27 64.655 10.922 18.348 23.153 33.638 34.512 46.307 9.611 10.047 20.969 17.911 33.638 23.153l3.058 0.873c11.795 4.369 24.028 6.553 37.133 5.679 13.979-0.437 27.085-3.932 39.317-10.047l1.748-1.311 29.706-24.901zM331.795 681.718l-148.968 191.781c-1.311 1.748-3.058 3.495-4.369 4.369l-1.311 0.437c-1.748 0.873-4.369 1.748-6.99 1.748-2.184 0-4.805 0-6.553-0.437l-0.873-0.873c-2.184-0.873-4.369-2.184-6.116-3.932-8.301-8.737-16.6-19.659-24.901-33.202-8.301-13.979-16.164-30.143-22.28-49.365-29.706-88.246-23.59-184.354 6.99-276.968 34.075-102.225 98.73-200.955 180.859-283.084 81.693-81.693 180.422-146.347 282.647-180.422 93.051-31.017 188.723-36.696 277.405-6.99 18.348 6.116 34.075 13.106 47.618 21.406l1.311 0.873c13.543 8.301 24.464 16.6 33.202 24.901 2.184 1.748 3.495 3.932 4.369 5.679 0.873 2.184 1.311 4.805 1.311 7.863-0.437 2.621-0.873 5.242-1.748 6.99s-2.184 3.058-3.495 4.805l-1.748 0.873-191.344 148.968c-1.748 1.311-3.495 2.184-5.242 2.621l-0.873 0.437c-2.184 0.437-4.369 0.873-6.553 0.437h-0.437c-2.621-0.437-4.805-1.311-6.553-2.184s-3.495-2.621-5.242-4.805l-58.539-80.382c-3.058-4.805-7.426-8.737-12.669-12.232 0 0-68.587-48.491-152.027 9.611-50.239 35.386-96.109 73.829-138.048 115.331-41.938 41.938-80.382 88.246-114.893 138.048-58.539 83.44-10.047 151.589-9.611 152.027 2.621 4.369 6.116 8.301 10.485 11.358l79.072 57.665 2.621 2.184c1.748 1.311 3.058 2.621 4.369 3.932l0.437 1.311c1.311 1.748 1.748 3.932 2.184 6.116 0.437 2.621 0.437 5.242-0.437 6.99 0 1.748-0.873 3.058-1.748 4.805l-1.311 1.311zM579.931 764.722h223.235l-106.594-106.594c-8.737-9.174-8.737-23.59 0-32.764 9.174-9.174 24.028-9.174 33.202 0l147.222 147.222v0.437l0.873 0.437 0.437 0.873 1.748 2.621 0.873 1.748 0.873 2.621v0.437l0.873 4.369v3.932l-0.437 2.184-0.437 1.748v0.437l-0.873 3.058-0.437 0.873-0.437 0.437-1.748 3.058-1.311 1.311v0.437l-147.222 147.222c-9.174 9.174-24.028 9.174-33.202 0-8.737-9.174-8.737-24.028 0-33.202l106.594-106.157h-223.235c-13.106 0-23.59-10.485-23.59-23.59 0-12.669 10.485-23.153 23.59-23.153v0z" />
<glyph unicode="&#xec73;" glyph-name="icon-phone-in" d="M244.205 921.12l148.969-191.782 1.748-2.621c6.99-10.047 12.232-20.096 14.854-31.017 3.495-12.232 3.932-24.901 2.184-38.007-1.748-12.669-6.116-24.901-12.232-35.386l-1.748-2.621c-6.116-9.611-14.416-17.911-24.028-25.338l-2.621-1.311-72.082-52.86c-4.805-10.485-10.047-33.638 10.047-62.034 31.891-45.87 67.277-88.246 106.157-127.126 39.755-39.317 82.129-75.14 127.563-106.594 28.396-20.096 51.55-14.416 62.034-10.047l54.171 74.703c7.863 10.485 17.038 19.221 27.959 25.774 10.485 6.553 22.717 10.485 35.386 12.669h1.748c12.232 1.748 24.464 0.873 36.259-2.184l2.184-0.873c10.922-3.058 21.843-8.737 31.454-16.164l191.782-148.969 3.058-2.621c9.611-7.863 17.475-17.911 22.717-28.833 6.553-11.795 10.047-24.901 10.485-39.317 0.873-13.979-1.748-27.522-6.553-39.755-5.242-12.669-13.106-24.028-23.59-33.638-12.232-11.795-27.522-23.59-45.87-34.512l-2.184-1.311c-17.475-10.485-38.444-20.096-62.471-27.959-105.283-35.386-217.993-28.833-325.897 6.99-114.020 38.007-223.672 109.215-313.665 199.208-89.557 89.557-160.764 199.208-198.771 313.228-36.259 107.905-42.376 220.614-7.426 325.897 8.301 25.338 18.785 46.744 29.706 64.656 10.922 18.348 22.717 33.638 34.075 46.307 10.047 10.047 21.406 17.911 33.638 23.153l3.495 0.873c11.358 4.369 23.59 6.553 36.696 5.68 13.979-0.437 27.522-3.932 39.317-10.047l2.184-1.311 29.27-24.901zM331.576 681.72l-148.533 191.782c-1.748 1.748-3.058 3.495-4.805 4.369l-0.873 0.437c-2.184 0.873-4.805 1.748-7.426 1.748-2.184 0-4.369 0-6.116-0.437l-1.311-0.873c-2.184-0.873-3.932-2.184-6.116-3.932-7.863-8.737-16.6-19.659-24.464-33.202-8.301-13.979-16.164-30.143-22.717-49.365-29.27-88.246-23.59-184.354 7.426-276.969 34.075-102.225 98.731-200.956 180.423-283.085 82.129-81.693 180.86-146.348 283.085-180.423 92.614-31.017 188.723-36.696 276.969-6.99 18.348 6.116 34.075 13.106 47.618 21.406l1.748 0.873c13.543 8.301 24.464 16.6 32.764 24.901 2.184 1.748 3.495 3.932 4.369 5.68 1.311 2.184 1.311 4.805 1.311 7.863 0 2.621-0.873 5.242-1.748 6.99s-1.748 3.058-3.495 4.805l-1.311 0.873-191.782 148.969c-1.748 1.311-3.495 2.184-5.242 2.621l-0.873 0.437c-1.748 0.437-3.932 0.873-6.553 0.437h-0.437c-2.621-0.437-4.805-1.311-6.553-2.184s-3.495-2.621-4.805-4.805l-58.976-80.382c-3.058-4.805-6.99-8.737-12.232-12.232-0.437 0-68.587-48.491-152.464 9.611-49.802 35.386-96.109 73.83-137.611 115.331-41.938 41.938-80.382 88.246-115.331 138.048-58.103 83.44-9.611 151.59-9.611 152.027 2.621 4.369 6.116 8.301 10.485 11.358l82.129 59.849c1.748 1.311 3.058 2.621 3.932 3.932l0.873 1.311c0.873 1.748 1.748 3.932 2.184 6.116 0 2.621 0 5.242-0.437 6.99s-1.311 3.058-2.184 4.805l-1.311 1.311zM859.303 764.724c13.106 0 23.59 10.485 23.59 23.153 0 13.106-10.485 23.59-23.59 23.59h-223.235l106.594 106.157c9.174 9.174 9.174 24.028 0 33.202s-24.028 9.174-33.202 0l-145.911-146.348-1.311-0.873v-0.437l-1.311-1.311-1.748-2.621-0.437-0.873v-0.873l-1.311-3.058v-0.437l-0.437-1.748-0.437-2.184v-3.932l0.873-4.369v-0.437l1.311-2.621v-0.873l0.437-0.873 1.748-2.621 0.437-0.873 0.873-0.437v-0.437l1.311-0.873 145.911-146.348c9.174-9.174 24.028-9.174 33.202 0s9.174 23.59 0 32.764l-106.594 106.594h223.235z" />
<glyph unicode="&#xec74;" glyph-name="icon-notifications" horiz-adv-x="890" d="M735.366 431.773c7.001-45.186 14.638-94.191 26.73-144.468 7.001-28.638 26.412-49.323 44.868-68.415l1.909-2.546c30.548-32.457 59.506-63.96 59.187-123.466 0-22.275-17.82-40.095-40.095-40.095h-38.185c-3.182-30.548-17.183-57.915-37.548-78.28-23.866-23.866-56.641-38.185-92.6-38.504-36.276 0-69.37 14.638-92.917 38.185-20.684 20.684-34.048 48.049-37.548 78.916l-467.451-0.318c-21.956 0.318-39.776 18.138-40.095 40.095v1.273c0.954 69.688 35.003 99.282 70.642 129.83 20.047 16.865 40.413 34.685 47.414 63.323 12.092 50.277 19.411 98.964 27.047 144.149l1.909 15.911c4.455 26.093 8.273 50.914 13.046 74.143 17.183 84.644 49.64 161.651 125.375 210.655 18.774 11.774 38.822 21.639 59.823 28.003l-3.182 3.182c-21.002 21.002-33.731 49.64-33.731 81.462s13.046 60.778 33.731 81.462c20.684 20.684 49.64 33.731 81.462 33.731s60.46-12.729 81.462-33.731c20.684-20.684 33.412-49.323 33.731-81.462 0-31.821-13.365-60.46-34.048-81.143l-0.318-0.318c24.184-7.001 47.414-17.502 68.733-31.185 105.964-67.779 123.147-186.153 140.649-300.391zM492.572 892.223c-12.092 12.092-29.275 19.729-47.414 19.411-18.774 0.318-35.322-7.319-47.414-19.411s-19.729-28.638-19.411-47.414c-0.318-18.138 7.319-35.322 19.411-47.414s28.957-19.411 47.414-19.411c18.456 0 35.322 7.319 47.414 19.411s19.411 28.957 19.411 47.414c0 18.456-7.319 35.322-19.411 47.414zM656.45 419.681c-13.365 87.826-22.593 192.517-104.692 245.34-30.23 19.411-65.551 29.275-100.555 29.275-35.322-0.318-70.642-10.183-100.873-29.594-56.96-36.594-77.962-95.782-90.372-158.468-4.455-22.911-8.592-46.777-12.41-70.961l-2.546-15.911c-7.001-47.095-15.274-97.373-27.684-150.513-13.046-54.414-43.595-80.508-72.87-105.327-11.138-9.864-22.275-19.093-30.23-30.866l660.922 0.318c-6.364 10.183-14.956 19.411-24.184 28.638l-2.228 2.228c-25.775 27.684-52.505 55.687-63.96 104.692-12.729 53.459-20.684 104.055-28.321 151.15zM708.637 53.103l-98.327-0.318c2.546-8.273 7.001-15.911 13.046-21.956 9.228-9.228 21.956-14.956 35.958-14.956 14.32 0.318 27.047 6.046 36.276 15.274 6.046 6.046 10.501 13.683 13.046 21.956z" />
<glyph unicode="&#xec75;" glyph-name="icon-messages" d="M511.78 959.777c141.349 0 269.403-57.16 362.454-149.767l1.329-2.215c91.721-92.607 148.437-219.777 148.437-359.795 0-55.387-8.862-108.559-25.7-158.629-15.066-47.411-37.664-91.721-65.579-132.043v-181.67c0-21.712-17.281-39.435-38.993-39.435h-381.951c-141.349 0-269.403 57.16-361.568 149.767-93.051 92.607-150.21 220.663-150.21 362.011s57.16 269.403 150.21 362.011c92.165 92.607 220.219 149.767 361.568 149.767v0zM256.556 550.355h510.449c13.293 0 23.484 10.634 23.484 23.484 0 13.293-10.191 23.484-23.484 23.484h-510.449c-12.849 0-23.484-10.191-23.484-23.484 0-12.849 10.634-23.484 23.484-23.484v0zM256.556 424.515h510.449c13.293 0 23.484 10.191 23.484 23.484 0 12.849-10.191 23.484-23.484 23.484h-510.449c-12.849 0-23.484-10.634-23.484-23.484 0-13.293 10.634-23.484 23.484-23.484v0zM256.556 298.232h510.449c13.293 0 23.484 10.634 23.484 23.927 0 12.849-10.191 23.484-23.484 23.484h-510.449c-12.849 0-23.484-10.634-23.484-23.484 0-13.293 10.634-23.927 23.484-23.927v0zM818.403 754.18c-78.428 78.428-186.987 126.726-306.623 126.726-119.193 0-227.753-48.298-306.181-126.726h-0.443c-77.542-77.985-126.283-186.544-126.283-306.181s48.74-227.753 126.726-306.181c78.428-78.428 186.987-126.726 306.181-126.726h342.514v154.641c0 7.976 2.215 15.952 7.532 23.041 26.586 36.334 47.855 77.099 62.033 120.966 13.736 42.094 21.269 87.29 21.269 134.259 0 118.751-47.855 226.423-125.397 304.408l-1.329 1.773z" />
<glyph unicode="&#xec76;" glyph-name="uniEC76" horiz-adv-x="1237" d="M39.31 736.048h942.343c21.648 0 39.319-17.672 39.319-39.319v-718.354c0-21.648-17.672-39.319-39.319-39.319h-942.343c-21.648 0-39.319 17.672-39.319 39.319v718.354c0 21.648 17.672 39.319 39.319 39.319v0zM942.775 623.391l-415.726-415.285c-8.835-8.835-23.857-8.835-33.134 0l-415.285 415.285v-605.697h864.146v605.697zM910.082 657.851h-799.202l399.822-399.822 399.38 399.822z" />
<glyph unicode="&#xec77;" glyph-name="uniEC77" horiz-adv-x="1237" d="M1237.009 691.868c0-146.397-118.678-265.075-265.075-265.075s-265.075 118.678-265.075 265.075c0 146.397 118.678 265.075 265.075 265.075s265.075-118.678 265.075-265.075z" />
<glyph unicode="&#xec78;" glyph-name="uniEC78" horiz-adv-x="1237" d="M1105.927 673.424h-225.756l107.798-107.798c8.835-9.278 8.835-23.857 0-33.134-9.278-9.278-24.299-9.278-33.577 0l-148.884 148.884v0.442l-0.883 0.442-0.442 0.883-1.768 2.651-0.883 1.768-0.883 2.651v0.442l-0.883 4.418v3.976l0.442 2.209 0.442 1.768v0.442l0.883 3.093 0.442 0.883 0.442 0.442 1.768 3.093 1.325 1.325v0.442l148.884 148.884c9.278 9.278 24.299 9.278 33.577 0 8.835-9.278 8.835-24.299 0-33.577l-107.798-107.355h225.756c13.254 0 23.857-10.603 23.857-23.857 0-12.812-10.603-23.415-23.857-23.415v0z" />
<glyph unicode="&#xec7c;" glyph-name="icon-lock" horiz-adv-x="832" d="M787.925 522.741c-19.829 19.829-47.285 32.032-77.283 32.032h-8.135v117.958c0 79.317-32.032 150.498-83.893 202.868-51.861 51.861-124.060 84.401-202.868 84.401-77.283 0-148.465-31.523-199.817-82.367l-3.051-2.034c-51.861-52.369-84.401-123.551-84.401-202.868v-117.958h-7.627c-29.998 0-57.454-12.203-77.283-32.032-19.829-20.338-32.032-47.285-32.032-77.283v-399.635c0-30.506 12.203-57.962 32.032-77.791 19.829-19.321 47.285-32.032 77.283-32.032h589.791c28.473 0 54.403 11.186 74.232 29.49l3.051 3.051c19.829 19.321 32.54 46.777 32.54 77.283v399.635c0 29.998-12.711 56.945-32.54 77.283v0zM219.488 672.731c0 53.895 21.863 103.214 57.454 138.804l2.034 2.542c35.591 34.066 83.893 55.42 136.771 55.42 53.895 0 103.214-22.371 138.804-57.962s57.962-84.91 57.962-138.804v-117.958h-393.025v117.958zM729.963 45.823c0-5.593-2.034-10.169-5.593-13.728l-1.525-1.525c-3.051-2.542-7.118-4.068-12.203-4.068h-589.791c-5.084 0-10.169 2.034-13.219 5.593-3.559 3.559-5.593 8.135-5.593 13.728v399.635c0 5.084 2.034 9.66 5.593 13.219 3.051 3.559 8.135 5.593 13.219 5.593h589.791c5.593 0 10.169-2.034 13.728-5.593s5.593-8.135 5.593-13.219v-399.635zM415.746 394.105c-29.998 0-56.945-12.203-76.775-32.032-19.829-19.321-32.032-46.777-32.032-76.775s12.203-57.454 32.032-77.283c13.219-13.728 30.506-23.388 49.827-28.473v-55.928c0-14.745 12.203-26.947 26.947-26.947 15.253 0 27.456 12.203 27.456 26.947v55.928c18.812 5.084 36.099 14.745 49.827 28.473 19.829 19.829 32.032 47.285 32.032 77.283s-12.203 57.454-32.032 76.775c-19.829 19.829-47.285 32.032-77.283 32.032v0zM454.896 246.657c-10.169-9.66-23.388-15.762-37.625-16.27h-2.542c-14.745 0.508-27.964 6.61-37.625 16.27s-16.27 23.388-16.27 38.641c0 14.745 6.61 28.981 16.27 38.642 10.169 9.66 23.388 15.762 38.641 15.762s28.981-6.101 39.15-15.762c9.66-9.66 15.762-23.897 15.762-38.642 0-15.253-6.101-28.981-15.762-38.641v0z" />
<glyph unicode="&#xec7d;" glyph-name="icon-loading" horiz-adv-x="993" d="M758.824 70.519c10.312-18.477 4.297-41.68-14.18-52.422-18.047-10.312-41.25-4.297-51.992 13.75-10.312 18.047-3.867 41.68 13.75 52.422 18.477 10.312 41.68 3.867 52.422-13.75v0zM534.527-10.262c0-21.055-16.758-38.243-37.812-38.243s-38.243 16.758-38.243 38.243v26.211c0 21.055 17.188 38.243 38.243 38.243 20.625 0 37.812-17.188 37.812-38.243v-26.211zM300.347 31.848c-10.312-18.047-33.945-24.492-51.992-13.75-18.047 10.312-24.492 33.945-14.18 52.422l28.789 48.984c10.312 18.047 33.945 24.492 51.992 14.18 18.477-10.742 24.492-33.945 14.18-52.422l-28.789-49.414zM118.589 186.106c-18.047-10.742-41.25-4.297-51.992 13.75-10.312 18.047-4.297 41.25 14.18 51.992l75.625 43.828c18.047 10.312 41.68 4.297 51.992-14.18 10.742-18.047 4.297-41.25-13.75-51.563l-76.055-43.828zM38.238 409.543c-21.055 0-38.243 17.188-38.243 38.243 0 21.485 17.188 38.243 38.243 38.243h118.165c20.625 0 37.812-16.758 38.243-37.812 0-21.055-17.188-38.243-38.243-38.243l-118.165-0.43zM80.777 644.153c-18.477 10.742-24.492 33.945-14.18 51.992 10.742 18.047 33.945 24.492 51.992 13.75l128.906-74.336c18.047-10.312 24.063-33.515 13.75-51.563-10.312-18.477-33.945-24.492-51.992-14.18l-128.477 74.336zM234.605 825.911l89.376-155.117c10.742-18.047 33.945-24.492 51.992-14.18 18.477 10.742 24.492 33.945 13.75 51.992l-89.376 155.117c-10.312 18.047-33.945 24.492-51.992 14.18-18.047-10.742-24.492-33.945-13.75-51.992v0zM458.473 906.263c0 21.055 17.188 38.243 38.243 38.243 20.625 0 37.812-17.188 37.812-38.243v-179.18c0-21.055-16.758-37.812-37.812-38.243-21.055 0-38.243 17.188-38.243 38.243v179.18zM692.653 863.723c10.742 18.477 33.945 24.922 51.992 14.18 18.477-10.312 24.492-33.945 14.18-51.992l-89.805-155.117c-10.312-18.477-33.515-24.922-51.992-14.18-18.047 10.742-24.492 33.945-13.75 51.992l89.376 155.117zM874.411 710.325l-155.117-89.805c-18.047-10.312-24.492-33.945-14.18-51.992 10.742-18.047 33.945-24.492 51.992-14.18l155.547 89.805c18.047 10.742 24.492 33.945 13.75 51.992-10.312 18.047-33.515 24.492-51.992 14.18v0zM954.762 486.027c21.485 0 38.243-16.758 38.243-38.243 0-21.055-17.188-37.812-38.243-37.812h-179.18c-21.055 0-37.812 17.188-37.812 38.243s17.188 37.812 37.812 37.812h179.18z" />
<glyph unicode="&#xec7e;" glyph-name="icon-info" horiz-adv-x="1040" d="M1032.321 448c0-281.6-229.761-512-514.56-510.72-206.72 0.64-391.040 124.8-469.761 311.68-25.6 61.44-40.32 128.64-40.32 199.040 0 282.24 229.761 512 513.92 510.72 283.52-0.64 510.72-229.761 510.72-510.72zM519.681 763.52c-31.36 0-56.32-25.6-56.32-56.96s24.96-56.96 56.32-56.96c32 0 56.96 25.6 56.96 56.96s-24.96 56.96-56.96 56.96zM463.361 547.839v-358.4c0-31.36 25.6-56.32 56.32-56.32 32 0 56.96 24.96 56.96 56.32v358.4c0 30.72-24.96 56.32-56.96 56.32-30.72 0-56.32-25.6-56.32-56.32zM521.601 845.439c-221.44 1.28-400-177.92-400-397.44 0-55.040 11.52-107.52 31.36-154.88 61.44-145.28 204.8-241.92 365.44-242.561 161.92-0.64 306.561 96 368.64 242.561 19.84 47.36 31.36 99.84 31.36 154.88s-11.52 107.52-31.36 154.88c-61.44 145.92-204.8 241.92-365.44 242.56z" />
<glyph unicode="&#xec7f;" glyph-name="icon-medpack" horiz-adv-x="1117" d="M967.912 801.318h-210.458v37.393c0 33.078-13.424 63.281-35.476 85.334-22.531 22.053-52.734 35.955-85.812 35.955h-155.806c-32.599 0-63.281-13.902-85.334-35.476-22.053-22.531-35.476-52.734-35.476-85.812v-37.393h-210.458c-79.58 0-144.779-65.199-144.779-144.779v-575.761c0-79.58 65.199-144.779 144.779-144.779h818.817c79.58 0 144.779 65.199 144.779 144.779v575.761c0 79.101-65.199 144.779-144.779 144.779v0zM410.846 838.711c0 19.176 7.191 36.914 20.135 49.379 12.465 12.465 30.203 20.615 49.379 20.615h155.806c19.176 0 36.914-8.15 49.379-20.615 12.944-12.465 20.615-30.203 20.615-49.379v-37.393h-295.311v37.393zM1026.878 80.777c0-33.078-25.888-59.445-58.966-59.445h-818.817c-32.599 0-58.966 26.367-58.966 59.445v575.761c0 33.078 25.888 59.445 58.966 59.445h818.817c32.599 0 58.966-26.846 58.966-59.445v-575.761zM797.245 470.53h-137.109v137.109c0 13.902-11.506 25.408-25.408 25.408h-152.45c-13.902 0-25.408-11.506-25.408-25.408v-137.109h-137.109c-14.382 0-25.408-11.506-25.408-25.888v-152.45c0-13.902 11.026-25.408 25.408-25.408h137.109v-137.109c0-14.382 11.506-25.408 25.408-25.408h152.45c13.902 0 25.408 11.026 25.408 25.408v137.109h137.109c14.382 0 25.408 11.506 25.408 25.408v152.45c0 14.382-11.026 25.888-25.408 25.888v0zM771.836 317.601h-137.109c-13.902 0-25.888-11.026-25.888-25.408v-137.109h-101.154v137.109c0 14.382-11.506 25.408-25.408 25.408h-137.109v101.633h137.109c13.902 0 25.408 11.506 25.408 25.408v137.588h101.154v-137.588c0-13.902 11.985-25.408 25.888-25.408h137.109v-101.633z" />
<glyph unicode="&#xec80;" glyph-name="icon-help" horiz-adv-x="1040" d="M665.143 683.816c-15.38 24.35-36.526 44.856-60.876 58.954-24.992 14.098-53.828 22.428-83.945 22.428-23.71 0-46.138-5.126-66.644-14.098-19.864-8.33-38.448-20.506-53.828-35.884s-27.554-33.962-36.526-54.468c-8.972-20.506-13.456-42.934-13.456-66.002 0-16.020 6.408-30.118 16.66-40.37s24.35-16.66 40.37-16.66c16.020 0 30.118 6.408 40.37 16.66s16.66 24.35 16.66 40.37c0 7.69 1.282 14.738 4.486 21.788 2.564 6.408 7.048 12.816 12.176 17.942s10.894 8.972 17.942 12.176c6.408 2.564 14.098 4.486 21.788 4.486 15.38 0 29.476-6.408 39.73-16.66 18.584-19.224 21.788-51.905 7.048-74.333-5.126-7.69-12.816-14.098-19.864-20.506-19.864-17.302-41.012-35.244-57.032-64.080s-26.914-67.925-26.914-126.879c0-16.020 6.408-30.118 16.66-40.37s24.35-16.66 40.37-16.66c15.38 0 30.118 6.408 40.37 16.66s16.66 24.35 16.66 40.37c0 33.322 5.768 55.109 14.098 71.129 8.33 15.38 19.224 24.992 29.476 33.962 10.252 8.33 19.864 16.66 28.836 25.632 8.33 9.612 16.66 19.864 23.068 32.040 5.126 10.252 9.612 21.788 12.816 35.244 7.048 30.758 7.048 66.002-2.564 96.12-3.844 14.738-10.252 28.196-17.942 41.012zM520.321 246.148c-16.020 0-30.118-6.408-40.37-16.66s-16.66-24.35-16.66-40.37c0-15.38 6.408-29.476 16.66-39.73 10.252-10.894 24.35-16.66 40.37-16.66 15.38 0 30.118 5.768 40.37 16.66 10.252 10.252 16.66 24.35 16.66 39.73 0 16.020-6.408 30.118-16.66 40.37s-24.992 16.66-40.37 16.66zM883.656 808.772c-92.276 92.916-219.795 150.588-361.412 150.588-142.258 0.64-271.059-56.39-364.616-149.307-92.276-92.916-149.948-221.077-149.948-362.053 0-35.244 3.844-69.848 10.252-103.169 7.048-33.322 16.66-65.362 30.118-96.12 39.088-93.557 105.092-171.094 187.114-225.562 81.382-55.109 179.424-85.868 283.234-86.508 142.258-0.64 271.059 56.39 363.975 149.307s149.948 221.077 149.948 362.053c0 140.976-56.39 268.496-148.666 360.771zM740.757 116.065c-64.721-42.293-141.617-66.002-222.358-66.002-80.1 0.64-156.356 24.992-219.795 67.284-64.080 42.293-115.344 102.528-146.103 175.58-9.612 23.71-17.302 48.701-23.068 74.974-5.126 25.632-7.69 52.546-7.69 80.1 0 110.218 44.216 209.542 116.626 281.953 72.41 71.77 172.376 116.626 283.875 115.985 80.1-0.64 156.356-24.35 219.795-67.284 63.44-42.293 114.704-102.528 145.462-175.58 20.506-48.701 31.4-101.888 31.4-155.074s-10.894-105.732-31.4-155.074c-30.758-73.052-82.664-134.568-146.744-176.861z" />
<glyph unicode="&#xec81;" glyph-name="icon-fullscreen-on" horiz-adv-x="1227" d="M904.008 348.54c-15.221 0-27.817-12.597-27.817-27.817v-96.049l-99.723 99.723c-10.497 10.497-28.342 10.497-39.365 0-11.022-11.022-11.022-28.867 0-39.889l99.198-99.198h-95.524c-15.746 0-27.817-12.597-27.817-28.342 0-15.221 12.072-27.817 27.817-27.817h163.231c15.746 0 27.817 13.122 27.817 27.817v163.756c0 15.221-12.072 27.817-27.817 27.817v0zM1154.891 894.918c-40.414 39.889-95.524 65.082-156.408 65.082h-769.967c-60.359 0-115.994-24.669-155.358-64.033l-1.050-1.050c-40.414-40.414-65.082-95.524-65.082-156.408v-581.019c0-60.359 24.669-115.469 64.033-155.358l1.050-1.050c39.889-39.889 95.524-65.082 156.408-65.082h769.967c59.309 0 113.894 24.143 153.784 62.458l2.624 2.624c40.414 39.889 65.082 95.524 65.082 156.408v581.019c0 60.883-24.669 116.518-65.082 156.408v0zM1126.548 157.491c0-35.166-14.696-67.182-37.79-90.275l-1.574-2.1c-23.094-22.044-54.585-35.69-88.701-35.69h-769.967c-35.166 0-67.706 14.171-90.801 37.79-23.094 23.094-37.79 55.11-37.79 90.275v581.019c0 35.166 14.696 67.182 37.79 90.275s55.635 37.79 90.801 37.79h769.967c35.166 0 67.182-14.696 90.275-37.79s37.79-55.11 37.79-90.275v-581.019zM486.221 766.327h-163.756c-15.221 0-27.817-12.597-27.817-27.817v-163.231c0-15.221 12.596-28.342 27.817-28.342 15.746 0 28.342 13.122 28.342 28.342v96.049l99.198-99.723c11.022-10.497 28.867-10.497 39.365 0 11.022 11.022 11.022 28.867 0 39.365l-99.198 99.723h96.049c15.221 0 27.817 12.597 27.817 27.817 0 15.746-12.597 27.817-27.817 27.817v0z" />
<glyph unicode="&#xec82;" glyph-name="icon-favourites" horiz-adv-x="1069" d="M531.743 781.674l-76.754-236.238c-5.975-18.385-22.98-29.415-40.905-28.495l-246.349 0.459 201.307-146.154c15.167-10.571 20.682-29.415 14.707-46.42l-77.214-235.318 200.848 146.614c14.707 10.571 34.47 10.112 48.259 0l0.459-0.459 200.388-146.154-77.214 236.238c-5.516 17.465 0.919 35.849 15.167 45.961l200.848 145.695-248.647-0.459c-17.924 0-33.551 11.95-38.607 28.495l-76.294 236.238zM386.508 598.291l106.169 328.618c4.136 11.95 13.789 22.061 26.197 26.197 21.601 6.894 44.582-4.596 51.475-26.197l106.169-328.618 342.406 0.919c13.789 0.919 27.576-5.055 35.849-17.005 13.328-18.385 9.192-43.663-9.192-56.991l-279.44-202.227 107.088-328.158c3.677-11.95 2.298-25.738-5.975-36.768-12.869-17.924-38.607-22.061-56.532-8.732l-278.981 203.605-276.683-201.766c-10.571-8.732-25.278-12.409-39.066-7.814-21.601 6.894-33.092 29.874-26.197 51.475l107.088 328.158-279.44 202.227c-10.571 7.353-16.546 19.763-16.546 33.092 0 22.521 17.924 40.905 39.986 40.905l345.623-0.919z" />
<glyph unicode="&#xec83;" glyph-name="icon-error-sq-small" d="M0 640.212v-384.424c0-176.327 143.174-319.788 319.788-319.788h384.424c176.327 0 319.788 143.174 319.788 319.788v384.424c0 176.327-143.174 319.788-319.788 319.788h-384.424c-176.327 0-319.788-143.174-319.788-319.788zM320 704h128v-320h-128v320zM320 320h128v-128h-128v128zM576 704h128v-320h-128v320zM576 320h128v-128h-128v128z" />
<glyph unicode="&#xec85;" glyph-name="icon-error-rnd-small" d="M512-64c282.77 0 512 229.23 512 512s-229.23 512-512 512c-282.77 0-512-229.23-512-512s229.23-512 512-512zM320 704h128v-320h-128v320zM320 320h128v-128h-128v128zM576 704h128v-320h-128v320zM576 320h128v-128h-128v128z" />
<glyph unicode="&#xec87;" glyph-name="icon-edit" horiz-adv-x="1040" d="M1031.996 623.309c0 40.345-15.37 80.69-46.109 111.43l-178.672 179.152c-30.739 30.739-71.084 46.109-111.91 46.109-40.345-0.48-80.69-15.37-111.43-46.109l-567.715-568.677-0.48-1.441-0.961-0.961h-0.48v-0.48l-0.48-0.48v-0.48l-0.48-0.48v-1.441l-0.48-0.48-0.961-1.921v-0.48l-0.48-0.48v-0.48l-0.48-0.48v-0.48l-0.48-0.961v-0.48l-0.48-0.48v-0.961l-0.48-0.961v-0.48l-0.48-1.921-0.48-0.961v-1.921l-0.48-0.961v-345.816c0-23.535 19.692-42.747 42.747-42.747h346.777l0.961 0.48h0.961l0.961 0.48h2.402l0.48 0.48 0.961 0.48h1.441l1.921 0.961h0.48l1.441 0.48 3.842 1.921 0.48 0.48 0.961 0.48 0.961 0.961h0.961l0.961 0.961 0.961 0.48 0.48 0.961 0.961 0.48 0.961 0.961 0.961 0.48 0.48 0.961 563.393 563.393c30.739 30.739 46.109 71.084 46.109 111.43v0zM512.792 721.77l50.912-51.392-401.531-401.531-50.912 50.912 401.531 402.011zM93.489 21.012v195.962l195.962-195.962h-195.962zM198.675 232.825l401.531 401.531 106.627-106.627-401.531-401.531-106.627 106.627zM392.716 38.783l-51.392 50.912 401.531 402.011 50.912-50.912-401.051-402.011zM946.983 623.309v0c0-18.732-7.205-36.983-21.133-51.392l-71.565-71.084-280.976 281.456 6.724 6.244 25.456 25.456 38.904 39.385c14.409 13.929 32.66 21.133 50.912 21.133 18.732 0 37.463-7.204 51.392-21.133l179.152-179.152c13.929-13.929 21.133-32.18 21.133-50.912v0z" />
<glyph unicode="&#xec88;" glyph-name="icon-drag" horiz-adv-x="1109" d="M-0.002 526.418h1109.004v156.836h-1109.004v-156.836zM-0.002 212.746h1109.004v156.836h-1109.004v-156.836z" />
</font>
</defs>
</svg>
