<svg xmlns="http://www.w3.org/2000/svg" width="352.8906" height="327.75" viewBox="0 0 352.8906 327.75"><defs><style>.cls-1{fill:#f5f5f5;}.cls-2{fill:#ebebeb;}.cls-12,.cls-3{fill:#27debf;}.cls-14,.cls-4{opacity:0.2;}.cls-11,.cls-19,.cls-5{fill:#fff;}.cls-14,.cls-15,.cls-6{fill:#1da777;}.cls-7{fill:#e0e0e0;}.cls-8{fill:#455a64;}.cls-9{fill:#37474f;}.cls-10{fill:#263238;}.cls-11,.cls-12{stroke:#1da777;stroke-miterlimit:10;}.cls-13,.cls-15{opacity:0.1;}.cls-16{fill:#ffa8a7;}.cls-17{fill:#f28f8f;}.cls-18{opacity:0.3;}.cls-19{opacity:0.7;}</style></defs><title>Mobile-login</title><g id="Floor"><path class="cls-1" d="M125.2349,389.2432c68.9062,32.8418,180.6255,32.8427,249.5307.0009s68.9063-86.09,0-118.9316S194.14,237.47,125.2339,270.3115,56.3281,356.4014,125.2349,389.2432Z" transform="translate(-73.5547 -86.125)"/></g><g id="Shadow"><ellipse class="cls-2" cx="300.9756" cy="267.8964" rx="22.9784" ry="10.9518"/></g><g id="Plants"><path class="cls-3" d="M119.9541,355.5928l8.124-4.69a32.5757,32.5757,0,0,0,10.021-14.0712c2.5113-6.92,2.1651-12.1846.3643-14.8233-2.2154-3.2471-7.9463-2.68-8.1738,4.166C129.8413,339.6543,125.9082,348.9805,119.9541,355.5928Z" transform="translate(-73.5547 -86.125)"/><path class="cls-4" d="M119.9541,355.5928l8.124-4.69a32.5757,32.5757,0,0,0,10.021-14.0712c2.5113-6.92,2.1651-12.1846.3643-14.8233-2.2154-3.2471-7.9463-2.68-8.1738,4.166C129.8413,339.6543,125.9082,348.9805,119.9541,355.5928Z" transform="translate(-73.5547 -86.125)"/><path class="cls-5" d="M119.9546,356.0928a.5.5,0,0,1-.2852-.9112c18.7969-13.0068,15.1558-31.1279,15.1167-31.31a.5.5,0,0,1,.9776-.211c.0405.1875,3.8393,18.9434-15.5249,32.3428A.4944.4944,0,0,1,119.9546,356.0928Z" transform="translate(-73.5547 -86.125)"/><path class="cls-6" d="M103.7061,364.9736s-2.8282-2.3027-2.1441-5.42,2.5088-5.3594-.6269-9.3808-3.9463-9.3809-.2583-12.2872c2.851-2.247,7.3.9375,8.9067-5.0156,1.1719-4.34.772-13.9492,6.3086-17.1465s8.9741,1.6162,8.1235,8.1338c-.76,5.8311-1.831,11.4453-1.0053,12.9737,1.6152,2.9882,4.3911,2.5869,4.2646,8.0654-.1177,5.1006-4.94,9.3223-4.94,9.3223Z" transform="translate(-73.5547 -86.125)"/><path class="cls-5" d="M112.998,360.1084a.5.5,0,0,1-.496-.44c-1.4312-11.8487,1.9794-32.3067,4.8-38.3877a.5.5,0,0,1,.9073.42c-2.7715,5.9756-6.083,26.5225-4.7144,37.8486a.5.5,0,0,1-.4365.5557A.4291.4291,0,0,1,112.998,360.1084Z" transform="translate(-73.5547 -86.125)"/><path class="cls-5" d="M112.7275,350.8838a.503.503,0,0,1-.2192-.0508c-3.47-1.6963-5.6689-7.7217-5.7612-7.9775a.5.5,0,1,1,.9414-.3379c.021.0586,2.1538,5.8984,5.2593,7.417a.5.5,0,0,1-.22.9492Z" transform="translate(-73.5547 -86.125)"/><path class="cls-5" d="M112.6709,354.877a.5.5,0,0,1-.186-.9639c5.8388-2.34,9.479-9.2979,9.5151-9.3682a.5.5,0,0,1,.8887.459c-.1543.2988-3.85,7.36-10.0318,9.8369A.5.5,0,0,1,112.6709,354.877Z" transform="translate(-73.5547 -86.125)"/><path class="cls-3" d="M208.022,285.5352s-9.5894-2.3379-10.0884-20.293c-.5386-19.3814,2.35-41.9907-8.96-43.83s-17.6553,12.0283-17.51,28.1426c.1274,14.1489,5.8252,44.8491,36.5571,50.8657Z" transform="translate(-73.5547 -86.125)"/><path class="cls-4" d="M208.022,285.5352s-9.5894-2.3379-10.0884-20.293c-.5386-19.3814,2.35-41.9907-8.96-43.83s-17.6553,12.0283-17.51,28.1426c.1274,14.1489,5.8252,44.8491,36.5571,50.8657Z" transform="translate(-73.5547 -86.125)"/><path class="cls-5" d="M208.0215,298.5752a.5619.5619,0,0,1-.09-.0078,25.0716,25.0716,0,0,1-16.7285-11.3067c-12.4243-18.5341-8.51-53.13-7.2246-59.1733a.5.5,0,1,1,.9785.208c-1.271,5.9756-5.1528,40.1646,7.0767,58.4087A24.1042,24.1042,0,0,0,208.11,297.583a.5.5,0,0,1-.0889.9922Z" transform="translate(-73.5547 -86.125)"/><path class="cls-6" d="M208.0225,344.67c-9.9146,1.3438-26.0191,1.32-35.295-5.9961s-7.3466-13.622-3.7783-16.2519,6.667-5.6367.5288-11.4737-16.0058-15.2168-19.1963-29.289-1.62-22.8653,4.6592-25.7979c6.0933-2.8447,7.6978,1.6748,11.4273,10.9961s12.1225,1.33,19.2978,4.24,6.8941,8.67,7.3462,13.622,2.8223,6.32,6.8848,6.32,8.123,2.3448,8.124,7.0352Z" transform="translate(-73.5547 -86.125)"/><path class="cls-5" d="M208.0225,328.333a.4988.4988,0,0,1-.1348-.0185c-.4292-.12-10.6826-3.1045-25.6064-16.8135-15.8975-14.6035-23.4039-36.499-23.4776-36.7178a.5.5,0,0,1,.9473-.32c.0732.2178,7.5029,21.876,23.207,36.3017,14.7241,13.5254,25.0967,16.5577,25.2,16.587a.5.5,0,0,1-.1352.9814Z" transform="translate(-73.5547 -86.125)"/><path class="cls-5" d="M186.4336,314.9922a.5.5,0,0,1-.4658-.3184c-3.209-8.247-3.9361-25.8759-3.9654-26.622a.5013.5013,0,0,1,.48-.52.5228.5228,0,0,1,.5191.4805c.0073.1807.75,18.208,3.8979,26.2978a.5.5,0,0,1-.2847.6475A.4927.4927,0,0,1,186.4336,314.9922Z" transform="translate(-73.5547 -86.125)"/><path class="cls-5" d="M186.35,326.8525a24.99,24.99,0,0,1-2.7588-.1377.5.5,0,0,1-.4375-.5556.4936.4936,0,0,1,.5557-.4365c.0928.0087,9.397,1.0605,13.67-3.2969a.5.5,0,1,1,.7139.6992C194.9658,326.3145,189.6079,326.8525,186.35,326.8525Z" transform="translate(-73.5547 -86.125)"/></g><g id="Device"><path class="cls-7" d="M217.8784,358.0518l94.0249-54.2852a1.0572,1.0572,0,0,0,.001-2.002l-8.6982-5.0322a3.8221,3.8221,0,0,0-3.4639-.0019l-94.05,54.2851a1.0555,1.0555,0,0,0,0,2l8.7217,5.0362A3.8325,3.8325,0,0,0,217.8784,358.0518Z" transform="translate(-73.5547 -86.125)"/><path class="cls-8" d="M309.3037,94.1963l-84.7666,48.94a9.5726,9.5726,0,0,0-4.33,7.5v201.07c0,2.7617,1.939,3.8808,4.33,2.5l84.7676-48.94a9.5721,9.5721,0,0,0,4.33-7.5l-.001-201.07C313.6338,93.9351,311.6953,92.8154,309.3037,94.1963Z" transform="translate(-73.5547 -86.125)"/><path class="cls-9" d="M224.5371,143.1362l84.7666-48.94c2.1387-1.2344,3.91-.4663,4.2627,1.6836a9.68,9.68,0,0,0-4.2627-6.6836l-3.5254-2.0357a9.5723,9.5723,0,0,0-8.6611,0l-84.7661,48.94a8.8516,8.8516,0,0,0-3.062,3.2324l12.1865,7.0352A8.8531,8.8531,0,0,1,224.5371,143.1362Z" transform="translate(-73.5547 -86.125)"/><path class="cls-10" d="M208.0225,344.67a9.5689,9.5689,0,0,0,4.33,7.5l3.5259,2.0362a9.6819,9.6819,0,0,0,7.9238.3476c-2.0405.7744-3.5952-.376-3.5952-2.8476v-201.07a8.852,8.852,0,0,1,1.2686-4.268l-12.1865-7.0352a8.8478,8.8478,0,0,0-1.2681,4.2676Z" transform="translate(-73.5547 -86.125)"/><path class="cls-5" d="M226.8677,169.9336l80.1059-46.25c1.4356-.8286,2.5987-.1568,2.5987,1.5l.0009,148.7847a5.743,5.743,0,0,1-2.5986,4.5l-80.1064,46.25c-1.4346.8281-2.5982.1562-2.5982-1.5L224.27,174.4336A5.7427,5.7427,0,0,1,226.8677,169.9336Z" transform="translate(-73.5547 -86.125)"/><path class="cls-9" d="M266.9209,126.2939a3.3687,3.3687,0,0,0-1.5234,2.6382c0,.9717.6826,1.3653,1.5234.8794a3.3643,3.3643,0,0,0,1.5234-2.6382C268.4443,126.2021,267.7627,125.8081,266.9209,126.2939Z" transform="translate(-73.5547 -86.125)"/><path class="cls-9" d="M266.9229,308.7383a13.2935,13.2935,0,0,0-6.0147,10.418c0,3.8349,2.6924,5.39,6.0147,3.4716a13.2919,13.2919,0,0,0,6.0136-10.417C272.9365,308.376,270.2441,306.8213,266.9229,308.7383Z" transform="translate(-73.5547 -86.125)"/><path class="cls-9" d="M252.5332,141.771a6.7351,6.7351,0,0,0-3.0459,5.2769c0,1.9428,1.3638,2.73,3.0469,1.7587A6.732,6.732,0,0,0,255.58,143.53C255.58,141.5874,254.2158,140.8,252.5332,141.771Z" transform="translate(-73.5547 -86.125)"/><path class="cls-9" d="M259.9824,141.1123c0,1.2949.97,1.7856,2.1651,1.0952L282.19,130.6362a4.6443,4.6443,0,0,0,2.1651-3.5952c-.001-1.2954-.97-1.7856-2.166-1.0952l-20.042,11.5713A4.6433,4.6433,0,0,0,259.9824,141.1123Z" transform="translate(-73.5547 -86.125)"/><path class="cls-9" d="M214.7632,176.3721a5.3879,5.3879,0,0,1,2.437,4.2217c0,1.5541-1.0913,2.184-2.437,1.4067a5.3864,5.3864,0,0,1-2.4375-4.2212C212.3257,176.2251,213.417,175.5952,214.7632,176.3721Z" transform="translate(-73.5547 -86.125)"/><path class="cls-9" d="M214.7632,195.1484A5.3889,5.3889,0,0,1,217.2,199.37c0,1.5542-1.0913,2.1841-2.437,1.4072a5.3869,5.3869,0,0,1-2.4375-4.2216C212.3257,195.0015,213.417,194.3716,214.7632,195.1484Z" transform="translate(-73.5547 -86.125)"/><path class="cls-8" d="M214.01,176.7485a5.3866,5.3866,0,0,1,2.4375,4.2212c0,1.5542-1.0914,2.1846-2.4375,1.4073a5.3867,5.3867,0,0,1-2.4371-4.2212C211.5732,176.6011,212.6646,175.9712,214.01,176.7485Z" transform="translate(-73.5547 -86.125)"/><path class="cls-8" d="M214.01,195.5249a5.3874,5.3874,0,0,1,2.4375,4.2217c0,1.5542-1.0914,2.1841-2.4375,1.4072a5.3875,5.3875,0,0,1-2.4371-4.2217C211.5732,195.3779,212.6646,194.748,214.01,195.5249Z" transform="translate(-73.5547 -86.125)"/><path class="cls-11" d="M325.8213,129.8887c0-1.6568-1.1631-2.3282-2.5986-1.5l-9.5879,5.5356-70.5181,40.7139a5.7424,5.7424,0,0,0-2.5981,4.5l.0009,148.7847c0,1.6572,1.1631,2.3281,2.5977,1.5l70.543-40.7286,9.5634-5.52a5.7459,5.7459,0,0,0,2.5987-4.5Z" transform="translate(-73.5547 -86.125)"/><path class="cls-12" d="M241.9561,330.2793a1.8323,1.8323,0,0,1-.9258-.2412,2.2977,2.2977,0,0,1-1.0108-2.1152l-.0009-148.7847a6.2112,6.2112,0,0,1,2.8481-4.9331l70.5181-40.7139.5.8662-70.5181,40.7139a5.2771,5.2771,0,0,0-2.3481,4.0669l.0009,148.7847a1.102,1.102,0,0,0,1.8477,1.0673l70.543-40.7285.5.8653-70.543,40.7285A2.8508,2.8508,0,0,1,241.9561,330.2793Z" transform="translate(-73.5547 -86.125)"/><path class="cls-12" d="M313.91,289.127l-.5-.8653,9.5634-5.5205a5.2807,5.2807,0,0,0,2.3487-4.0674l-.001-148.7851a1.1024,1.1024,0,0,0-1.8486-1.0669l-9.5879,5.5356-.5-.8662,9.5879-5.5356a2.0722,2.0722,0,0,1,3.3486,1.9331l.001,148.7851a6.2119,6.2119,0,0,1-2.8487,4.9326Z" transform="translate(-73.5547 -86.125)"/><path class="cls-6" d="M283.17,164.4644c8.9737-5.1812,16.2481-.981,16.2481,9.3808s-7.2744,22.9614-16.2481,28.1426-16.248.981-16.248-9.3809S274.1963,169.645,283.17,164.4644Z" transform="translate(-73.5547 -86.125)"/><path class="cls-5" d="M283.17,172.6191c2.9112-1.6811,5.2715-.3183,5.2715,3.043a11.6517,11.6517,0,0,1-5.2715,9.13c-2.9111,1.6806-5.2715.3183-5.2715-3.0435A11.6511,11.6511,0,0,1,283.17,172.6191Z" transform="translate(-73.5547 -86.125)"/><path class="cls-5" d="M293.4443,191.5439c0-5.5229-3.8779-7.7617-8.66-5l-2.99,1.7261c-4.7822,2.7613-8.66,9.4771-8.66,15v1.4863c2.7646.918,6.2451.42,10.0361-1.7685a32.0173,32.0173,0,0,0,10.2744-10.1631Z" transform="translate(-73.5547 -86.125)"/><path class="cls-3" d="M251.7314,224.8389,272.64,212.7676c.9571-.5523,1.7325-.1045,1.7325,1v.69a3.8267,3.8267,0,0,1-1.7325,3l-20.9082,12.0713c-.956.5527-1.7319.1045-1.7319-1v-.69A3.83,3.83,0,0,1,251.7314,224.8389Z" transform="translate(-73.5547 -86.125)"/><path class="cls-13" d="M251.7314,224.8389,272.64,212.7676c.9571-.5523,1.7325-.1045,1.7325,1v.69a3.8267,3.8267,0,0,1-1.7325,3l-20.9082,12.0713c-.956.5527-1.7319.1045-1.7319-1v-.69A3.83,3.83,0,0,1,251.7314,224.8389Z" transform="translate(-73.5547 -86.125)"/><path class="cls-6" d="M250.8657,239.41l63.26-36.523c.4785-.2764.8662-.0527.8662.5v7.3809a1.9144,1.9144,0,0,1-.8662,1.5l-63.26,36.5234c-.478.2759-.8657.0523-.8657-.5V240.91A1.9149,1.9149,0,0,1,250.8657,239.41Z" transform="translate(-73.5547 -86.125)"/><path class="cls-14" d="M250.8657,239.41l63.26-36.523c.4785-.2764.8662-.0527.8662.5v7.3809a1.9144,1.9144,0,0,1-.8662,1.5l-63.26,36.5234c-.478.2759-.8657.0523-.8657-.5V240.91A1.9149,1.9149,0,0,1,250.8657,239.41Z" transform="translate(-73.5547 -86.125)"/><path class="cls-3" d="M251.7314,257.6719,272.64,245.6006c.9571-.5523,1.7325-.1045,1.7325,1v.69a3.8275,3.8275,0,0,1-1.7325,3l-20.9082,12.0713c-.956.5527-1.7319.1045-1.7319-1v-.69A3.8306,3.8306,0,0,1,251.7314,257.6719Z" transform="translate(-73.5547 -86.125)"/><path class="cls-13" d="M251.7314,257.6719,272.64,245.6006c.9571-.5523,1.7325-.1045,1.7325,1v.69a3.8275,3.8275,0,0,1-1.7325,3l-20.9082,12.0713c-.956.5527-1.7319.1045-1.7319-1v-.69A3.8306,3.8306,0,0,1,251.7314,257.6719Z" transform="translate(-73.5547 -86.125)"/><path class="cls-6" d="M250.8657,272.2432l63.26-36.5235c.4785-.2759.8662-.0522.8662.5v7.3809a1.9136,1.9136,0,0,1-.8662,1.5l-63.26,36.5234c-.478.2764-.8657.0528-.8657-.5v-7.3808A1.9157,1.9157,0,0,1,250.8657,272.2432Z" transform="translate(-73.5547 -86.125)"/><path class="cls-14" d="M250.8657,272.2432l63.26-36.5235c.4785-.2759.8662-.0522.8662.5v7.3809a1.9136,1.9136,0,0,1-.8662,1.5l-63.26,36.5234c-.478.2764-.8657.0528-.8657-.5v-7.3808A1.9157,1.9157,0,0,1,250.8657,272.2432Z" transform="translate(-73.5547 -86.125)"/><path class="cls-6" d="M276.1045,276.4336l24.97-14.416c.9571-.5528,1.7324-.1045,1.7324,1v7.7256a3.8268,3.8268,0,0,1-1.7324,3l-24.97,14.417c-.957.5517-1.7324.1044-1.7324-1v-7.7266A3.8284,3.8284,0,0,1,276.1045,276.4336Z" transform="translate(-73.5547 -86.125)"/><path class="cls-15" d="M276.1045,276.4336l24.97-14.416c.9571-.5528,1.7324-.1045,1.7324,1v7.7256a3.8268,3.8268,0,0,1-1.7324,3l-24.97,14.417c-.957.5517-1.7324.1044-1.7324-1v-7.7266A3.8284,3.8284,0,0,1,276.1045,276.4336Z" transform="translate(-73.5547 -86.125)"/></g><g id="Character"><path class="cls-16" d="M335.3027,243.8545s-12.2851-16.9468-13.0341-18.9634c-.5655-1.52.039-3.7812.1787-4.832s.3437-3.39.5185-4.041c.3057-1.1358-1.167-.9034-1.9931.13-.8457,1.0582-1.1172,3.1236-1.5381,3.4634s-3.7032-4.4292-5.416-6.6362-2.7832-3.5366-3.8243-2.7188c-.75.5894-.1914,1.875,1.05,3.7544a36.7081,36.7081,0,0,1,1.9786,3.1534c.1875.4038-.834.436-1.3848,1.2841-.43.6622-.0293,1.7334-.5986,2.2442a1.8809,1.8809,0,0,0-.4766,2.4658,16.0746,16.0746,0,0,0,4.23,4.4775c1.8369,1.273,2.581,1.72,3.6641,3.4517s10.872,19.4033,11.5292,20.4634,1.9327,3.2207,3.8633,3.2822,17.7276-13.54,18.542-14.2183c2.6035-2.1709,3.4248-2.49,3.874-.5336.1407.6118.2325,1.31.3311,2.0981.3125,2.4761,1.999,11.3374,1.999,11.3374s7.99,3.8721,14.5684,1.9639,8.7851-4.6568,8.7851-4.6568l-3.291-5.3633c.8965-2.2148,5.0342-11.1684,6.333-17.4433l-20.6-3.3257c-.4228-.0923-1.0976-.2617-1.96-.4888-1.1309-.2978-3.9746-1.2963-6.167.61-7.0889,6.1655-21.1612,19.0415-21.1612,19.0415" transform="translate(-73.5547 -86.125)"/><path class="cls-9" d="M376.1436,347.792l-3.6934,5.1318a12.3425,12.3425,0,0,0,5.3643,1.1416c3.3046.126,4.2128-.959,4.3349-1.22.5576-1.1963-.3125-3.3555-.5517-5.2109Z" transform="translate(-73.5547 -86.125)"/><path class="cls-9" d="M372.6582,350.46s-4.4746-.2852-7.5693-.6748-5.543,1.12-4.8145,2.3945,2.43,2.333,5.0811,3.2246c2.2724.7646,4.9951,1.32,7.3672,2.03,2.4306.7275,3.9873,1.56,5.3642,1.0869,1.5352-.5293,2.1944-1.1426,2.0635-2.2608a48.3757,48.3757,0,0,0-1.2432-4.7177Z" transform="translate(-73.5547 -86.125)"/><path class="cls-17" d="M382.1494,342.6357s-.56,4.6612-.6025,5.6622-4.5489,1.3212-5.4033-.5059l-.14-5.6992Z" transform="translate(-73.5547 -86.125)"/><path class="cls-16" d="M377.6055,345.5039l1.6123,7.0713s.1523.8623-3.5323,1.4111-9.4589-1.9267-10.4423-2.43-1.1006-1.5048,2.5166-1.3046,4.8984.208,4.8984.208l-1.1738-3.1348Z" transform="translate(-73.5547 -86.125)"/><path class="cls-17" d="M385.19,228.0171l2.5459-.7026s5.335,16.8662,5.9248,18.4907,1.2549,3.3569.1075,5.3667c-1.3672,2.3926-8.5782,12.0234-8.5782,12.0234l-4.5771-4.4795,5.1924-9.5141-4.5928-9.3057Z" transform="translate(-73.5547 -86.125)"/><path class="cls-9" d="M358.9727,206.0928a7.5152,7.5152,0,0,1,.1084-7.27c2.5341-4.7148,8.2-7.0156,14.9433-6.1333,3.1152.4078,6.792,2.9654,8.8086,6.87,2.2158,4.2885,2.4229,12.9316,2.9727,16.2Z" transform="translate(-73.5547 -86.125)"/><path class="cls-16" d="M358.8193,207.9385s-1.6015,3.05-1.3242,3.3276a4.1061,4.1061,0,0,0,1.3457.502Z" transform="translate(-73.5547 -86.125)"/><path class="cls-16" d="M363.6807,198.2954c-1.7422,1.1358-4.7412,3.2124-4.8731,10.0664-.1347,7.0361.8594,9.3042,1.8994,10.12.7022.55,4.8086.2715,6.5723-.143s6.835-2.9195,8.66-6.7285c2.1464-4.4815,1.7119-11.0435-1.4825-12.9483A11.1567,11.1567,0,0,0,363.6807,198.2954Z" transform="translate(-73.5547 -86.125)"/><path class="cls-6" d="M382.1484,250.8237c3.084,4.7993,6.0157,9.0259,6.6407,14.42,1.32,11.39-3.0127,24.4111-3.9317,32.833a15.2509,15.2509,0,0,1,2.9072,8.2285c-.0019,3.48-5.6152,36.331-5.6152,36.331s-4.083,1.2442-6.1455-.5429l-3.8584-60.4336,2.0322-7.3574Z" transform="translate(-73.5547 -86.125)"/><path class="cls-14" d="M382.1484,250.8237c3.084,4.7993,6.0157,9.0259,6.6407,14.42,1.32,11.39-3.0127,24.4111-3.9317,32.833a15.2509,15.2509,0,0,1,2.9072,8.2285c-.0019,3.48-5.6152,36.331-5.6152,36.331s-4.083,1.2442-6.1455-.5429l-3.8584-60.4336,2.0322-7.3574Z" transform="translate(-73.5547 -86.125)"/><path class="cls-3" d="M372.1455,281.6592l2.0322-7.3574a49.2249,49.2249,0,0,0,11.0127-4.3682s-2.0849,3.7861-8.0556,5.8623l-3.11,9.458-.2676,21.6436Z" transform="translate(-73.5547 -86.125)"/><path class="cls-18" d="M372.1455,281.6592l2.0322-7.3574a49.2249,49.2249,0,0,0,11.0127-4.3682s-2.0849,3.7861-8.0556,5.8623l-3.11,9.458-.2676,21.6436Z" transform="translate(-73.5547 -86.125)"/><path class="cls-6" d="M382.1484,250.8237c1.65,2.6929,5.5938,7.2984,4.7559,11.7232-1.0166,5.3623-3.9014,9.1308-12.7266,11.7549L365.9,304.2773s4.31,4.0332,5.6279,7.87,6.0772,33.3564,6.0772,33.3564-1.4717,2.4033-6.1211,1.8213c0,0-16.21-37.0244-17.3555-39.4082a11.9933,11.9933,0,0,1-1.3721-8.0488c.5157-3.8819,6.0381-46.3516,6.0381-46.3516Z" transform="translate(-73.5547 -86.125)"/><path class="cls-14" d="M382.1484,250.8237c1.65,2.6929,5.5938,7.2984,4.7559,11.7232-1.0166,5.3623-3.9014,9.1308-12.7266,11.7549L365.9,304.2773s4.31,4.0332,5.6279,7.87,6.0772,33.3564,6.0772,33.3564-1.4717,2.4033-6.1211,1.8213c0,0-16.21-37.0244-17.3555-39.4082a11.9933,11.9933,0,0,1-1.3721-8.0488c.5157-3.8819,6.0381-46.3516,6.0381-46.3516Z" transform="translate(-73.5547 -86.125)"/><path class="cls-3" d="M385.19,228.0171l-20.6-3.3257c-.4219-.0923-1.1025-.2632-1.9629-.49l-.0019,0s-.878,12.9155-6.1612,15.88h-.0009c.125.6157.2334,1.3085.332,2.0981.3125,2.4761,1.999,11.3374,1.999,11.3374s7.99,3.8721,14.5684,1.9639,8.7851-4.6568,8.7851-4.6568l-3.291-5.3633C379.7539,243.2456,383.8916,234.292,385.19,228.0171Z" transform="translate(-73.5547 -86.125)"/><path class="cls-19" d="M385.19,228.0171l-20.6-3.3257c-.4219-.0923-1.1025-.2632-1.9629-.49l-.0019,0s-.878,12.9155-6.1612,15.88h-.0009c.125.6157.2334,1.3085.332,2.0981.3125,2.4761,1.999,11.3374,1.999,11.3374s7.99,3.8721,14.5684,1.9639,8.7851-4.6568,8.7851-4.6568l-3.291-5.3633C379.7539,243.2456,383.8916,234.292,385.19,228.0171Z" transform="translate(-73.5547 -86.125)"/><path class="cls-3" d="M379.7559,243.3511a57.8011,57.8011,0,0,1-8.5645,4.2334,16.0621,16.0621,0,0,0,7.666-2.1241Z" transform="translate(-73.5547 -86.125)"/><path class="cls-9" d="M363.167,198.6406s-.96,6.5034,1.3652,10.3169c0,0,.8731-2.5884,3.0723-2.0937,2.2139.498,2.3066,3.373.77,5.0029a3.2051,3.2051,0,0,1-3.249,1.041s-.3457,4.7-.5312,8.6406c-.1788,3.7974-1.2383,12.5284,3.1962,16.0391s15.5489,4.6958,20.7579-2.5859c2.8984-4.0513-.9522-11.2124-2.7422-19.2422-1.6465-7.3828-2.5733-18.3242-10.4073-20.08S363.167,198.6406,363.167,198.6406Z" transform="translate(-73.5547 -86.125)"/></g><g id="Cloud"><path class="cls-2" d="M391.9033,109.8252l-1.6513.9536a8.5589,8.5589,0,0,0,.2255-1.792c0-3.3452-2.3486-4.7012-5.2461-3.0283a9.38,9.38,0,0,0-2.333,2.0049l.001-.0249c0-4.5034-3.1611-6.3291-7.0615-4.0772a15.61,15.61,0,0,0-7.0625,12.232c0,.23.0137.4467.03.6621a4.3,4.3,0,0,0-2.8692.667,11.5942,11.5942,0,0,0-5.2461,9.0859,5.8582,5.8582,0,0,0,.1328,1.2612l-.88.5078c-2.3916,1.3809-4.33,4.0752-4.33,6.0181s1.9385,2.398,4.33,1.0176l31.96-18.4522c2.3916-1.3808,4.33-4.0752,4.33-6.018S394.2949,108.4443,391.9033,109.8252Z" transform="translate(-73.5547 -86.125)"/></g></svg>